<svg width="210" height="52" viewBox="0 0 210 52" fill="none" xmlns="http://www.w3.org/2000/svg">
<path d="M199.41 34.1674V17.7096H203.067V19.9871C203.688 18.9564 204.442 18.236 205.328 17.826C206.215 17.4048 207.155 17.2442 208.175 17.2442C208.507 17.2442 208.92 17.2442 209.224 17.2441C209.517 17.2441 209.694 17.2441 209.995 17.2441V21.0575C209.663 20.9578 208.892 20.8515 208.519 20.8515C208.175 20.7961 207.816 20.8515 207.473 20.8515C206.198 20.8515 205.145 21.245 204.314 22.0318C203.483 22.8076 203.067 23.866 203.067 25.207V34.1674H199.41Z" fill="#212121"/>
<path d="M186.821 34.6739C185.103 34.6739 183.568 34.2805 182.216 33.4936C180.875 32.6957 179.822 31.6373 179.057 30.3184C178.293 28.9885 177.91 27.5312 177.91 25.9463C177.91 24.7716 178.126 23.6633 178.558 22.6215C179.002 21.5687 179.622 20.6377 180.42 19.8287C181.229 19.0197 182.177 18.3824 183.263 17.917C184.349 17.4515 185.541 17.2188 186.837 17.2188C188.555 17.2188 190.084 17.6177 191.425 18.4157C192.778 19.2025 193.836 20.2609 194.601 21.5909C195.365 22.9097 195.748 24.3615 195.748 25.9463C195.748 27.11 195.526 28.2183 195.083 29.2711C194.651 30.324 194.035 31.2549 193.237 32.064C192.44 32.873 191.497 33.5102 190.411 33.9757C189.325 34.4412 188.128 34.6739 186.821 34.6739ZM186.821 31.4323C187.84 31.4323 188.743 31.2106 189.53 30.7673C190.328 30.3129 190.954 29.6757 191.409 28.8555C191.863 28.0354 192.09 27.0657 192.09 25.9463C192.09 24.827 191.863 23.8573 191.409 23.0371C190.954 22.2059 190.328 21.5687 189.53 21.1254C188.743 20.6821 187.84 20.4604 186.821 20.4604C185.801 20.4604 184.892 20.6821 184.094 21.1254C183.307 21.5687 182.687 22.2059 182.232 23.0371C181.789 23.8573 181.567 24.827 181.567 25.9463C181.567 27.0657 181.795 28.0354 182.249 28.8555C182.703 29.6757 183.324 30.3129 184.111 30.7673C184.909 31.2106 185.812 31.4323 186.821 31.4323Z" fill="#212121"/>
<path d="M172.035 34.669C170.428 34.669 169.143 34.2035 168.179 33.2726C167.215 32.3416 166.732 30.9175 166.732 29.0002V12.9082H170.39V17.7125H174.961V20.7381H170.39V28.2023C170.39 29.3549 170.606 30.1694 171.038 30.646C171.481 31.1115 172.102 31.3442 172.9 31.3442C173.288 31.3442 173.654 31.2999 173.997 31.2112C174.341 31.1225 174.651 31.0062 174.928 30.8621L175.576 33.8212C175.1 34.065 174.551 34.2645 173.931 34.4196C173.321 34.5859 172.689 34.669 172.035 34.669ZM163.125 20.7381V17.7125H167.215V20.7381H163.125Z" fill="#212121"/>
<path d="M156.395 41.1573V30.4681L157.143 31.2826C156.412 32.3355 155.497 33.1667 154.4 33.7762C153.303 34.3747 152.006 34.6739 150.51 34.6739C148.881 34.6739 147.44 34.286 146.188 33.5103C144.936 32.7234 143.96 31.6705 143.262 30.3517C142.564 29.0329 142.215 27.5644 142.215 25.9463C142.215 24.694 142.414 23.5359 142.813 22.4719C143.223 21.408 143.794 20.4826 144.526 19.6957C145.257 18.9089 146.127 18.2993 147.136 17.8671C148.144 17.4349 149.252 17.2188 150.46 17.2188C151.602 17.2188 152.61 17.3739 153.486 17.6842C154.361 17.9945 155.11 18.4268 155.73 18.9809C156.362 19.5239 156.877 20.1446 157.276 20.8428L156.744 21.674V17.7175H160.036V41.1573H156.395ZM151.125 31.4323C152.145 31.4323 153.048 31.2106 153.835 30.7673C154.633 30.3129 155.259 29.6757 155.714 28.8555C156.168 28.0354 156.395 27.0657 156.395 25.9463C156.395 24.827 156.168 23.8573 155.714 23.0371C155.259 22.2059 154.633 21.5687 153.835 21.1254C153.048 20.6821 152.145 20.4604 151.125 20.4604C150.117 20.4604 149.214 20.6821 148.416 21.1254C147.629 21.5687 147.008 22.2059 146.554 23.0371C146.099 23.8573 145.872 24.827 145.872 25.9463C145.872 27.0657 146.099 28.0354 146.554 28.8555C147.008 29.6757 147.629 30.3129 148.416 30.7673C149.202 31.2106 150.106 31.4323 151.125 31.4323Z" fill="#212121"/>
<path d="M129.865 34.6663C128.724 34.6663 127.721 34.4558 126.856 34.0346C125.992 33.6024 125.316 32.9984 124.828 32.2226C124.352 31.4358 124.113 30.5103 124.113 29.4464C124.113 28.5487 124.34 27.7397 124.795 27.0193C125.249 26.2879 125.953 25.6839 126.906 25.2073C127.87 24.7307 129.106 24.4149 130.613 24.2597C132.12 24.0935 133.933 24.1157 136.049 24.3262L136.116 26.8531C134.609 26.6425 133.312 26.5538 132.226 26.5871C131.14 26.6203 130.248 26.7589 129.549 27.0027C128.862 27.2354 128.352 27.5513 128.02 27.9503C127.699 28.3381 127.538 28.787 127.538 29.2968C127.538 30.0947 127.82 30.7098 128.386 31.1421C128.962 31.5743 129.749 31.7904 130.746 31.7904C131.6 31.7904 132.364 31.6352 133.04 31.3249C133.716 31.0146 134.248 30.5768 134.636 30.0116C135.035 29.4464 135.235 28.7815 135.235 28.0168V23.6446C135.235 22.9132 135.08 22.2815 134.769 21.7495C134.459 21.2065 133.988 20.7853 133.356 20.4861C132.724 20.1869 131.938 20.0372 130.996 20.0372C130.131 20.0372 129.278 20.1702 128.436 20.4362C127.593 20.6911 126.79 21.0956 126.025 21.6498L124.994 18.9567C126.025 18.2585 127.1 17.7653 128.219 17.4771C129.339 17.189 130.414 17.0449 131.444 17.0449C132.974 17.0449 134.282 17.2887 135.368 17.7764C136.465 18.2529 137.307 18.9788 137.895 19.9541C138.482 20.9183 138.776 22.1374 138.776 23.6114V34.1676H135.484V32.2226C134.93 33.0095 134.16 33.6135 133.173 34.0346C132.187 34.4558 131.084 34.6663 129.865 34.6663Z" fill="#212121"/>
<path d="M114.175 34.1697V15.0188C114.175 13.3786 114.646 12.0875 115.588 11.1455C116.542 10.2034 117.855 9.73242 119.528 9.73242C120.138 9.73242 120.692 9.79892 121.191 9.93191C121.7 10.0538 122.171 10.2311 122.604 10.4639L121.922 13.3564C121.601 13.1791 121.29 13.0572 120.991 12.9907C120.692 12.9242 120.398 12.891 120.11 12.891C119.434 12.891 118.88 13.0628 118.448 13.4063C118.027 13.7499 117.816 14.3373 117.816 15.1685V17.7119H122.138V20.7375H117.816V34.1697H114.175ZM110.867 20.7375V17.7119H114.657V20.7375H110.867Z" fill="#212121"/>
<path d="M105.196 34.669C103.589 34.669 102.303 34.2035 101.339 33.2726C100.375 32.3416 99.8926 30.9175 99.8926 29.0002V12.9082H103.55V17.7125H108.121V20.7381H103.55V28.2023C103.55 29.3549 103.766 30.1694 104.198 30.646C104.641 31.1115 105.262 31.3442 106.06 31.3442C106.448 31.3442 106.814 31.2999 107.157 31.2112C107.501 31.1225 107.811 31.0062 108.088 30.8621L108.737 33.8212C108.26 34.065 107.711 34.2645 107.091 34.4196C106.481 34.5859 105.849 34.669 105.196 34.669ZM96.2852 20.7381V17.7125H100.375V20.7381H96.2852Z" fill="#212121"/>
<path d="M85.8323 34.6739C84.1145 34.6739 82.5796 34.2805 81.2275 33.4936C79.8865 32.6957 78.8336 31.6373 78.0689 30.3184C77.3042 28.9885 76.9219 27.5312 76.9219 25.9463C76.9219 24.7716 77.138 23.6633 77.5702 22.6215C78.0135 21.5687 78.6341 20.6377 79.4321 19.8287C80.2411 19.0197 81.1887 18.3824 82.2748 17.917C83.3609 17.4515 84.5523 17.2188 85.849 17.2188C87.5668 17.2188 89.0962 17.6177 90.4372 18.4157C91.7893 19.2025 92.8477 20.2609 93.6124 21.5909C94.3771 22.9097 94.7594 24.3615 94.7594 25.9463C94.7594 27.11 94.5378 28.2183 94.0945 29.2711C93.6622 30.324 93.0471 31.2549 92.2492 32.064C91.4512 32.873 90.5092 33.5102 89.4231 33.9757C88.337 34.4412 87.1401 34.6739 85.8323 34.6739ZM85.8323 31.4323C86.8519 31.4323 87.7552 31.2106 88.542 30.7673C89.34 30.3129 89.9662 29.6757 90.4206 28.8555C90.8749 28.0354 91.1021 27.0657 91.1021 25.9463C91.1021 24.827 90.8749 23.8573 90.4206 23.0371C89.9662 22.2059 89.34 21.5687 88.542 21.1254C87.7552 20.6821 86.8519 20.4604 85.8323 20.4604C84.8127 20.4604 83.9039 20.6821 83.106 21.1254C82.3191 21.5687 81.6985 22.2059 81.2441 23.0371C80.8008 23.8573 80.5792 24.827 80.5792 25.9463C80.5792 27.0657 80.8063 28.0354 81.2607 28.8555C81.7151 29.6757 82.3358 30.3129 83.1226 30.7673C83.9206 31.2106 84.8238 31.4323 85.8323 31.4323Z" fill="#212121"/>
<path d="M66.259 34.6716C65.1618 34.6716 64.1699 34.5109 63.2833 34.1895C62.4078 33.8681 61.6486 33.4248 61.0058 32.8596C60.363 32.2833 59.8421 31.6239 59.4432 30.8814L59.9751 30.0668V34.1729H56.6836V10.2344H60.3242V21.5054L59.5762 20.6909C60.3076 19.6269 61.2219 18.7846 62.3191 18.164C63.4163 17.5323 64.713 17.2164 66.2091 17.2164C67.8494 17.2164 69.2901 17.6099 70.5314 18.3967C71.7837 19.1725 72.759 20.2198 73.4572 21.5387C74.1554 22.8575 74.5045 24.326 74.5045 25.944C74.5045 27.1964 74.2995 28.3545 73.8894 29.4184C73.4904 30.4824 72.9252 31.4078 72.1938 32.1947C71.4623 32.9704 70.5923 33.58 69.5838 34.0233C68.5753 34.4555 67.467 34.6716 66.259 34.6716ZM65.594 31.43C66.6026 31.43 67.5003 31.2083 68.2871 30.765C69.0851 30.3106 69.7112 29.6733 70.1656 28.8532C70.62 28.0331 70.8472 27.0634 70.8472 25.944C70.8472 24.8247 70.62 23.855 70.1656 23.0348C69.7223 22.2036 69.1017 21.5664 68.3038 21.1231C67.5169 20.6798 66.6136 20.4581 65.594 20.4581C64.5744 20.4581 63.6657 20.6798 62.8677 21.1231C62.0808 21.5664 61.4602 22.2036 61.0058 23.0348C60.5514 23.855 60.3242 24.8247 60.3242 25.944C60.3242 27.0634 60.5514 28.0331 61.0058 28.8532C61.4602 29.6733 62.0808 30.3106 62.8677 30.765C63.6657 31.2083 64.5744 31.43 65.594 31.43Z" fill="#212121"/>
<path fill-rule="evenodd" clip-rule="evenodd" d="M12.8135 32.2899C13.5862 32.5807 14.4507 32.7262 15.4069 32.7262C16.4597 32.7262 17.4256 32.5306 18.3046 32.1394C19.1836 31.7382 19.9418 31.1866 20.5793 30.4845C21.2168 29.7723 21.7094 28.9348 22.0571 27.972C22.4145 27.0091 22.5932 25.9609 22.5932 24.8275C22.5932 23.3632 22.2889 22.0342 21.6804 20.8406C21.0719 19.647 20.2219 18.6992 19.1304 17.9971C18.0486 17.285 16.793 16.9289 15.3634 16.9289C14.0595 16.9289 12.9294 17.2148 11.9732 17.7865C11.319 18.1707 10.7395 18.6488 10.2345 19.2207V3.59673L19.6763 0L39.3526 7.49546V17.5128H28.0116V15.1615C28.0116 14.3931 28.1755 13.85 28.5034 13.5324C28.8399 13.2148 29.2713 13.056 29.7976 13.056C30.0219 13.056 30.2506 13.0868 30.4835 13.1482C30.7165 13.2097 30.9581 13.3224 31.2083 13.4863L31.7389 10.8122C31.4024 10.5971 31.0357 10.4332 30.6388 10.3205C30.2506 10.1975 29.8192 10.136 29.3446 10.136C28.0418 10.136 27.0194 10.5715 26.2773 11.4423C25.544 12.3132 25.1773 13.5068 25.1773 15.0232V17.5128H22.6018V20.3099H25.1773V32.7275H28.0116V20.3099H39.3526V24.9805C39.3526 27.4042 38.838 29.6973 37.9753 31.8387L34.7805 28.6438L19.8746 44.2858L13.0657 38.7651L9.75326 42.9977L9.73334 43.001C4.84945 38.634 0 32.4244 0 24.9838V7.49546L7.06157 4.80544V32.2748H9.93028V30.0597C10.191 30.4293 10.4904 30.7715 10.8286 31.0863C11.3888 31.5978 12.0504 31.999 12.8135 32.2899ZM17.1745 29.1906C16.4887 29.5918 15.7063 29.7924 14.8274 29.7924C13.9388 29.7924 13.1467 29.5918 12.4513 29.1906C11.7655 28.7794 11.2246 28.2026 10.8286 27.4604C10.4325 26.7182 10.2345 25.8406 10.2345 24.8275C10.2345 23.8145 10.4325 22.9369 10.8286 22.1947C11.2246 21.4424 11.7655 20.8657 12.4513 20.4645C13.1467 20.0633 13.9388 19.8627 14.8274 19.8627C15.716 19.8627 16.5032 20.0633 17.189 20.4645C17.8844 20.8657 18.4253 21.4424 18.8117 22.1947C19.2077 22.9369 19.4057 23.8145 19.4057 24.8275C19.4057 25.8406 19.2077 26.7182 18.8117 27.4604C18.4157 28.2026 17.8699 28.7794 17.1745 29.1906Z" fill="#3D88C8"/>
<path d="M13.3594 41.5312L19.8919 46.8077L19.8919 51.7252L11.1193 44.4045L13.3594 41.5312Z" fill="#89C275"/>
<path d="M37.2607 33.8085L19.9125 51.7579L19.8624 46.8009L34.8324 31.3302L37.2607 33.8085Z" fill="#89C275"/>
</svg>
