<svg width="243" height="272" viewBox="0 0 243 272" fill="none" xmlns="http://www.w3.org/2000/svg">
<g clip-path="url(#clip0_2181_11849)">
<path d="M233.563 224.139L225.771 195.034L211.477 198.869L203.963 170.702L221.875 165.877L243 144.695L239.053 129.939L235.233 115.589L220.914 119.424L217.093 105.075L202.799 108.91L198.979 94.5599L184.66 98.4203L180.84 84.0706L166.545 87.9057L162.7 73.5559L148.406 77.391L144.586 63.0412L130.292 66.9017L126.446 52.5519L112.152 56.387L108.332 42.0373L94.0376 45.8723L90.1921 31.5226L75.898 35.383L72.0778 21.0079L57.7837 24.8683L53.9382 10.5186L39.644 14.3537L35.8238 0.00390625L21.0996 3.96596L0 25.1477L65.2217 269.551L79.9459 265.589L94.24 261.754L115.34 240.572L113.645 234.172L125.257 222.514L125.814 222.362L124.118 215.987L126.826 213.244L132.897 235.975L147.191 232.14L154.857 260.839L169.151 256.979L172.971 271.354L201.964 263.531L223.089 242.35L221.369 235.949L233.007 224.292L233.563 224.139Z" fill="black"/>
<path d="M175.121 246.615L160.827 250.451L153.161 221.751L138.867 225.586L131.201 196.861L114.681 213.446L116.3 219.516L104.232 231.631L105.927 238.031L89.862 254.159L71.2164 259.162L9.41016 27.6865L25.4752 11.5589L29.852 10.3906L33.6722 24.7404L47.9663 20.8799L51.8118 35.2551L66.1059 31.3946L69.9261 45.7444L84.2203 41.9093L88.0658 56.259L102.36 52.424L106.18 66.7737L120.474 62.9133L124.32 77.263L138.614 73.4279L142.434 87.7777L156.728 83.9426L160.574 98.2924L174.868 94.4319L178.688 108.782L192.982 104.947L196.828 119.296L211.122 115.461L214.942 129.811L229.261 125.951L233.562 142.154L217.522 158.282L193.615 164.708L205.505 209.255L219.799 205.42L224.05 221.294L211.957 233.434L213.677 239.809L197.612 255.936L178.941 260.965L175.121 246.615Z" fill="white"/>
<path d="M220.763 119.678L216.943 105.328L202.649 109.164L198.828 94.8138L184.534 98.6489L180.714 84.2991L166.42 88.1342L162.6 73.7844L148.306 77.6195L144.485 63.2697L130.191 67.1048L126.371 52.755L112.077 56.5901L108.257 42.2404L93.9627 46.0754L90.1425 31.7257L75.8483 35.5607L72.0282 21.211L57.734 25.0461L53.9138 10.6963L39.6197 14.5314L35.673 0.257812L21.3789 4.09288L86.4994 248.089L100.793 244.254L115.088 240.419L111.267 226.07L125.562 222.235L121.741 207.885L136.035 204.05L132.215 189.7L146.509 185.865L154.175 214.564L168.469 210.729L176.135 239.429L190.429 235.594L194.249 249.944L222.837 242.248L219.017 227.898L233.311 224.063L225.646 195.364L211.352 199.199L203.686 170.499L189.392 174.334L185.572 159.985L242.748 144.593L238.928 130.244L235.108 115.894L220.813 119.729L220.763 119.678Z" fill="white"/>
<path d="M35.6806 0.26001L21.3848 4.10547L86.5106 248.105L100.806 244.259L35.6806 0.26001Z" fill="black"/>
<path d="M53.7997 10.7913L39.5039 14.6367L43.3345 28.9882L57.6303 25.1427L53.7997 10.7913Z" fill="black"/>
<path d="M71.9013 21.2717L57.6055 25.1172L61.436 39.4686L75.7318 35.6232L71.9013 21.2717Z" fill="black"/>
<path d="M90.0575 31.7952L75.7617 35.6406L79.5923 49.9921L93.8881 46.1466L90.0575 31.7952Z" fill="black"/>
<path d="M108.19 42.2913L93.8945 46.1367L97.7251 60.4882L112.021 56.6427L108.19 42.2913Z" fill="black"/>
<path d="M126.292 52.7952L111.996 56.6406L115.827 70.9921L130.122 67.1466L126.292 52.7952Z" fill="black"/>
<path d="M144.45 63.2952L130.154 67.1406L133.985 81.4921L148.281 77.6466L144.45 63.2952Z" fill="black"/>
<path d="M162.559 73.8264L148.264 77.6719L152.094 92.0233L166.39 88.1779L162.559 73.8264Z" fill="black"/>
<path d="M180.692 84.3186L166.396 88.1641L170.227 102.516L184.523 98.67L180.692 84.3186Z" fill="black"/>
<path d="M198.817 94.8264L184.521 98.6719L188.352 113.023L202.648 109.178L198.817 94.8264Z" fill="black"/>
<path d="M216.959 105.304L202.664 109.152L206.497 123.503L220.792 119.655L216.959 105.304Z" fill="black"/>
<path d="M235.059 115.854L220.764 119.699L224.594 134.051L238.89 130.205L235.059 115.854Z" fill="black"/>
<path d="M238.883 130.198L167.404 149.426L171.235 163.777L242.714 144.55L238.883 130.198Z" fill="black"/>
<path d="M185.573 159.924L171.277 163.77L175.108 178.121L189.404 174.276L185.573 159.924Z" fill="black"/>
<path d="M142.647 171.471L128.352 175.316L132.182 189.668L146.478 185.822L142.647 171.471Z" fill="black"/>
<path d="M160.774 181.983L146.479 185.828L154.14 214.531L168.435 210.686L160.774 181.983Z" fill="black"/>
<path d="M182.749 206.823L168.453 210.668L176.114 239.371L190.41 235.525L182.749 206.823Z" fill="black"/>
<path d="M218.996 227.829L190.404 235.52L194.235 249.871L222.826 242.18L218.996 227.829Z" fill="black"/>
<path d="M203.671 170.424L189.375 174.27L197.036 202.972L211.332 199.127L203.671 170.424Z" fill="black"/>
<path d="M225.629 195.309L211.332 199.152L218.988 227.857L233.285 224.014L225.629 195.309Z" fill="black"/>
<path d="M132.184 189.666L117.889 193.512L121.719 207.863L136.015 204.018L132.184 189.666Z" fill="black"/>
<path d="M121.727 207.873L107.432 211.719L111.262 226.07L125.558 222.225L121.727 207.873Z" fill="black"/>
<path d="M111.239 226.076L96.9434 229.922L100.774 244.273L115.07 240.428L111.239 226.076Z" fill="black"/>
</g>
<defs>
<clipPath id="clip0_2181_11849">
<rect width="243" height="271.35" fill="white"/>
</clipPath>
</defs>
</svg>
