<svg width="36" height="36" viewBox="0 0 36 36" fill="none" xmlns="http://www.w3.org/2000/svg">
<mask id="mask0_2181_11743" style="mask-type:luminance" maskUnits="userSpaceOnUse" x="0" y="0" width="36" height="36">
<path d="M36 0H0V36H36V0Z" fill="white"/>
</mask>
<g mask="url(#mask0_2181_11743)">
<path d="M14.8958 27.6944L19.5123 23.2027L14.8958 18.7109L10.2793 23.2027L14.8958 27.6944Z" fill="#111111"/>
<path d="M14.9258 8.45197L18.4181 5.05411L14.9258 1.65625L11.4336 5.05411L14.9258 8.45197Z" fill="#111111"/>
<path d="M5.61452 27.667L10.231 23.1753L5.61452 18.6836L0.998047 23.1753L5.61452 27.667Z" fill="#111111"/>
<path d="M5.61452 9.54592L10.231 5.05421L5.61452 0.5625L0.998047 5.05421L5.61452 9.54592Z" fill="#111111"/>
<path d="M14.8956 35.4378L18.1096 32.3107L14.8956 29.1836L11.6816 32.3107L14.8956 35.4378Z" fill="#111111"/>
<path d="M14.8959 17.5563L18.3877 14.159L14.8959 10.7617L11.4043 14.159L14.8959 17.5563Z" fill="#111111"/>
<path d="M5.61395 35.2923L8.75718 32.234L5.61395 29.1758L2.4707 32.234L5.61395 35.2923Z" fill="#111111"/>
<path d="M5.61452 18.6084L10.231 14.1167L5.61452 9.625L0.998047 14.1167L5.61452 18.6084Z" fill="#111111"/>
<path d="M24.176 24.3709L25.3402 23.2383L24.176 22.1055L23.0117 23.2383L24.176 24.3709Z" fill="#111111"/>
<path d="M24.1759 7.38219L26.5041 5.11687L24.1759 2.85156L21.8477 5.11687L24.1759 7.38219Z" fill="#111111"/>
<path d="M33.5119 24.3709L34.6761 23.2383L33.5119 22.1055L32.3477 23.2383L33.5119 24.3709Z" fill="#111111"/>
<path d="M28.8556 28.8749L30.0199 27.7421L28.8556 26.6094L27.6914 27.7421L28.8556 28.8749Z" fill="#111111"/>
<path d="M20.7072 28.8749L21.8714 27.7421L20.7072 26.6094L19.543 27.7421L20.7072 28.8749Z" fill="#111111"/>
<path d="M33.5142 7.35698L35.8175 5.11599L33.5142 2.875L31.2109 5.11599L33.5142 7.35698Z" fill="#111111"/>
<path d="M24.176 33.4061L25.3402 32.2733L24.176 31.1406L23.0117 32.2733L24.176 33.4061Z" fill="#111111"/>
<path d="M24.1755 16.4426L26.5287 14.153L24.1755 11.8633L21.8223 14.153L24.1755 16.4426Z" fill="#111111"/>
<path d="M33.5119 33.4061L34.6761 32.2733L33.5119 31.1406L32.3477 32.2733L33.5119 33.4061Z" fill="#111111"/>
<path d="M33.5118 16.4173L35.8401 14.1521L33.5118 11.8867L31.1836 14.1521L33.5118 16.4173Z" fill="#111111"/>
<path d="M28.8556 11.8861L31.1838 9.62078L28.8556 7.35547L26.5273 9.62078L28.8556 11.8861Z" fill="#111111"/>
<path d="M28.8556 20.9486L31.1838 18.6833L28.8556 16.418L26.5273 18.6833L28.8556 20.9486Z" fill="#111111"/>
<path d="M20.7071 20.9486L23.0354 18.6833L20.7071 16.418L18.3789 18.6833L20.7071 20.9486Z" fill="#111111"/>
<path d="M19.5431 11.8861L21.8713 9.62078L19.5431 7.35547L17.2148 9.62078L19.5431 11.8861Z" fill="#111111"/>
</g>
</svg>
