<svg width="368" height="200" viewBox="0 0 368 200" fill="none" xmlns="http://www.w3.org/2000/svg">
<g filter="url(#filter0_d_85_190)">
<rect x="20" y="20" width="328" height="160" rx="20" fill="white"/>
<rect x="35" y="35" width="144" height="31" rx="15.5" fill="#2CA9DB"/>
<path d="M59.9159 50.5455C59.9159 51.7102 59.7029 52.7116 59.2767 53.5497C58.8506 54.3842 58.2664 55.027 57.5242 55.478C56.7856 55.9254 55.9458 56.1491 55.0047 56.1491C54.0601 56.1491 53.2167 55.9254 52.4745 55.478C51.7359 55.027 51.1535 54.3825 50.7274 53.5444C50.3012 52.7063 50.0882 51.7067 50.0882 50.5455C50.0882 49.3807 50.3012 48.381 50.7274 47.5465C51.1535 46.7085 51.7359 46.0657 52.4745 45.6183C53.2167 45.1673 54.0601 44.9418 55.0047 44.9418C55.9458 44.9418 56.7856 45.1673 57.5242 45.6183C58.2664 46.0657 58.8506 46.7085 59.2767 47.5465C59.7029 48.381 59.9159 49.3807 59.9159 50.5455ZM58.286 50.5455C58.286 49.6577 58.1421 48.9102 57.8545 48.3029C57.5704 47.6921 57.1798 47.2305 56.6826 46.918C56.189 46.6019 55.6297 46.4439 55.0047 46.4439C54.3762 46.4439 53.8151 46.6019 53.3215 46.918C52.8279 47.2305 52.4372 47.6921 52.1496 48.3029C51.8655 48.9102 51.7235 49.6577 51.7235 50.5455C51.7235 51.4332 51.8655 52.1825 52.1496 52.7933C52.4372 53.4006 52.8279 53.8622 53.3215 54.1783C53.8151 54.4908 54.3762 54.647 55.0047 54.647C55.6297 54.647 56.189 54.4908 56.6826 54.1783C57.1798 53.8622 57.5704 53.4006 57.8545 52.7933C58.1421 52.1825 58.286 51.4332 58.286 50.5455ZM61.3821 49.1925V47.8182H68.2855V49.1925H65.6168V56H64.0614V49.1925H61.3821ZM76.157 47.8182V56H74.6017V47.8182H76.157ZM75.4806 51.6161V52.9904C75.2355 53.0898 74.9763 53.1786 74.7029 53.2567C74.4294 53.3313 74.1418 53.3899 73.8399 53.4325C73.5381 53.4751 73.2238 53.4964 72.8971 53.4964C71.885 53.4964 71.0807 53.2496 70.4841 52.756C69.8875 52.2589 69.5892 51.4989 69.5892 50.4762V47.8022H71.1393V50.4762C71.1393 50.8633 71.2103 51.1776 71.3524 51.419C71.4944 51.6605 71.6968 51.8381 71.9596 51.9517C72.2224 52.0653 72.5349 52.1222 72.8971 52.1222C73.3765 52.1222 73.8186 52.0778 74.2235 51.989C74.6318 51.8967 75.0509 51.7724 75.4806 51.6161ZM81.802 56.1651C80.9959 56.1651 80.3017 55.9929 79.7193 55.6484C79.1404 55.3004 78.693 54.8121 78.377 54.1836C78.0645 53.5515 77.9082 52.8111 77.9082 51.9624C77.9082 51.1243 78.0645 50.3857 78.377 49.7464C78.693 49.1072 79.1333 48.6083 79.698 48.2496C80.2662 47.891 80.9302 47.7116 81.6902 47.7116C82.1518 47.7116 82.5993 47.788 83.0325 47.9407C83.4657 48.0934 83.8546 48.3331 84.199 48.6598C84.5435 48.9865 84.8152 49.4109 85.014 49.9329C85.2129 50.4513 85.3123 51.0817 85.3123 51.8239V52.3885H78.8084V51.1953H83.7516C83.7516 50.7763 83.6664 50.4052 83.4959 50.082C83.3255 49.7553 83.0858 49.4979 82.7768 49.3097C82.4714 49.1214 82.1127 49.0273 81.7008 49.0273C81.2534 49.0273 80.8627 49.1374 80.5289 49.3576C80.1987 49.5742 79.943 49.8583 79.7619 50.2099C79.5843 50.5579 79.4956 50.9361 79.4956 51.3445V52.2766C79.4956 52.8235 79.5914 53.2887 79.7832 53.6722C79.9785 54.0558 80.2502 54.3487 80.5982 54.5511C80.9462 54.75 81.3528 54.8494 81.818 54.8494C82.1199 54.8494 82.3951 54.8068 82.6436 54.7216C82.8922 54.6328 83.1071 54.5014 83.2882 54.3274C83.4693 54.1534 83.6078 53.9386 83.7037 53.6829L85.2111 53.9545C85.0904 54.3984 84.8738 54.7873 84.5613 55.1211C84.2523 55.4513 83.8635 55.7088 83.3947 55.8935C82.9295 56.0746 82.3986 56.1651 81.802 56.1651ZM80.0655 46.5344C79.8134 46.5344 79.5932 46.4421 79.405 46.2575C79.2168 46.0692 79.1227 45.8526 79.1227 45.6076C79.1227 45.3413 79.2168 45.1193 79.405 44.9418C79.5932 44.7642 79.8134 44.6754 80.0655 44.6754C80.3319 44.6754 80.5538 44.7642 80.7314 44.9418C80.9125 45.1193 81.003 45.3413 81.003 45.6076C81.003 45.8526 80.9125 46.0692 80.7314 46.2575C80.5538 46.4421 80.3319 46.5344 80.0655 46.5344ZM83.1976 46.5344C82.9455 46.5344 82.7253 46.4421 82.5371 46.2575C82.3489 46.0692 82.2548 45.8526 82.2548 45.6076C82.2548 45.3413 82.3489 45.1193 82.5371 44.9418C82.7253 44.7642 82.9455 44.6754 83.1976 44.6754C83.464 44.6754 83.6859 44.7642 83.8635 44.9418C84.0446 45.1193 84.1351 45.3413 84.1351 45.6076C84.1351 45.8526 84.0446 46.0692 83.8635 46.2575C83.6859 46.4421 83.464 46.5344 83.1976 46.5344ZM86.3577 49.1925V47.8182H93.2611V49.1925H90.5924V56H89.037V49.1925H86.3577ZM98.9154 56V47.8182H105.59V56H104.029V49.1925H100.465V56H98.9154ZM111.165 56.1651C110.398 56.1651 109.729 55.9893 109.157 55.6378C108.586 55.2862 108.142 54.7944 107.826 54.1623C107.51 53.5302 107.352 52.7915 107.352 51.9464C107.352 51.0977 107.51 50.3555 107.826 49.7198C108.142 49.0842 108.586 48.5906 109.157 48.239C109.729 47.8874 110.398 47.7116 111.165 47.7116C111.933 47.7116 112.602 47.8874 113.174 48.239C113.745 48.5906 114.189 49.0842 114.505 49.7198C114.821 50.3555 114.979 51.0977 114.979 51.9464C114.979 52.7915 114.821 53.5302 114.505 54.1623C114.189 54.7944 113.745 55.2862 113.174 55.6378C112.602 55.9893 111.933 56.1651 111.165 56.1651ZM111.171 54.8281C111.668 54.8281 112.08 54.6967 112.407 54.4339C112.733 54.1712 112.975 53.8214 113.131 53.3846C113.291 52.9478 113.371 52.4666 113.371 51.9411C113.371 51.419 113.291 50.9396 113.131 50.5028C112.975 50.0625 112.733 49.7092 112.407 49.4428C112.08 49.1765 111.668 49.0433 111.171 49.0433C110.67 49.0433 110.255 49.1765 109.924 49.4428C109.598 49.7092 109.354 50.0625 109.195 50.5028C109.038 50.9396 108.96 51.419 108.96 51.9411C108.96 52.4666 109.038 52.9478 109.195 53.3846C109.354 53.8214 109.598 54.1712 109.924 54.4339C110.255 54.6967 110.67 54.8281 111.171 54.8281ZM127.039 44.7713L127.7 45.7781C127.455 46.0018 127.176 46.1616 126.863 46.2575C126.554 46.3498 126.197 46.4084 125.793 46.4332C125.388 46.4545 124.924 46.4741 124.402 46.4918C123.813 46.5096 123.328 46.6374 122.948 46.8754C122.568 47.1097 122.275 47.4577 122.069 47.9194C121.867 48.3775 121.735 48.9528 121.675 49.6452H121.776C122.043 49.1374 122.412 48.7575 122.884 48.5053C123.36 48.2532 123.895 48.1271 124.488 48.1271C125.148 48.1271 125.736 48.2781 126.251 48.5799C126.766 48.8817 127.17 49.3239 127.465 49.9062C127.763 50.4851 127.913 51.1935 127.913 52.0316C127.913 52.8803 127.756 53.6136 127.444 54.2315C127.135 54.8494 126.698 55.3271 126.134 55.6644C125.572 55.9982 124.91 56.1651 124.147 56.1651C123.383 56.1651 122.717 55.9929 122.149 55.6484C121.585 55.3004 121.146 54.7855 120.833 54.1037C120.525 53.4219 120.37 52.5803 120.37 51.5788V50.7692C120.37 48.8977 120.704 47.4897 121.371 46.5451C122.039 45.6005 123.037 45.1158 124.365 45.0909C124.795 45.0803 125.178 45.0785 125.516 45.0856C125.853 45.0891 126.148 45.0732 126.4 45.0376C126.656 44.9986 126.869 44.9098 127.039 44.7713ZM124.152 54.8281C124.596 54.8281 124.978 54.7163 125.297 54.4925C125.62 54.2653 125.869 53.9439 126.043 53.5284C126.217 53.1129 126.304 52.6229 126.304 52.0582C126.304 51.5043 126.217 51.0337 126.043 50.6467C125.869 50.2596 125.62 49.9648 125.297 49.7624C124.974 49.5565 124.587 49.4535 124.136 49.4535C123.802 49.4535 123.504 49.5121 123.241 49.6293C122.978 49.7429 122.753 49.9116 122.565 50.1353C122.38 50.359 122.236 50.6325 122.133 50.9556C122.034 51.2752 121.98 51.6428 121.973 52.0582C121.973 52.9034 122.167 53.5763 122.554 54.0771C122.945 54.5778 123.477 54.8281 124.152 54.8281ZM133.138 56.1651C132.371 56.1651 131.702 55.9893 131.13 55.6378C130.558 55.2862 130.114 54.7944 129.798 54.1623C129.482 53.5302 129.324 52.7915 129.324 51.9464C129.324 51.0977 129.482 50.3555 129.798 49.7198C130.114 49.0842 130.558 48.5906 131.13 48.239C131.702 47.8874 132.371 47.7116 133.138 47.7116C133.905 47.7116 134.575 47.8874 135.146 48.239C135.718 48.5906 136.162 49.0842 136.478 49.7198C136.794 50.3555 136.952 51.0977 136.952 51.9464C136.952 52.7915 136.794 53.5302 136.478 54.1623C136.162 54.7944 135.718 55.2862 135.146 55.6378C134.575 55.9893 133.905 56.1651 133.138 56.1651ZM133.143 54.8281C133.641 54.8281 134.053 54.6967 134.379 54.4339C134.706 54.1712 134.947 53.8214 135.104 53.3846C135.263 52.9478 135.343 52.4666 135.343 51.9411C135.343 51.419 135.263 50.9396 135.104 50.5028C134.947 50.0625 134.706 49.7092 134.379 49.4428C134.053 49.1765 133.641 49.0433 133.143 49.0433C132.643 49.0433 132.227 49.1765 131.897 49.4428C131.57 49.7092 131.327 50.0625 131.167 50.5028C131.011 50.9396 130.933 51.419 130.933 51.9411C130.933 52.4666 131.011 52.9478 131.167 53.3846C131.327 53.8214 131.57 54.1712 131.897 54.4339C132.227 54.6967 132.643 54.8281 133.143 54.8281ZM137.744 49.1925V47.8182H144.648V49.1925H141.979V56H140.424V49.1925H137.744ZM148.333 56.1811C147.814 56.1811 147.345 56.0852 146.926 55.8935C146.507 55.6982 146.175 55.4158 145.93 55.0465C145.689 54.6772 145.568 54.2244 145.568 53.6882C145.568 53.2266 145.657 52.8466 145.834 52.5483C146.012 52.25 146.252 52.0138 146.553 51.8398C146.855 51.6658 147.193 51.5344 147.566 51.4457C147.938 51.3569 148.318 51.2894 148.705 51.2433C149.195 51.1864 149.593 51.1403 149.899 51.1048C150.204 51.0657 150.426 51.0036 150.564 50.9183C150.703 50.8331 150.772 50.6946 150.772 50.5028V50.4656C150.772 50.0004 150.641 49.6399 150.378 49.3842C150.119 49.1286 149.732 49.0007 149.217 49.0007C148.681 49.0007 148.258 49.1197 147.949 49.3576C147.644 49.592 147.432 49.853 147.315 50.1406L145.818 49.7997C145.996 49.3026 146.255 48.9013 146.596 48.5959C146.941 48.2869 147.336 48.0632 147.784 47.9247C148.231 47.7827 148.702 47.7116 149.195 47.7116C149.522 47.7116 149.868 47.7507 150.234 47.8288C150.604 47.9034 150.948 48.0419 151.268 48.2443C151.591 48.4467 151.855 48.7362 152.061 49.1126C152.267 49.4854 152.37 49.9702 152.37 50.5668V56H150.815V54.8814H150.751C150.648 55.0874 150.493 55.2898 150.287 55.4886C150.081 55.6875 149.817 55.8526 149.494 55.984C149.171 56.1154 148.784 56.1811 148.333 56.1811ZM148.679 54.9027C149.119 54.9027 149.496 54.8157 149.808 54.6417C150.124 54.4677 150.364 54.2404 150.527 53.9599C150.694 53.6758 150.778 53.3722 150.778 53.049V51.9943C150.721 52.0511 150.611 52.1044 150.447 52.1541C150.287 52.2003 150.105 52.2411 149.899 52.2766C149.693 52.3086 149.492 52.3388 149.297 52.3672C149.101 52.392 148.938 52.4134 148.807 52.4311C148.498 52.4702 148.215 52.5359 147.96 52.6282C147.708 52.7205 147.505 52.8537 147.352 53.0277C147.203 53.1982 147.129 53.4254 147.129 53.7095C147.129 54.1037 147.274 54.402 147.566 54.6044C147.857 54.8033 148.228 54.9027 148.679 54.9027ZM159.083 54.0291L161.725 47.8182H163.1L159.674 56H158.492L155.136 47.8182H156.494L159.083 54.0291ZM156.052 47.8182V56H154.492V47.8182H156.052ZM162.157 56V47.8182H163.707V56H162.157Z" fill="white"/>
<circle cx="70.4032" cy="112.403" r="30.4032" fill="#F1C3C3"/>
<path d="M70.5652 91.0562C64.7048 91.0562 59.3919 93.3999 55.5127 97.2013" stroke="#E26666" stroke-width="17.7579"/>
<circle cx="70.2551" cy="112.254" r="16.8439" fill="white"/>
<path d="M61.7802 154.697V155.674H58.4745V161.807H57.2538V154.697H61.7802ZM58.1034 157.427H59.8905C60.4309 157.427 60.8931 157.518 61.2772 157.7C61.6614 157.879 61.9543 158.132 62.1562 158.457C62.358 158.783 62.4589 159.162 62.4589 159.595C62.4589 159.92 62.4019 160.218 62.288 160.488C62.1741 160.758 62.0064 160.993 61.7851 161.191C61.5637 161.387 61.2935 161.538 60.9745 161.646C60.6588 161.753 60.2974 161.807 59.8905 161.807H57.2538V154.697H58.4843V160.835H59.8905C60.1998 160.835 60.4537 160.778 60.6522 160.664C60.8508 160.547 60.9973 160.394 61.0917 160.205C61.1894 160.016 61.2382 159.81 61.2382 159.585C61.2382 159.367 61.1894 159.168 61.0917 158.989C60.9973 158.81 60.8508 158.667 60.6522 158.56C60.4537 158.452 60.1998 158.398 59.8905 158.398H58.1034V157.427ZM69.2313 158.057V158.447C69.2313 158.984 69.1614 159.466 69.0214 159.893C68.8814 160.319 68.6812 160.682 68.4208 160.981C68.1636 161.281 67.8544 161.51 67.4931 161.67C67.1317 161.826 66.7313 161.904 66.2919 161.904C65.8557 161.904 65.4569 161.826 65.0956 161.67C64.7375 161.51 64.4267 161.281 64.163 160.981C63.8993 160.682 63.6942 160.319 63.5478 159.893C63.4045 159.466 63.3329 158.984 63.3329 158.447V158.057C63.3329 157.52 63.4045 157.039 63.5478 156.616C63.691 156.19 63.8928 155.827 64.1532 155.527C64.4169 155.225 64.7278 154.995 65.0858 154.839C65.4472 154.679 65.8459 154.6 66.2821 154.6C66.7216 154.6 67.122 154.679 67.4833 154.839C67.8446 154.995 68.1555 155.225 68.4159 155.527C68.6763 155.827 68.8765 156.19 69.0165 156.616C69.1597 157.039 69.2313 157.52 69.2313 158.057ZM68.0058 158.447V158.047C68.0058 157.65 67.9667 157.3 67.8886 156.997C67.8137 156.691 67.7014 156.436 67.5517 156.23C67.4052 156.022 67.2245 155.866 67.0097 155.762C66.7948 155.654 66.5523 155.601 66.2821 155.601C66.0119 155.601 65.7711 155.654 65.5595 155.762C65.3479 155.866 65.1672 156.022 65.0175 156.23C64.871 156.436 64.7587 156.691 64.6806 156.997C64.6024 157.3 64.5634 157.65 64.5634 158.047V158.447C64.5634 158.844 64.6024 159.196 64.6806 159.502C64.7587 159.808 64.8726 160.067 65.0224 160.278C65.1754 160.487 65.3577 160.645 65.5692 160.752C65.7808 160.856 66.0217 160.908 66.2919 160.908C66.5653 160.908 66.8078 160.856 67.0194 160.752C67.231 160.645 67.4101 160.487 67.5565 160.278C67.703 160.067 67.8137 159.808 67.8886 159.502C67.9667 159.196 68.0058 158.844 68.0058 158.447ZM73.1376 154.697V161.807H71.9218V154.697H73.1376ZM75.369 154.697V155.674H69.7099V154.697H75.369ZM77.1757 157.427H78.9677C79.508 157.427 79.9687 157.518 80.3495 157.7C80.7336 157.879 81.0266 158.132 81.2284 158.457C81.4335 158.783 81.536 159.162 81.536 159.595C81.536 159.92 81.4774 160.218 81.3603 160.488C81.2463 160.758 81.0787 160.993 80.8573 161.191C80.636 161.387 80.3658 161.538 80.0468 161.646C79.731 161.753 79.3713 161.807 78.9677 161.807H76.331V154.697H77.5565V160.835H78.9677C79.2769 160.835 79.5308 160.778 79.7294 160.664C79.928 160.547 80.0744 160.394 80.1688 160.205C80.2665 160.016 80.3153 159.81 80.3153 159.585C80.3153 159.367 80.2665 159.168 80.1688 158.989C80.0744 158.81 79.928 158.667 79.7294 158.56C79.5308 158.452 79.2769 158.398 78.9677 158.398H77.1757V157.427ZM83.494 154.697V161.807H82.2685V154.697H83.494Z" fill="#2C2C2C"/>
<circle cx="184.145" cy="112.403" r="30.4032" fill="#FEE7BA"/>
<path d="M166.977 124.593C164.364 120.925 162.985 116.522 163.039 112.019C163.092 107.516 164.575 103.147 167.273 99.5417C169.971 95.9365 173.745 93.2821 178.051 91.9616C182.356 90.6412 186.969 90.723 191.225 92.1953" stroke="#EFB503" stroke-width="18.5551"/>
<circle cx="184.687" cy="112.364" r="18.7097" fill="white"/>
<path d="M143.493 154.697V161.807H142.272V155.674H139.113V161.807H137.893V154.697H143.493ZM150.637 158.057V158.447C150.637 158.984 150.567 159.466 150.427 159.893C150.287 160.319 150.087 160.682 149.826 160.981C149.569 161.281 149.26 161.51 148.898 161.67C148.537 161.826 148.137 161.904 147.697 161.904C147.261 161.904 146.862 161.826 146.501 161.67C146.143 161.51 145.832 161.281 145.568 160.981C145.305 160.682 145.1 160.319 144.953 159.893C144.81 159.466 144.738 158.984 144.738 158.447V158.057C144.738 157.52 144.81 157.039 144.953 156.616C145.096 156.19 145.298 155.827 145.559 155.527C145.822 155.225 146.133 154.995 146.491 154.839C146.853 154.679 147.251 154.6 147.688 154.6C148.127 154.6 148.527 154.679 148.889 154.839C149.25 154.995 149.561 155.225 149.821 155.527C150.082 155.827 150.282 156.19 150.422 156.616C150.565 157.039 150.637 157.52 150.637 158.057ZM149.411 158.447V158.047C149.411 157.65 149.372 157.3 149.294 156.997C149.219 156.691 149.107 156.436 148.957 156.23C148.811 156.022 148.63 155.866 148.415 155.762C148.2 155.654 147.958 155.601 147.688 155.601C147.417 155.601 147.176 155.654 146.965 155.762C146.753 155.866 146.573 156.022 146.423 156.23C146.276 156.436 146.164 156.691 146.086 156.997C146.008 157.3 145.969 157.65 145.969 158.047V158.447C145.969 158.844 146.008 159.196 146.086 159.502C146.164 159.808 146.278 160.067 146.428 160.278C146.581 160.487 146.763 160.645 146.975 160.752C147.186 160.856 147.427 160.908 147.697 160.908C147.971 160.908 148.213 160.856 148.425 160.752C148.636 160.645 148.815 160.487 148.962 160.278C149.108 160.067 149.219 159.808 149.294 159.502C149.372 159.196 149.411 158.844 149.411 158.447ZM157.312 160.835V161.807H152.072V160.835H157.312ZM152.375 160.835V163.555H151.203L151.159 160.835H152.375ZM158.259 160.835L158.186 163.55H157.033V160.835H158.259ZM156.452 154.697V155.674H153.171V154.697H156.452ZM157.39 154.697V161.807H156.169V154.697H157.39ZM152.927 154.697H154.152L153.981 157.578C153.955 158.034 153.908 158.444 153.84 158.809C153.771 159.173 153.688 159.5 153.591 159.79C153.496 160.076 153.389 160.33 153.269 160.552C153.148 160.77 153.02 160.959 152.883 161.118C152.746 161.278 152.606 161.414 152.463 161.528C152.323 161.639 152.185 161.732 152.048 161.807H151.394V160.835H151.711C151.799 160.754 151.896 160.636 152.004 160.483C152.111 160.327 152.215 160.124 152.316 159.873C152.421 159.619 152.512 159.305 152.59 158.931C152.668 158.556 152.722 158.105 152.751 157.578L152.927 154.697ZM164.738 158.057V158.447C164.738 158.984 164.668 159.466 164.528 159.893C164.388 160.319 164.188 160.682 163.928 160.981C163.671 161.281 163.361 161.51 163 161.67C162.639 161.826 162.238 161.904 161.799 161.904C161.363 161.904 160.964 161.826 160.603 161.67C160.244 161.51 159.934 161.281 159.67 160.981C159.406 160.682 159.201 160.319 159.055 159.893C158.911 159.466 158.84 158.984 158.84 158.447V158.057C158.84 157.52 158.911 157.039 159.055 156.616C159.198 156.19 159.4 155.827 159.66 155.527C159.924 155.225 160.235 154.995 160.593 154.839C160.954 154.679 161.353 154.6 161.789 154.6C162.229 154.6 162.629 154.679 162.99 154.839C163.352 154.995 163.662 155.225 163.923 155.527C164.183 155.827 164.383 156.19 164.523 156.616C164.667 157.039 164.738 157.52 164.738 158.057ZM163.513 158.447V158.047C163.513 157.65 163.474 157.3 163.396 156.997C163.321 156.691 163.208 156.436 163.059 156.23C162.912 156.022 162.731 155.866 162.517 155.762C162.302 155.654 162.059 155.601 161.789 155.601C161.519 155.601 161.278 155.654 161.066 155.762C160.855 155.866 160.674 156.022 160.524 156.23C160.378 156.436 160.266 156.691 160.188 156.997C160.109 157.3 160.07 157.65 160.07 158.047V158.447C160.07 158.844 160.109 159.196 160.188 159.502C160.266 159.808 160.38 160.067 160.529 160.278C160.682 160.487 160.865 160.645 161.076 160.752C161.288 160.856 161.529 160.908 161.799 160.908C162.072 160.908 162.315 160.856 162.526 160.752C162.738 160.645 162.917 160.487 163.063 160.278C163.21 160.067 163.321 159.808 163.396 159.502C163.474 159.196 163.513 158.844 163.513 158.447ZM168.664 159.155H166.813V158.184H168.664C168.986 158.184 169.247 158.132 169.445 158.027C169.644 157.923 169.789 157.78 169.88 157.598C169.974 157.412 170.021 157.201 170.021 156.963C170.021 156.738 169.974 156.528 169.88 156.333C169.789 156.134 169.644 155.975 169.445 155.854C169.247 155.734 168.986 155.674 168.664 155.674H167.189V161.807H165.964V154.697H168.664C169.214 154.697 169.681 154.795 170.065 154.99C170.453 155.182 170.747 155.449 170.949 155.791C171.151 156.13 171.252 156.517 171.252 156.953C171.252 157.412 171.151 157.806 170.949 158.135C170.747 158.464 170.453 158.716 170.065 158.892C169.681 159.067 169.214 159.155 168.664 159.155ZM174.787 158.398H173.801V157.7H174.65C174.953 157.7 175.199 157.656 175.388 157.568C175.576 157.477 175.713 157.352 175.798 157.192C175.886 157.03 175.93 156.841 175.93 156.626C175.93 156.434 175.881 156.258 175.783 156.099C175.689 155.939 175.542 155.812 175.344 155.718C175.145 155.62 174.89 155.571 174.577 155.571C174.343 155.571 174.13 155.614 173.938 155.698C173.745 155.783 173.592 155.902 173.479 156.055C173.368 156.208 173.312 156.388 173.312 156.597H172.087C172.087 156.287 172.152 156.011 172.282 155.767C172.416 155.519 172.596 155.309 172.824 155.137C173.055 154.964 173.321 154.832 173.62 154.741C173.923 154.647 174.242 154.6 174.577 154.6C174.968 154.6 175.321 154.644 175.637 154.731C175.952 154.816 176.224 154.943 176.452 155.112C176.68 155.282 176.854 155.493 176.975 155.747C177.095 155.998 177.155 156.289 177.155 156.621C177.155 156.865 177.098 157.095 176.984 157.31C176.874 157.524 176.714 157.713 176.506 157.876C176.298 158.039 176.047 158.167 175.754 158.262C175.464 158.353 175.142 158.398 174.787 158.398ZM173.801 157.974H174.787C175.181 157.974 175.531 158.014 175.837 158.096C176.143 158.177 176.402 158.296 176.613 158.452C176.825 158.608 176.986 158.802 177.097 159.033C177.207 159.261 177.263 159.523 177.263 159.819C177.263 160.151 177.196 160.448 177.062 160.708C176.932 160.965 176.747 161.183 176.506 161.362C176.265 161.541 175.98 161.676 175.651 161.768C175.326 161.859 174.968 161.904 174.577 161.904C174.261 161.904 173.949 161.865 173.64 161.787C173.334 161.706 173.055 161.582 172.805 161.416C172.557 161.247 172.359 161.032 172.209 160.771C172.059 160.511 171.984 160.199 171.984 159.834H173.215C173.215 160.036 173.272 160.221 173.386 160.391C173.503 160.557 173.662 160.69 173.864 160.791C174.069 160.889 174.307 160.938 174.577 160.938C174.886 160.938 175.148 160.889 175.363 160.791C175.581 160.693 175.747 160.56 175.861 160.391C175.979 160.221 176.037 160.031 176.037 159.819C176.037 159.618 176.006 159.443 175.944 159.297C175.886 159.147 175.798 159.027 175.681 158.936C175.563 158.841 175.419 158.771 175.246 158.726C175.074 158.68 174.875 158.657 174.65 158.657H173.801V157.974ZM179.636 159.81L182.79 154.697H184.016V161.807H182.79V156.689L179.636 161.807H178.415V154.697H179.636V159.81ZM188.264 154.697V161.807H187.048V154.697H188.264ZM190.495 154.697V155.674H184.836V154.697H190.495ZM196.086 160.835V161.807H192.312V160.835H196.086ZM192.658 154.697V161.807H191.433V154.697H192.658ZM195.593 157.666V158.623H192.312V157.666H195.593ZM196.062 154.697V155.674H192.312V154.697H196.062ZM201.75 154.697V155.674H198.342V154.697H201.75ZM202.688 154.697V161.807H201.462V154.697H202.688ZM198.098 154.697H199.313L199.143 158.228C199.12 158.745 199.076 159.201 199.011 159.595C198.946 159.989 198.858 160.326 198.747 160.605C198.636 160.885 198.496 161.115 198.327 161.294C198.158 161.47 197.954 161.6 197.717 161.685C197.482 161.766 197.207 161.807 196.892 161.807H196.579V160.835L196.77 160.82C196.942 160.807 197.09 160.767 197.214 160.698C197.341 160.627 197.448 160.522 197.536 160.386C197.624 160.246 197.697 160.065 197.756 159.844C197.814 159.622 197.86 159.352 197.893 159.033C197.928 158.714 197.954 158.341 197.971 157.915L198.098 154.697ZM204.987 157.427H206.774C207.315 157.427 207.777 157.518 208.161 157.7C208.545 157.879 208.838 158.132 209.04 158.457C209.242 158.783 209.343 159.162 209.343 159.595C209.343 159.92 209.286 160.218 209.172 160.488C209.058 160.758 208.89 160.993 208.669 161.191C208.448 161.387 208.177 161.538 207.858 161.646C207.543 161.753 207.181 161.807 206.774 161.807H204.138V154.697H205.368V160.835H206.774C207.084 160.835 207.338 160.778 207.536 160.664C207.735 160.547 207.881 160.394 207.976 160.205C208.073 160.016 208.122 159.81 208.122 159.585C208.122 159.367 208.073 159.168 207.976 158.989C207.881 158.81 207.735 158.667 207.536 158.56C207.338 158.452 207.084 158.398 206.774 158.398H204.987V157.427ZM215.114 157.666V158.638H211.34V157.666H215.114ZM211.643 154.697V161.807H210.417V154.697H211.643ZM216.057 154.697V161.807H214.836V154.697H216.057ZM218.386 157.427H220.178C220.718 157.427 221.179 157.518 221.56 157.7C221.944 157.879 222.237 158.132 222.438 158.457C222.644 158.783 222.746 159.162 222.746 159.595C222.746 159.92 222.688 160.218 222.57 160.488C222.456 160.758 222.289 160.993 222.067 161.191C221.846 161.387 221.576 161.538 221.257 161.646C220.941 161.753 220.581 161.807 220.178 161.807H217.541V154.697H218.767V160.835H220.178C220.487 160.835 220.741 160.778 220.939 160.664C221.138 160.547 221.285 160.394 221.379 160.205C221.477 160.016 221.525 159.81 221.525 159.585C221.525 159.367 221.477 159.168 221.379 158.989C221.285 158.81 221.138 158.667 220.939 158.56C220.741 158.452 220.487 158.398 220.178 158.398H218.386V157.427ZM224.704 154.697V161.807H223.479V154.697H224.704ZM230.842 160.835V161.807H227.067V160.835H230.842ZM227.414 154.697V161.807H226.188V154.697H227.414ZM230.349 157.666V158.623H227.067V157.666H230.349ZM230.817 154.697V155.674H227.067V154.697H230.817Z" fill="#2C2C2C"/>
<circle cx="297.887" cy="112.403" r="30.4032" fill="#CCEBE0"/>
<path d="M297.901 134.013C286.022 134.013 276.393 124.383 276.393 112.505C276.393 100.626 286.022 90.9966 297.901 90.9966" stroke="#27C58B" stroke-width="17.7579"/>
<circle cx="297.886" cy="112.403" r="18.7097" fill="white"/>
<path d="M287.926 154.697V155.674H284.517V154.697H287.926ZM288.863 154.697V161.807H287.638V154.697H288.863ZM284.273 154.697H285.489L285.318 158.228C285.295 158.745 285.252 159.201 285.186 159.595C285.121 159.989 285.033 160.326 284.923 160.605C284.812 160.885 284.672 161.115 284.503 161.294C284.334 161.47 284.13 161.6 283.892 161.685C283.658 161.766 283.383 161.807 283.067 161.807H282.755V160.835L282.945 160.82C283.118 160.807 283.266 160.767 283.39 160.698C283.517 160.627 283.624 160.522 283.712 160.386C283.8 160.246 283.873 160.065 283.932 159.844C283.99 159.622 284.036 159.352 284.068 159.033C284.104 158.714 284.13 158.341 284.146 157.915L284.273 154.697ZM291.622 154.697V161.807H290.396V154.697H291.622ZM293.106 157.896V158.833H291.28V157.896H293.106ZM298.419 158.057V158.447C298.419 158.984 298.349 159.466 298.209 159.893C298.069 160.319 297.869 160.682 297.608 160.981C297.348 161.281 297.037 161.51 296.676 161.67C296.318 161.826 295.917 161.904 295.475 161.904C295.042 161.904 294.644 161.826 294.283 161.67C293.922 161.51 293.609 161.281 293.346 160.981C293.082 160.682 292.878 160.319 292.735 159.893C292.592 159.466 292.52 158.984 292.52 158.447V158.057C292.52 157.52 292.592 157.039 292.735 156.616C292.878 156.19 293.08 155.827 293.341 155.527C293.601 155.225 293.912 154.995 294.273 154.839C294.635 154.679 295.032 154.6 295.465 154.6C295.907 154.6 296.309 154.679 296.671 154.839C297.032 154.995 297.343 155.225 297.603 155.527C297.864 155.827 298.064 156.19 298.204 156.616C298.347 157.039 298.419 157.52 298.419 158.057ZM297.193 158.447V158.047C297.193 157.65 297.154 157.3 297.076 156.997C296.998 156.691 296.886 156.436 296.739 156.23C296.593 156.022 296.412 155.866 296.197 155.762C295.982 155.654 295.738 155.601 295.465 155.601C295.198 155.601 294.959 155.654 294.747 155.762C294.535 155.866 294.355 156.022 294.205 156.23C294.058 156.436 293.946 156.691 293.868 156.997C293.79 157.3 293.751 157.65 293.751 158.047V158.447C293.751 158.844 293.79 159.196 293.868 159.502C293.946 159.808 294.06 160.067 294.21 160.278C294.363 160.487 294.545 160.645 294.757 160.752C294.968 160.856 295.208 160.908 295.475 160.908C295.751 160.908 295.995 160.856 296.207 160.752C296.419 160.645 296.598 160.487 296.744 160.278C296.891 160.067 297.001 159.808 297.076 159.502C297.154 159.196 297.193 158.844 297.193 158.447ZM305.02 160.835V161.807H299.781V160.835H305.02ZM300.084 160.835V163.555H298.912L298.868 160.835H300.084ZM305.968 160.835L305.894 163.55H304.742V160.835H305.968ZM304.161 154.697V155.674H300.88V154.697H304.161ZM305.099 154.697V161.807H303.878V154.697H305.099ZM300.636 154.697H301.861L301.69 157.578C301.664 158.034 301.617 158.444 301.549 158.809C301.48 159.173 301.397 159.5 301.3 159.79C301.205 160.076 301.098 160.33 300.977 160.552C300.857 160.77 300.728 160.959 300.592 161.118C300.455 161.278 300.315 161.414 300.172 161.528C300.032 161.639 299.893 161.732 299.757 161.807H299.102V160.835H299.42C299.508 160.754 299.605 160.636 299.713 160.483C299.82 160.327 299.924 160.124 300.025 159.873C300.129 159.619 300.221 159.305 300.299 158.931C300.377 158.556 300.431 158.105 300.46 157.578L300.636 154.697ZM308.106 159.81L311.261 154.697H312.486V161.807H311.261V156.689L308.106 161.807H306.886V154.697H308.106V159.81Z" fill="#2C2C2C"/>
<path d="M213.652 55.9787H227.348V57.6743H213.652V55.9787ZM215.348 50.6309H217.044V55.1309H215.348V50.6309ZM217.957 47.1743H219.652V55.1309H217.957V47.1743ZM220.5 49.7178H222.196V55.0656H220.5V49.7178ZM223.044 44.6309H224.739V55.1309H223.044V44.6309Z" fill="#6695E2"/>
<g clip-path="url(#clip0_85_190)">
<path d="M252.869 49.653H251.434C251.043 47.1095 249.021 45.0878 246.478 44.6965V43.2617H244.652V44.6965C242.108 45.0878 240.087 47.1095 239.695 49.653H238.195V51.4791H239.63C240.021 54.0226 242.043 56.0443 244.587 56.4356V57.8704H246.413V56.4356C248.956 56.0443 250.978 54.0226 251.369 51.4791H252.804V49.653H252.869ZM249.543 49.653H248.108C247.847 48.8704 247.195 48.2182 246.413 47.9574V46.5226C247.978 46.9139 249.152 48.0878 249.543 49.653ZM245.5 51.4791C244.978 51.4791 244.587 51.0878 244.587 50.5661C244.587 50.0443 244.978 49.653 245.5 49.653C246.021 49.653 246.413 50.0443 246.413 50.5661C246.413 51.0878 246.021 51.4791 245.5 51.4791ZM244.587 46.5226V47.9574C243.804 48.2182 243.152 48.8704 242.891 49.653H241.456C241.847 48.0878 243.021 46.9139 244.587 46.5226ZM241.456 51.4791H242.891C243.152 52.2617 243.804 52.8487 244.587 53.1748V54.6095C243.021 54.2182 241.847 53.0443 241.456 51.4791ZM246.413 54.6095V53.1748C247.195 52.9139 247.782 52.2617 248.108 51.4791H249.543C249.152 53.0443 247.978 54.2182 246.413 54.6095Z" fill="#27C58B"/>
</g>
<path d="M265.414 47.7617V56.9574C265.414 57.4791 265.805 57.8704 266.327 57.8704H274.61C275.131 57.8704 275.523 57.4791 275.523 56.9574V47.7617H265.414ZM268.218 56.0443H267.305V49.5878H268.218V56.0443ZM270.044 56.0443H269.131V49.5878H270.044V56.0443ZM271.871 56.0443H270.958V49.5878H271.871V56.0443ZM273.697 56.0443H272.784V49.5878H273.697V56.0443Z" fill="#6695E2"/>
<path d="M275.783 44.9569H272.783V43.8483C272.783 43.4569 272.457 43.1309 272.065 43.1309H268.87C268.478 43.1309 268.217 43.4569 268.217 43.8483V44.9569H265.217C264.826 44.9569 264.5 45.283 264.5 45.6743V46.8483H276.5V45.6743C276.5 45.283 276.174 44.9569 275.783 44.9569ZM271.87 44.9569H269.13V44.0439H271.87V44.9569Z" fill="#6695E2"/>
<g clip-path="url(#clip1_85_190)">
<path d="M302.872 48.6749C302.872 48.2184 302.481 47.6967 299.676 47.2401C299.089 45.4793 298.046 43.9141 297.002 43.9141C296.35 43.9141 295.828 44.2401 295.502 44.501C295.242 44.2401 294.72 43.9141 294.002 43.9141C292.959 43.9141 291.915 45.4793 291.328 47.2401C288.589 47.6967 288.133 48.2184 288.133 48.6749C288.133 49.3923 289.307 49.8488 290.742 50.1097C290.481 50.4358 290.285 50.9575 290.285 51.6097C290.285 52.6532 290.742 53.4358 291.328 53.4358C291.981 55.6532 293.611 57.088 295.437 57.088C297.263 57.088 298.828 55.6532 299.546 53.4358C300.133 53.3706 300.589 52.6532 300.589 51.6097C300.589 50.9575 300.459 50.4358 300.133 50.1097C301.698 49.8488 302.872 49.3923 302.872 48.6749ZM298.828 51.0228C298.828 51.088 298.828 51.1532 298.828 51.2184C298.828 52.1315 298.242 52.7184 297.328 52.7184C296.742 52.7184 295.959 52.4575 295.502 52.001C295.046 52.4575 294.263 52.7184 293.676 52.7184C292.763 52.7184 292.176 52.1967 292.176 51.2184C292.176 51.1532 292.176 51.088 292.176 51.0228C292.176 50.7619 292.111 50.4358 292.372 50.1749C292.633 49.9141 293.089 49.7836 294.002 49.7836C294.72 49.7836 295.176 49.8488 295.502 50.1097C295.763 49.9141 296.22 49.7836 297.002 49.7836C297.915 49.7836 298.372 49.9141 298.633 50.1749C298.828 50.4358 298.828 50.7619 298.828 51.0228ZM299.089 47.4358C299.024 47.501 298.307 48.2836 295.502 48.2836C292.698 48.2836 291.981 47.501 291.915 47.4358C291.785 47.3054 291.785 47.0445 291.981 46.9141C292.111 46.7836 292.372 46.7836 292.502 46.9793C292.502 46.9793 293.155 47.5662 295.502 47.5662C297.915 47.5662 298.502 46.9793 298.502 46.9793C298.633 46.8488 298.894 46.8488 299.024 46.9793C299.22 47.0445 299.22 47.3054 299.089 47.4358Z" fill="#728A97"/>
</g>
<g clip-path="url(#clip2_85_190)">
<path d="M324.152 55.9775L324.804 55.3253L323.5 54.021C324.087 53.3688 324.543 52.5862 324.804 51.8036C325.391 52.0645 325.978 52.2601 326.63 52.4558L326.826 51.6079C326.174 51.4775 325.587 51.2166 325 50.9558C325 50.8253 325.065 50.6949 325.065 50.6297C325.13 50.1079 325.13 49.6514 325 49.1949C325.326 49.0645 325.652 48.8688 325.913 48.6079C326.304 48.2166 326.5 47.7601 326.565 47.3036H328V46.4558H326.565C326.5 45.9992 326.239 45.5427 325.913 45.1514C325.587 44.7601 325.065 44.5645 324.609 44.4992V43.0645H323.761V44.4992C323.304 44.5645 322.848 44.8253 322.457 45.1514C322.196 45.4123 322 45.6731 321.87 46.0645C321.413 45.9992 320.957 45.934 320.435 45.9992C320.304 45.9992 320.174 45.9992 320.109 46.0645C319.848 45.4775 319.652 44.8905 319.457 44.2384L318.543 44.434C318.674 45.0862 318.935 45.6731 319.196 46.2601C318.413 46.521 317.63 46.9775 316.978 47.5645L315.674 46.2601L315.022 46.9123L316.326 48.2166C315.739 48.8688 315.283 49.6514 315.022 50.434C314.435 50.1731 313.848 49.9775 313.196 49.7818L313 50.6297C313.652 50.7601 314.239 51.021 314.826 51.2818C314.826 51.4123 314.761 51.5427 314.761 51.6079C314.565 52.9775 315.022 54.2818 315.87 55.1297C316.783 56.0427 318.022 56.434 319.391 56.2384C319.522 56.2384 319.652 56.2384 319.717 56.1731C319.978 56.7601 320.174 57.3471 320.37 57.9992L321.217 57.8036C321.087 57.1514 320.826 56.5645 320.565 55.9775C321.348 55.7166 322.13 55.2601 322.783 54.6731L324.152 55.9775ZM320.043 45.9992C320.565 47.1079 321.217 48.021 322.065 48.934C322.913 49.7818 323.826 50.434 325 50.9558L324.739 51.8036C323.5 51.2818 322.391 50.4992 321.413 49.521C320.5 48.6079 319.717 47.434 319.196 46.2601L320.043 45.9992ZM319.065 53.6949V51.934H317.304V51.0862H319.065V49.3253H319.913V51.0862H321.674V51.934H319.913V53.6949H319.065Z" fill="#E26666"/>
</g>
</g>
<defs>
<filter id="filter0_d_85_190" x="0" y="0" width="368" height="200" filterUnits="userSpaceOnUse" color-interpolation-filters="sRGB">
<feFlood flood-opacity="0" result="BackgroundImageFix"/>
<feColorMatrix in="SourceAlpha" type="matrix" values="0 0 0 0 0 0 0 0 0 0 0 0 0 0 0 0 0 0 127 0" result="hardAlpha"/>
<feOffset/>
<feGaussianBlur stdDeviation="10"/>
<feComposite in2="hardAlpha" operator="out"/>
<feColorMatrix type="matrix" values="0 0 0 0 0.716146 0 0 0 0 0.869305 0 0 0 0 1 0 0 0 1 0"/>
<feBlend mode="normal" in2="BackgroundImageFix" result="effect1_dropShadow_85_190"/>
<feBlend mode="normal" in="SourceGraphic" in2="effect1_dropShadow_85_190" result="shape"/>
</filter>
<clipPath id="clip0_85_190">
<rect width="15" height="15" fill="white" transform="translate(238 43)"/>
</clipPath>
<clipPath id="clip1_85_190">
<rect width="15" height="15" fill="white" transform="translate(288 43)"/>
</clipPath>
<clipPath id="clip2_85_190">
<rect width="15" height="15" fill="white" transform="translate(313 43)"/>
</clipPath>
</defs>
</svg>
