<svg width="368" height="200" viewBox="0 0 368 200" fill="none" xmlns="http://www.w3.org/2000/svg">
<g filter="url(#filter0_d_85_252)">
<rect x="20" y="20" width="328" height="160" rx="20" fill="white"/>
<rect x="35" y="35" width="206" height="31" rx="15.5" fill="#2CA9DB"/>
<path d="M58.8255 45.0909V56H57.1849V46.4972H52.05V56H50.4093V45.0909H58.8255ZM60.57 56L60.5647 54.6204H60.8577C61.0849 54.6204 61.2749 54.5724 61.4276 54.4766C61.5839 54.3771 61.7117 54.2102 61.8111 53.9759C61.9106 53.7415 61.9869 53.4183 62.0402 53.0064C62.0935 52.5909 62.1325 52.0689 62.1574 51.4403L62.3012 47.8182H68.0114V56H66.4507V49.1925H63.7767L63.6489 51.973C63.6169 52.6477 63.5476 53.2372 63.4411 53.7415C63.3381 54.2457 63.1872 54.6665 62.9883 55.0039C62.7895 55.3377 62.5338 55.5881 62.2213 55.755C61.9088 55.9183 61.5288 56 61.0814 56H60.57ZM73.5818 56.1651C72.8148 56.1651 72.1454 55.9893 71.5737 55.6378C71.0019 55.2862 70.558 54.7944 70.242 54.1623C69.9259 53.5302 69.7679 52.7915 69.7679 51.9464C69.7679 51.0977 69.9259 50.3555 70.242 49.7198C70.558 49.0842 71.0019 48.5906 71.5737 48.239C72.1454 47.8874 72.8148 47.7116 73.5818 47.7116C74.3489 47.7116 75.0183 47.8874 75.59 48.239C76.1617 48.5906 76.6056 49.0842 76.9217 49.7198C77.2377 50.3555 77.3957 51.0977 77.3957 51.9464C77.3957 52.7915 77.2377 53.5302 76.9217 54.1623C76.6056 54.7944 76.1617 55.2862 75.59 55.6378C75.0183 55.9893 74.3489 56.1651 73.5818 56.1651ZM73.5872 54.8281C74.0843 54.8281 74.4962 54.6967 74.8229 54.4339C75.1497 54.1712 75.3911 53.8214 75.5474 53.3846C75.7072 52.9478 75.7871 52.4666 75.7871 51.9411C75.7871 51.419 75.7072 50.9396 75.5474 50.5028C75.3911 50.0625 75.1497 49.7092 74.8229 49.4428C74.4962 49.1765 74.0843 49.0433 73.5872 49.0433C73.0864 49.0433 72.671 49.1765 72.3407 49.4428C72.014 49.7092 71.7707 50.0625 71.6109 50.5028C71.4547 50.9396 71.3766 51.419 71.3766 51.9411C71.3766 52.4666 71.4547 52.9478 71.6109 53.3846C71.7707 53.8214 72.014 54.1712 72.3407 54.4339C72.671 54.6967 73.0864 54.8281 73.5872 54.8281ZM90.8976 54.6257L90.7485 58.3438H89.1877V56H88.1703V54.6257H90.8976ZM79.1735 47.8182H80.7343V54.6204H83.5627V47.8182H85.1235V54.6204H87.9519V47.8182H89.5127V56H79.1735V47.8182ZM94.9579 56.1811C94.4394 56.1811 93.9707 56.0852 93.5516 55.8935C93.1326 55.6982 92.8006 55.4158 92.5555 55.0465C92.3141 54.6772 92.1933 54.2244 92.1933 53.6882C92.1933 53.2266 92.2821 52.8466 92.4597 52.5483C92.6372 52.25 92.8769 52.0138 93.1788 51.8398C93.4806 51.6658 93.818 51.5344 94.1908 51.4457C94.5637 51.3569 94.9437 51.2894 95.3308 51.2433C95.8208 51.1864 96.2185 51.1403 96.5239 51.1048C96.8293 51.0657 97.0513 51.0036 97.1898 50.9183C97.3283 50.8331 97.3975 50.6946 97.3975 50.5028V50.4656C97.3975 50.0004 97.2661 49.6399 97.0033 49.3842C96.7441 49.1286 96.357 49.0007 95.8421 49.0007C95.3059 49.0007 94.8833 49.1197 94.5744 49.3576C94.269 49.592 94.0577 49.853 93.9405 50.1406L92.4437 49.7997C92.6212 49.3026 92.8805 48.9013 93.2214 48.5959C93.5658 48.2869 93.9618 48.0632 94.4092 47.9247C94.8567 47.7827 95.3272 47.7116 95.8208 47.7116C96.1475 47.7116 96.4938 47.7507 96.8595 47.8288C97.2288 47.9034 97.5733 48.0419 97.8929 48.2443C98.2161 48.4467 98.4806 48.7362 98.6866 49.1126C98.8926 49.4854 98.9955 49.9702 98.9955 50.5668V56H97.4401V54.8814H97.3762C97.2732 55.0874 97.1188 55.2898 96.9128 55.4886C96.7068 55.6875 96.4423 55.8526 96.1191 55.984C95.796 56.1154 95.4089 56.1811 94.9579 56.1811ZM95.3041 54.9027C95.7445 54.9027 96.1209 54.8157 96.4334 54.6417C96.7494 54.4677 96.9891 54.2404 97.1525 53.9599C97.3194 53.6758 97.4028 53.3722 97.4028 53.049V51.9943C97.346 52.0511 97.2359 52.1044 97.0726 52.1541C96.9128 52.2003 96.7299 52.2411 96.5239 52.2766C96.318 52.3086 96.1173 52.3388 95.922 52.3672C95.7267 52.392 95.5634 52.4134 95.432 52.4311C95.123 52.4702 94.8407 52.5359 94.585 52.6282C94.3329 52.7205 94.1305 52.8537 93.9778 53.0277C93.8286 53.1982 93.7541 53.4254 93.7541 53.7095C93.7541 54.1037 93.8997 54.402 94.1908 54.6044C94.482 54.8033 94.8531 54.9027 95.3041 54.9027ZM100.318 58.3597V54.6204H100.984C101.154 54.4641 101.298 54.2777 101.415 54.0611C101.536 53.8445 101.637 53.587 101.719 53.2887C101.804 52.9904 101.875 52.6424 101.932 52.2447C101.989 51.8434 102.038 51.3853 102.081 50.8704L102.337 47.8182H107.898V54.6204H109.155V58.3597H107.599V56H101.895V58.3597H100.318ZM102.688 54.6204H106.342V49.1818H103.764L103.594 50.8704C103.512 51.7298 103.409 52.4755 103.285 53.1076C103.161 53.7362 102.962 54.2404 102.688 54.6204ZM110.712 56V47.8182H112.304V51.2486H113.071L115.772 47.8182H117.743L114.573 51.7972L117.78 56H115.804L113.338 52.7294H112.304V56H110.712ZM120.578 53.7681L124.184 47.8182H125.899V56H124.339V50.0447L120.748 56H119.017V47.8182H120.578V53.7681ZM135.457 56.1651C134.665 56.1651 133.983 55.9858 133.411 55.6271C132.843 55.2649 132.406 54.766 132.101 54.1303C131.796 53.4947 131.643 52.7667 131.643 51.9464C131.643 51.1154 131.799 50.3821 132.112 49.7464C132.424 49.1072 132.864 48.6083 133.433 48.2496C134.001 47.891 134.67 47.7116 135.441 47.7116C136.062 47.7116 136.616 47.8271 137.103 48.0579C137.589 48.2852 137.982 48.6048 138.28 49.0167C138.582 49.4286 138.761 49.9098 138.818 50.4602H137.268C137.183 50.0767 136.987 49.7464 136.682 49.4695C136.38 49.1925 135.975 49.054 135.467 49.054C135.024 49.054 134.635 49.1712 134.301 49.4055C133.971 49.6364 133.713 49.9666 133.529 50.3963C133.344 50.8224 133.252 51.3267 133.252 51.9091C133.252 52.5057 133.342 53.0206 133.523 53.4538C133.704 53.8871 133.96 54.2227 134.29 54.4606C134.624 54.6985 135.016 54.8175 135.467 54.8175C135.769 54.8175 136.043 54.7624 136.288 54.6523C136.536 54.5387 136.744 54.3771 136.911 54.1676C137.081 53.9581 137.2 53.706 137.268 53.4112H138.818C138.761 53.9403 138.589 54.4126 138.301 54.8281C138.014 55.2436 137.628 55.5703 137.145 55.8082C136.666 56.0462 136.103 56.1651 135.457 56.1651ZM140.521 56V47.8182H142.114V51.2486H142.881L145.582 47.8182H147.552L144.383 51.7972L147.59 56H145.614L143.147 52.7294H142.114V56H140.521ZM148.182 56L148.177 54.6204H148.47C148.697 54.6204 148.887 54.5724 149.04 54.4766C149.196 54.3771 149.324 54.2102 149.423 53.9759C149.523 53.7415 149.599 53.4183 149.652 53.0064C149.706 52.5909 149.745 52.0689 149.77 51.4403L149.914 47.8182H155.624V56H154.063V49.1925H151.389L151.261 51.973C151.229 52.6477 151.16 53.2372 151.053 53.7415C150.95 54.2457 150.8 54.6665 150.601 55.0039C150.402 55.3377 150.146 55.5881 149.834 55.755C149.521 55.9183 149.141 56 148.694 56H148.182ZM159.308 53.7681L162.915 47.8182H164.63V56H163.069V50.0447L159.479 56H157.748V47.8182H159.308V53.7681ZM166.771 56V47.8182H168.364V51.2486H169.131L171.832 47.8182H173.802L170.633 51.7972L173.84 56H171.864L169.397 52.7294H168.364V56H166.771ZM176.638 53.7681L180.244 47.8182H181.959V56H180.398V50.0447L176.808 56H175.077V47.8182H176.638V53.7681ZM184.1 56V47.8182H187.493C188.417 47.8182 189.148 48.0153 189.688 48.4094C190.228 48.8001 190.498 49.331 190.498 50.0021C190.498 50.4815 190.345 50.8615 190.04 51.142C189.734 51.4226 189.329 51.6108 188.825 51.7067C189.191 51.7493 189.526 51.8594 189.832 52.0369C190.137 52.2109 190.382 52.4453 190.567 52.7401C190.755 53.0348 190.849 53.3864 190.849 53.7947C190.849 54.228 190.737 54.6115 190.514 54.9453C190.29 55.2756 189.965 55.5348 189.539 55.723C189.116 55.9077 188.607 56 188.01 56H184.1ZM185.597 54.6683H188.01C188.404 54.6683 188.713 54.5742 188.937 54.386C189.161 54.1978 189.273 53.9421 189.273 53.619C189.273 53.239 189.161 52.9407 188.937 52.7241C188.713 52.5039 188.404 52.3938 188.01 52.3938H185.597V54.6683ZM185.597 51.2273H187.509C187.808 51.2273 188.063 51.1847 188.276 51.0994C188.493 51.0142 188.658 50.8935 188.772 50.7372C188.889 50.5774 188.948 50.3892 188.948 50.1726C188.948 49.8565 188.818 49.6097 188.559 49.4322C188.3 49.2546 187.944 49.1658 187.493 49.1658H185.597V51.2273ZM194.977 56.1811C194.459 56.1811 193.99 56.0852 193.571 55.8935C193.152 55.6982 192.82 55.4158 192.575 55.0465C192.334 54.6772 192.213 54.2244 192.213 53.6882C192.213 53.2266 192.302 52.8466 192.479 52.5483C192.657 52.25 192.896 52.0138 193.198 51.8398C193.5 51.6658 193.838 51.5344 194.21 51.4457C194.583 51.3569 194.963 51.2894 195.35 51.2433C195.84 51.1864 196.238 51.1403 196.543 51.1048C196.849 51.0657 197.071 51.0036 197.209 50.9183C197.348 50.8331 197.417 50.6946 197.417 50.5028V50.4656C197.417 50.0004 197.286 49.6399 197.023 49.3842C196.764 49.1286 196.377 49.0007 195.862 49.0007C195.325 49.0007 194.903 49.1197 194.594 49.3576C194.289 49.592 194.077 49.853 193.96 50.1406L192.463 49.7997C192.641 49.3026 192.9 48.9013 193.241 48.5959C193.585 48.2869 193.981 48.0632 194.429 47.9247C194.876 47.7827 195.347 47.7116 195.84 47.7116C196.167 47.7116 196.513 47.7507 196.879 47.8288C197.248 47.9034 197.593 48.0419 197.912 48.2443C198.236 48.4467 198.5 48.7362 198.706 49.1126C198.912 49.4854 199.015 49.9702 199.015 50.5668V56H197.46V54.8814H197.396C197.293 55.0874 197.138 55.2898 196.932 55.4886C196.726 55.6875 196.462 55.8526 196.139 55.984C195.815 56.1154 195.428 56.1811 194.977 56.1811ZM195.324 54.9027C195.764 54.9027 196.14 54.8157 196.453 54.6417C196.769 54.4677 197.009 54.2404 197.172 53.9599C197.339 53.6758 197.422 53.3722 197.422 53.049V51.9943C197.366 52.0511 197.255 52.1044 197.092 52.1541C196.932 52.2003 196.749 52.2411 196.543 52.2766C196.338 52.3086 196.137 52.3388 195.942 52.3672C195.746 52.392 195.583 52.4134 195.452 52.4311C195.143 52.4702 194.86 52.5359 194.605 52.6282C194.352 52.7205 194.15 52.8537 193.997 53.0277C193.848 53.1982 193.774 53.4254 193.774 53.7095C193.774 54.1037 193.919 54.402 194.21 54.6044C194.502 54.8033 194.873 54.9027 195.324 54.9027ZM206.682 51.2219V52.6016H202.25V51.2219H206.682ZM202.697 47.8182V56H201.136V47.8182H202.697ZM207.795 47.8182V56H206.239V47.8182H207.795ZM211.486 53.7681L215.092 47.8182H216.808V56H215.247V50.0447L211.657 56H209.925V47.8182H211.486V53.7681ZM220.51 53.7681L224.116 47.8182H225.831V56H224.27V50.0447L220.68 56H218.949V47.8182H220.51V53.7681ZM223.434 45.0483H224.744C224.744 45.6484 224.531 46.1367 224.105 46.5131C223.683 46.886 223.111 47.0724 222.39 47.0724C221.673 47.0724 221.103 46.886 220.68 46.5131C220.258 46.1367 220.046 45.6484 220.046 45.0483H221.351C221.351 45.3146 221.429 45.5508 221.586 45.7567C221.742 45.9592 222.01 46.0604 222.39 46.0604C222.763 46.0604 223.029 45.9592 223.189 45.7567C223.352 45.5543 223.434 45.3182 223.434 45.0483Z" fill="white"/>
<path d="M46.2408 81.9712V89.5728H44.6745V83.1981H41.6203V89.5728H40.0541V81.9712H46.2408ZM51.3155 83.9238V85.1037H48.538V83.9238H51.3155ZM52.4171 83.9238V89.5728H50.9135V83.9238H52.4171ZM48.1621 83.9238H49.6396L49.4882 86.7744C49.4673 87.1816 49.4238 87.5401 49.3576 87.8499C49.2915 88.1596 49.2028 88.4242 49.0914 88.6434C48.9835 88.8627 48.853 89.042 48.6998 89.1812C48.5502 89.3169 48.3744 89.4161 48.1725 89.4788C47.9741 89.5414 47.7548 89.5728 47.5147 89.5728H47.0552L47.0396 88.3876L47.2328 88.3667C47.3441 88.3563 47.4416 88.325 47.5251 88.2728C47.6121 88.2171 47.6852 88.1388 47.7444 88.0378C47.807 87.9334 47.8593 87.8029 47.901 87.6463C47.9428 87.4861 47.9759 87.2982 48.0002 87.0824C48.0281 86.8666 48.0472 86.6177 48.0577 86.3358L48.1621 83.9238ZM53.3412 86.8057V86.6961C53.3412 86.2819 53.4003 85.9007 53.5187 85.5527C53.637 85.2011 53.8093 84.8966 54.0356 84.639C54.2618 84.3815 54.5402 84.1813 54.8709 84.0386C55.2015 83.8924 55.5809 83.8194 56.009 83.8194C56.4372 83.8194 56.8183 83.8924 57.1524 84.0386C57.4866 84.1813 57.7667 84.3815 57.993 84.639C58.2227 84.8966 58.3967 85.2011 58.5151 85.5527C58.6334 85.9007 58.6926 86.2819 58.6926 86.6961V86.8057C58.6926 87.2164 58.6334 87.5975 58.5151 87.9491C58.3967 88.2971 58.2227 88.6017 57.993 88.8627C57.7667 89.1203 57.4883 89.3204 57.1576 89.4631C56.827 89.6058 56.4476 89.6772 56.0195 89.6772C55.5914 89.6772 55.2102 89.6058 54.8761 89.4631C54.5455 89.3204 54.2653 89.1203 54.0356 88.8627C53.8093 88.6017 53.637 88.2971 53.5187 87.9491C53.4003 87.5975 53.3412 87.2164 53.3412 86.8057ZM54.8448 86.6961V86.8057C54.8448 87.0424 54.8657 87.2634 54.9074 87.4687C54.9492 87.6741 55.0153 87.8551 55.1058 88.0117C55.1998 88.1649 55.3216 88.2849 55.4713 88.372C55.621 88.459 55.8037 88.5025 56.0195 88.5025C56.2283 88.5025 56.4076 88.459 56.5572 88.372C56.7069 88.2849 56.827 88.1649 56.9175 88.0117C57.008 87.8551 57.0741 87.6741 57.1159 87.4687C57.1611 87.2634 57.1837 87.0424 57.1837 86.8057V86.6961C57.1837 86.4663 57.1611 86.2505 57.1159 86.0487C57.0741 85.8433 57.0062 85.6623 56.9123 85.5057C56.8218 85.3456 56.7017 85.2203 56.552 85.1298C56.4023 85.0393 56.2214 84.994 56.009 84.994C55.7967 84.994 55.6157 85.0393 55.4661 85.1298C55.3199 85.2203 55.1998 85.3456 55.1058 85.5057C55.0153 85.6623 54.9492 85.8433 54.9074 86.0487C54.8657 86.2505 54.8448 86.4663 54.8448 86.6961ZM68.3721 88.4033L68.2677 91.2487H66.8685V89.5728H66.2367V88.4033H68.3721ZM59.5958 83.9238H61.0994V88.3981H62.6657V83.9238H64.1745V88.3981H65.7355V83.9238H67.2391V89.5728H59.5958V83.9238ZM72.3138 88.2989V85.7824C72.3138 85.6014 72.2842 85.4465 72.2251 85.3177C72.1659 85.1855 72.0737 85.0828 71.9484 85.0097C71.8266 84.9366 71.6682 84.9001 71.4733 84.9001C71.3062 84.9001 71.1618 84.9297 71.0399 84.9888C70.9181 85.0445 70.8241 85.1263 70.758 85.2342C70.6919 85.3386 70.6588 85.4622 70.6588 85.6049H69.1552C69.1552 85.3647 69.2109 85.1368 69.3223 84.921C69.4337 84.7052 69.5955 84.5155 69.8078 84.3519C70.0201 84.1848 70.2725 84.0543 70.5648 83.9603C70.8607 83.8663 71.1913 83.8194 71.5568 83.8194C71.9954 83.8194 72.3852 83.8924 72.7263 84.0386C73.0674 84.1848 73.3354 84.4041 73.5303 84.6965C73.7287 84.9888 73.8279 85.3543 73.8279 85.7928V88.2101C73.8279 88.5199 73.847 88.774 73.8853 88.9724C73.9236 89.1673 73.9793 89.3378 74.0524 89.484V89.5728H72.5331C72.46 89.4196 72.4043 89.2282 72.366 88.9985C72.3312 88.7653 72.3138 88.5321 72.3138 88.2989ZM72.5122 86.1322L72.5227 86.9832H71.6821C71.4837 86.9832 71.3114 87.0058 71.1652 87.0511C71.0191 87.0963 70.899 87.1607 70.805 87.2442C70.711 87.3243 70.6414 87.4183 70.5962 87.5262C70.5544 87.6341 70.5335 87.7524 70.5335 87.8812C70.5335 88.01 70.5631 88.1266 70.6223 88.231C70.6814 88.3319 70.7667 88.412 70.8781 88.4711C70.9895 88.5268 71.12 88.5547 71.2697 88.5547C71.4959 88.5547 71.6925 88.5094 71.8596 88.4189C72.0267 88.3284 72.1555 88.2171 72.246 88.0848C72.3399 87.9525 72.3887 87.8272 72.3921 87.7089L72.7889 88.3458C72.7332 88.4886 72.6567 88.6365 72.5592 88.7896C72.4652 88.9428 72.3452 89.0872 72.199 89.223C72.0528 89.3552 71.877 89.4649 71.6717 89.5519C71.4663 89.6354 71.2227 89.6772 70.9407 89.6772C70.5822 89.6772 70.2568 89.6058 69.9644 89.4631C69.6756 89.3169 69.4458 89.1168 69.2753 88.8627C69.1082 88.6052 69.0247 88.3128 69.0247 87.9856C69.0247 87.6898 69.0804 87.427 69.1918 87.1973C69.3031 86.9675 69.4667 86.7744 69.6825 86.6177C69.9018 86.4576 70.175 86.3376 70.5022 86.2575C70.8294 86.174 71.2087 86.1322 71.6403 86.1322H72.5122ZM76.005 83.9238H77.5086L77.4616 85.8137C77.4477 86.4193 77.3781 86.9397 77.2528 87.3748C77.1275 87.8098 76.9604 88.1753 76.7516 88.4711C76.5427 88.767 76.3043 89.0037 76.0363 89.1812C75.7718 89.3552 75.4933 89.4857 75.201 89.5728H74.9191L74.9034 88.4137L75.06 88.3981C75.2375 88.2136 75.3837 88.0343 75.4986 87.8603C75.6134 87.6828 75.7022 87.4966 75.7648 87.3017C75.8275 87.1068 75.8727 86.8892 75.9006 86.6491C75.9319 86.4089 75.951 86.1305 75.958 85.8137L76.005 83.9238ZM76.4122 83.9238H80.1556V89.5728H78.6572V85.1298H76.4122V83.9238ZM74.5745 88.3981H80.9648V91.2695H79.4612V89.5728H76.1146V91.2695H74.5745V88.3981ZM83.2725 83.9238V89.5728H81.7688V83.9238H83.2725ZM86.9427 83.9238L84.5098 87.4583H83.0062L82.8235 86.0695H83.8206L85.0371 83.9238H86.9427ZM85.105 89.5728L83.7162 87.1868L85.0267 86.4611L87.1202 89.5728H85.105ZM89.1825 87.474L91.0777 83.9238H92.5813V89.5728H91.0777V86.0173L89.1825 89.5728H87.6789V83.9238H89.1825V87.474Z" fill="#6695E2"/>
<g clip-path="url(#clip0_85_252)">
<path d="M161.552 88.9114H172.012V90.2064H161.552V88.9114ZM162.847 84.8271H164.142V88.2639H162.847V84.8271ZM164.839 82.1872H166.134V88.2639H164.839V82.1872ZM166.782 84.1297H168.077V88.2141H166.782V84.1297ZM168.724 80.2446H170.019V88.2639H168.724V80.2446Z" fill="#6695E2"/>
</g>
<g clip-path="url(#clip1_85_252)">
<path d="M175.177 84.3462L178.227 87.7813L181.287 84.3462H175.177Z" fill="#6992CC"/>
</g>
<g clip-path="url(#clip2_85_252)">
<path d="M236.285 84.082H235.189C234.891 82.1394 233.346 80.5953 231.404 80.2965V79.2007H230.009V80.2965C228.067 80.5953 226.523 82.1394 226.224 84.082H225.078V85.4766H226.174C226.473 87.4192 228.017 88.9633 229.959 89.2621V90.3579H231.354V89.2621C233.297 88.9633 234.841 87.4192 235.14 85.4766H236.235V84.082H236.285ZM233.745 84.082H232.649C232.45 83.4843 231.952 82.9862 231.354 82.7869V81.6911C232.549 81.99 233.446 82.8866 233.745 84.082ZM230.657 85.4766C230.258 85.4766 229.959 85.1778 229.959 84.7793C229.959 84.3808 230.258 84.082 230.657 84.082C231.055 84.082 231.354 84.3808 231.354 84.7793C231.354 85.1778 231.055 85.4766 230.657 85.4766ZM229.959 81.6911V82.7869C229.362 82.9862 228.864 83.4843 228.664 84.082H227.569C227.867 82.8866 228.764 81.99 229.959 81.6911ZM227.569 85.4766H228.664C228.864 86.0743 229.362 86.5226 229.959 86.7717V87.8675C228.764 87.5686 227.867 86.672 227.569 85.4766ZM231.354 87.8675V86.7717C231.952 86.5724 232.4 86.0743 232.649 85.4766H233.745C233.446 86.672 232.549 87.5686 231.354 87.8675Z" fill="#27C58B"/>
</g>
<g clip-path="url(#clip3_85_252)">
<path d="M289.771 82.6353V89.6583C289.771 90.0568 290.069 90.3557 290.468 90.3557H296.794C297.192 90.3557 297.491 90.0568 297.491 89.6583V82.6353H289.771ZM291.912 88.961H291.215V84.0299H291.912V88.961ZM293.307 88.961H292.61V84.0299H293.307V88.961ZM294.702 88.961H294.004V84.0299H294.702V88.961ZM296.096 88.961H295.399V84.0299H296.096V88.961Z" fill="#6695E2"/>
<path d="M297.69 80.4962H295.399V79.6495C295.399 79.3506 295.15 79.1016 294.851 79.1016H292.41C292.112 79.1016 291.912 79.3506 291.912 79.6495V80.4962H289.621C289.322 80.4962 289.073 80.7453 289.073 81.0441V81.9407H298.238V81.0441C298.238 80.7453 297.989 80.4962 297.69 80.4962ZM294.702 80.4962H292.61V79.7989H294.702V80.4962Z" fill="#6695E2"/>
</g>
<mask id="path-10-inside-1_85_252" fill="white">
<path d="M35.8232 97.0156H262.268V119.249H35.8232V97.0156Z"/>
</mask>
<path d="M35.8232 97.0156H262.268V119.249H35.8232V97.0156Z" fill="#F5F5F5"/>
<path d="M262.268 119.249V118.485H35.8232V119.249V120.013H262.268V119.249Z" fill="#F5F5F5" mask="url(#path-10-inside-1_85_252)"/>
<path d="M45.5284 108.317L48.9011 102.851H50.2115V110.453H48.9011V104.981L45.5284 110.453H44.2232V102.851H45.5284V108.317ZM54.2786 104.804V110.453H53.0151V104.804H54.2786ZM56.132 104.804V105.796H51.1931V104.804H56.132ZM56.534 107.691V107.571C56.534 107.163 56.5932 106.786 56.7115 106.438C56.8299 106.086 57.0004 105.782 57.2232 105.524C57.4494 105.263 57.7244 105.061 58.0481 104.919C58.3752 104.772 58.7442 104.699 59.1549 104.699C59.5691 104.699 59.938 104.772 60.2617 104.919C60.5889 105.061 60.8656 105.263 61.0918 105.524C61.3181 105.782 61.4904 106.086 61.6087 106.438C61.727 106.786 61.7862 107.163 61.7862 107.571V107.691C61.7862 108.098 61.727 108.476 61.6087 108.824C61.4904 109.172 61.3181 109.476 61.0918 109.737C60.8656 109.995 60.5906 110.197 60.2669 110.343C59.9432 110.486 59.576 110.557 59.1653 110.557C58.7511 110.557 58.3805 110.486 58.0533 110.343C57.7296 110.197 57.4546 109.995 57.2284 109.737C57.0021 109.476 56.8299 109.172 56.7115 108.824C56.5932 108.476 56.534 108.098 56.534 107.691ZM57.7922 107.571V107.691C57.7922 107.945 57.8183 108.185 57.8705 108.411C57.9228 108.638 58.0046 108.836 58.1159 109.006C58.2273 109.177 58.37 109.311 58.544 109.408C58.7181 109.506 58.9252 109.555 59.1653 109.555C59.3985 109.555 59.6004 109.506 59.7709 109.408C59.945 109.311 60.0877 109.177 60.1991 109.006C60.3104 108.836 60.3922 108.638 60.4444 108.411C60.5001 108.185 60.528 107.945 60.528 107.691V107.571C60.528 107.32 60.5001 107.083 60.4444 106.861C60.3922 106.634 60.3087 106.434 60.1938 106.26C60.0825 106.086 59.9398 105.951 59.7657 105.853C59.5952 105.752 59.3916 105.702 59.1549 105.702C58.9182 105.702 58.7129 105.752 58.5388 105.853C58.3683 105.951 58.2273 106.086 58.1159 106.26C58.0046 106.434 57.9228 106.634 57.8705 106.861C57.8183 107.083 57.7922 107.32 57.7922 107.571ZM66.5999 104.804V105.806H64.1356V110.453H62.8774V104.804H66.5999ZM66.9862 107.691V107.571C66.9862 107.163 67.0454 106.786 67.1637 106.438C67.282 106.086 67.4526 105.782 67.6754 105.524C67.9016 105.263 68.1766 105.061 68.5002 104.919C68.8274 104.772 69.1964 104.699 69.6071 104.699C70.0213 104.699 70.3902 104.772 70.7139 104.919C71.0411 105.061 71.3178 105.263 71.544 105.524C71.7703 105.782 71.9425 106.086 72.0609 106.438C72.1792 106.786 72.2384 107.163 72.2384 107.571V107.691C72.2384 108.098 72.1792 108.476 72.0609 108.824C71.9425 109.172 71.7703 109.476 71.544 109.737C71.3178 109.995 71.0428 110.197 70.7191 110.343C70.3954 110.486 70.0282 110.557 69.6175 110.557C69.2033 110.557 68.8326 110.486 68.5055 110.343C68.1818 110.197 67.9068 109.995 67.6806 109.737C67.4543 109.476 67.282 109.172 67.1637 108.824C67.0454 108.476 66.9862 108.098 66.9862 107.691ZM68.2444 107.571V107.691C68.2444 107.945 68.2705 108.185 68.3227 108.411C68.3749 108.638 68.4567 108.836 68.5681 109.006C68.6795 109.177 68.8222 109.311 68.9962 109.408C69.1703 109.506 69.3774 109.555 69.6175 109.555C69.8507 109.555 70.0526 109.506 70.2231 109.408C70.3972 109.311 70.5399 109.177 70.6512 109.006C70.7626 108.836 70.8444 108.638 70.8966 108.411C70.9523 108.185 70.9802 107.945 70.9802 107.691V107.571C70.9802 107.32 70.9523 107.083 70.8966 106.861C70.8444 106.634 70.7609 106.434 70.646 106.26C70.5347 106.086 70.3919 105.951 70.2179 105.853C70.0474 105.752 69.8438 105.702 69.6071 105.702C69.3704 105.702 69.165 105.752 68.991 105.853C68.8205 105.951 68.6795 106.086 68.5681 106.26C68.4567 106.434 68.3749 106.634 68.3227 106.861C68.2705 107.083 68.2444 107.32 68.2444 107.571ZM77.2557 108.615L79.4745 104.804H80.7328V110.453H79.4745V106.636L77.2557 110.453H75.9974V104.804H77.2557V108.615ZM87.0344 109.555C87.2397 109.555 87.4242 109.515 87.5878 109.435C87.7548 109.351 87.8888 109.236 87.9898 109.09C88.0942 108.944 88.1516 108.775 88.1621 108.584H89.3472C89.3402 108.949 89.2323 109.281 89.0235 109.581C88.8147 109.88 88.538 110.119 88.1934 110.296C87.8488 110.47 87.4677 110.557 87.05 110.557C86.6184 110.557 86.2425 110.484 85.9223 110.338C85.6021 110.188 85.3358 109.983 85.1235 109.722C84.9112 109.461 84.7511 109.16 84.6432 108.819C84.5388 108.477 84.4866 108.112 84.4866 107.722V107.539C84.4866 107.15 84.5388 106.784 84.6432 106.443C84.7511 106.098 84.9112 105.796 85.1235 105.535C85.3358 105.274 85.6021 105.07 85.9223 104.924C86.2425 104.774 86.6167 104.699 87.0448 104.699C87.4973 104.699 87.8941 104.79 88.2352 104.971C88.5763 105.148 88.8443 105.397 89.0392 105.717C89.2376 106.034 89.3402 106.403 89.3472 106.824H88.1621C88.1516 106.615 88.0994 106.427 88.0054 106.26C87.9149 106.09 87.7862 105.954 87.6191 105.853C87.4555 105.752 87.2589 105.702 87.0291 105.702C86.775 105.702 86.5645 105.754 86.3974 105.858C86.2303 105.959 86.0998 106.098 86.0058 106.276C85.9119 106.45 85.844 106.647 85.8022 106.866C85.7639 107.082 85.7448 107.306 85.7448 107.539V107.722C85.7448 107.955 85.7639 108.182 85.8022 108.401C85.8405 108.62 85.9066 108.817 86.0006 108.991C86.0981 109.161 86.2303 109.299 86.3974 109.403C86.5645 109.504 86.7768 109.555 87.0344 109.555ZM91.5765 105.89V112.625H90.3183V104.804H91.4773L91.5765 105.89ZM95.2572 107.576V107.686C95.2572 108.096 95.2085 108.477 95.111 108.829C95.0171 109.177 94.8761 109.482 94.6882 109.743C94.5037 110 94.2757 110.2 94.0042 110.343C93.7327 110.486 93.4195 110.557 93.0645 110.557C92.7129 110.557 92.4049 110.493 92.1404 110.364C91.8793 110.232 91.6583 110.045 91.4773 109.805C91.2963 109.565 91.1501 109.283 91.0388 108.959C90.9309 108.632 90.8543 108.274 90.809 107.884V107.461C90.8543 107.047 90.9309 106.671 91.0388 106.333C91.1501 105.996 91.2963 105.705 91.4773 105.461C91.6583 105.218 91.8793 105.03 92.1404 104.898C92.4014 104.765 92.706 104.699 93.054 104.699C93.409 104.699 93.724 104.769 93.999 104.908C94.274 105.044 94.5054 105.239 94.6934 105.493C94.8813 105.743 95.0223 106.046 95.1163 106.401C95.2102 106.753 95.2572 107.144 95.2572 107.576ZM93.999 107.686V107.576C93.999 107.315 93.9746 107.073 93.9259 106.85C93.8772 106.624 93.8006 106.426 93.6962 106.255C93.5918 106.085 93.4578 105.952 93.2942 105.858C93.1341 105.761 92.9409 105.712 92.7147 105.712C92.4919 105.712 92.3005 105.75 92.1404 105.827C91.9803 105.9 91.8463 106.003 91.7384 106.135C91.6305 106.267 91.5469 106.422 91.4878 106.6C91.4286 106.774 91.3868 106.963 91.3625 107.169V108.182C91.4042 108.432 91.4756 108.662 91.5765 108.871C91.6774 109.08 91.8202 109.247 92.0046 109.372C92.1926 109.494 92.4327 109.555 92.7251 109.555C92.9513 109.555 93.1445 109.506 93.3046 109.408C93.4647 109.311 93.5953 109.177 93.6962 109.006C93.8006 108.832 93.8772 108.632 93.9259 108.406C93.9746 108.18 93.999 107.94 93.999 107.686ZM98.8179 110.557C98.4002 110.557 98.0226 110.489 97.6849 110.353C97.3508 110.214 97.0654 110.021 96.8287 109.774C96.5955 109.527 96.4163 109.236 96.291 108.902C96.1657 108.568 96.103 108.208 96.103 107.821V107.612C96.103 107.17 96.1674 106.77 96.2962 106.412C96.425 106.053 96.6042 105.747 96.8339 105.493C97.0637 105.235 97.3351 105.039 97.6484 104.903C97.9616 104.767 98.301 104.699 98.6665 104.699C99.0702 104.699 99.4235 104.767 99.7263 104.903C100.029 105.039 100.28 105.23 100.478 105.477C100.68 105.721 100.83 106.011 100.927 106.349C101.028 106.687 101.079 107.059 101.079 107.466V108.004H96.7139V107.101H99.8359V107.002C99.829 106.775 99.7837 106.563 99.7002 106.365C99.6201 106.166 99.4966 106.006 99.3295 105.884C99.1624 105.763 98.9397 105.702 98.6612 105.702C98.4524 105.702 98.2662 105.747 98.1026 105.837C97.9425 105.924 97.8085 106.051 97.7006 106.219C97.5927 106.386 97.5092 106.587 97.45 106.824C97.3943 107.057 97.3665 107.32 97.3665 107.612V107.821C97.3665 108.068 97.3995 108.298 97.4657 108.51C97.5353 108.719 97.6362 108.902 97.7685 109.059C97.9007 109.215 98.0608 109.339 98.2488 109.429C98.4367 109.516 98.6508 109.56 98.891 109.56C99.1938 109.56 99.4635 109.499 99.7002 109.377C99.9369 109.255 100.142 109.083 100.316 108.86L100.979 109.502C100.857 109.68 100.699 109.85 100.504 110.014C100.309 110.174 100.071 110.305 99.789 110.406C99.5105 110.507 99.1868 110.557 98.8179 110.557ZM103.083 104.804H104.342L104.279 106.793C104.261 107.371 104.195 107.867 104.081 108.281C103.966 108.695 103.816 109.045 103.632 109.33C103.447 109.612 103.238 109.844 103.005 110.025C102.775 110.206 102.533 110.348 102.279 110.453H101.909V109.461L102.086 109.45C102.236 109.29 102.365 109.13 102.472 108.97C102.584 108.806 102.678 108.627 102.754 108.432C102.831 108.234 102.89 108.002 102.932 107.738C102.977 107.473 103.007 107.158 103.021 106.793L103.083 104.804ZM103.417 104.804H106.999V110.453H105.746V105.869H103.417V104.804ZM101.621 109.45H107.772V112.134H106.513V110.453H102.895V112.134H101.616L101.621 109.45ZM112.497 107.163V108.155H109.573V107.163H112.497ZM109.938 104.804V110.453H108.68V104.804H109.938ZM113.405 104.804V110.453H112.147V104.804H113.405ZM117.237 110.557C116.819 110.557 116.442 110.489 116.104 110.353C115.77 110.214 115.485 110.021 115.248 109.774C115.015 109.527 114.836 109.236 114.71 108.902C114.585 108.568 114.522 108.208 114.522 107.821V107.612C114.522 107.17 114.587 106.77 114.715 106.412C114.844 106.053 115.023 105.747 115.253 105.493C115.483 105.235 115.754 105.039 116.068 104.903C116.381 104.767 116.72 104.699 117.086 104.699C117.489 104.699 117.843 104.767 118.146 104.903C118.448 105.039 118.699 105.23 118.897 105.477C119.099 105.721 119.249 106.011 119.346 106.349C119.447 106.687 119.498 107.059 119.498 107.466V108.004H115.133V107.101H118.255V107.002C118.248 106.775 118.203 106.563 118.119 106.365C118.039 106.166 117.916 106.006 117.749 105.884C117.582 105.763 117.359 105.702 117.08 105.702C116.872 105.702 116.685 105.747 116.522 105.837C116.362 105.924 116.228 106.051 116.12 106.219C116.012 106.386 115.928 106.587 115.869 106.824C115.814 107.057 115.786 107.32 115.786 107.612V107.821C115.786 108.068 115.819 108.298 115.885 108.51C115.955 108.719 116.055 108.902 116.188 109.059C116.32 109.215 116.48 109.339 116.668 109.429C116.856 109.516 117.07 109.56 117.31 109.56C117.613 109.56 117.883 109.499 118.119 109.377C118.356 109.255 118.561 109.083 118.736 108.86L119.399 109.502C119.277 109.68 119.118 109.85 118.923 110.014C118.729 110.174 118.49 110.305 118.208 110.406C117.93 110.507 117.606 110.557 117.237 110.557ZM122.97 110.557C122.552 110.557 122.174 110.489 121.837 110.353C121.503 110.214 121.217 110.021 120.98 109.774C120.747 109.527 120.568 109.236 120.443 108.902C120.317 108.568 120.255 108.208 120.255 107.821V107.612C120.255 107.17 120.319 106.77 120.448 106.412C120.577 106.053 120.756 105.747 120.986 105.493C121.215 105.235 121.487 105.039 121.8 104.903C122.113 104.767 122.453 104.699 122.818 104.699C123.222 104.699 123.575 104.767 123.878 104.903C124.181 105.039 124.431 105.23 124.63 105.477C124.832 105.721 124.981 106.011 125.079 106.349C125.18 106.687 125.23 107.059 125.23 107.466V108.004H120.866V107.101H123.988V107.002C123.981 106.775 123.935 106.563 123.852 106.365C123.772 106.166 123.648 106.006 123.481 105.884C123.314 105.763 123.091 105.702 122.813 105.702C122.604 105.702 122.418 105.747 122.254 105.837C122.094 105.924 121.96 106.051 121.852 106.219C121.744 106.386 121.661 106.587 121.602 106.824C121.546 107.057 121.518 107.32 121.518 107.612V107.821C121.518 108.068 121.551 108.298 121.617 108.51C121.687 108.719 121.788 108.902 121.92 109.059C122.052 109.215 122.213 109.339 122.401 109.429C122.589 109.516 122.803 109.56 123.043 109.56C123.346 109.56 123.615 109.499 123.852 109.377C124.089 109.255 124.294 109.083 124.468 108.86L125.131 109.502C125.009 109.68 124.851 109.85 124.656 110.014C124.461 110.174 124.223 110.305 123.941 110.406C123.662 110.507 123.339 110.557 122.97 110.557ZM126.227 109.826C126.227 109.631 126.294 109.468 126.426 109.335C126.558 109.2 126.737 109.132 126.964 109.132C127.193 109.132 127.373 109.2 127.501 109.335C127.634 109.468 127.7 109.631 127.7 109.826C127.7 110.021 127.634 110.185 127.501 110.317C127.373 110.449 127.193 110.515 126.964 110.515C126.737 110.515 126.558 110.449 126.426 110.317C126.294 110.185 126.227 110.021 126.227 109.826ZM126.233 105.378C126.233 105.183 126.299 105.019 126.431 104.887C126.563 104.751 126.743 104.684 126.969 104.684C127.199 104.684 127.378 104.751 127.507 104.887C127.639 105.019 127.705 105.183 127.705 105.378C127.705 105.573 127.639 105.736 127.507 105.869C127.378 106.001 127.199 106.067 126.969 106.067C126.743 106.067 126.563 106.001 126.431 105.869C126.299 105.736 126.233 105.573 126.233 105.378Z" fill="#4F5A7C"/>
<mask id="path-13-inside-2_85_252" fill="white">
<path d="M137.13 97.0156H205.895V119.249H137.13V97.0156Z"/>
</mask>
<path d="M137.13 97.0156H205.895V119.249H137.13V97.0156Z" fill="#F5F5F5"/>
<path d="M205.895 119.249V118.485H137.13V119.249V120.013H205.895V119.249Z" fill="#F5F5F5" mask="url(#path-13-inside-2_85_252)"/>
<path d="M167.988 108.38C167.988 108.853 167.878 109.252 167.659 109.576C167.439 109.899 167.14 110.145 166.761 110.312C166.385 110.475 165.96 110.557 165.487 110.557C165.013 110.557 164.587 110.475 164.208 110.312C163.828 110.145 163.529 109.899 163.31 109.576C163.09 109.252 162.981 108.853 162.981 108.38C162.981 108.067 163.042 107.783 163.163 107.529C163.285 107.271 163.458 107.05 163.68 106.866C163.907 106.678 164.171 106.534 164.474 106.433C164.78 106.332 165.114 106.281 165.476 106.281C165.957 106.281 166.386 106.37 166.766 106.547C167.145 106.725 167.443 106.97 167.659 107.284C167.878 107.597 167.988 107.962 167.988 108.38ZM166.724 108.317C166.724 108.063 166.672 107.84 166.567 107.649C166.463 107.458 166.317 107.31 166.129 107.205C165.941 107.101 165.723 107.049 165.476 107.049C165.226 107.049 165.008 107.101 164.824 107.205C164.639 107.31 164.495 107.458 164.39 107.649C164.289 107.84 164.239 108.063 164.239 108.317C164.239 108.575 164.289 108.798 164.39 108.986C164.491 109.17 164.636 109.311 164.824 109.408C165.012 109.506 165.233 109.555 165.487 109.555C165.741 109.555 165.96 109.506 166.145 109.408C166.329 109.311 166.472 109.17 166.573 108.986C166.674 108.798 166.724 108.575 166.724 108.317ZM167.815 104.851C167.815 105.23 167.714 105.568 167.512 105.863C167.314 106.159 167.039 106.393 166.688 106.563C166.336 106.73 165.936 106.814 165.487 106.814C165.034 106.814 164.63 106.73 164.275 106.563C163.924 106.393 163.647 106.159 163.445 105.863C163.247 105.568 163.148 105.23 163.148 104.851C163.148 104.398 163.247 104.017 163.445 103.707C163.647 103.394 163.924 103.156 164.275 102.992C164.627 102.828 165.029 102.747 165.481 102.747C165.934 102.747 166.336 102.828 166.688 102.992C167.039 103.156 167.314 103.394 167.512 103.707C167.714 104.017 167.815 104.398 167.815 104.851ZM166.557 104.892C166.557 104.666 166.512 104.468 166.421 104.297C166.334 104.123 166.211 103.987 166.051 103.89C165.89 103.793 165.701 103.744 165.481 103.744C165.262 103.744 165.073 103.791 164.912 103.885C164.752 103.979 164.629 104.111 164.542 104.282C164.455 104.452 164.411 104.656 164.411 104.892C164.411 105.126 164.455 105.329 164.542 105.503C164.629 105.674 164.752 105.808 164.912 105.905C165.076 106.003 165.267 106.051 165.487 106.051C165.706 106.051 165.896 106.003 166.056 105.905C166.216 105.808 166.339 105.674 166.426 105.503C166.513 105.329 166.557 105.126 166.557 104.892ZM170.572 106.083H171.324C171.616 106.083 171.858 106.032 172.049 105.931C172.244 105.83 172.389 105.691 172.483 105.514C172.577 105.336 172.624 105.133 172.624 104.903C172.624 104.663 172.58 104.457 172.493 104.287C172.41 104.113 172.281 103.979 172.107 103.885C171.936 103.791 171.719 103.744 171.454 103.744C171.231 103.744 171.03 103.789 170.849 103.88C170.671 103.967 170.53 104.092 170.426 104.255C170.321 104.416 170.269 104.607 170.269 104.83H169.006C169.006 104.426 169.112 104.068 169.324 103.754C169.536 103.441 169.825 103.196 170.191 103.018C170.56 102.837 170.974 102.747 171.433 102.747C171.924 102.747 172.352 102.828 172.718 102.992C173.087 103.152 173.374 103.392 173.579 103.712C173.784 104.033 173.887 104.429 173.887 104.903C173.887 105.119 173.837 105.338 173.736 105.561C173.635 105.783 173.485 105.987 173.287 106.172C173.088 106.353 172.841 106.5 172.545 106.615C172.249 106.727 171.907 106.782 171.517 106.782H170.572V106.083ZM170.572 107.064V106.375H171.517C171.962 106.375 172.342 106.427 172.655 106.532C172.972 106.636 173.229 106.781 173.428 106.965C173.626 107.146 173.771 107.353 173.861 107.586C173.955 107.82 174.002 108.067 174.002 108.328C174.002 108.683 173.938 108.999 173.809 109.278C173.683 109.553 173.504 109.786 173.271 109.978C173.038 110.169 172.765 110.313 172.451 110.411C172.142 110.508 171.804 110.557 171.439 110.557C171.111 110.557 170.798 110.512 170.499 110.421C170.199 110.331 169.931 110.197 169.695 110.019C169.458 109.838 169.27 109.614 169.131 109.346C168.995 109.074 168.927 108.761 168.927 108.406H170.186C170.186 108.632 170.238 108.832 170.342 109.006C170.45 109.177 170.6 109.311 170.791 109.408C170.986 109.506 171.209 109.555 171.459 109.555C171.724 109.555 171.952 109.508 172.143 109.414C172.335 109.32 172.481 109.18 172.582 108.996C172.686 108.812 172.739 108.589 172.739 108.328C172.739 108.032 172.681 107.792 172.566 107.607C172.451 107.423 172.288 107.287 172.075 107.2C171.863 107.11 171.613 107.064 171.324 107.064H170.572ZM178.972 102.804H179.129V103.833H179.04C178.591 103.833 178.203 103.902 177.876 104.041C177.552 104.181 177.286 104.372 177.077 104.616C176.868 104.859 176.712 105.145 176.607 105.472C176.506 105.796 176.456 106.14 176.456 106.506V107.701C176.456 108.004 176.489 108.272 176.555 108.505C176.621 108.735 176.713 108.928 176.832 109.085C176.953 109.238 177.093 109.355 177.249 109.435C177.406 109.515 177.575 109.555 177.756 109.555C177.944 109.555 178.114 109.516 178.267 109.44C178.421 109.36 178.551 109.25 178.659 109.111C178.767 108.972 178.849 108.806 178.904 108.615C178.96 108.423 178.988 108.215 178.988 107.988C178.988 107.773 178.96 107.571 178.904 107.383C178.852 107.191 178.774 107.024 178.669 106.882C178.565 106.735 178.434 106.622 178.278 106.542C178.125 106.459 177.947 106.417 177.745 106.417C177.495 106.417 177.267 106.476 177.061 106.594C176.86 106.713 176.696 106.868 176.571 107.059C176.449 107.247 176.383 107.447 176.372 107.659L175.892 107.503C175.92 107.179 175.991 106.889 176.106 106.631C176.224 106.373 176.379 106.154 176.571 105.973C176.762 105.792 176.983 105.655 177.234 105.561C177.488 105.463 177.766 105.414 178.069 105.414C178.438 105.414 178.758 105.484 179.03 105.623C179.301 105.763 179.526 105.952 179.703 106.192C179.884 106.429 180.018 106.701 180.105 107.007C180.196 107.31 180.241 107.626 180.241 107.957C180.241 108.323 180.185 108.664 180.074 108.98C179.962 109.294 179.799 109.569 179.583 109.805C179.371 110.042 179.111 110.226 178.805 110.359C178.502 110.491 178.158 110.557 177.771 110.557C177.364 110.557 177 110.479 176.68 110.322C176.364 110.165 176.094 109.95 175.871 109.675C175.652 109.4 175.485 109.083 175.37 108.725C175.255 108.366 175.198 107.987 175.198 107.586V107.064C175.198 106.487 175.271 105.942 175.417 105.43C175.563 104.915 175.788 104.461 176.09 104.068C176.397 103.674 176.788 103.366 177.265 103.143C177.742 102.917 178.311 102.804 178.972 102.804Z" fill="#4F5A7C"/>
<mask id="path-16-inside-3_85_252" fill="white">
<path d="M201 97.0156H269.765V119.249H201V97.0156Z"/>
</mask>
<path d="M201 97.0156H269.765V119.249H201V97.0156Z" fill="#F5F5F5"/>
<path d="M269.765 119.249V118.485H201V119.249V120.013H269.765V119.249Z" fill="#F5F5F5" mask="url(#path-16-inside-3_85_252)"/>
<path d="M228.365 106.083H229.117C229.409 106.083 229.651 106.032 229.842 105.931C230.037 105.83 230.182 105.691 230.276 105.514C230.37 105.336 230.417 105.133 230.417 104.903C230.417 104.663 230.373 104.457 230.286 104.287C230.203 104.113 230.074 103.979 229.9 103.885C229.729 103.791 229.512 103.744 229.247 103.744C229.024 103.744 228.823 103.789 228.642 103.88C228.464 103.967 228.323 104.092 228.219 104.255C228.114 104.416 228.062 104.607 228.062 104.83H226.799C226.799 104.426 226.905 104.068 227.117 103.754C227.329 103.441 227.618 103.196 227.984 103.018C228.353 102.837 228.767 102.747 229.226 102.747C229.717 102.747 230.145 102.828 230.511 102.992C230.88 103.152 231.167 103.392 231.372 103.712C231.577 104.033 231.68 104.429 231.68 104.903C231.68 105.119 231.63 105.338 231.529 105.561C231.428 105.783 231.278 105.987 231.08 106.172C230.881 106.353 230.634 106.5 230.338 106.615C230.043 106.727 229.7 106.782 229.31 106.782H228.365V106.083ZM228.365 107.064V106.375H229.31C229.755 106.375 230.135 106.427 230.448 106.532C230.765 106.636 231.022 106.781 231.221 106.965C231.419 107.146 231.564 107.353 231.654 107.586C231.748 107.82 231.795 108.067 231.795 108.328C231.795 108.683 231.731 108.999 231.602 109.278C231.477 109.553 231.297 109.786 231.064 109.978C230.831 110.169 230.558 110.313 230.244 110.411C229.935 110.508 229.597 110.557 229.232 110.557C228.904 110.557 228.591 110.512 228.292 110.421C227.992 110.331 227.724 110.197 227.488 110.019C227.251 109.838 227.063 109.614 226.924 109.346C226.788 109.074 226.72 108.761 226.72 108.406H227.979C227.979 108.632 228.031 108.832 228.135 109.006C228.243 109.177 228.393 109.311 228.584 109.408C228.779 109.506 229.002 109.555 229.252 109.555C229.517 109.555 229.745 109.508 229.936 109.414C230.128 109.32 230.274 109.18 230.375 108.996C230.479 108.812 230.532 108.589 230.532 108.328C230.532 108.032 230.474 107.792 230.359 107.607C230.244 107.423 230.081 107.287 229.868 107.2C229.656 107.11 229.406 107.064 229.117 107.064H228.365ZM236.4 102.825V110.453H235.142V104.318L233.278 104.95V103.911L236.248 102.825H236.4ZM244.278 107.743V108.745H238.796L238.754 107.988L242.033 102.851H243.041L241.95 104.72L240.065 107.743H244.278ZM243.328 102.851V110.453H242.07V102.851H243.328Z" fill="#4F5A7C"/>
<mask id="path-19-inside-4_85_252" fill="white">
<path d="M264 97.0156H332.765V119.249H264V97.0156Z"/>
</mask>
<path d="M264 97.0156H332.765V119.249H264V97.0156Z" fill="#F5F5F5"/>
<path d="M332.765 119.249V118.485H264V119.249V120.013H332.765V119.249Z" fill="#F5F5F5" mask="url(#path-19-inside-4_85_252)"/>
<path d="M295.124 107.743V108.745H289.642L289.6 107.988L292.879 102.851H293.887L292.795 104.72L290.911 107.743H295.124ZM294.174 102.851V110.453H292.915V102.851H294.174ZM299.765 102.804H299.922V103.833H299.833C299.384 103.833 298.996 103.902 298.669 104.041C298.345 104.181 298.079 104.372 297.87 104.616C297.661 104.859 297.505 105.145 297.4 105.472C297.299 105.796 297.249 106.14 297.249 106.506V107.701C297.249 108.004 297.282 108.272 297.348 108.505C297.414 108.735 297.506 108.928 297.625 109.085C297.747 109.238 297.886 109.355 298.042 109.435C298.199 109.515 298.368 109.555 298.549 109.555C298.737 109.555 298.907 109.516 299.06 109.44C299.214 109.36 299.344 109.25 299.452 109.111C299.56 108.972 299.642 108.806 299.697 108.615C299.753 108.423 299.781 108.215 299.781 107.988C299.781 107.773 299.753 107.571 299.697 107.383C299.645 107.191 299.567 107.024 299.462 106.882C299.358 106.735 299.228 106.622 299.071 106.542C298.918 106.459 298.74 106.417 298.538 106.417C298.288 106.417 298.06 106.476 297.854 106.594C297.653 106.713 297.489 106.868 297.364 107.059C297.242 107.247 297.176 107.447 297.165 107.659L296.685 107.503C296.713 107.179 296.784 106.889 296.899 106.631C297.017 106.373 297.172 106.154 297.364 105.973C297.555 105.792 297.776 105.655 298.027 105.561C298.281 105.463 298.559 105.414 298.862 105.414C299.231 105.414 299.551 105.484 299.823 105.623C300.094 105.763 300.319 105.952 300.496 106.192C300.677 106.429 300.811 106.701 300.898 107.007C300.989 107.31 301.034 107.626 301.034 107.957C301.034 108.323 300.978 108.664 300.867 108.98C300.755 109.294 300.592 109.569 300.376 109.805C300.164 110.042 299.904 110.226 299.598 110.359C299.295 110.491 298.951 110.557 298.564 110.557C298.157 110.557 297.794 110.479 297.473 110.322C297.157 110.165 296.887 109.95 296.664 109.675C296.445 109.4 296.278 109.083 296.163 108.725C296.048 108.366 295.991 107.987 295.991 107.586V107.064C295.991 106.487 296.064 105.942 296.21 105.43C296.356 104.915 296.581 104.461 296.883 104.068C297.19 103.674 297.581 103.366 298.058 103.143C298.535 102.917 299.104 102.804 299.765 102.804ZM303.519 106.083H304.271C304.563 106.083 304.805 106.032 304.997 105.931C305.191 105.83 305.336 105.691 305.43 105.514C305.524 105.336 305.571 105.133 305.571 104.903C305.571 104.663 305.527 104.457 305.44 104.287C305.357 104.113 305.228 103.979 305.054 103.885C304.883 103.791 304.666 103.744 304.401 103.744C304.179 103.744 303.977 103.789 303.796 103.88C303.618 103.967 303.477 104.092 303.373 104.255C303.268 104.416 303.216 104.607 303.216 104.83H301.953C301.953 104.426 302.059 104.068 302.271 103.754C302.484 103.441 302.772 103.196 303.138 103.018C303.507 102.837 303.921 102.747 304.381 102.747C304.871 102.747 305.299 102.828 305.665 102.992C306.034 103.152 306.321 103.392 306.526 103.712C306.732 104.033 306.834 104.429 306.834 104.903C306.834 105.119 306.784 105.338 306.683 105.561C306.582 105.783 306.432 105.987 306.234 106.172C306.036 106.353 305.788 106.5 305.493 106.615C305.197 106.727 304.854 106.782 304.464 106.782H303.519V106.083ZM303.519 107.064V106.375H304.464C304.91 106.375 305.289 106.427 305.602 106.532C305.919 106.636 306.176 106.781 306.375 106.965C306.573 107.146 306.718 107.353 306.808 107.586C306.902 107.82 306.949 108.067 306.949 108.328C306.949 108.683 306.885 108.999 306.756 109.278C306.631 109.553 306.451 109.786 306.218 109.978C305.985 110.169 305.712 110.313 305.399 110.411C305.089 110.508 304.751 110.557 304.386 110.557C304.059 110.557 303.745 110.512 303.446 110.421C303.147 110.331 302.879 110.197 302.642 110.019C302.405 109.838 302.217 109.614 302.078 109.346C301.942 109.074 301.874 108.761 301.874 108.406H303.133C303.133 108.632 303.185 108.832 303.289 109.006C303.397 109.177 303.547 109.311 303.738 109.408C303.933 109.506 304.156 109.555 304.407 109.555C304.671 109.555 304.899 109.508 305.091 109.414C305.282 109.32 305.428 109.18 305.529 108.996C305.634 108.812 305.686 108.589 305.686 108.328C305.686 108.032 305.628 107.792 305.513 107.607C305.399 107.423 305.235 107.287 305.023 107.2C304.81 107.11 304.56 107.064 304.271 107.064H303.519Z" fill="#4F5A7C"/>
<mask id="path-22-inside-5_85_252" fill="white">
<path d="M35.0938 119.232H262.994V141.466H35.0938V119.232Z"/>
</mask>
<path d="M262.994 141.466V140.702H35.0938V141.466V142.229H262.994V141.466Z" fill="#F5F5F5" mask="url(#path-22-inside-5_85_252)"/>
<path d="M47.2684 127.02H47.8479V132.57C47.8479 133.061 47.7539 133.482 47.566 133.833C47.3815 134.185 47.1187 134.454 46.7776 134.642C46.44 134.83 46.0415 134.924 45.582 134.924C45.3488 134.924 45.1087 134.888 44.8616 134.815C44.6179 134.745 44.3865 134.637 44.1672 134.491C43.9514 134.348 43.7669 134.171 43.6138 133.959L43.9636 133.577C44.1933 133.856 44.4387 134.059 44.6997 134.188C44.9608 134.32 45.2427 134.387 45.5455 134.387C45.904 134.387 46.2068 134.315 46.4539 134.173C46.7045 134.03 46.8942 133.824 47.023 133.556C47.1553 133.288 47.2214 132.967 47.2214 132.591V128.263L47.2684 127.02ZM43.3005 129.902V129.792C43.3005 129.354 43.3492 128.959 43.4467 128.607C43.5476 128.252 43.6921 127.949 43.88 127.699C44.068 127.445 44.296 127.251 44.564 127.119C44.8355 126.983 45.1417 126.916 45.4828 126.916C45.81 126.916 46.1006 126.969 46.3547 127.077C46.6088 127.185 46.8281 127.34 47.0126 127.542C47.197 127.744 47.345 127.984 47.4563 128.263C47.5712 128.541 47.6547 128.851 47.7069 129.192V130.586C47.6652 130.906 47.5886 131.2 47.4772 131.468C47.3658 131.733 47.2179 131.964 47.0334 132.163C46.849 132.357 46.6262 132.509 46.3652 132.617C46.1076 132.721 45.81 132.773 45.4724 132.773C45.1348 132.773 44.832 132.704 44.564 132.565C44.296 132.425 44.068 132.229 43.88 131.975C43.6921 131.717 43.5476 131.412 43.4467 131.061C43.3492 130.709 43.3005 130.323 43.3005 129.902ZM43.927 129.792V129.902C43.927 130.233 43.9601 130.539 44.0262 130.821C44.0924 131.103 44.1933 131.348 44.329 131.557C44.4648 131.766 44.6371 131.929 44.8459 132.048C45.0547 132.166 45.3001 132.225 45.582 132.225C45.9405 132.225 46.2416 132.157 46.4853 132.022C46.7289 131.882 46.9221 131.7 47.0648 131.473C47.2075 131.244 47.3119 130.993 47.378 130.722V129.098C47.3397 128.913 47.2806 128.725 47.2005 128.534C47.1239 128.343 47.016 128.167 46.8768 128.007C46.7411 127.843 46.567 127.713 46.3547 127.615C46.1459 127.514 45.8918 127.464 45.5925 127.464C45.3071 127.464 45.0582 127.523 44.8459 127.641C44.6371 127.76 44.4648 127.925 44.329 128.137C44.1933 128.346 44.0924 128.591 44.0262 128.873C43.9601 129.155 43.927 129.462 43.927 129.792ZM52.9174 131.656V128.743C52.9174 128.475 52.8617 128.243 52.7503 128.048C52.6389 127.854 52.4753 127.704 52.2595 127.599C52.0437 127.495 51.7775 127.443 51.4607 127.443C51.1684 127.443 50.9073 127.495 50.6776 127.599C50.4514 127.7 50.2721 127.838 50.1399 128.012C50.0111 128.182 49.9467 128.372 49.9467 128.581L49.3202 128.576C49.3202 128.363 49.3724 128.158 49.4768 127.96C49.5812 127.761 49.7292 127.584 49.9206 127.427C50.112 127.271 50.34 127.147 50.6045 127.057C50.8725 126.963 51.1666 126.916 51.4869 126.916C51.8906 126.916 52.2456 126.983 52.5519 127.119C52.8617 127.255 53.1036 127.459 53.2776 127.73C53.4516 128.001 53.5387 128.343 53.5387 128.753V131.484C53.5387 131.679 53.5526 131.881 53.5804 132.089C53.6117 132.298 53.6553 132.471 53.7109 132.606V132.669H53.0479C53.0061 132.544 52.9731 132.387 52.9487 132.199C52.9278 132.008 52.9174 131.827 52.9174 131.656ZM53.0636 129.38L53.074 129.86H51.8471C51.5269 129.86 51.2397 129.89 50.9856 129.949C50.735 130.005 50.5227 130.088 50.3487 130.199C50.1747 130.307 50.0407 130.438 49.9467 130.591C49.8562 130.744 49.811 130.918 49.811 131.113C49.811 131.315 49.8614 131.499 49.9624 131.667C50.0668 131.834 50.213 131.968 50.4009 132.069C50.5923 132.166 50.8186 132.215 51.0796 132.215C51.4277 132.215 51.734 132.15 51.9985 132.022C52.2665 131.893 52.4875 131.724 52.6615 131.515C52.8356 131.306 52.9522 131.078 53.0113 130.831L53.2828 131.191C53.2376 131.365 53.1541 131.545 53.0322 131.729C52.9139 131.91 52.759 132.081 52.5676 132.241C52.3761 132.397 52.1499 132.526 51.8889 132.627C51.6313 132.725 51.3389 132.773 51.0118 132.773C50.6428 132.773 50.3209 132.704 50.0459 132.565C49.7744 132.425 49.5621 132.236 49.4089 131.995C49.2593 131.752 49.1844 131.477 49.1844 131.171C49.1844 130.892 49.2436 130.643 49.362 130.424C49.4803 130.201 49.6508 130.013 49.8736 129.86C50.0998 129.703 50.3713 129.585 50.6881 129.505C51.0083 129.422 51.3668 129.38 51.7636 129.38H53.0636ZM55.8045 128.189V132.669H55.178V127.02H55.7784L55.8045 128.189ZM55.6897 129.495L55.3868 129.338C55.4077 129.004 55.4704 128.691 55.5748 128.398C55.6827 128.106 55.8324 127.848 56.0238 127.626C56.2152 127.403 56.4449 127.229 56.7129 127.103C56.981 126.978 57.2855 126.916 57.6266 126.916C57.9016 126.916 58.1504 126.954 58.3732 127.03C58.5994 127.103 58.7909 127.22 58.9475 127.38C59.1076 127.537 59.2311 127.742 59.3182 127.996C59.4052 128.25 59.4487 128.555 59.4487 128.91V132.669H58.8274V128.931C58.8274 128.555 58.7682 128.261 58.6499 128.048C58.535 127.836 58.3732 127.685 58.1643 127.594C57.959 127.504 57.7206 127.459 57.4491 127.459C57.1289 127.459 56.8574 127.525 56.6346 127.657C56.4154 127.786 56.2361 127.954 56.0969 128.163C55.9611 128.369 55.8602 128.59 55.7941 128.826C55.7279 129.06 55.6931 129.282 55.6897 129.495ZM59.4435 129.004L59.0258 129.014C59.0432 128.739 59.1058 128.477 59.2137 128.226C59.3251 127.975 59.4765 127.753 59.668 127.558C59.8594 127.359 60.0874 127.203 60.3519 127.088C60.6199 126.973 60.921 126.916 61.2551 126.916C61.5475 126.916 61.8085 126.956 62.0382 127.036C62.268 127.112 62.4611 127.236 62.6178 127.406C62.7779 127.573 62.8997 127.787 62.9832 128.048C63.0668 128.31 63.1085 128.623 63.1085 128.988V132.669H62.482V128.983C62.482 128.583 62.4228 128.273 62.3045 128.054C62.1896 127.831 62.0295 127.676 61.8242 127.589C61.6188 127.502 61.3787 127.459 61.1037 127.459C60.8322 127.462 60.5938 127.512 60.3884 127.61C60.1831 127.704 60.0108 127.829 59.8716 127.986C59.7358 128.139 59.6314 128.304 59.5583 128.482C59.4887 128.659 59.4504 128.833 59.4435 129.004ZM66.878 132.773C66.509 132.773 66.1697 132.705 65.8599 132.57C65.5536 132.434 65.2856 132.243 65.0559 131.995C64.8297 131.748 64.6539 131.456 64.5286 131.118C64.4068 130.777 64.3459 130.405 64.3459 130.001V129.777C64.3459 129.342 64.4103 128.948 64.539 128.597C64.6678 128.245 64.8453 127.944 65.0716 127.693C65.2978 127.443 65.5554 127.251 65.8443 127.119C66.1366 126.983 66.4429 126.916 66.7631 126.916C67.1216 126.916 67.4401 126.98 67.7185 127.109C67.997 127.234 68.2302 127.413 68.4181 127.646C68.6096 127.876 68.754 128.149 68.8515 128.466C68.9489 128.779 68.9977 129.126 68.9977 129.505V129.886H64.7218V129.354H68.3764V129.281C68.3694 128.964 68.305 128.668 68.1832 128.393C68.0649 128.115 67.8874 127.888 67.6507 127.714C67.414 127.54 67.1181 127.453 66.7631 127.453C66.4986 127.453 66.255 127.509 66.0322 127.62C65.8129 127.732 65.6232 127.892 65.4631 128.101C65.3065 128.306 65.1847 128.551 65.0977 128.837C65.0141 129.119 64.9724 129.432 64.9724 129.777V130.001C64.9724 130.314 65.0176 130.607 65.1081 130.878C65.2021 131.146 65.3344 131.383 65.5049 131.588C65.6789 131.794 65.8843 131.954 66.121 132.069C66.3576 132.183 66.6187 132.241 66.9041 132.241C67.2382 132.241 67.5341 132.18 67.7916 132.058C68.0492 131.933 68.2807 131.736 68.486 131.468L68.8776 131.771C68.7558 131.952 68.6026 132.119 68.4181 132.272C68.2372 132.425 68.0196 132.547 67.7655 132.638C67.5115 132.728 67.2156 132.773 66.878 132.773ZM70.1724 132.288C70.1724 132.166 70.2106 132.063 70.2872 131.98C70.3673 131.893 70.4752 131.849 70.6109 131.849C70.7501 131.849 70.8598 131.893 70.9398 131.98C71.0199 132.063 71.0599 132.166 71.0599 132.288C71.0599 132.406 71.0199 132.507 70.9398 132.591C70.8598 132.674 70.7501 132.716 70.6109 132.716C70.4752 132.716 70.3673 132.674 70.2872 132.591C70.2106 132.507 70.1724 132.406 70.1724 132.288ZM74.4639 132.105L76.2234 127.02H76.8968L74.5057 133.577C74.457 133.706 74.3943 133.849 74.3177 134.005C74.2446 134.162 74.1472 134.312 74.0254 134.454C73.907 134.601 73.7574 134.719 73.5764 134.81C73.3989 134.903 73.1813 134.95 72.9238 134.95C72.8576 134.95 72.7724 134.942 72.6679 134.924C72.567 134.91 72.4939 134.897 72.4487 134.883L72.4434 134.355C72.4817 134.366 72.5374 134.374 72.6105 134.381C72.6836 134.388 72.7341 134.392 72.7619 134.392C72.9882 134.392 73.1778 134.354 73.331 134.277C73.4876 134.2 73.6181 134.086 73.7226 133.932C73.827 133.783 73.9192 133.595 73.9993 133.369L74.4639 132.105ZM72.8193 127.02L74.6205 131.87L74.7876 132.523L74.3334 132.779L72.1406 127.02H72.8193ZM81.225 131.656V128.743C81.225 128.475 81.1693 128.243 81.0579 128.048C80.9465 127.854 80.7829 127.704 80.5671 127.599C80.3513 127.495 80.0851 127.443 79.7683 127.443C79.476 127.443 79.2149 127.495 78.9852 127.599C78.759 127.7 78.5797 127.838 78.4474 128.012C78.3187 128.182 78.2543 128.372 78.2543 128.581L77.6278 128.576C77.6278 128.363 77.68 128.158 77.7844 127.96C77.8888 127.761 78.0367 127.584 78.2282 127.427C78.4196 127.271 78.6476 127.147 78.9121 127.057C79.1801 126.963 79.4742 126.916 79.7944 126.916C80.1982 126.916 80.5532 126.983 80.8595 127.119C81.1693 127.255 81.4112 127.459 81.5852 127.73C81.7592 128.001 81.8462 128.343 81.8462 128.753V131.484C81.8462 131.679 81.8602 131.881 81.888 132.089C81.9193 132.298 81.9628 132.471 82.0185 132.606V132.669H81.3555C81.3137 132.544 81.2806 132.387 81.2563 132.199C81.2354 132.008 81.225 131.827 81.225 131.656ZM81.3711 129.38L81.3816 129.86H80.1547C79.8345 129.86 79.5473 129.89 79.2932 129.949C79.0426 130.005 78.8303 130.088 78.6563 130.199C78.4823 130.307 78.3483 130.438 78.2543 130.591C78.1638 130.744 78.1185 130.918 78.1185 131.113C78.1185 131.315 78.169 131.499 78.2699 131.667C78.3744 131.834 78.5205 131.968 78.7085 132.069C78.8999 132.166 79.1262 132.215 79.3872 132.215C79.7353 132.215 80.0416 132.15 80.3061 132.022C80.5741 131.893 80.7951 131.724 80.9691 131.515C81.1432 131.306 81.2598 131.078 81.3189 130.831L81.5904 131.191C81.5452 131.365 81.4616 131.545 81.3398 131.729C81.2215 131.91 81.0666 132.081 80.8752 132.241C80.6837 132.397 80.4575 132.526 80.1964 132.627C79.9389 132.725 79.6465 132.773 79.3193 132.773C78.9504 132.773 78.6284 132.704 78.3535 132.565C78.082 132.425 77.8697 132.236 77.7165 131.995C77.5669 131.752 77.492 131.477 77.492 131.171C77.492 130.892 77.5512 130.643 77.6695 130.424C77.7879 130.201 77.9584 130.013 78.1812 129.86C78.4074 129.703 78.6789 129.585 78.9956 129.505C79.3159 129.422 79.6744 129.38 80.0711 129.38H81.3711ZM84.1434 128.226V132.669H83.5221V127.02H84.1173L84.1434 128.226ZM84.0025 129.495L83.7257 129.338C83.7466 129.004 83.8145 128.691 83.9294 128.398C84.0442 128.106 84.1991 127.848 84.394 127.626C84.5924 127.403 84.8239 127.229 85.0884 127.103C85.3564 126.978 85.6523 126.916 85.9759 126.916C86.2579 126.916 86.5102 126.954 86.733 127.03C86.9557 127.107 87.1454 127.229 87.302 127.396C87.4587 127.563 87.577 127.777 87.6571 128.038C87.7406 128.299 87.7824 128.618 87.7824 128.993V132.669H87.1559V128.988C87.1559 128.598 87.1019 128.294 86.994 128.075C86.8861 127.852 86.733 127.693 86.5346 127.599C86.3362 127.506 86.1012 127.459 85.8298 127.459C85.5304 127.459 85.2676 127.525 85.0414 127.657C84.8187 127.786 84.6307 127.954 84.4776 128.163C84.3279 128.369 84.213 128.59 84.133 128.826C84.0529 129.06 84.0094 129.282 84.0025 129.495ZM93.0711 131.573V124.65H93.6976V132.669H93.1129L93.0711 131.573ZM89.1502 129.902V129.792C89.1502 129.354 89.2007 128.959 89.3016 128.607C89.4026 128.252 89.547 127.949 89.735 127.699C89.9264 127.445 90.1561 127.251 90.4241 127.119C90.6921 126.983 90.9949 126.916 91.3326 126.916C91.6632 126.916 91.9556 126.969 92.2097 127.077C92.4638 127.185 92.6813 127.34 92.8623 127.542C93.0467 127.744 93.1947 127.984 93.3061 128.263C93.4209 128.541 93.5044 128.851 93.5567 129.192V130.586C93.5149 130.906 93.4383 131.2 93.3269 131.468C93.2156 131.733 93.0676 131.964 92.8832 132.163C92.6987 132.357 92.4759 132.509 92.2149 132.617C91.9573 132.721 91.6597 132.773 91.3221 132.773C90.988 132.773 90.6869 132.704 90.4189 132.565C90.1509 132.425 89.9229 132.229 89.735 131.975C89.547 131.717 89.4026 131.412 89.3016 131.061C89.2007 130.709 89.1502 130.323 89.1502 129.902ZM89.7767 129.792V129.902C89.7767 130.233 89.8098 130.539 89.8759 130.821C89.9421 131.103 90.043 131.348 90.1787 131.557C90.3145 131.766 90.4868 131.929 90.6956 132.048C90.9045 132.166 91.1516 132.225 91.437 132.225C91.7955 132.225 92.0966 132.157 92.3402 132.022C92.5838 131.882 92.7787 131.7 92.9249 131.473C93.0711 131.244 93.1773 130.993 93.2434 130.722V129.098C93.2016 128.913 93.1407 128.725 93.0607 128.534C92.9806 128.343 92.871 128.167 92.7318 128.007C92.596 127.843 92.422 127.713 92.2097 127.615C92.0008 127.514 91.7468 127.464 91.4474 127.464C91.1585 127.464 90.9097 127.523 90.7008 127.641C90.492 127.76 90.318 127.925 90.1787 128.137C90.043 128.346 89.9421 128.591 89.8759 128.873C89.8098 129.155 89.7767 129.462 89.7767 129.792ZM97.5245 132.773C97.1556 132.773 96.8162 132.705 96.5065 132.57C96.2002 132.434 95.9322 132.243 95.7024 131.995C95.4762 131.748 95.3004 131.456 95.1751 131.118C95.0533 130.777 94.9924 130.405 94.9924 130.001V129.777C94.9924 129.342 95.0568 128.948 95.1856 128.597C95.3144 128.245 95.4919 127.944 95.7181 127.693C95.9443 127.443 96.2019 127.251 96.4908 127.119C96.7832 126.983 97.0894 126.916 97.4097 126.916C97.7682 126.916 98.0866 126.98 98.3651 127.109C98.6435 127.234 98.8767 127.413 99.0647 127.646C99.2561 127.876 99.4006 128.149 99.498 128.466C99.5955 128.779 99.6442 129.126 99.6442 129.505V129.886H95.3683V129.354H99.0229V129.281C99.016 128.964 98.9516 128.668 98.8297 128.393C98.7114 128.115 98.5339 127.888 98.2972 127.714C98.0605 127.54 97.7647 127.453 97.4097 127.453C97.1451 127.453 96.9015 127.509 96.6787 127.62C96.4595 127.732 96.2698 127.892 96.1097 128.101C95.953 128.306 95.8312 128.551 95.7442 128.837C95.6607 129.119 95.6189 129.432 95.6189 129.777V130.001C95.6189 130.314 95.6641 130.607 95.7546 130.878C95.8486 131.146 95.9809 131.383 96.1514 131.588C96.3255 131.794 96.5308 131.954 96.7675 132.069C97.0042 132.183 97.2652 132.241 97.5506 132.241C97.8848 132.241 98.1806 132.18 98.4382 132.058C98.6957 131.933 98.9272 131.736 99.1326 131.468L99.5241 131.771C99.4023 131.952 99.2491 132.119 99.0647 132.272C98.8837 132.425 98.6662 132.547 98.4121 132.638C98.158 132.728 97.8621 132.773 97.5245 132.773ZM101.122 127.02L102.646 129.301L104.176 127.02H104.917L103.001 129.787L104.996 132.669H104.265L102.651 130.283L101.043 132.669H100.312L102.307 129.787L100.391 127.02H101.122ZM106.029 132.288C106.029 132.166 106.068 132.063 106.144 131.98C106.224 131.893 106.332 131.849 106.468 131.849C106.607 131.849 106.717 131.893 106.797 131.98C106.877 132.063 106.917 132.166 106.917 132.288C106.917 132.406 106.877 132.507 106.797 132.591C106.717 132.674 106.607 132.716 106.468 132.716C106.332 132.716 106.224 132.674 106.144 132.591C106.068 132.507 106.029 132.406 106.029 132.288ZM109.266 127.954V132.669H108.645V127.02H109.251L109.266 127.954ZM111.266 126.978L111.25 127.552C111.181 127.542 111.113 127.533 111.047 127.526C110.98 127.519 110.909 127.516 110.833 127.516C110.561 127.516 110.323 127.566 110.117 127.667C109.915 127.765 109.745 127.902 109.606 128.08C109.466 128.254 109.36 128.459 109.287 128.696C109.214 128.929 109.172 129.18 109.162 129.448L108.932 129.536C108.932 129.167 108.97 128.825 109.047 128.508C109.124 128.191 109.24 127.914 109.397 127.678C109.557 127.438 109.757 127.251 109.997 127.119C110.241 126.983 110.526 126.916 110.853 126.916C110.933 126.916 111.012 126.923 111.088 126.936C111.168 126.947 111.228 126.961 111.266 126.978ZM115.865 131.364V127.02H116.492V132.669H115.892L115.865 131.364ZM115.98 130.32L116.304 130.309C116.304 130.664 116.262 130.991 116.179 131.291C116.095 131.59 115.965 131.851 115.787 132.074C115.61 132.297 115.38 132.469 115.098 132.591C114.816 132.712 114.477 132.773 114.08 132.773C113.805 132.773 113.553 132.735 113.323 132.659C113.097 132.578 112.902 132.453 112.738 132.283C112.575 132.112 112.448 131.891 112.357 131.62C112.27 131.348 112.227 131.019 112.227 130.633V127.02H112.848V130.643C112.848 130.946 112.881 131.198 112.947 131.4C113.017 131.602 113.111 131.764 113.229 131.886C113.351 132.008 113.49 132.095 113.647 132.147C113.803 132.199 113.972 132.225 114.153 132.225C114.612 132.225 114.974 132.136 115.239 131.959C115.507 131.781 115.697 131.548 115.808 131.259C115.923 130.967 115.98 130.654 115.98 130.32Z" fill="#4F5A7C"/>
<mask id="path-25-inside-6_85_252" fill="white">
<path d="M137.13 119.232H204.895V141.466H137.13V119.232Z"/>
</mask>
<path d="M204.895 141.466V140.702H137.13V141.466V142.229H204.895V141.466Z" fill="#F5F5F5" mask="url(#path-25-inside-6_85_252)"/>
<path d="M165.243 125.036V132.669H164.621V125.824L162.554 126.592V126.002L165.138 125.036H165.243ZM169.127 132.178H169.263C169.816 132.178 170.279 132.098 170.651 131.938C171.024 131.774 171.321 131.55 171.544 131.265C171.77 130.976 171.932 130.638 172.03 130.252C172.127 129.865 172.176 129.446 172.176 128.993V127.934C172.176 127.533 172.132 127.182 172.045 126.879C171.958 126.576 171.835 126.324 171.675 126.122C171.515 125.917 171.325 125.762 171.106 125.657C170.89 125.553 170.65 125.501 170.385 125.501C170.124 125.501 169.887 125.556 169.675 125.668C169.466 125.779 169.289 125.934 169.143 126.132C169 126.327 168.888 126.552 168.808 126.806C168.732 127.057 168.694 127.323 168.694 127.605C168.694 127.862 168.728 128.113 168.798 128.357C168.871 128.597 168.977 128.814 169.116 129.009C169.256 129.201 169.426 129.354 169.628 129.469C169.833 129.58 170.07 129.636 170.338 129.636C170.641 129.636 170.909 129.578 171.142 129.463C171.379 129.348 171.579 129.201 171.743 129.02C171.91 128.835 172.037 128.637 172.124 128.424C172.214 128.209 172.263 128 172.27 127.798L172.583 127.793C172.583 128.109 172.524 128.412 172.406 128.701C172.291 128.986 172.127 129.241 171.915 129.463C171.706 129.683 171.461 129.857 171.179 129.985C170.897 130.114 170.592 130.179 170.265 130.179C169.91 130.179 169.595 130.109 169.32 129.97C169.049 129.827 168.821 129.636 168.636 129.395C168.455 129.152 168.318 128.879 168.224 128.576C168.13 128.273 168.083 127.958 168.083 127.631C168.083 127.265 168.133 126.923 168.234 126.602C168.339 126.279 168.49 125.995 168.688 125.751C168.887 125.504 169.127 125.311 169.409 125.172C169.694 125.033 170.016 124.963 170.375 124.963C170.782 124.963 171.137 125.038 171.44 125.187C171.743 125.334 171.993 125.542 172.192 125.814C172.393 126.085 172.543 126.406 172.641 126.775C172.741 127.144 172.792 127.551 172.792 127.996V128.597C172.792 129.046 172.757 129.476 172.688 129.886C172.618 130.297 172.501 130.676 172.338 131.024C172.178 131.369 171.962 131.668 171.69 131.922C171.419 132.176 171.083 132.375 170.683 132.518C170.282 132.657 169.809 132.726 169.263 132.726H169.122L169.127 132.178ZM175.115 128.91L174.624 128.769L174.995 125.067H178.796V125.652H175.528L175.261 128.21C175.394 128.116 175.585 128.024 175.836 127.934C176.09 127.84 176.375 127.793 176.692 127.793C177.03 127.793 177.336 127.85 177.611 127.965C177.889 128.076 178.128 128.24 178.326 128.456C178.524 128.668 178.678 128.926 178.785 129.228C178.893 129.528 178.947 129.867 178.947 130.246C178.947 130.612 178.902 130.948 178.812 131.254C178.721 131.56 178.584 131.828 178.399 132.058C178.215 132.284 177.98 132.46 177.694 132.585C177.409 132.711 177.07 132.773 176.676 132.773C176.373 132.773 176.088 132.732 175.82 132.648C175.556 132.561 175.319 132.431 175.11 132.256C174.901 132.082 174.731 131.863 174.598 131.599C174.47 131.334 174.39 131.024 174.358 130.669H174.959C175 131.01 175.093 131.298 175.235 131.531C175.378 131.764 175.569 131.94 175.81 132.058C176.053 132.176 176.342 132.236 176.676 132.236C176.948 132.236 177.184 132.192 177.386 132.105C177.592 132.018 177.762 131.891 177.898 131.724C178.037 131.553 178.142 131.346 178.211 131.103C178.284 130.856 178.321 130.574 178.321 130.257C178.321 129.985 178.283 129.737 178.206 129.51C178.129 129.281 178.016 129.08 177.867 128.91C177.72 128.736 177.539 128.602 177.324 128.508C177.108 128.414 176.861 128.367 176.582 128.367C176.22 128.367 175.931 128.416 175.716 128.513C175.503 128.611 175.303 128.743 175.115 128.91Z" fill="#4F5A7C"/>
<mask id="path-28-inside-7_85_252" fill="white">
<path d="M201 119.232H268.765V141.466H201V119.232Z"/>
</mask>
<path d="M268.765 141.466V140.702H201V141.466V142.229H268.765V141.466Z" fill="#F5F5F5" mask="url(#path-28-inside-7_85_252)"/>
<path d="M229.12 125.036V132.669H228.499V125.824L226.432 126.592V126.002L229.016 125.036H229.12ZM236.821 130.654C236.821 131.113 236.713 131.501 236.498 131.818C236.285 132.135 235.996 132.373 235.631 132.533C235.265 132.693 234.856 132.773 234.404 132.773C233.948 132.773 233.537 132.693 233.172 132.533C232.806 132.373 232.516 132.135 232.3 131.818C232.088 131.501 231.982 131.113 231.982 130.654C231.982 130.351 232.041 130.076 232.159 129.829C232.281 129.578 232.45 129.362 232.665 129.181C232.885 128.997 233.141 128.854 233.433 128.753C233.725 128.652 234.045 128.602 234.394 128.602C234.853 128.602 235.265 128.691 235.631 128.868C235.996 129.042 236.285 129.282 236.498 129.589C236.713 129.895 236.821 130.25 236.821 130.654ZM236.195 130.654C236.195 130.33 236.116 130.046 235.96 129.803C235.803 129.559 235.589 129.371 235.318 129.239C235.046 129.103 234.738 129.035 234.394 129.035C234.045 129.035 233.737 129.103 233.469 129.239C233.201 129.371 232.991 129.559 232.838 129.803C232.685 130.046 232.608 130.33 232.608 130.654C232.608 130.991 232.683 131.278 232.833 131.515C232.986 131.752 233.198 131.931 233.469 132.053C233.741 132.175 234.052 132.236 234.404 132.236C234.756 132.236 235.065 132.175 235.333 132.053C235.601 131.931 235.812 131.752 235.965 131.515C236.118 131.278 236.195 130.991 236.195 130.654ZM236.623 127.02C236.623 127.392 236.524 127.725 236.325 128.017C236.13 128.306 235.866 128.534 235.532 128.701C235.198 128.865 234.82 128.946 234.399 128.946C233.974 128.946 233.593 128.865 233.255 128.701C232.921 128.534 232.657 128.306 232.462 128.017C232.27 127.725 232.175 127.392 232.175 127.02C232.175 126.578 232.27 126.206 232.462 125.903C232.657 125.596 232.921 125.363 233.255 125.203C233.59 125.043 233.969 124.963 234.394 124.963C234.815 124.963 235.192 125.043 235.526 125.203C235.864 125.363 236.13 125.596 236.325 125.903C236.524 126.206 236.623 126.578 236.623 127.02ZM236.002 127.015C236.002 126.719 235.93 126.458 235.788 126.232C235.648 126.005 235.457 125.828 235.213 125.699C234.973 125.567 234.7 125.501 234.394 125.501C234.084 125.501 233.809 125.562 233.569 125.683C233.332 125.805 233.144 125.979 233.005 126.206C232.869 126.432 232.801 126.701 232.801 127.015C232.801 127.321 232.869 127.586 233.005 127.808C233.144 128.028 233.334 128.198 233.574 128.32C233.814 128.442 234.089 128.503 234.399 128.503C234.709 128.503 234.984 128.442 235.224 128.32C235.464 128.198 235.654 128.028 235.793 127.808C235.932 127.586 236.002 127.321 236.002 127.015ZM243.097 130.215V130.748H237.714V130.387L241.228 125.067H241.75L241.008 126.357L238.476 130.215H243.097ZM241.912 125.067V132.669H241.29V125.067H241.912Z" fill="#4F5A7C"/>
<mask id="path-31-inside-8_85_252" fill="white">
<path d="M264 119.232H331.985V141.466H264V119.232Z"/>
</mask>
<path d="M331.985 141.466V140.702H264V141.466V142.229H331.985V141.466Z" fill="#F5F5F5" mask="url(#path-31-inside-8_85_252)"/>
<path d="M299.751 130.69C299.751 131.15 299.643 131.534 299.427 131.844C299.211 132.154 298.921 132.387 298.555 132.544C298.19 132.697 297.782 132.773 297.333 132.773C296.877 132.773 296.465 132.697 296.096 132.544C295.731 132.387 295.44 132.154 295.224 131.844C295.012 131.534 294.906 131.15 294.906 130.69C294.906 130.391 294.967 130.118 295.088 129.871C295.214 129.623 295.386 129.411 295.605 129.234C295.825 129.056 296.08 128.919 296.373 128.821C296.665 128.724 296.982 128.675 297.323 128.675C297.772 128.675 298.179 128.76 298.545 128.931C298.914 129.101 299.206 129.338 299.422 129.641C299.641 129.94 299.751 130.29 299.751 130.69ZM299.464 130.716C299.464 130.351 299.368 130.034 299.176 129.766C298.985 129.498 298.727 129.291 298.404 129.145C298.08 128.995 297.72 128.92 297.323 128.92C296.923 128.92 296.561 128.995 296.237 129.145C295.913 129.291 295.657 129.498 295.47 129.766C295.282 130.034 295.188 130.351 295.188 130.716C295.188 131.099 295.282 131.423 295.47 131.687C295.657 131.952 295.913 132.152 296.237 132.288C296.564 132.424 296.93 132.491 297.333 132.491C297.73 132.491 298.089 132.424 298.409 132.288C298.733 132.152 298.988 131.952 299.176 131.687C299.368 131.423 299.464 131.099 299.464 130.716ZM299.531 126.999C299.531 127.371 299.432 127.7 299.234 127.986C299.035 128.271 298.769 128.494 298.435 128.654C298.104 128.814 297.734 128.894 297.323 128.894C296.905 128.894 296.529 128.814 296.195 128.654C295.865 128.494 295.602 128.271 295.407 127.986C295.215 127.7 295.12 127.371 295.12 126.999C295.12 126.557 295.215 126.186 295.407 125.887C295.602 125.584 295.865 125.355 296.195 125.198C296.526 125.041 296.898 124.963 297.312 124.963C297.723 124.963 298.096 125.041 298.43 125.198C298.764 125.355 299.03 125.584 299.229 125.887C299.43 126.186 299.531 126.557 299.531 126.999ZM299.249 126.973C299.249 126.635 299.162 126.338 298.988 126.08C298.814 125.819 298.581 125.616 298.289 125.469C297.996 125.32 297.671 125.245 297.312 125.245C296.951 125.245 296.625 125.314 296.336 125.454C296.047 125.593 295.819 125.791 295.652 126.049C295.485 126.306 295.402 126.614 295.402 126.973C295.402 127.318 295.485 127.615 295.652 127.866C295.819 128.113 296.047 128.304 296.336 128.44C296.629 128.572 296.957 128.638 297.323 128.638C297.681 128.638 298.005 128.572 298.294 128.44C298.586 128.304 298.818 128.113 298.988 127.866C299.162 127.615 299.249 127.318 299.249 126.973Z" fill="#4F5A7C"/>
<mask id="path-34-inside-9_85_252" fill="white">
<path d="M35 141.458H263.088V163.692H35V141.458Z"/>
</mask>
<path d="M263.088 163.692V162.928H35V163.692V164.456H263.088V163.692Z" fill="#F5F5F5" mask="url(#path-34-inside-9_85_252)"/>
<path d="M44.1517 149.247V154.896H43.5305V149.247H44.1517ZM43.4208 147.612C43.4208 147.494 43.4574 147.395 43.5305 147.315C43.607 147.231 43.7115 147.189 43.8437 147.189C43.976 147.189 44.0804 147.231 44.157 147.315C44.237 147.395 44.277 147.494 44.277 147.612C44.277 147.727 44.237 147.826 44.157 147.91C44.0804 147.99 43.976 148.03 43.8437 148.03C43.7115 148.03 43.607 147.99 43.5305 147.91C43.4574 147.826 43.4208 147.727 43.4208 147.612ZM46.4803 150.453V154.896H45.859V149.247H46.4542L46.4803 150.453ZM46.3393 151.721L46.0626 151.565C46.0835 151.23 46.1513 150.917 46.2662 150.625C46.3811 150.332 46.5359 150.075 46.7309 149.852C46.9293 149.629 47.1607 149.455 47.4252 149.33C47.6932 149.205 47.9891 149.142 48.3128 149.142C48.5947 149.142 48.8471 149.18 49.0698 149.257C49.2926 149.334 49.4823 149.455 49.6389 149.622C49.7955 149.789 49.9139 150.004 49.9939 150.265C50.0774 150.526 50.1192 150.844 50.1192 151.22V154.896H49.4927V151.215C49.4927 150.825 49.4388 150.52 49.3309 150.301C49.223 150.078 49.0698 149.92 48.8714 149.826C48.673 149.732 48.4381 149.685 48.1666 149.685C47.8673 149.685 47.6045 149.751 47.3782 149.883C47.1555 150.012 46.9675 150.181 46.8144 150.39C46.6647 150.595 46.5499 150.816 46.4698 151.053C46.3898 151.286 46.3463 151.509 46.3393 151.721ZM52.808 154.896H52.1867V148.547C52.1867 148.161 52.2528 147.835 52.3851 147.571C52.5208 147.306 52.7122 147.106 52.9594 146.97C53.21 146.834 53.5076 146.767 53.8521 146.767C53.96 146.767 54.0714 146.774 54.1863 146.787C54.3011 146.798 54.4125 146.821 54.5204 146.855L54.4734 147.383C54.3864 147.358 54.2976 147.343 54.2072 147.336C54.1201 147.325 54.0175 147.32 53.8991 147.32C53.6729 147.32 53.478 147.369 53.3144 147.466C53.1508 147.56 53.0255 147.698 52.9385 147.879C52.8515 148.06 52.808 148.282 52.808 148.547V154.896ZM54.1549 149.247V149.758H51.2521V149.247H54.1549ZM54.9329 152.16V151.987C54.9329 151.577 54.992 151.197 55.1104 150.849C55.2287 150.501 55.3975 150.2 55.6168 149.946C55.8395 149.692 56.1058 149.495 56.4156 149.356C56.7254 149.213 57.0699 149.142 57.4493 149.142C57.8322 149.142 58.1785 149.213 58.4883 149.356C58.798 149.495 59.0643 149.692 59.2871 149.946C59.5098 150.2 59.6804 150.501 59.7987 150.849C59.917 151.197 59.9762 151.577 59.9762 151.987V152.16C59.9762 152.57 59.917 152.95 59.7987 153.298C59.6804 153.642 59.5098 153.942 59.2871 154.196C59.0678 154.45 58.8033 154.648 58.4935 154.791C58.1837 154.93 57.8391 155 57.4598 155C57.0769 155 56.7306 154.93 56.4208 154.791C56.111 154.648 55.8448 154.45 55.622 154.196C55.3993 153.942 55.2287 153.642 55.1104 153.298C54.992 152.95 54.9329 152.57 54.9329 152.16ZM55.5541 151.987V152.16C55.5541 152.47 55.5959 152.764 55.6794 153.042C55.763 153.317 55.8848 153.562 56.0449 153.778C56.205 153.991 56.4034 154.158 56.6401 154.279C56.8768 154.401 57.15 154.462 57.4598 154.462C57.766 154.462 58.0358 154.401 58.269 154.279C58.5057 154.158 58.7041 153.991 58.8642 153.778C59.0243 153.562 59.1444 153.317 59.2244 153.042C59.3079 152.764 59.3497 152.47 59.3497 152.16V151.987C59.3497 151.681 59.3079 151.391 59.2244 151.116C59.1444 150.841 59.0225 150.595 58.859 150.379C58.6988 150.164 58.5005 149.993 58.2638 149.868C58.0271 149.743 57.7556 149.68 57.4493 149.68C57.143 149.68 56.8715 149.743 56.6349 149.868C56.4017 149.993 56.2033 150.164 56.0397 150.379C55.8796 150.595 55.7578 150.841 55.6742 151.116C55.5942 151.391 55.5541 151.681 55.5541 151.987ZM61.4015 149.247L62.926 151.528L64.4557 149.247H65.1971L63.281 152.014L65.2754 154.896H64.5445L62.9312 152.51L61.3232 154.896H60.5923L62.5867 152.014L60.6706 149.247H61.4015ZM66.3091 154.514C66.3091 154.393 66.3474 154.29 66.424 154.206C66.5041 154.119 66.612 154.076 66.7477 154.076C66.8869 154.076 66.9966 154.119 67.0766 154.206C67.1567 154.29 67.1967 154.393 67.1967 154.514C67.1967 154.633 67.1567 154.734 67.0766 154.817C66.9966 154.901 66.8869 154.942 66.7477 154.942C66.612 154.942 66.5041 154.901 66.424 154.817C66.3474 154.734 66.3091 154.633 66.3091 154.514ZM72.3079 153.455C72.3079 153.301 72.2696 153.15 72.1931 153C72.1165 152.851 71.9686 152.713 71.7493 152.588C71.5335 152.463 71.215 152.356 70.7939 152.269C70.4806 152.2 70.2004 152.121 69.9533 152.034C69.7097 151.947 69.5043 151.843 69.3372 151.721C69.1702 151.599 69.0431 151.453 68.9561 151.283C68.8691 151.112 68.8256 150.91 68.8256 150.677C68.8256 150.468 68.8708 150.272 68.9613 150.087C69.0553 149.899 69.1876 149.736 69.3581 149.596C69.5322 149.454 69.741 149.342 69.9846 149.262C70.2318 149.182 70.5085 149.142 70.8148 149.142C71.2498 149.142 71.6222 149.217 71.932 149.367C72.2453 149.513 72.4837 149.713 72.6473 149.967C72.8143 150.221 72.8979 150.508 72.8979 150.828H72.2766C72.2766 150.634 72.2192 150.449 72.1043 150.275C71.9929 150.101 71.8276 149.958 71.6083 149.847C71.3925 149.736 71.128 149.68 70.8148 149.68C70.4911 149.68 70.2283 149.729 70.0264 149.826C69.8245 149.923 69.6766 150.047 69.5826 150.197C69.4921 150.346 69.4469 150.501 69.4469 150.661C69.4469 150.787 69.466 150.902 69.5043 151.006C69.5461 151.107 69.6192 151.201 69.7236 151.288C69.8315 151.375 69.9846 151.457 70.183 151.533C70.3814 151.61 70.639 151.685 70.9557 151.758C71.4117 151.859 71.7841 151.982 72.073 152.128C72.3654 152.271 72.5811 152.449 72.7204 152.661C72.8596 152.87 72.9292 153.124 72.9292 153.423C72.9292 153.656 72.8805 153.87 72.783 154.065C72.6856 154.257 72.5446 154.422 72.3601 154.561C72.1791 154.701 71.9599 154.808 71.7023 154.885C71.4482 154.962 71.1628 155 70.8461 155C70.3692 155 69.9655 154.922 69.6348 154.765C69.3077 154.605 69.0588 154.396 68.8883 154.138C68.7212 153.877 68.6376 153.601 68.6376 153.308H69.2589C69.2798 153.601 69.3721 153.832 69.5356 154.003C69.6992 154.17 69.8994 154.288 70.136 154.358C70.3762 154.427 70.6129 154.462 70.8461 154.462C71.1663 154.462 71.4343 154.415 71.6501 154.321C71.8659 154.227 72.0295 154.104 72.1409 153.951C72.2522 153.797 72.3079 153.632 72.3079 153.455ZM78.0613 149.247H78.6408V154.796C78.6408 155.287 78.5469 155.708 78.3589 156.06C78.1744 156.411 77.9117 156.681 77.5706 156.869C77.2329 157.057 76.8344 157.151 76.375 157.151C76.1418 157.151 75.9016 157.114 75.6545 157.041C75.4109 156.972 75.1794 156.864 74.9601 156.718C74.7443 156.575 74.5599 156.397 74.4067 156.185L74.7565 155.804C74.9862 156.082 75.2316 156.286 75.4927 156.415C75.7537 156.547 76.0356 156.613 76.3384 156.613C76.6969 156.613 76.9997 156.542 77.2469 156.399C77.4975 156.256 77.6872 156.051 77.8159 155.783C77.9482 155.515 78.0143 155.193 78.0143 154.817V150.489L78.0613 149.247ZM74.0935 152.128V152.019C74.0935 151.58 74.1422 151.185 74.2396 150.834C74.3406 150.479 74.485 150.176 74.673 149.925C74.8609 149.671 75.0889 149.478 75.3569 149.346C75.6284 149.21 75.9347 149.142 76.2758 149.142C76.603 149.142 76.8936 149.196 77.1477 149.304C77.4018 149.412 77.621 149.567 77.8055 149.769C77.99 149.97 78.1379 150.211 78.2493 150.489C78.3641 150.768 78.4477 151.077 78.4999 151.418V152.812C78.4581 153.133 78.3815 153.427 78.2702 153.695C78.1588 153.959 78.0109 154.191 77.8264 154.389C77.6419 154.584 77.4192 154.735 77.1581 154.843C76.9006 154.948 76.603 155 76.2653 155C75.9277 155 75.6249 154.93 75.3569 154.791C75.0889 154.652 74.8609 154.455 74.673 154.201C74.485 153.944 74.3406 153.639 74.2396 153.287C74.1422 152.936 74.0935 152.55 74.0935 152.128ZM74.72 152.019V152.128C74.72 152.459 74.753 152.765 74.8192 153.047C74.8853 153.329 74.9862 153.575 75.122 153.783C75.2577 153.992 75.43 154.156 75.6388 154.274C75.8477 154.393 76.0931 154.452 76.375 154.452C76.7335 154.452 77.0346 154.384 77.2782 154.248C77.5218 154.109 77.715 153.926 77.8577 153.7C78.0004 153.47 78.1048 153.22 78.171 152.948V151.324C78.1327 151.14 78.0735 150.952 77.9935 150.761C77.9169 150.569 77.809 150.393 77.6698 150.233C77.534 150.07 77.36 149.939 77.1477 149.842C76.9388 149.741 76.6848 149.69 76.3854 149.69C76.1 149.69 75.8512 149.749 75.6388 149.868C75.43 149.986 75.2577 150.151 75.122 150.364C74.9862 150.573 74.8853 150.818 74.8192 151.1C74.753 151.382 74.72 151.688 74.72 152.019Z" fill="#4F5A7C"/>
<mask id="path-37-inside-10_85_252" fill="white">
<path d="M137.13 141.458H204.895V163.692H137.13V141.458Z"/>
</mask>
<path d="M204.895 163.692V162.928H137.13V163.692V164.456H204.895V163.692Z" fill="#F5F5F5" mask="url(#path-37-inside-10_85_252)"/>
<path d="M165.243 147.263V154.896H164.621V148.051L162.554 148.818V148.228L165.138 147.263H165.243ZM171.173 147.263V154.896H170.552V148.051L168.485 148.818V148.228L171.069 147.263H171.173ZM179.219 152.442V152.974H173.836V152.614L177.35 147.294H177.872L177.13 148.583L174.598 152.442H179.219ZM178.034 147.294V154.896H177.412V147.294H178.034Z" fill="#4F5A7C"/>
<mask id="path-40-inside-11_85_252" fill="white">
<path d="M201 141.458H268.875V163.692H201V141.458Z"/>
</mask>
<path d="M268.875 163.692V162.928H201V163.692V164.456H268.875V163.692Z" fill="#F5F5F5" mask="url(#path-40-inside-11_85_252)"/>
<path d="M232.042 147.263V154.896H231.421V148.051L229.353 148.818V148.228L231.938 147.263H232.042ZM236.459 150.75H237.096C237.486 150.75 237.811 150.684 238.072 150.552C238.337 150.416 238.535 150.237 238.667 150.014C238.803 149.791 238.871 149.544 238.871 149.273C238.871 148.966 238.813 148.698 238.699 148.469C238.584 148.235 238.408 148.054 238.171 147.926C237.938 147.793 237.639 147.727 237.273 147.727C236.953 147.727 236.668 147.79 236.417 147.915C236.166 148.04 235.968 148.22 235.822 148.453C235.676 148.686 235.603 148.965 235.603 149.288H234.981C234.981 148.874 235.081 148.51 235.279 148.197C235.477 147.88 235.751 147.633 236.099 147.456C236.447 147.278 236.838 147.189 237.273 147.189C237.722 147.189 238.112 147.271 238.443 147.435C238.777 147.598 239.034 147.837 239.215 148.15C239.4 148.463 239.492 148.845 239.492 149.294C239.492 149.523 239.442 149.749 239.341 149.972C239.243 150.195 239.097 150.397 238.902 150.578C238.707 150.755 238.465 150.898 238.177 151.006C237.888 151.114 237.552 151.168 237.169 151.168H236.459V150.75ZM236.459 151.288V150.875H237.169C237.604 150.875 237.976 150.926 238.286 151.027C238.596 151.124 238.85 151.264 239.048 151.445C239.25 151.622 239.398 151.829 239.492 152.066C239.586 152.302 239.633 152.557 239.633 152.828C239.633 153.176 239.576 153.484 239.461 153.752C239.346 154.02 239.182 154.248 238.97 154.436C238.761 154.621 238.514 154.762 238.229 154.859C237.947 154.953 237.637 155 237.299 155C236.993 155 236.694 154.955 236.401 154.864C236.113 154.774 235.851 154.64 235.618 154.462C235.389 154.281 235.206 154.055 235.07 153.783C234.934 153.508 234.866 153.192 234.866 152.833H235.488C235.488 153.153 235.564 153.437 235.717 153.684C235.871 153.928 236.083 154.119 236.354 154.259C236.629 154.394 236.944 154.462 237.299 154.462C237.658 154.462 237.964 154.401 238.218 154.279C238.476 154.154 238.672 153.971 238.808 153.731C238.944 153.491 239.012 153.197 239.012 152.849C239.012 152.483 238.93 152.186 238.766 151.956C238.606 151.726 238.382 151.558 238.093 151.45C237.808 151.342 237.475 151.288 237.096 151.288H236.459Z" fill="#4F5A7C"/>
<mask id="path-43-inside-12_85_252" fill="white">
<path d="M264 141.458H331.875V163.692H264V141.458Z"/>
</mask>
<path d="M331.875 163.692V162.928H264V163.692V164.456H331.875V163.692Z" fill="#F5F5F5" mask="url(#path-43-inside-12_85_252)"/>
<path d="M292.995 154.405H293.131C293.685 154.405 294.147 154.325 294.52 154.165C294.892 154.001 295.19 153.777 295.413 153.491C295.639 153.202 295.801 152.865 295.898 152.478C295.996 152.092 296.044 151.672 296.044 151.22V150.16C296.044 149.76 296.001 149.408 295.914 149.106C295.827 148.803 295.703 148.55 295.543 148.349C295.383 148.143 295.193 147.988 294.974 147.884C294.758 147.779 294.518 147.727 294.254 147.727C293.993 147.727 293.756 147.783 293.544 147.894C293.335 148.006 293.157 148.161 293.011 148.359C292.868 148.554 292.757 148.778 292.677 149.032C292.6 149.283 292.562 149.549 292.562 149.831C292.562 150.089 292.597 150.339 292.666 150.583C292.74 150.823 292.846 151.041 292.985 151.236C293.124 151.427 293.295 151.58 293.497 151.695C293.702 151.806 293.939 151.862 294.207 151.862C294.509 151.862 294.777 151.805 295.011 151.69C295.247 151.575 295.447 151.427 295.611 151.246C295.778 151.062 295.905 150.863 295.992 150.651C296.083 150.435 296.131 150.226 296.138 150.024L296.452 150.019C296.452 150.336 296.392 150.639 296.274 150.928C296.159 151.213 295.996 151.467 295.783 151.69C295.575 151.909 295.329 152.083 295.047 152.212C294.765 152.341 294.461 152.405 294.134 152.405C293.779 152.405 293.464 152.336 293.189 152.196C292.917 152.054 292.689 151.862 292.505 151.622C292.324 151.378 292.186 151.105 292.092 150.802C291.998 150.5 291.951 150.185 291.951 149.857C291.951 149.492 292.002 149.149 292.103 148.829C292.207 148.505 292.358 148.221 292.557 147.978C292.755 147.731 292.995 147.538 293.277 147.398C293.563 147.259 293.885 147.189 294.243 147.189C294.65 147.189 295.005 147.264 295.308 147.414C295.611 147.56 295.862 147.769 296.06 148.04C296.262 148.312 296.412 148.632 296.509 149.001C296.61 149.37 296.66 149.777 296.66 150.223V150.823C296.66 151.272 296.626 151.702 296.556 152.113C296.486 152.523 296.37 152.903 296.206 153.251C296.046 153.596 295.83 153.895 295.559 154.149C295.287 154.403 294.951 154.601 294.551 154.744C294.151 154.883 293.678 154.953 293.131 154.953H292.99L292.995 154.405ZM303.087 152.442V152.974H297.705V152.614L301.218 147.294H301.74L300.999 148.583L298.467 152.442H303.087ZM301.902 147.294V154.896H301.281V147.294H301.902Z" fill="#4F5A7C"/>
</g>
<defs>
<filter id="filter0_d_85_252" x="0" y="0" width="368" height="200" filterUnits="userSpaceOnUse" color-interpolation-filters="sRGB">
<feFlood flood-opacity="0" result="BackgroundImageFix"/>
<feColorMatrix in="SourceAlpha" type="matrix" values="0 0 0 0 0 0 0 0 0 0 0 0 0 0 0 0 0 0 127 0" result="hardAlpha"/>
<feOffset/>
<feGaussianBlur stdDeviation="10"/>
<feComposite in2="hardAlpha" operator="out"/>
<feColorMatrix type="matrix" values="0 0 0 0 0.716146 0 0 0 0 0.869305 0 0 0 0 1 0 0 0 1 0"/>
<feBlend mode="normal" in2="BackgroundImageFix" result="effect1_dropShadow_85_252"/>
<feBlend mode="normal" in="SourceGraphic" in2="effect1_dropShadow_85_252" result="shape"/>
</filter>
<clipPath id="clip0_85_252">
<rect width="11.4561" height="11.4561" fill="white" transform="translate(161.052 79)"/>
</clipPath>
<clipPath id="clip1_85_252">
<rect width="6.10991" height="3.43511" fill="white" transform="translate(175.177 84.3462)"/>
</clipPath>
<clipPath id="clip2_85_252">
<rect width="11.4561" height="11.4561" fill="white" transform="translate(224.927 79)"/>
</clipPath>
<clipPath id="clip3_85_252">
<rect width="11.4561" height="11.4561" fill="white" transform="translate(287.927 79)"/>
</clipPath>
</defs>
</svg>
