<svg width="606" height="330" viewBox="0 0 606 330" fill="none" xmlns="http://www.w3.org/2000/svg">
<g filter="url(#filter0_d_85_242)">
<rect x="33" y="33" width="540" height="263.415" rx="32.9268" fill="white"/>
<rect x="57.6953" y="220.683" width="282.098" height="51.7561" rx="25.878" fill="#2CA9DB"/>
<path d="M83.4253 237.6H86.1001V243.529C86.1001 244.353 86.2433 245.005 86.5298 245.484C86.8162 245.958 87.2313 246.294 87.775 246.493C88.3246 246.692 88.9911 246.791 89.7745 246.791C90.1896 246.791 90.6105 246.776 91.0373 246.747C91.47 246.712 91.8997 246.665 92.3265 246.607C92.7532 246.543 93.1654 246.469 93.563 246.388C93.9664 246.3 94.3405 246.203 94.6855 246.098V248.405C94.3464 248.516 93.9868 248.615 93.6068 248.703C93.2326 248.785 92.8409 248.858 92.4317 248.922C92.0224 248.98 91.5957 249.027 91.1513 249.062C90.707 249.097 90.2481 249.115 89.7745 249.115C88.4649 249.115 87.3336 248.928 86.3807 248.554C85.4336 248.174 84.7028 247.574 84.1883 246.756C83.6797 245.937 83.4253 244.862 83.4253 243.529V237.6ZM94.2821 237.6H96.9656V255.561H94.2821V237.6ZM106.724 255.832C105.397 255.832 104.254 255.549 103.295 254.982C102.342 254.409 101.605 253.605 101.085 252.57C100.571 251.529 100.313 250.31 100.313 248.913C100.313 247.533 100.571 246.317 101.085 245.265C101.605 244.213 102.33 243.391 103.26 242.801C104.195 242.21 105.289 241.915 106.54 241.915C107.3 241.915 108.036 242.041 108.75 242.292C109.463 242.544 110.103 242.938 110.67 243.476C111.237 244.014 111.685 244.713 112.012 245.572C112.339 246.426 112.503 247.463 112.503 248.685V249.615H101.795V247.65H109.934C109.934 246.961 109.793 246.35 109.513 245.818C109.232 245.28 108.837 244.856 108.329 244.546C107.826 244.236 107.235 244.081 106.557 244.081C105.821 244.081 105.178 244.262 104.628 244.625C104.084 244.982 103.663 245.449 103.365 246.028C103.073 246.601 102.927 247.224 102.927 247.896V249.431C102.927 250.331 103.085 251.097 103.4 251.728C103.722 252.36 104.169 252.842 104.742 253.175C105.315 253.503 105.984 253.666 106.75 253.666C107.247 253.666 107.7 253.596 108.109 253.456C108.519 253.31 108.872 253.093 109.171 252.807C109.469 252.52 109.697 252.167 109.855 251.746L112.336 252.193C112.138 252.924 111.781 253.564 111.267 254.114C110.758 254.657 110.118 255.081 109.346 255.385C108.58 255.683 107.706 255.832 106.724 255.832ZM115.412 255.561V242.09H118.034V247.738H119.297L123.743 242.09H126.988L121.77 248.641L127.05 255.561H123.796L119.736 250.176H118.034V255.561H115.412ZM136.106 246.835V249.106H128.144V246.835H136.106ZM138.54 255.561L138.531 253.289H139.013C139.388 253.289 139.7 253.21 139.952 253.052C140.209 252.889 140.42 252.614 140.583 252.228C140.747 251.842 140.873 251.31 140.96 250.632C141.048 249.948 141.112 249.089 141.153 248.054L141.39 242.09H150.791V255.561H148.222V244.353H143.819L143.609 248.931C143.556 250.042 143.442 251.012 143.267 251.842C143.097 252.672 142.849 253.365 142.521 253.921C142.194 254.47 141.773 254.882 141.258 255.157C140.744 255.426 140.118 255.561 139.382 255.561H138.54ZM156.857 251.886L162.794 242.09H165.618V255.561H163.049V245.756L157.138 255.561H154.288V242.09H156.857V251.886ZM174.817 255.832C173.514 255.832 172.391 255.537 171.45 254.947C170.515 254.35 169.795 253.529 169.293 252.482C168.79 251.436 168.538 250.237 168.538 248.887C168.538 247.519 168.796 246.312 169.31 245.265C169.825 244.213 170.55 243.391 171.485 242.801C172.42 242.21 173.522 241.915 174.791 241.915C175.814 241.915 176.726 242.105 177.527 242.485C178.328 242.859 178.974 243.385 179.465 244.064C179.962 244.742 180.258 245.534 180.351 246.44H177.799C177.659 245.809 177.337 245.265 176.834 244.809C176.338 244.353 175.671 244.125 174.835 244.125C174.104 244.125 173.464 244.318 172.914 244.704C172.371 245.084 171.947 245.628 171.643 246.335C171.339 247.037 171.187 247.867 171.187 248.826C171.187 249.808 171.336 250.655 171.634 251.369C171.932 252.082 172.353 252.634 172.897 253.026C173.446 253.418 174.093 253.614 174.835 253.614C175.332 253.614 175.782 253.523 176.186 253.342C176.595 253.155 176.937 252.889 177.212 252.544C177.492 252.199 177.688 251.784 177.799 251.299H180.351C180.258 252.17 179.974 252.947 179.5 253.631C179.027 254.315 178.393 254.853 177.597 255.245C176.808 255.637 175.882 255.832 174.817 255.832ZM182.136 244.353V242.09H193.501V244.353H189.107V255.561H186.547V244.353H182.136ZM198.002 255.727C197.523 255.727 197.11 255.558 196.766 255.219C196.421 254.874 196.248 254.459 196.248 253.973C196.248 253.494 196.421 253.085 196.766 252.746C197.11 252.401 197.523 252.228 198.002 252.228C198.481 252.228 198.894 252.401 199.239 252.746C199.583 253.085 199.756 253.494 199.756 253.973C199.756 254.295 199.674 254.59 199.51 254.859C199.353 255.122 199.142 255.333 198.879 255.49C198.616 255.648 198.324 255.727 198.002 255.727ZM198.002 245.923C197.523 245.923 197.11 245.75 196.766 245.405C196.421 245.06 196.248 244.648 196.248 244.169C196.248 243.689 196.421 243.28 196.766 242.941C197.11 242.596 197.523 242.424 198.002 242.424C198.481 242.424 198.894 242.596 199.239 242.941C199.583 243.28 199.756 243.689 199.756 244.169C199.756 244.49 199.674 244.786 199.51 245.055C199.353 245.318 199.142 245.528 198.879 245.686C198.616 245.844 198.324 245.923 198.002 245.923ZM216.583 237.6V255.561H213.864V240.319H213.759L209.462 243.125V240.529L213.943 237.6H216.583ZM227.694 255.859C226.308 255.853 225.124 255.487 224.142 254.763C223.16 254.038 222.408 252.982 221.888 251.597C221.368 250.211 221.108 248.542 221.108 246.589C221.108 244.642 221.368 242.979 221.888 241.599C222.414 240.22 223.168 239.167 224.151 238.442C225.139 237.717 226.32 237.355 227.694 237.355C229.068 237.355 230.246 237.72 231.228 238.451C232.21 239.176 232.961 240.228 233.482 241.608C234.008 242.982 234.271 244.642 234.271 246.589C234.271 248.548 234.011 250.22 233.49 251.605C232.97 252.985 232.219 254.04 231.237 254.771C230.254 255.496 229.073 255.859 227.694 255.859ZM227.694 253.517C228.91 253.517 229.86 252.924 230.544 251.737C231.234 250.55 231.579 248.834 231.579 246.589C231.579 245.098 231.421 243.839 231.105 242.81C230.795 241.775 230.348 240.991 229.763 240.459C229.184 239.921 228.495 239.653 227.694 239.653C226.483 239.653 225.533 240.249 224.843 241.442C224.154 242.634 223.806 244.35 223.8 246.589C223.8 248.086 223.955 249.352 224.265 250.386C224.58 251.415 225.028 252.196 225.606 252.728C226.185 253.254 226.881 253.517 227.694 253.517ZM243.952 242.09H246.522V253.289H251.179V242.09H253.748V253.289H258.405V242.09H260.974V255.561H243.952V242.09ZM268.395 255.859C267.542 255.859 266.77 255.701 266.08 255.385C265.39 255.064 264.844 254.599 264.44 253.991C264.043 253.383 263.844 252.637 263.844 251.755C263.844 250.995 263.99 250.369 264.282 249.878C264.575 249.387 264.969 248.998 265.466 248.712C265.963 248.425 266.519 248.209 267.133 248.063C267.746 247.916 268.372 247.805 269.009 247.729C269.816 247.636 270.471 247.56 270.974 247.501C271.476 247.437 271.842 247.335 272.07 247.194C272.298 247.054 272.412 246.826 272.412 246.51V246.449C272.412 245.683 272.196 245.09 271.763 244.669C271.336 244.248 270.699 244.037 269.851 244.037C268.968 244.037 268.273 244.233 267.764 244.625C267.261 245.011 266.913 245.44 266.72 245.914L264.256 245.353C264.548 244.534 264.975 243.874 265.537 243.371C266.104 242.862 266.755 242.494 267.492 242.266C268.229 242.032 269.003 241.915 269.816 241.915C270.354 241.915 270.924 241.979 271.526 242.108C272.134 242.231 272.701 242.459 273.227 242.792C273.759 243.125 274.195 243.602 274.534 244.221C274.873 244.835 275.043 245.633 275.043 246.616V255.561H272.482V253.719H272.377C272.207 254.058 271.953 254.391 271.614 254.719C271.275 255.046 270.839 255.318 270.307 255.534C269.775 255.751 269.138 255.859 268.395 255.859ZM268.965 253.754C269.69 253.754 270.31 253.611 270.825 253.324C271.345 253.038 271.74 252.664 272.008 252.202C272.283 251.734 272.421 251.234 272.421 250.702V248.966C272.327 249.059 272.146 249.147 271.877 249.229C271.614 249.305 271.313 249.372 270.974 249.431C270.635 249.483 270.304 249.533 269.983 249.58C269.661 249.621 269.392 249.656 269.176 249.685C268.667 249.749 268.202 249.857 267.782 250.009C267.366 250.161 267.033 250.381 266.782 250.667C266.536 250.948 266.413 251.322 266.413 251.79C266.413 252.439 266.653 252.93 267.133 253.263C267.612 253.59 268.223 253.754 268.965 253.754ZM287.147 242.09V244.353H281.122V255.561H278.535V242.09H287.147ZM294.965 255.832C293.702 255.832 292.6 255.543 291.659 254.964C290.718 254.385 289.987 253.576 289.466 252.535C288.946 251.494 288.686 250.278 288.686 248.887C288.686 247.49 288.946 246.268 289.466 245.221C289.987 244.175 290.718 243.362 291.659 242.783C292.6 242.204 293.702 241.915 294.965 241.915C296.228 241.915 297.33 242.204 298.271 242.783C299.212 243.362 299.943 244.175 300.464 245.221C300.984 246.268 301.244 247.49 301.244 248.887C301.244 250.278 300.984 251.494 300.464 252.535C299.943 253.576 299.212 254.385 298.271 254.964C297.33 255.543 296.228 255.832 294.965 255.832ZM294.974 253.631C295.792 253.631 296.47 253.415 297.008 252.982C297.546 252.55 297.944 251.974 298.201 251.255C298.464 250.536 298.596 249.743 298.596 248.878C298.596 248.019 298.464 247.229 298.201 246.51C297.944 245.785 297.546 245.204 297.008 244.765C296.47 244.327 295.792 244.107 294.974 244.107C294.149 244.107 293.465 244.327 292.922 244.765C292.384 245.204 291.983 245.785 291.72 246.51C291.463 247.229 291.334 248.019 291.334 248.878C291.334 249.743 291.463 250.536 291.72 251.255C291.983 251.974 292.384 252.55 292.922 252.982C293.465 253.415 294.149 253.631 294.974 253.631ZM304.171 255.561V242.09H309.757C311.277 242.09 312.482 242.415 313.37 243.064C314.259 243.707 314.703 244.581 314.703 245.686C314.703 246.475 314.452 247.101 313.949 247.563C313.446 248.025 312.78 248.334 311.95 248.492C312.552 248.562 313.104 248.744 313.607 249.036C314.11 249.322 314.513 249.708 314.817 250.194C315.127 250.679 315.282 251.258 315.282 251.93C315.282 252.643 315.098 253.275 314.729 253.824C314.361 254.368 313.826 254.795 313.125 255.105C312.429 255.409 311.59 255.561 310.608 255.561H304.171ZM306.635 253.368H310.608C311.257 253.368 311.765 253.213 312.134 252.903C312.502 252.594 312.686 252.173 312.686 251.641C312.686 251.015 312.502 250.524 312.134 250.167C311.765 249.805 311.257 249.624 310.608 249.624H306.635V253.368ZM306.635 247.703H309.783C310.275 247.703 310.695 247.633 311.046 247.493C311.403 247.352 311.675 247.153 311.862 246.896C312.055 246.633 312.151 246.323 312.151 245.967C312.151 245.446 311.938 245.04 311.511 244.748C311.084 244.455 310.5 244.309 309.757 244.309H306.635V247.703Z" fill="white"/>
<path d="M67.8821 176.475L62.943 169.88H61.1751V176.475H59.4352V162.107H61.1751V168.336H61.9328L67.6856 162.107H69.7622L63.9533 168.421L69.9587 176.475H67.8821ZM75.1538 176.727C74.4709 176.727 73.8512 176.599 73.2946 176.341C72.7381 176.079 72.2961 175.703 71.9687 175.212C71.6413 174.716 71.4776 174.117 71.4776 173.416C71.4776 172.798 71.5992 172.298 71.8424 171.914C72.0856 171.526 72.4107 171.222 72.8176 171.002C73.2245 170.783 73.6735 170.619 74.1646 170.511C74.6603 170.399 75.1585 170.31 75.6589 170.245C76.3137 170.161 76.8446 170.097 77.2515 170.055C77.6631 170.009 77.9624 169.931 78.1495 169.824C78.3412 169.716 78.4371 169.529 78.4371 169.263V169.206C78.4371 168.514 78.2477 167.976 77.8688 167.593C77.4947 167.209 76.9264 167.017 76.164 167.017C75.3736 167.017 74.7539 167.191 74.3049 167.537C73.8559 167.883 73.5402 168.252 73.3578 168.645L71.7863 168.084C72.0669 167.429 72.4411 166.919 72.9088 166.554C73.3812 166.185 73.8956 165.928 74.4522 165.783C75.0135 165.633 75.5654 165.558 76.1079 165.558C76.454 165.558 76.8516 165.6 77.3006 165.685C77.7543 165.764 78.1916 165.93 78.6125 166.183C79.0381 166.435 79.3912 166.816 79.6719 167.326C79.9525 167.836 80.0928 168.519 80.0928 169.375V176.475H78.4371V175.015H78.3529C78.2407 175.249 78.0536 175.499 77.7917 175.766C77.5298 176.033 77.1813 176.259 76.7463 176.447C76.3114 176.634 75.7805 176.727 75.1538 176.727ZM75.4063 175.24C76.0611 175.24 76.613 175.111 77.062 174.854C77.5157 174.597 77.8571 174.265 78.0863 173.858C78.3202 173.451 78.4371 173.023 78.4371 172.574V171.059C78.367 171.143 78.2126 171.22 77.9741 171.29C77.7402 171.356 77.4689 171.414 77.1603 171.465C76.8562 171.512 76.5593 171.554 76.2693 171.592C75.984 171.624 75.7525 171.653 75.5747 171.676C75.1444 171.732 74.7422 171.823 74.368 171.95C73.9985 172.071 73.6992 172.256 73.47 172.504C73.2455 172.747 73.1333 173.079 73.1333 173.5C73.1333 174.075 73.3461 174.51 73.7717 174.805C74.202 175.095 74.7469 175.24 75.4063 175.24ZM83.1148 176.475V165.699H84.7705V170.385H85.8649L89.7376 165.699H91.8703L87.5206 170.89L91.9265 176.475H89.7937L86.2578 171.928H84.7705V176.475H83.1148ZM99.2824 180.516V165.699H100.882V167.41H101.078C101.2 167.223 101.368 166.985 101.584 166.695C101.803 166.4 102.117 166.138 102.524 165.909C102.935 165.675 103.492 165.558 104.193 165.558C105.101 165.558 105.9 165.785 106.593 166.239C107.285 166.692 107.825 167.336 108.213 168.168C108.602 169.001 108.796 169.983 108.796 171.115C108.796 172.256 108.602 173.245 108.213 174.082C107.825 174.915 107.287 175.56 106.6 176.019C105.912 176.472 105.119 176.699 104.221 176.699C103.529 176.699 102.975 176.585 102.559 176.355C102.142 176.121 101.822 175.857 101.598 175.563C101.373 175.263 101.2 175.015 101.078 174.819H100.938V180.516H99.2824ZM100.91 171.087C100.91 171.9 101.029 172.618 101.268 173.24C101.506 173.858 101.855 174.342 102.313 174.693C102.772 175.039 103.333 175.212 103.997 175.212C104.689 175.212 105.267 175.029 105.73 174.665C106.197 174.295 106.548 173.799 106.782 173.177C107.021 172.551 107.14 171.854 107.14 171.087C107.14 170.329 107.023 169.646 106.789 169.038C106.56 168.425 106.212 167.941 105.744 167.586C105.281 167.226 104.698 167.046 103.997 167.046C103.323 167.046 102.757 167.216 102.299 167.558C101.841 167.894 101.495 168.367 101.261 168.975C101.027 169.578 100.91 170.282 100.91 171.087ZM114.492 176.727C113.809 176.727 113.19 176.599 112.633 176.341C112.077 176.079 111.635 175.703 111.307 175.212C110.98 174.716 110.816 174.117 110.816 173.416C110.816 172.798 110.938 172.298 111.181 171.914C111.424 171.526 111.749 171.222 112.156 171.002C112.563 170.783 113.012 170.619 113.503 170.511C113.999 170.399 114.497 170.31 114.997 170.245C115.652 170.161 116.183 170.097 116.59 170.055C117.002 170.009 117.301 169.931 117.488 169.824C117.68 169.716 117.776 169.529 117.776 169.263V169.206C117.776 168.514 117.586 167.976 117.207 167.593C116.833 167.209 116.265 167.017 115.503 167.017C114.712 167.017 114.092 167.191 113.643 167.537C113.194 167.883 112.879 168.252 112.696 168.645L111.125 168.084C111.405 167.429 111.78 166.919 112.247 166.554C112.72 166.185 113.234 165.928 113.791 165.783C114.352 165.633 114.904 165.558 115.446 165.558C115.793 165.558 116.19 165.6 116.639 165.685C117.093 165.764 117.53 165.93 117.951 166.183C118.377 166.435 118.73 166.816 119.01 167.326C119.291 167.836 119.431 168.519 119.431 169.375V176.475H117.776V175.015H117.691C117.579 175.249 117.392 175.499 117.13 175.766C116.868 176.033 116.52 176.259 116.085 176.447C115.65 176.634 115.119 176.727 114.492 176.727ZM114.745 175.24C115.4 175.24 115.952 175.111 116.401 174.854C116.854 174.597 117.196 174.265 117.425 173.858C117.659 173.451 117.776 173.023 117.776 172.574V171.059C117.706 171.143 117.551 171.22 117.313 171.29C117.079 171.356 116.808 171.414 116.499 171.465C116.195 171.512 115.898 171.554 115.608 171.592C115.323 171.624 115.091 171.653 114.913 171.676C114.483 171.732 114.081 171.823 113.707 171.95C113.337 172.071 113.038 172.256 112.809 172.504C112.584 172.747 112.472 173.079 112.472 173.5C112.472 174.075 112.685 174.51 113.11 174.805C113.541 175.095 114.085 175.24 114.745 175.24ZM126.831 176.699C125.821 176.699 124.951 176.461 124.221 175.984C123.492 175.506 122.93 174.849 122.538 174.012C122.145 173.175 121.948 172.218 121.948 171.143C121.948 170.048 122.149 169.082 122.552 168.245C122.958 167.403 123.524 166.746 124.249 166.274C124.979 165.797 125.83 165.558 126.803 165.558C127.561 165.558 128.244 165.699 128.852 165.979C129.46 166.26 129.958 166.653 130.346 167.158C130.734 167.663 130.975 168.252 131.069 168.926H129.413C129.287 168.435 129.006 168 128.571 167.621C128.141 167.237 127.561 167.046 126.831 167.046C126.186 167.046 125.62 167.214 125.133 167.551C124.652 167.883 124.275 168.353 124.004 168.961C123.737 169.564 123.604 170.273 123.604 171.087C123.604 171.919 123.735 172.644 123.997 173.261C124.263 173.879 124.638 174.358 125.119 174.7C125.606 175.041 126.176 175.212 126.831 175.212C127.261 175.212 127.652 175.137 128.003 174.987C128.354 174.838 128.651 174.622 128.894 174.342C129.137 174.061 129.31 173.724 129.413 173.332H131.069C130.975 173.968 130.744 174.541 130.374 175.05C130.009 175.556 129.525 175.958 128.922 176.257C128.323 176.552 127.626 176.699 126.831 176.699ZM133.489 176.475V165.699H141.964V176.475H140.308V167.242H135.145V176.475H133.489ZM149.365 176.699C148.393 176.699 147.539 176.468 146.805 176.005C146.075 175.542 145.504 174.894 145.093 174.061C144.686 173.229 144.483 172.256 144.483 171.143C144.483 170.02 144.686 169.04 145.093 168.203C145.504 167.366 146.075 166.716 146.805 166.253C147.539 165.79 148.393 165.558 149.365 165.558C150.338 165.558 151.19 165.79 151.919 166.253C152.653 166.716 153.224 167.366 153.631 168.203C154.043 169.04 154.248 170.02 154.248 171.143C154.248 172.256 154.043 173.229 153.631 174.061C153.224 174.894 152.653 175.542 151.919 176.005C151.19 176.468 150.338 176.699 149.365 176.699ZM149.365 175.212C150.104 175.212 150.712 175.022 151.19 174.644C151.667 174.265 152.02 173.767 152.249 173.149C152.478 172.532 152.593 171.863 152.593 171.143C152.593 170.422 152.478 169.751 152.249 169.129C152.02 168.507 151.667 168.004 151.19 167.621C150.712 167.237 150.104 167.046 149.365 167.046C148.626 167.046 148.018 167.237 147.541 167.621C147.064 168.004 146.711 168.507 146.482 169.129C146.253 169.751 146.138 170.422 146.138 171.143C146.138 171.863 146.253 172.532 146.482 173.149C146.711 173.767 147.064 174.265 147.541 174.644C148.018 175.022 148.626 175.212 149.365 175.212ZM156.102 173.724H157.87C157.908 174.211 158.127 174.58 158.53 174.833C158.937 175.086 159.465 175.212 160.115 175.212C160.779 175.212 161.348 175.076 161.82 174.805C162.292 174.529 162.529 174.085 162.529 173.472C162.529 173.112 162.44 172.798 162.262 172.532C162.084 172.261 161.834 172.05 161.511 171.9C161.189 171.751 160.807 171.676 160.368 171.676H158.516V170.189H160.368C161.027 170.189 161.514 170.039 161.827 169.74C162.145 169.44 162.304 169.066 162.304 168.617C162.304 168.135 162.133 167.749 161.792 167.459C161.45 167.165 160.966 167.017 160.34 167.017C159.708 167.017 159.182 167.16 158.761 167.445C158.34 167.726 158.118 168.089 158.095 168.533H156.355C156.373 167.953 156.551 167.441 156.888 166.996C157.225 166.547 157.683 166.197 158.263 165.944C158.843 165.687 159.507 165.558 160.255 165.558C161.013 165.558 161.67 165.692 162.227 165.958C162.788 166.22 163.221 166.578 163.525 167.032C163.833 167.481 163.988 167.99 163.988 168.561C163.988 169.169 163.817 169.66 163.476 170.034C163.134 170.408 162.706 170.675 162.192 170.834V170.946C162.599 170.974 162.952 171.105 163.251 171.339C163.555 171.568 163.791 171.87 163.96 172.244C164.128 172.614 164.212 173.023 164.212 173.472C164.212 174.127 164.037 174.697 163.686 175.184C163.335 175.665 162.854 176.04 162.241 176.306C161.628 176.568 160.929 176.699 160.143 176.699C159.381 176.699 158.698 176.575 158.095 176.327C157.491 176.075 157.012 175.726 156.656 175.282C156.306 174.833 156.121 174.314 156.102 173.724ZM173.75 170.329V171.872H167.801V170.329H173.75ZM168.194 165.699V176.475H166.538V165.699H168.194ZM175.013 165.699V176.475H173.357V165.699H175.013ZM181.208 176.727C180.525 176.727 179.905 176.599 179.349 176.341C178.792 176.079 178.35 175.703 178.023 175.212C177.695 174.716 177.532 174.117 177.532 173.416C177.532 172.798 177.653 172.298 177.896 171.914C178.14 171.526 178.465 171.222 178.872 171.002C179.278 170.783 179.727 170.619 180.219 170.511C180.714 170.399 181.212 170.31 181.713 170.245C182.368 170.161 182.899 170.097 183.305 170.055C183.717 170.009 184.016 169.931 184.203 169.824C184.395 169.716 184.491 169.529 184.491 169.263V169.206C184.491 168.514 184.302 167.976 183.923 167.593C183.549 167.209 182.98 167.017 182.218 167.017C181.428 167.017 180.808 167.191 180.359 167.537C179.91 167.883 179.594 168.252 179.412 168.645L177.84 168.084C178.121 167.429 178.495 166.919 178.963 166.554C179.435 166.185 179.95 165.928 180.506 165.783C181.067 165.633 181.619 165.558 182.162 165.558C182.508 165.558 182.906 165.6 183.355 165.685C183.808 165.764 184.246 165.93 184.666 166.183C185.092 166.435 185.445 166.816 185.726 167.326C186.006 167.836 186.147 168.519 186.147 169.375V176.475H184.491V175.015H184.407C184.295 175.249 184.108 175.499 183.846 175.766C183.584 176.033 183.235 176.259 182.8 176.447C182.365 176.634 181.834 176.727 181.208 176.727ZM181.46 175.24C182.115 175.24 182.667 175.111 183.116 174.854C183.57 174.597 183.911 174.265 184.14 173.858C184.374 173.451 184.491 173.023 184.491 172.574V171.059C184.421 171.143 184.267 171.22 184.028 171.29C183.794 171.356 183.523 171.414 183.214 171.465C182.91 171.512 182.613 171.554 182.323 171.592C182.038 171.624 181.806 171.653 181.629 171.676C181.198 171.732 180.796 171.823 180.422 171.95C180.053 172.071 179.753 172.256 179.524 172.504C179.299 172.747 179.187 173.079 179.187 173.5C179.187 174.075 179.4 174.51 179.826 174.805C180.256 175.095 180.801 175.24 181.46 175.24ZM187.703 167.242V165.699H196.458V167.242H192.922V176.475H191.266V167.242H187.703ZM200.304 169.599H203.391C204.654 169.599 205.62 169.92 206.289 170.56C206.958 171.201 207.292 172.013 207.292 172.995C207.292 173.64 207.142 174.227 206.843 174.756C206.544 175.28 206.104 175.698 205.524 176.012C204.944 176.32 204.233 176.475 203.391 176.475H198.873V165.699H200.529V174.931H203.391C204.046 174.931 204.584 174.758 205.005 174.412C205.426 174.066 205.636 173.622 205.636 173.079C205.636 172.508 205.426 172.043 205.005 171.683C204.584 171.323 204.046 171.143 203.391 171.143H200.304V169.599ZM222.581 170.329V171.872H216.632V170.329H222.581ZM217.024 165.699V176.475H215.369V165.699H217.024ZM223.844 165.699V176.475H222.188V165.699H223.844ZM231.386 176.699C230.347 176.699 229.452 176.47 228.699 176.012C227.95 175.549 227.373 174.903 226.966 174.075C226.563 173.243 226.362 172.275 226.362 171.171C226.362 170.067 226.563 169.094 226.966 168.252C227.373 167.406 227.938 166.746 228.663 166.274C229.393 165.797 230.244 165.558 231.217 165.558C231.778 165.558 232.333 165.652 232.88 165.839C233.427 166.026 233.925 166.33 234.374 166.751C234.823 167.167 235.181 167.719 235.448 168.407C235.714 169.094 235.847 169.941 235.847 170.946V171.648H227.541V170.217H234.164C234.164 169.609 234.042 169.066 233.799 168.589C233.56 168.112 233.219 167.735 232.775 167.459C232.335 167.184 231.816 167.046 231.217 167.046C230.558 167.046 229.987 167.209 229.505 167.537C229.028 167.859 228.661 168.28 228.404 168.799C228.147 169.319 228.018 169.875 228.018 170.469V171.423C228.018 172.237 228.158 172.927 228.439 173.493C228.724 174.054 229.119 174.482 229.625 174.777C230.13 175.067 230.717 175.212 231.386 175.212C231.82 175.212 232.213 175.151 232.564 175.029C232.92 174.903 233.226 174.716 233.483 174.468C233.74 174.216 233.939 173.902 234.08 173.528L235.679 173.977C235.511 174.52 235.228 174.997 234.83 175.408C234.433 175.815 233.942 176.133 233.357 176.362C232.772 176.587 232.115 176.699 231.386 176.699ZM238.366 176.475V165.699H240.022V170.385H241.116L244.989 165.699H247.122L242.772 170.89L247.178 176.475H245.045L241.509 171.928H240.022V176.475H238.366ZM252.148 176.727C251.466 176.727 250.846 176.599 250.289 176.341C249.733 176.079 249.291 175.703 248.963 175.212C248.636 174.716 248.472 174.117 248.472 173.416C248.472 172.798 248.594 172.298 248.837 171.914C249.08 171.526 249.405 171.222 249.812 171.002C250.219 170.783 250.668 170.619 251.159 170.511C251.655 170.399 252.153 170.31 252.653 170.245C253.308 170.161 253.839 170.097 254.246 170.055C254.658 170.009 254.957 169.931 255.144 169.824C255.336 169.716 255.432 169.529 255.432 169.263V169.206C255.432 168.514 255.242 167.976 254.863 167.593C254.489 167.209 253.921 167.017 253.159 167.017C252.368 167.017 251.748 167.191 251.299 167.537C250.85 167.883 250.535 168.252 250.352 168.645L248.781 168.084C249.061 167.429 249.436 166.919 249.903 166.554C250.376 166.185 250.89 165.928 251.447 165.783C252.008 165.633 252.56 165.558 253.102 165.558C253.449 165.558 253.846 165.6 254.295 165.685C254.749 165.764 255.186 165.93 255.607 166.183C256.033 166.435 256.386 166.816 256.666 167.326C256.947 167.836 257.087 168.519 257.087 169.375V176.475H255.432V175.015H255.348C255.235 175.249 255.048 175.499 254.786 175.766C254.524 176.033 254.176 176.259 253.741 176.447C253.306 176.634 252.775 176.727 252.148 176.727ZM252.401 175.24C253.056 175.24 253.608 175.111 254.057 174.854C254.51 174.597 254.852 174.265 255.081 173.858C255.315 173.451 255.432 173.023 255.432 172.574V171.059C255.362 171.143 255.207 171.22 254.969 171.29C254.735 171.356 254.464 171.414 254.155 171.465C253.851 171.512 253.554 171.554 253.264 171.592C252.979 171.624 252.747 171.653 252.569 171.676C252.139 171.732 251.737 171.823 251.363 171.95C250.993 172.071 250.694 172.256 250.465 172.504C250.24 172.747 250.128 173.079 250.128 173.5C250.128 174.075 250.341 174.51 250.766 174.805C251.197 175.095 251.741 175.24 252.401 175.24ZM268.416 165.699V176.475H266.76V165.699H268.416ZM267.77 170.834V172.377C267.396 172.518 267.024 172.642 266.655 172.749C266.285 172.852 265.897 172.934 265.49 172.995C265.083 173.051 264.637 173.079 264.15 173.079C262.93 173.079 261.95 172.749 261.211 172.09C260.477 171.43 260.109 170.441 260.109 169.122V165.67H261.765V169.122C261.765 169.674 261.87 170.128 262.081 170.483C262.291 170.839 262.577 171.103 262.937 171.276C263.297 171.449 263.701 171.536 264.15 171.536C264.852 171.536 265.486 171.472 266.052 171.346C266.622 171.215 267.195 171.044 267.77 170.834ZM275.972 176.699C274.933 176.699 274.038 176.47 273.285 176.012C272.536 175.549 271.959 174.903 271.552 174.075C271.15 173.243 270.949 172.275 270.949 171.171C270.949 170.067 271.15 169.094 271.552 168.252C271.959 167.406 272.525 166.746 273.25 166.274C273.979 165.797 274.831 165.558 275.803 165.558C276.365 165.558 276.919 165.652 277.466 165.839C278.013 166.026 278.511 166.33 278.96 166.751C279.409 167.167 279.767 167.719 280.034 168.407C280.3 169.094 280.434 169.941 280.434 170.946V171.648H272.127V170.217H278.75C278.75 169.609 278.628 169.066 278.385 168.589C278.147 168.112 277.805 167.735 277.361 167.459C276.921 167.184 276.402 167.046 275.803 167.046C275.144 167.046 274.573 167.209 274.092 167.537C273.615 167.859 273.247 168.28 272.99 168.799C272.733 169.319 272.604 169.875 272.604 170.469V171.423C272.604 172.237 272.745 172.927 273.025 173.493C273.311 174.054 273.706 174.482 274.211 174.777C274.716 175.067 275.303 175.212 275.972 175.212C276.407 175.212 276.8 175.151 277.15 175.029C277.506 174.903 277.812 174.716 278.069 174.468C278.327 174.216 278.525 173.902 278.666 173.528L280.265 173.977C280.097 174.52 279.814 174.997 279.416 175.408C279.019 175.815 278.528 176.133 277.943 176.362C277.359 176.587 276.701 176.699 275.972 176.699ZM287.33 176.699C286.32 176.699 285.45 176.461 284.72 175.984C283.991 175.506 283.429 174.849 283.037 174.012C282.644 173.175 282.447 172.218 282.447 171.143C282.447 170.048 282.648 169.082 283.051 168.245C283.457 167.403 284.023 166.746 284.748 166.274C285.478 165.797 286.329 165.558 287.302 165.558C288.06 165.558 288.743 165.699 289.351 165.979C289.959 166.26 290.457 166.653 290.845 167.158C291.233 167.663 291.474 168.252 291.568 168.926H289.912C289.786 168.435 289.505 168 289.07 167.621C288.64 167.237 288.06 167.046 287.33 167.046C286.685 167.046 286.119 167.214 285.632 167.551C285.151 167.883 284.774 168.353 284.503 168.961C284.236 169.564 284.103 170.273 284.103 171.087C284.103 171.919 284.234 172.644 284.496 173.261C284.762 173.879 285.137 174.358 285.618 174.7C286.105 175.041 286.675 175.212 287.33 175.212C287.76 175.212 288.151 175.137 288.502 174.987C288.853 174.838 289.15 174.622 289.393 174.342C289.636 174.061 289.809 173.724 289.912 173.332H291.568C291.474 173.968 291.243 174.541 290.873 175.05C290.508 175.556 290.024 175.958 289.421 176.257C288.822 176.552 288.125 176.699 287.33 176.699ZM293.139 167.242V165.699H301.895V167.242H298.359V176.475H296.703V167.242H293.139ZM304.31 176.475V165.699H308.716C309.876 165.699 310.797 165.96 311.48 166.484C312.163 167.008 312.504 167.7 312.504 168.561C312.504 169.216 312.31 169.723 311.922 170.083C311.534 170.439 311.035 170.68 310.427 170.806C310.825 170.862 311.211 171.002 311.585 171.227C311.964 171.451 312.277 171.76 312.525 172.153C312.773 172.541 312.897 173.018 312.897 173.584C312.897 174.136 312.757 174.629 312.476 175.064C312.195 175.499 311.793 175.843 311.269 176.096C310.745 176.348 310.119 176.475 309.389 176.475H304.31ZM305.881 174.959H309.389C309.96 174.959 310.406 174.824 310.729 174.552C311.052 174.281 311.213 173.912 311.213 173.444C311.213 172.887 311.052 172.45 310.729 172.132C310.406 171.809 309.96 171.648 309.389 171.648H305.881V174.959ZM305.881 170.217H308.716C309.16 170.217 309.541 170.156 309.859 170.034C310.177 169.908 310.42 169.73 310.589 169.501C310.762 169.267 310.848 168.991 310.848 168.673C310.848 168.22 310.659 167.864 310.28 167.607C309.901 167.345 309.38 167.214 308.716 167.214H305.881V170.217ZM319.921 176.699C318.883 176.699 317.987 176.47 317.234 176.012C316.486 175.549 315.908 174.903 315.502 174.075C315.099 173.243 314.898 172.275 314.898 171.171C314.898 170.067 315.099 169.094 315.502 168.252C315.908 167.406 316.474 166.746 317.199 166.274C317.929 165.797 318.78 165.558 319.753 165.558C320.314 165.558 320.868 165.652 321.416 165.839C321.963 166.026 322.461 166.33 322.91 166.751C323.359 167.167 323.717 167.719 323.983 168.407C324.25 169.094 324.383 169.941 324.383 170.946V171.648H316.077V170.217H322.7C322.7 169.609 322.578 169.066 322.335 168.589C322.096 168.112 321.755 167.735 321.31 167.459C320.871 167.184 320.352 167.046 319.753 167.046C319.094 167.046 318.523 167.209 318.041 167.537C317.564 167.859 317.197 168.28 316.94 168.799C316.682 169.319 316.554 169.875 316.554 170.469V171.423C316.554 172.237 316.694 172.927 316.975 173.493C317.26 174.054 317.655 174.482 318.16 174.777C318.666 175.067 319.253 175.212 319.921 175.212C320.356 175.212 320.749 175.151 321.1 175.029C321.455 174.903 321.762 174.716 322.019 174.468C322.276 174.216 322.475 173.902 322.615 173.528L324.215 173.977C324.047 174.52 323.764 174.997 323.366 175.408C322.969 175.815 322.477 176.133 321.893 176.362C321.308 176.587 320.651 176.699 319.921 176.699ZM334.114 170.329V171.872H328.165V170.329H334.114ZM328.558 165.699V176.475H326.902V165.699H328.558ZM335.377 165.699V176.475H333.721V165.699H335.377ZM345.613 170.329V171.872H339.663V170.329H345.613ZM340.056 165.699V176.475H338.401V165.699H340.056ZM346.876 165.699V176.475H345.22V165.699H346.876ZM351.33 169.599H354.417C355.68 169.599 356.646 169.92 357.315 170.56C357.984 171.201 358.318 172.013 358.318 172.995C358.318 173.64 358.168 174.227 357.869 174.756C357.57 175.28 357.13 175.698 356.55 176.012C355.97 176.32 355.259 176.475 354.417 176.475H349.899V165.699H351.555V174.931H354.417C355.072 174.931 355.61 174.758 356.031 174.412C356.452 174.066 356.662 173.622 356.662 173.079C356.662 172.508 356.452 172.043 356.031 171.683C355.61 171.323 355.072 171.143 354.417 171.143H351.33V169.599ZM360.03 176.475V165.699H361.686V176.475H360.03ZM366.372 174.033L371.564 165.699H373.472V176.475H371.816V168.14L366.653 176.475H364.716V165.699H366.372V174.033ZM370.469 162.107H372.013C372.013 162.864 371.751 163.484 371.227 163.966C370.703 164.447 369.992 164.688 369.094 164.688C368.21 164.688 367.506 164.447 366.982 163.966C366.463 163.484 366.204 162.864 366.204 162.107H367.747C367.747 162.471 367.848 162.792 368.049 163.068C368.255 163.344 368.603 163.482 369.094 163.482C369.585 163.482 369.936 163.344 370.146 163.068C370.362 162.792 370.469 162.471 370.469 162.107ZM383.717 174.033L388.908 165.699H390.816V176.475H389.161V168.14L383.997 176.475H382.061V165.699H383.717V174.033ZM407.403 161.658L408.245 162.668C407.918 162.986 407.539 163.208 407.109 163.334C406.678 163.461 406.192 163.538 405.649 163.566C405.107 163.594 404.503 163.622 403.839 163.65C403.091 163.678 402.471 163.86 401.98 164.197C401.489 164.534 401.11 165.02 400.844 165.656C400.577 166.293 400.406 167.074 400.331 168H400.472C400.837 167.326 401.342 166.83 401.987 166.512C402.633 166.194 403.325 166.035 404.064 166.035C404.906 166.035 405.663 166.232 406.337 166.625C407.01 167.017 407.543 167.6 407.936 168.372C408.329 169.143 408.526 170.095 408.526 171.227C408.526 172.354 408.325 173.327 407.922 174.145C407.525 174.964 406.966 175.595 406.246 176.04C405.53 176.479 404.69 176.699 403.727 176.699C402.763 176.699 401.919 176.472 401.194 176.019C400.469 175.56 399.906 174.882 399.504 173.984C399.101 173.081 398.9 171.966 398.9 170.638V169.487C398.9 167.088 399.307 165.268 400.121 164.029C400.939 162.789 402.169 162.149 403.811 162.107C404.391 162.088 404.908 162.083 405.362 162.093C405.815 162.102 406.21 162.081 406.547 162.029C406.884 161.978 407.169 161.854 407.403 161.658ZM403.727 175.212C404.377 175.212 404.936 175.048 405.404 174.721C405.876 174.393 406.239 173.933 406.491 173.339C406.744 172.74 406.87 172.036 406.87 171.227C406.87 170.441 406.741 169.772 406.484 169.22C406.232 168.669 405.869 168.248 405.397 167.958C404.924 167.668 404.358 167.523 403.699 167.523C403.217 167.523 402.785 167.604 402.401 167.768C402.017 167.932 401.69 168.173 401.419 168.491C401.148 168.809 400.937 169.197 400.787 169.655C400.642 170.114 400.565 170.638 400.556 171.227C400.556 172.434 400.839 173.399 401.405 174.124C401.971 174.849 402.745 175.212 403.727 175.212ZM415.436 176.699C414.463 176.699 413.61 176.468 412.875 176.005C412.146 175.542 411.575 174.894 411.164 174.061C410.757 173.229 410.553 172.256 410.553 171.143C410.553 170.02 410.757 169.04 411.164 168.203C411.575 167.366 412.146 166.716 412.875 166.253C413.61 165.79 414.463 165.558 415.436 165.558C416.409 165.558 417.26 165.79 417.99 166.253C418.724 166.716 419.295 167.366 419.702 168.203C420.113 169.04 420.319 170.02 420.319 171.143C420.319 172.256 420.113 173.229 419.702 174.061C419.295 174.894 418.724 175.542 417.99 176.005C417.26 176.468 416.409 176.699 415.436 176.699ZM415.436 175.212C416.175 175.212 416.783 175.022 417.26 174.644C417.737 174.265 418.09 173.767 418.32 173.149C418.549 172.532 418.663 171.863 418.663 171.143C418.663 170.422 418.549 169.751 418.32 169.129C418.09 168.507 417.737 168.004 417.26 167.621C416.783 167.237 416.175 167.046 415.436 167.046C414.697 167.046 414.089 167.237 413.612 167.621C413.135 168.004 412.782 168.507 412.553 169.129C412.323 169.751 412.209 170.422 412.209 171.143C412.209 171.863 412.323 172.532 412.553 173.149C412.782 173.767 413.135 174.265 413.612 174.644C414.089 175.022 414.697 175.212 415.436 175.212ZM421.438 167.242V165.699H430.194V167.242H426.658V176.475H425.002V167.242H421.438ZM436.427 176.699C435.454 176.699 434.601 176.468 433.866 176.005C433.137 175.542 432.566 174.894 432.154 174.061C431.747 173.229 431.544 172.256 431.544 171.143C431.544 170.02 431.747 169.04 432.154 168.203C432.566 167.366 433.137 166.716 433.866 166.253C434.601 165.79 435.454 165.558 436.427 165.558C437.4 165.558 438.251 165.79 438.981 166.253C439.715 166.716 440.286 167.366 440.692 168.203C441.104 169.04 441.31 170.02 441.31 171.143C441.31 172.256 441.104 173.229 440.692 174.061C440.286 174.894 439.715 175.542 438.981 176.005C438.251 176.468 437.4 176.699 436.427 176.699ZM436.427 175.212C437.166 175.212 437.774 175.022 438.251 174.644C438.728 174.265 439.081 173.767 439.31 173.149C439.54 172.532 439.654 171.863 439.654 171.143C439.654 170.422 439.54 169.751 439.31 169.129C439.081 168.507 438.728 168.004 438.251 167.621C437.774 167.237 437.166 167.046 436.427 167.046C435.688 167.046 435.08 167.237 434.603 167.621C434.126 168.004 433.773 168.507 433.544 169.129C433.314 169.751 433.2 170.422 433.2 171.143C433.2 171.863 433.314 172.532 433.544 173.149C433.773 173.767 434.126 174.265 434.603 174.644C435.08 175.022 435.688 175.212 436.427 175.212ZM443.837 176.475V165.699H448.243C449.403 165.699 450.324 165.96 451.007 166.484C451.69 167.008 452.032 167.7 452.032 168.561C452.032 169.216 451.837 169.723 451.449 170.083C451.061 170.439 450.563 170.68 449.955 170.806C450.352 170.862 450.738 171.002 451.112 171.227C451.491 171.451 451.805 171.76 452.053 172.153C452.3 172.541 452.424 173.018 452.424 173.584C452.424 174.136 452.284 174.629 452.003 175.064C451.723 175.499 451.321 175.843 450.797 176.096C450.273 176.348 449.646 176.475 448.917 176.475H443.837ZM445.409 174.959H448.917C449.487 174.959 449.934 174.824 450.257 174.552C450.579 174.281 450.741 173.912 450.741 173.444C450.741 172.887 450.579 172.45 450.257 172.132C449.934 171.809 449.487 171.648 448.917 171.648H445.409V174.959ZM445.409 170.217H448.243C448.687 170.217 449.069 170.156 449.387 170.034C449.705 169.908 449.948 169.73 450.116 169.501C450.289 169.267 450.376 168.991 450.376 168.673C450.376 168.22 450.186 167.864 449.808 167.607C449.429 167.345 448.907 167.214 448.243 167.214H445.409V170.217ZM456.362 169.599H459.449C460.712 169.599 461.677 169.92 462.346 170.56C463.015 171.201 463.35 172.013 463.35 172.995C463.35 173.64 463.2 174.227 462.901 174.756C462.601 175.28 462.162 175.698 461.582 176.012C461.002 176.32 460.291 176.475 459.449 176.475H454.931V165.699H456.586V174.931H459.449C460.104 174.931 460.641 174.758 461.062 174.412C461.483 174.066 461.694 173.622 461.694 173.079C461.694 172.508 461.483 172.043 461.062 171.683C460.641 171.323 460.104 171.143 459.449 171.143H456.362V169.599ZM465.061 176.475V165.699H466.717V176.475H465.061ZM471.404 174.033L476.595 165.699H478.503V176.475H476.848V168.14L471.684 176.475H469.748V165.699H471.404V174.033ZM475.501 162.107H477.044C477.044 162.864 476.782 163.484 476.258 163.966C475.735 164.447 475.024 164.688 474.126 164.688C473.242 164.688 472.538 164.447 472.014 163.966C471.495 163.484 471.235 162.864 471.235 162.107H472.779C472.779 162.471 472.879 162.792 473.08 163.068C473.286 163.344 473.634 163.482 474.126 163.482C474.617 163.482 474.967 163.344 475.178 163.068C475.393 162.792 475.501 162.471 475.501 162.107ZM58.5933 193.242V191.699H67.3489V193.242H63.813V202.475H62.1573V193.242H58.5933ZM69.764 206.516V191.699H71.3636V193.41H71.56C71.6816 193.223 71.85 192.985 72.0651 192.695C72.285 192.4 72.5983 192.138 73.0052 191.909C73.4168 191.675 73.9734 191.558 74.675 191.558C75.5823 191.558 76.3821 191.785 77.0743 192.239C77.7665 192.692 78.3067 193.336 78.6949 194.168C79.0831 195.001 79.2772 195.983 79.2772 197.115C79.2772 198.256 79.0831 199.245 78.6949 200.082C78.3067 200.915 77.7689 201.56 77.0813 202.019C76.3938 202.472 75.601 202.699 74.703 202.699C74.0108 202.699 73.4566 202.585 73.0403 202.355C72.6241 202.121 72.3037 201.857 72.0792 201.563C71.8547 201.263 71.6816 201.015 71.56 200.819H71.4197V206.516H69.764ZM71.3916 197.087C71.3916 197.9 71.5109 198.618 71.7494 199.24C71.988 199.858 72.3364 200.342 72.7948 200.693C73.2531 201.039 73.8144 201.212 74.4785 201.212C75.1707 201.212 75.7484 201.029 76.2114 200.665C76.6791 200.295 77.0299 199.799 77.2637 199.177C77.5023 198.551 77.6215 197.854 77.6215 197.087C77.6215 196.329 77.5046 195.646 77.2708 195.038C77.0416 194.425 76.6931 193.941 76.2254 193.586C75.7624 193.226 75.1801 193.046 74.4785 193.046C73.805 193.046 73.2391 193.216 72.7807 193.558C72.3224 193.894 71.9763 194.367 71.7424 194.975C71.5086 195.578 71.3916 196.282 71.3916 197.087ZM84.974 202.727C84.2911 202.727 83.6714 202.599 83.1148 202.341C82.5582 202.079 82.1162 201.703 81.7888 201.212C81.4614 200.716 81.2977 200.117 81.2977 199.416C81.2977 198.798 81.4194 198.298 81.6626 197.914C81.9058 197.526 82.2308 197.222 82.6377 197.002C83.0446 196.783 83.4936 196.619 83.9847 196.511C84.4805 196.399 84.9786 196.31 85.4791 196.245C86.1339 196.161 86.6647 196.097 87.0716 196.055C87.4832 196.009 87.7826 195.931 87.9696 195.824C88.1614 195.716 88.2573 195.529 88.2573 195.263V195.206C88.2573 194.514 88.0679 193.976 87.689 193.593C87.3148 193.209 86.7466 193.017 85.9842 193.017C85.1938 193.017 84.5741 193.191 84.1251 193.537C83.6761 193.883 83.3603 194.252 83.1779 194.645L81.6064 194.084C81.8871 193.429 82.2612 192.919 82.7289 192.554C83.2013 192.185 83.7158 191.928 84.2724 191.783C84.8336 191.633 85.3855 191.558 85.9281 191.558C86.2742 191.558 86.6717 191.6 87.1207 191.685C87.5744 191.764 88.0117 191.93 88.4327 192.183C88.8583 192.435 89.2114 192.816 89.492 193.326C89.7727 193.836 89.913 194.519 89.913 195.375V202.475H88.2573V201.015H88.1731C88.0608 201.249 87.8738 201.499 87.6118 201.766C87.3499 202.033 87.0015 202.259 86.5665 202.447C86.1315 202.634 85.6007 202.727 84.974 202.727ZM85.2265 201.24C85.8813 201.24 86.4332 201.111 86.8822 200.854C87.3359 200.597 87.6773 200.265 87.9065 199.858C88.1404 199.451 88.2573 199.023 88.2573 198.574V197.059C88.1871 197.143 88.0328 197.22 87.7942 197.29C87.5604 197.356 87.2891 197.414 86.9804 197.465C86.6764 197.512 86.3794 197.554 86.0894 197.592C85.8041 197.624 85.5726 197.653 85.3949 197.676C84.9646 197.732 84.5624 197.823 84.1882 197.95C83.8187 198.071 83.5194 198.256 83.2902 198.504C83.0657 198.747 82.9534 199.079 82.9534 199.5C82.9534 200.075 83.1663 200.51 83.5919 200.805C84.0222 201.095 84.567 201.24 85.2265 201.24ZM97.3127 206.151V188.107H98.9684V206.151H97.3127ZM97.3127 202.699C96.5831 202.699 95.919 202.568 95.3203 202.306C94.7216 202.04 94.2071 201.663 93.7769 201.177C93.3466 200.686 93.0145 200.099 92.7806 199.416C92.5468 198.733 92.4298 197.975 92.4298 197.143C92.4298 196.301 92.5468 195.538 92.7806 194.856C93.0145 194.168 93.3466 193.579 93.7769 193.088C94.2071 192.597 94.7216 192.22 95.3203 191.958C95.919 191.692 96.5831 191.558 97.3127 191.558H97.8179V202.699H97.3127ZM97.3127 201.212H97.5934V193.046H97.3127C96.7608 193.046 96.2814 193.158 95.8745 193.382C95.4676 193.602 95.1309 193.904 94.8643 194.287C94.6024 194.666 94.4059 195.101 94.275 195.592C94.1487 196.083 94.0855 196.6 94.0855 197.143C94.0855 197.863 94.2001 198.532 94.4293 199.149C94.6585 199.767 95.0116 200.265 95.4887 200.644C95.9657 201.022 96.5738 201.212 97.3127 201.212ZM98.9684 202.699H98.4633V191.558H98.9684C99.6981 191.558 100.362 191.692 100.961 191.958C101.56 192.22 102.074 192.597 102.504 193.088C102.935 193.579 103.267 194.168 103.501 194.856C103.734 195.538 103.851 196.301 103.851 197.143C103.851 197.975 103.734 198.733 103.501 199.416C103.267 200.099 102.935 200.686 102.504 201.177C102.074 201.663 101.56 202.04 100.961 202.306C100.362 202.568 99.6981 202.699 98.9684 202.699ZM98.9684 201.212C99.525 201.212 100.004 201.104 100.407 200.889C100.814 200.669 101.148 200.37 101.41 199.991C101.676 199.608 101.873 199.173 101.999 198.686C102.13 198.195 102.196 197.681 102.196 197.143C102.196 196.422 102.081 195.751 101.852 195.129C101.623 194.507 101.27 194.004 100.793 193.621C100.315 193.237 99.7074 193.046 98.9684 193.046H98.6878V201.212H98.9684ZM108.038 200.033L113.23 191.699H115.138V202.475H113.482V194.14L108.319 202.475H106.382V191.699H108.038V200.033ZM118.17 202.475V191.699H119.826V196.385H120.92L124.793 191.699H126.926L122.576 196.89L126.982 202.475H124.849L121.313 197.928H119.826V202.475H118.17ZM141.55 196.329V197.872H135.601V196.329H141.55ZM135.994 191.699V202.475H134.338V191.699H135.994ZM142.813 191.699V202.475H141.157V191.699H142.813ZM149.008 202.727C148.325 202.727 147.705 202.599 147.148 202.341C146.592 202.079 146.15 201.703 145.823 201.212C145.495 200.716 145.331 200.117 145.331 199.416C145.331 198.798 145.453 198.298 145.696 197.914C145.939 197.526 146.265 197.222 146.671 197.002C147.078 196.783 147.527 196.619 148.018 196.511C148.514 196.399 149.012 196.31 149.513 196.245C150.168 196.161 150.698 196.097 151.105 196.055C151.517 196.009 151.816 195.931 152.003 195.824C152.195 195.716 152.291 195.529 152.291 195.263V195.206C152.291 194.514 152.102 193.976 151.723 193.593C151.349 193.209 150.78 193.017 150.018 193.017C149.227 193.017 148.608 193.191 148.159 193.537C147.71 193.883 147.394 194.252 147.212 194.645L145.64 194.084C145.921 193.429 146.295 192.919 146.763 192.554C147.235 192.185 147.749 191.928 148.306 191.783C148.867 191.633 149.419 191.558 149.962 191.558C150.308 191.558 150.705 191.6 151.154 191.685C151.608 191.764 152.045 191.93 152.466 192.183C152.892 192.435 153.245 192.816 153.526 193.326C153.806 193.836 153.947 194.519 153.947 195.375V202.475H152.291V201.015H152.207C152.095 201.249 151.907 201.499 151.646 201.766C151.384 202.033 151.035 202.259 150.6 202.447C150.165 202.634 149.634 202.727 149.008 202.727ZM149.26 201.24C149.915 201.24 150.467 201.111 150.916 200.854C151.37 200.597 151.711 200.265 151.94 199.858C152.174 199.451 152.291 199.023 152.291 198.574V197.059C152.221 197.143 152.066 197.22 151.828 197.29C151.594 197.356 151.323 197.414 151.014 197.465C150.71 197.512 150.413 197.554 150.123 197.592C149.838 197.624 149.606 197.653 149.429 197.676C148.998 197.732 148.596 197.823 148.222 197.95C147.852 198.071 147.553 198.256 147.324 198.504C147.099 198.747 146.987 199.079 146.987 199.5C146.987 200.075 147.2 200.51 147.626 200.805C148.056 201.095 148.601 201.24 149.26 201.24ZM166.903 202.699C165.893 202.699 165.023 202.461 164.293 201.984C163.563 201.506 163.002 200.849 162.609 200.012C162.216 199.175 162.02 198.218 162.02 197.143C162.02 196.048 162.221 195.082 162.623 194.245C163.03 193.403 163.596 192.746 164.321 192.274C165.051 191.797 165.902 191.558 166.875 191.558C167.632 191.558 168.315 191.699 168.923 191.979C169.531 192.26 170.029 192.653 170.418 193.158C170.806 193.663 171.047 194.252 171.14 194.926H169.485C169.358 194.435 169.078 194 168.643 193.621C168.212 193.237 167.632 193.046 166.903 193.046C166.257 193.046 165.691 193.214 165.205 193.551C164.723 193.883 164.347 194.353 164.076 194.961C163.809 195.564 163.676 196.273 163.676 197.087C163.676 197.919 163.807 198.644 164.069 199.261C164.335 199.879 164.709 200.358 165.191 200.7C165.677 201.041 166.248 201.212 166.903 201.212C167.333 201.212 167.724 201.137 168.074 200.987C168.425 200.838 168.722 200.622 168.965 200.342C169.209 200.061 169.382 199.724 169.485 199.332H171.14C171.047 199.968 170.815 200.541 170.446 201.05C170.081 201.556 169.597 201.958 168.993 202.257C168.395 202.552 167.698 202.699 166.903 202.699ZM176.732 202.727C176.049 202.727 175.429 202.599 174.873 202.341C174.316 202.079 173.874 201.703 173.547 201.212C173.219 200.716 173.056 200.117 173.056 199.416C173.056 198.798 173.177 198.298 173.42 197.914C173.664 197.526 173.989 197.222 174.396 197.002C174.802 196.783 175.251 196.619 175.743 196.511C176.238 196.399 176.736 196.31 177.237 196.245C177.892 196.161 178.423 196.097 178.829 196.055C179.241 196.009 179.54 195.931 179.727 195.824C179.919 195.716 180.015 195.529 180.015 195.263V195.206C180.015 194.514 179.826 193.976 179.447 193.593C179.073 193.209 178.504 193.017 177.742 193.017C176.952 193.017 176.332 193.191 175.883 193.537C175.434 193.883 175.118 194.252 174.936 194.645L173.364 194.084C173.645 193.429 174.019 192.919 174.487 192.554C174.959 192.185 175.474 191.928 176.03 191.783C176.591 191.633 177.143 191.558 177.686 191.558C178.032 191.558 178.43 191.6 178.879 191.685C179.332 191.764 179.77 191.93 180.19 192.183C180.616 192.435 180.969 192.816 181.25 193.326C181.53 193.836 181.671 194.519 181.671 195.375V202.475H180.015V201.015H179.931C179.819 201.249 179.632 201.499 179.37 201.766C179.108 202.033 178.759 202.259 178.324 202.447C177.889 202.634 177.358 202.727 176.732 202.727ZM176.984 201.24C177.639 201.24 178.191 201.111 178.64 200.854C179.094 200.597 179.435 200.265 179.664 199.858C179.898 199.451 180.015 199.023 180.015 198.574V197.059C179.945 197.143 179.791 197.22 179.552 197.29C179.318 197.356 179.047 197.414 178.738 197.465C178.434 197.512 178.137 197.554 177.847 197.592C177.562 197.624 177.33 197.653 177.153 197.676C176.722 197.732 176.32 197.823 175.946 197.95C175.577 198.071 175.277 198.256 175.048 198.504C174.824 198.747 174.711 199.079 174.711 199.5C174.711 200.075 174.924 200.51 175.35 200.805C175.78 201.095 176.325 201.24 176.984 201.24ZM186.348 200.033L191.54 191.699H193.448V202.475H191.793V194.14L186.629 202.475H184.693V191.699H186.348V200.033ZM190.446 188.107H191.989C191.989 188.864 191.727 189.484 191.203 189.966C190.679 190.447 189.969 190.688 189.071 190.688C188.187 190.688 187.483 190.447 186.959 189.966C186.44 189.484 186.18 188.864 186.18 188.107H187.724C187.724 188.471 187.824 188.792 188.025 189.068C188.231 189.344 188.579 189.482 189.071 189.482C189.562 189.482 189.912 189.344 190.123 189.068C190.338 188.792 190.446 188.471 190.446 188.107ZM195.015 193.242V191.699H203.77V193.242H200.234V202.475H198.579V193.242H195.015ZM208.797 202.727C208.114 202.727 207.494 202.599 206.938 202.341C206.381 202.079 205.939 201.703 205.612 201.212C205.284 200.716 205.121 200.117 205.121 199.416C205.121 198.798 205.242 198.298 205.485 197.914C205.729 197.526 206.054 197.222 206.461 197.002C206.868 196.783 207.317 196.619 207.808 196.511C208.303 196.399 208.802 196.31 209.302 196.245C209.957 196.161 210.488 196.097 210.895 196.055C211.306 196.009 211.605 195.931 211.793 195.824C211.984 195.716 212.08 195.529 212.08 195.263V195.206C212.08 194.514 211.891 193.976 211.512 193.593C211.138 193.209 210.569 193.017 209.807 193.017C209.017 193.017 208.397 193.191 207.948 193.537C207.499 193.883 207.183 194.252 207.001 194.645L205.429 194.084C205.71 193.429 206.084 192.919 206.552 192.554C207.024 192.185 207.539 191.928 208.095 191.783C208.657 191.633 209.208 191.558 209.751 191.558C210.097 191.558 210.495 191.6 210.944 191.685C211.397 191.764 211.835 191.93 212.256 192.183C212.681 192.435 213.034 192.816 213.315 193.326C213.596 193.836 213.736 194.519 213.736 195.375V202.475H212.08V201.015H211.996C211.884 201.249 211.697 201.499 211.435 201.766C211.173 202.033 210.824 202.259 210.389 202.447C209.954 202.634 209.424 202.727 208.797 202.727ZM209.049 201.24C209.704 201.24 210.256 201.111 210.705 200.854C211.159 200.597 211.5 200.265 211.729 199.858C211.963 199.451 212.08 199.023 212.08 198.574V197.059C212.01 197.143 211.856 197.22 211.617 197.29C211.383 197.356 211.112 197.414 210.803 197.465C210.499 197.512 210.202 197.554 209.912 197.592C209.627 197.624 209.396 197.653 209.218 197.676C208.787 197.732 208.385 197.823 208.011 197.95C207.642 198.071 207.342 198.256 207.113 198.504C206.889 198.747 206.776 199.079 206.776 199.5C206.776 200.075 206.989 200.51 207.415 200.805C207.845 201.095 208.39 201.24 209.049 201.24Z" fill="#5C5C5C"/>
<rect x="58.5185" y="58.5175" width="488.963" height="83.9634" rx="15.6402" fill="#E7F1FE"/>
<rect x="58.5185" y="58.5175" width="488.963" height="83.9634" rx="15.6402" stroke="#2CA9DB" stroke-width="1.64634"/>
<rect x="65.9268" y="65.9258" width="69.1463" height="69.1463" rx="9.87805" fill="#2CA9DB"/>
<g clip-path="url(#clip0_85_242)">
<path d="M116.414 92.542H84.585C83.4864 92.542 82.5957 93.4326 82.5957 94.5313V98.51C82.5957 99.6087 83.4864 100.499 84.585 100.499H116.414C117.513 100.499 118.404 99.6087 118.404 98.51V94.5313C118.404 93.4326 117.513 92.542 116.414 92.542Z" stroke="white" stroke-width="3.29268" stroke-linecap="round" stroke-linejoin="round"/>
<path d="M100.5 92.542V118.403" stroke="white" stroke-width="3.29268" stroke-linecap="round" stroke-linejoin="round"/>
<path d="M114.426 100.499V114.424C114.426 115.48 114.007 116.492 113.26 117.238C112.514 117.984 111.502 118.403 110.447 118.403H90.5539C89.4986 118.403 88.4867 117.984 87.7405 117.238C86.9944 116.492 86.5752 115.48 86.5752 114.424V100.499" stroke="white" stroke-width="3.29268" stroke-linecap="round" stroke-linejoin="round"/>
<path d="M91.5485 92.5413C90.2295 92.5413 88.9645 92.0173 88.0318 91.0846C87.0992 90.1519 86.5752 88.887 86.5752 87.5679C86.5752 86.2489 87.0992 84.984 88.0318 84.0513C88.9645 83.1186 90.2295 82.5946 91.5485 82.5946C93.4676 82.5612 95.3482 83.4923 96.945 85.2666C98.5419 87.0409 99.7809 89.576 100.501 92.5413C101.22 89.576 102.459 87.0409 104.056 85.2666C105.653 83.4923 107.533 82.5612 109.452 82.5946C110.771 82.5946 112.036 83.1186 112.969 84.0513C113.902 84.984 114.426 86.2489 114.426 87.5679C114.426 88.887 113.902 90.1519 112.969 91.0846C112.036 92.0173 110.771 92.5413 109.452 92.5413" stroke="white" stroke-width="3.29268" stroke-linecap="round" stroke-linejoin="round"/>
</g>
<path d="M166.106 76.7363V93.499H164.076V78.537H155.63V93.499H153.6V76.7363H166.106ZM175.046 93.7609C173.911 93.7609 172.915 93.4908 172.059 92.9506C171.208 92.4104 170.542 91.6547 170.062 90.6834C169.587 89.7121 169.35 88.5771 169.35 87.2785C169.35 85.9689 169.587 84.8257 170.062 83.849C170.542 82.8722 171.208 82.1138 172.059 81.5736C172.915 81.0334 173.911 80.7633 175.046 80.7633C176.181 80.7633 177.174 81.0334 178.026 81.5736C178.882 82.1138 179.548 82.8722 180.023 83.849C180.503 84.8257 180.743 85.9689 180.743 87.2785C180.743 88.5771 180.503 89.7121 180.023 90.6834C179.548 91.6547 178.882 92.4104 178.026 92.9506C177.174 93.4908 176.181 93.7609 175.046 93.7609ZM175.046 92.0257C175.908 92.0257 176.618 91.8047 177.174 91.3628C177.731 90.9208 178.143 90.3396 178.41 89.6194C178.678 88.8991 178.811 88.1188 178.811 87.2785C178.811 86.4382 178.678 85.6551 178.41 84.9294C178.143 84.2037 177.731 83.6171 177.174 83.1696C176.618 82.7222 175.908 82.4985 175.046 82.4985C174.184 82.4985 173.475 82.7222 172.918 83.1696C172.362 83.6171 171.95 84.2037 171.682 84.9294C171.415 85.6551 171.281 86.4382 171.281 87.2785C171.281 88.1188 171.415 88.8991 171.682 89.6194C171.95 90.3396 172.362 90.9208 172.918 91.3628C173.475 91.8047 174.184 92.0257 175.046 92.0257ZM182.349 97.1004V91.6983H183.397C183.653 91.431 183.874 91.1418 184.06 90.8307C184.245 90.5197 184.406 90.1514 184.543 89.7258C184.685 89.2947 184.805 88.7709 184.903 88.1543C185.001 87.5322 185.089 86.7819 185.165 85.9034L185.591 80.927H193.579V91.6983H195.511V97.1004H193.579V93.499H184.281V97.1004H182.349ZM185.591 91.6983H191.647V82.7276H187.391L187.064 85.9034C186.927 87.2184 186.758 88.3671 186.556 89.3493C186.354 90.3315 186.033 91.1145 185.591 91.6983ZM201.774 93.7937C200.978 93.7937 200.255 93.6436 199.605 93.3435C198.956 93.0379 198.44 92.5987 198.058 92.0257C197.676 91.4473 197.485 90.7489 197.485 89.9304C197.485 89.2101 197.627 88.6263 197.911 88.1788C198.195 87.7259 198.574 87.3712 199.049 87.1148C199.523 86.8583 200.047 86.6673 200.62 86.5418C201.199 86.4109 201.78 86.3072 202.364 86.2308C203.127 86.1326 203.747 86.0589 204.221 86.0098C204.702 85.9552 205.051 85.8652 205.269 85.7397C205.493 85.6142 205.605 85.3959 205.605 85.0849V85.0194C205.605 84.2118 205.384 83.5843 204.942 83.1369C204.505 82.6895 203.842 82.4657 202.953 82.4657C202.031 82.4657 201.308 82.6676 200.784 83.0714C200.26 83.4752 199.892 83.9063 199.679 84.3646L197.845 83.7098C198.173 82.9459 198.609 82.3511 199.155 81.9255C199.706 81.4944 200.306 81.1943 200.956 81.0252C201.611 80.8506 202.254 80.7633 202.887 80.7633C203.291 80.7633 203.755 80.8124 204.279 80.9106C204.808 81.0034 205.318 81.1971 205.809 81.4917C206.306 81.7864 206.718 82.2311 207.045 82.8259C207.373 83.4206 207.536 84.2173 207.536 85.2159V93.499H205.605V91.7966H205.507C205.376 92.0694 205.157 92.3613 204.852 92.6723C204.546 92.9834 204.14 93.248 203.632 93.4663C203.125 93.6845 202.505 93.7937 201.774 93.7937ZM202.069 92.0585C202.833 92.0585 203.477 91.9084 204.001 91.6083C204.53 91.3082 204.928 90.9208 205.196 90.446C205.468 89.9713 205.605 89.472 205.605 88.9482V87.1803C205.523 87.2785 205.343 87.3685 205.065 87.4504C204.792 87.5267 204.475 87.595 204.115 87.655C203.76 87.7095 203.414 87.7587 203.076 87.8023C202.743 87.8405 202.473 87.8732 202.265 87.9005C201.763 87.966 201.294 88.0724 200.857 88.2197C200.426 88.3616 200.077 88.5771 199.81 88.8663C199.548 89.1501 199.417 89.5375 199.417 90.0286C199.417 90.6998 199.665 91.2072 200.162 91.551C200.664 91.8893 201.299 92.0585 202.069 92.0585ZM211.062 98.2135V80.927H212.928V82.9241H213.157C213.299 82.7058 213.496 82.4275 213.747 82.0892C214.003 81.7455 214.369 81.4399 214.843 81.1725C215.324 80.8997 215.973 80.7633 216.792 80.7633C217.85 80.7633 218.783 81.0279 219.591 81.5572C220.398 82.0865 221.029 82.8368 221.481 83.8081C221.934 84.7793 222.161 85.9252 222.161 87.2457C222.161 88.5771 221.934 89.7312 221.481 90.708C221.029 91.6792 220.401 92.4323 219.599 92.967C218.797 93.4963 217.872 93.7609 216.824 93.7609C216.017 93.7609 215.37 93.6273 214.884 93.3599C214.399 93.087 214.025 92.7787 213.763 92.435C213.501 92.0858 213.299 91.7966 213.157 91.5674H212.994V98.2135H211.062ZM212.961 87.213C212.961 88.1624 213.1 89 213.378 89.7258C213.657 90.446 214.063 91.0108 214.598 91.42C215.133 91.8238 215.787 92.0257 216.562 92.0257C217.37 92.0257 218.044 91.8129 218.584 91.3873C219.13 90.9562 219.539 90.3778 219.812 89.6521C220.09 88.9209 220.229 88.1079 220.229 87.213C220.229 86.329 220.093 85.5324 219.82 84.823C219.553 84.1082 219.146 83.5434 218.6 83.1287C218.06 82.7085 217.381 82.4985 216.562 82.4985C215.777 82.4985 215.116 82.6976 214.582 83.096C214.047 83.4888 213.643 84.04 213.37 84.7493C213.097 85.4532 212.961 86.2745 212.961 87.213ZM227.039 90.6507L233.096 80.927H235.322V93.499H233.391V83.7753L227.366 93.499H225.107V80.927H227.039V90.6507ZM245.735 90.8798L250.123 80.927H251.956L246.521 93.499H244.95L239.613 80.927H241.414L245.735 90.8798ZM240.792 80.927V93.499H238.86V80.927H240.792ZM250.679 93.499V80.927H252.611V93.499H250.679ZM270.389 80.927V82.7276H264.561V93.499H262.629V80.927H270.389ZM276.255 93.7937C275.458 93.7937 274.735 93.6436 274.086 93.3435C273.437 93.0379 272.921 92.5987 272.539 92.0257C272.157 91.4473 271.966 90.7489 271.966 89.9304C271.966 89.2101 272.108 88.6263 272.392 88.1788C272.676 87.7259 273.055 87.3712 273.529 87.1148C274.004 86.8583 274.528 86.6673 275.101 86.5418C275.679 86.4109 276.261 86.3072 276.844 86.2308C277.608 86.1326 278.228 86.0589 278.702 86.0098C279.183 85.9552 279.532 85.8652 279.75 85.7397C279.974 85.6142 280.086 85.3959 280.086 85.0849V85.0194C280.086 84.2118 279.865 83.5843 279.423 83.1369C278.986 82.6895 278.323 82.4657 277.434 82.4657C276.512 82.4657 275.789 82.6676 275.265 83.0714C274.741 83.4752 274.373 83.9063 274.16 84.3646L272.326 83.7098C272.654 82.9459 273.09 82.3511 273.636 81.9255C274.187 81.4944 274.787 81.1943 275.437 81.0252C276.091 80.8506 276.735 80.7633 277.368 80.7633C277.772 80.7633 278.236 80.8124 278.76 80.9106C279.289 81.0034 279.799 81.1971 280.29 81.4917C280.787 81.7864 281.199 82.2311 281.526 82.8259C281.854 83.4206 282.017 84.2173 282.017 85.2159V93.499H280.086V91.7966H279.987C279.856 92.0694 279.638 92.3613 279.333 92.6723C279.027 92.9834 278.621 93.248 278.113 93.4663C277.606 93.6845 276.986 93.7937 276.255 93.7937ZM276.55 92.0585C277.314 92.0585 277.958 91.9084 278.481 91.6083C279.011 91.3082 279.409 90.9208 279.676 90.446C279.949 89.9713 280.086 89.472 280.086 88.9482V87.1803C280.004 87.2785 279.824 87.3685 279.545 87.4504C279.273 87.5267 278.956 87.595 278.596 87.655C278.241 87.7095 277.895 87.7587 277.556 87.8023C277.224 87.8405 276.954 87.8732 276.746 87.9005C276.244 87.966 275.775 88.0724 275.338 88.2197C274.907 88.3616 274.558 88.5771 274.291 88.8663C274.029 89.1501 273.898 89.5375 273.898 90.0286C273.898 90.6998 274.146 91.2072 274.643 91.551C275.145 91.8893 275.78 92.0585 276.55 92.0585ZM287.475 90.6507L293.531 80.927H295.758V93.499H293.826V83.7753L287.802 93.499H285.543V80.927H287.475V90.6507ZM292.255 76.7363H294.055C294.055 77.6202 293.75 78.3432 293.139 78.9053C292.527 79.4673 291.698 79.7483 290.65 79.7483C289.619 79.7483 288.798 79.4673 288.187 78.9053C287.581 78.3432 287.278 77.6202 287.278 76.7363H289.079C289.079 77.1619 289.196 77.5357 289.431 77.8576C289.671 78.1796 290.077 78.3405 290.65 78.3405C291.223 78.3405 291.633 78.1796 291.878 77.8576C292.129 77.5357 292.255 77.1619 292.255 76.7363ZM297.953 97.1004V91.6983H299.001C299.257 91.431 299.478 91.1418 299.664 90.8307C299.85 90.5197 300.01 90.1514 300.147 89.7258C300.289 89.2947 300.409 88.7709 300.507 88.1543C300.605 87.5322 300.693 86.7819 300.769 85.9034L301.195 80.927H309.183V91.6983H311.115V97.1004H309.183V93.499H299.885V97.1004H297.953ZM301.195 91.6983H307.251V82.7276H302.995L302.668 85.9034C302.531 87.2184 302.362 88.3671 302.16 89.3493C301.959 90.3315 301.637 91.1145 301.195 91.6983ZM325.269 93.7609C324.134 93.7609 323.138 93.4908 322.281 92.9506C321.43 92.4104 320.764 91.6547 320.284 90.6834C319.809 89.7121 319.572 88.5771 319.572 87.2785C319.572 85.9689 319.809 84.8257 320.284 83.849C320.764 82.8722 321.43 82.1138 322.281 81.5736C323.138 81.0334 324.134 80.7633 325.269 80.7633C326.403 80.7633 327.397 81.0334 328.248 81.5736C329.105 82.1138 329.77 82.8722 330.245 83.849C330.725 84.8257 330.965 85.9689 330.965 87.2785C330.965 88.5771 330.725 89.7121 330.245 90.6834C329.77 91.6547 329.105 92.4104 328.248 92.9506C327.397 93.4908 326.403 93.7609 325.269 93.7609ZM325.269 92.0257C326.131 92.0257 326.84 91.8047 327.397 91.3628C327.953 90.9208 328.365 90.3396 328.633 89.6194C328.9 88.8991 329.034 88.1188 329.034 87.2785C329.034 86.4382 328.9 85.6551 328.633 84.9294C328.365 84.2037 327.953 83.6171 327.397 83.1696C326.84 82.7222 326.131 82.4985 325.269 82.4985C324.406 82.4985 323.697 82.7222 323.14 83.1696C322.584 83.6171 322.172 84.2037 321.905 84.9294C321.637 85.6551 321.503 86.4382 321.503 87.2785C321.503 88.1188 321.637 88.8991 321.905 89.6194C322.172 90.3396 322.584 90.9208 323.14 91.3628C323.697 91.8047 324.406 92.0257 325.269 92.0257ZM332.271 82.7276V80.927H342.486V82.7276H338.36V93.499H336.429V82.7276H332.271ZM356.893 93.7609C355.714 93.7609 354.699 93.4827 353.848 92.9261C352.997 92.3695 352.342 91.6028 351.884 90.6261C351.426 89.6494 351.196 88.5335 351.196 87.2785C351.196 86.0016 351.431 84.8748 351.9 83.8981C352.375 82.9159 353.035 82.1492 353.881 81.5981C354.732 81.0416 355.725 80.7633 356.86 80.7633C357.744 80.7633 358.541 80.927 359.25 81.2544C359.96 81.5818 360.541 82.0401 360.994 82.6294C361.447 83.2187 361.728 83.9063 361.837 84.692H359.905C359.758 84.1191 359.43 83.6116 358.923 83.1696C358.421 82.7222 357.744 82.4985 356.893 82.4985C356.14 82.4985 355.48 82.6949 354.912 83.0878C354.35 83.4752 353.911 84.0236 353.595 84.733C353.284 85.4369 353.128 86.2635 353.128 87.213C353.128 88.1843 353.281 89.03 353.586 89.7503C353.897 90.4706 354.334 91.0299 354.896 91.4282C355.463 91.8266 356.129 92.0257 356.893 92.0257C357.395 92.0257 357.851 91.9384 358.26 91.7638C358.669 91.5892 359.016 91.3382 359.299 91.0108C359.583 90.6834 359.785 90.2905 359.905 89.8322H361.837C361.728 90.5743 361.458 91.2427 361.026 91.8375C360.601 92.4268 360.036 92.8961 359.332 93.2453C358.634 93.5891 357.821 93.7609 356.893 93.7609ZM364.661 93.499V80.927H374.548V93.499H372.616V82.7276H366.592V93.499H364.661ZM383.347 93.7609C382.135 93.7609 381.09 93.4936 380.212 92.9588C379.339 92.4186 378.665 91.6656 378.19 90.6998C377.721 89.7285 377.486 88.599 377.486 87.3112C377.486 86.0234 377.721 84.8885 378.19 83.9063C378.665 82.9186 379.325 82.1492 380.171 81.5981C381.022 81.0416 382.015 80.7633 383.15 80.7633C383.805 80.7633 384.452 80.8724 385.09 81.0907C385.729 81.3089 386.31 81.6636 386.834 82.1547C387.357 82.6403 387.775 83.2842 388.086 84.0863C388.397 84.8885 388.552 85.8761 388.552 87.0493V87.8678H378.861V86.1981H386.588C386.588 85.4887 386.446 84.8557 386.162 84.2992C385.884 83.7426 385.486 83.3033 384.967 82.9814C384.454 82.6594 383.849 82.4985 383.15 82.4985C382.381 82.4985 381.715 82.6895 381.153 83.0714C380.597 83.4479 380.168 83.939 379.868 84.5447C379.568 85.1504 379.418 85.7997 379.418 86.4927V87.6059C379.418 88.5553 379.582 89.3602 379.909 90.0204C380.242 90.6752 380.703 91.1745 381.292 91.5183C381.882 91.8566 382.566 92.0257 383.347 92.0257C383.854 92.0257 384.313 91.9548 384.722 91.8129C385.137 91.6656 385.494 91.4473 385.794 91.1581C386.094 90.8635 386.326 90.4979 386.49 90.0614L388.356 90.5852C388.16 91.2182 387.829 91.7747 387.366 92.2549C386.902 92.7296 386.329 93.1007 385.647 93.3681C384.965 93.63 384.198 93.7609 383.347 93.7609ZM401.378 80.927V91.6983H403.146V97.5588H401.214V93.499H391.491V80.927H393.422V91.6983H399.447V80.927H401.378ZM408.053 90.6507L414.11 80.927H416.336V93.499H414.405V83.7753L408.38 93.499H406.121V80.927H408.053V90.6507ZM423.574 93.7937C422.777 93.7937 422.054 93.6436 421.405 93.3435C420.755 93.0379 420.24 92.5987 419.858 92.0257C419.476 91.4473 419.285 90.7489 419.285 89.9304C419.285 89.2101 419.427 88.6263 419.71 88.1788C419.994 87.7259 420.373 87.3712 420.848 87.1148C421.323 86.8583 421.847 86.6673 422.42 86.5418C422.998 86.4109 423.579 86.3072 424.163 86.2308C424.927 86.1326 425.546 86.0589 426.021 86.0098C426.501 85.9552 426.85 85.8652 427.069 85.7397C427.292 85.6142 427.404 85.3959 427.404 85.0849V85.0194C427.404 84.2118 427.183 83.5843 426.741 83.1369C426.305 82.6895 425.642 82.4657 424.752 82.4657C423.83 82.4657 423.107 82.6676 422.583 83.0714C422.059 83.4752 421.691 83.9063 421.478 84.3646L419.645 83.7098C419.972 82.9459 420.409 82.3511 420.955 81.9255C421.506 81.4944 422.106 81.1943 422.755 81.0252C423.41 80.8506 424.054 80.7633 424.687 80.7633C425.091 80.7633 425.554 80.8124 426.078 80.9106C426.608 81.0034 427.118 81.1971 427.609 81.4917C428.105 81.7864 428.517 82.2311 428.845 82.8259C429.172 83.4206 429.336 84.2173 429.336 85.2159V93.499H427.404V91.7966H427.306C427.175 92.0694 426.957 92.3613 426.651 92.6723C426.346 92.9834 425.939 93.248 425.432 93.4663C424.924 93.6845 424.305 93.7937 423.574 93.7937ZM423.868 92.0585C424.632 92.0585 425.276 91.9084 425.8 91.6083C426.329 91.3082 426.728 90.9208 426.995 90.446C427.268 89.9713 427.404 89.472 427.404 88.9482V87.1803C427.322 87.2785 427.142 87.3685 426.864 87.4504C426.591 87.5267 426.275 87.595 425.915 87.655C425.56 87.7095 425.213 87.7587 424.875 87.8023C424.542 87.8405 424.272 87.8732 424.065 87.9005C423.563 87.966 423.094 88.0724 422.657 88.2197C422.226 88.3616 421.877 88.5771 421.609 88.8663C421.347 89.1501 421.216 89.5375 421.216 90.0286C421.216 90.6998 421.465 91.2072 421.961 91.551C422.463 91.8893 423.099 92.0585 423.868 92.0585ZM431.748 93.499V91.6983H432.207C432.583 91.6983 432.897 91.6247 433.148 91.4773C433.399 91.3246 433.601 91.0599 433.754 90.6834C433.912 90.3014 434.032 89.7721 434.114 89.0955C434.201 88.4134 434.264 87.5458 434.302 86.4927L434.531 80.927H442.913V93.499H440.981V82.7276H436.365L436.168 87.213C436.125 88.2443 436.032 89.1528 435.89 89.9386C435.754 90.7189 435.543 91.3737 435.26 91.903C434.981 92.4323 434.61 92.8306 434.147 93.098C433.683 93.3653 433.102 93.499 432.403 93.499H431.748ZM448.388 90.6507L454.445 80.927H456.672V93.499H454.74V83.7753L448.716 93.499H446.457V80.927H448.388V90.6507ZM465.317 93.7609C464.138 93.7609 463.123 93.4827 462.272 92.9261C461.421 92.3695 460.766 91.6028 460.308 90.6261C459.849 89.6494 459.62 88.5335 459.62 87.2785C459.62 86.0016 459.855 84.8748 460.324 83.8981C460.799 82.9159 461.459 82.1492 462.305 81.5981C463.156 81.0416 464.149 80.7633 465.284 80.7633C466.168 80.7633 466.965 80.927 467.674 81.2544C468.383 81.5818 468.965 82.0401 469.418 82.6294C469.87 83.2187 470.151 83.9063 470.261 84.692H468.329C468.182 84.1191 467.854 83.6116 467.347 83.1696C466.845 82.7222 466.168 82.4985 465.317 82.4985C464.564 82.4985 463.904 82.6949 463.336 83.0878C462.774 83.4752 462.335 84.0236 462.018 84.733C461.707 85.4369 461.552 86.2635 461.552 87.213C461.552 88.1843 461.705 89.03 462.01 89.7503C462.321 90.4706 462.758 91.0299 463.32 91.4282C463.887 91.8266 464.553 92.0257 465.317 92.0257C465.819 92.0257 466.275 91.9384 466.684 91.7638C467.093 91.5892 467.44 91.3382 467.723 91.0108C468.007 90.6834 468.209 90.2905 468.329 89.8322H470.261C470.151 90.5743 469.881 91.2427 469.45 91.8375C469.025 92.4268 468.46 92.8961 467.756 93.2453C467.058 93.5891 466.245 93.7609 465.317 93.7609ZM472.094 82.7276V80.927H482.309V82.7276H478.184V93.499H476.252V82.7276H472.094ZM489.581 93.7609C488.446 93.7609 487.45 93.4908 486.594 92.9506C485.742 92.4104 485.077 91.6547 484.597 90.6834C484.122 89.7121 483.884 88.5771 483.884 87.2785C483.884 85.9689 484.122 84.8257 484.597 83.849C485.077 82.8722 485.742 82.1138 486.594 81.5736C487.45 81.0334 488.446 80.7633 489.581 80.7633C490.716 80.7633 491.709 81.0334 492.56 81.5736C493.417 82.1138 494.083 82.8722 494.558 83.849C495.038 84.8257 495.278 85.9689 495.278 87.2785C495.278 88.5771 495.038 89.7121 494.558 90.6834C494.083 91.6547 493.417 92.4104 492.56 92.9506C491.709 93.4908 490.716 93.7609 489.581 93.7609ZM489.581 92.0257C490.443 92.0257 491.153 91.8047 491.709 91.3628C492.266 90.9208 492.678 90.3396 492.945 89.6194C493.213 88.8991 493.346 88.1188 493.346 87.2785C493.346 86.4382 493.213 85.6551 492.945 84.9294C492.678 84.2037 492.266 83.6171 491.709 83.1696C491.153 82.7222 490.443 82.4985 489.581 82.4985C488.719 82.4985 488.01 82.7222 487.453 83.1696C486.896 83.6171 486.484 84.2037 486.217 84.9294C485.95 85.6551 485.816 86.4382 485.816 87.2785C485.816 88.1188 485.95 88.8991 486.217 89.6194C486.484 90.3396 486.896 90.9208 487.453 91.3628C488.01 91.8047 488.719 92.0257 489.581 92.0257ZM498.226 93.499V80.927H503.367C504.72 80.927 505.795 81.2325 506.591 81.8437C507.388 82.4548 507.786 83.2624 507.786 84.2664C507.786 85.0303 507.56 85.6224 507.107 86.0425C506.654 86.4572 506.073 86.7383 505.364 86.8856C505.828 86.9511 506.278 87.1148 506.714 87.3767C507.156 87.6386 507.522 87.9987 507.811 88.4571C508.1 88.91 508.245 89.4666 508.245 90.1268C508.245 90.7707 508.081 91.3464 507.754 91.8539C507.426 92.3613 506.957 92.7624 506.346 93.057C505.735 93.3517 505.004 93.499 504.152 93.499H498.226ZM500.06 91.7311H504.152C504.818 91.7311 505.339 91.5728 505.716 91.2564C506.092 90.9399 506.28 90.5088 506.28 89.9631C506.28 89.3138 506.092 88.8036 505.716 88.4325C505.339 88.056 504.818 87.8678 504.152 87.8678H500.06V91.7311ZM500.06 86.1981H503.367C503.885 86.1981 504.33 86.1271 504.701 85.9853C505.072 85.8379 505.356 85.6306 505.552 85.3632C505.754 85.0904 505.855 84.7684 505.855 84.3974C505.855 83.8681 505.634 83.4534 505.192 83.1533C504.75 82.8477 504.141 82.6949 503.367 82.6949H500.06V86.1981ZM153.567 123.499V106.736H163.684V108.537H155.597V113.775H159.853C161.053 113.775 162.066 113.972 162.89 114.365C163.719 114.758 164.347 115.311 164.772 116.026C165.203 116.741 165.419 117.584 165.419 118.555C165.419 119.527 165.203 120.383 164.772 121.125C164.347 121.867 163.719 122.449 162.89 122.869C162.066 123.289 161.053 123.499 159.853 123.499H153.567ZM155.597 121.731H159.853C160.617 121.731 161.264 121.578 161.793 121.273C162.328 120.962 162.731 120.563 163.004 120.078C163.282 119.587 163.422 119.068 163.422 118.523C163.422 117.72 163.113 117.03 162.497 116.452C161.88 115.868 160.999 115.576 159.853 115.576H155.597V121.731ZM173.606 123.761C172.471 123.761 171.475 123.491 170.618 122.951C169.767 122.41 169.101 121.655 168.621 120.683C168.146 119.712 167.909 118.577 167.909 117.278C167.909 115.969 168.146 114.826 168.621 113.849C169.101 112.872 169.767 112.114 170.618 111.574C171.475 111.033 172.471 110.763 173.606 110.763C174.741 110.763 175.734 111.033 176.585 111.574C177.442 112.114 178.107 112.872 178.582 113.849C179.062 114.826 179.302 115.969 179.302 117.278C179.302 118.577 179.062 119.712 178.582 120.683C178.107 121.655 177.442 122.41 176.585 122.951C175.734 123.491 174.741 123.761 173.606 123.761ZM173.606 122.026C174.468 122.026 175.177 121.805 175.734 121.363C176.29 120.921 176.702 120.34 176.97 119.619C177.237 118.899 177.371 118.119 177.371 117.278C177.371 116.438 177.237 115.655 176.97 114.929C176.702 114.204 176.29 113.617 175.734 113.17C175.177 112.722 174.468 112.498 173.606 112.498C172.744 112.498 172.034 112.722 171.478 113.17C170.921 113.617 170.509 114.204 170.242 114.929C169.974 115.655 169.841 116.438 169.841 117.278C169.841 118.119 169.974 118.899 170.242 119.619C170.509 120.34 170.921 120.921 171.478 121.363C172.034 121.805 172.744 122.026 173.606 122.026ZM180.608 112.728V110.927H190.823V112.728H186.698V123.499H184.766V112.728H180.608ZM198.095 127.788V106.736H200.027V127.788H198.095ZM198.095 123.761C197.244 123.761 196.469 123.608 195.771 123.303C195.072 122.992 194.472 122.552 193.97 121.985C193.468 121.412 193.08 120.727 192.808 119.93C192.535 119.134 192.398 118.25 192.398 117.278C192.398 116.296 192.535 115.407 192.808 114.61C193.08 113.808 193.468 113.121 193.97 112.548C194.472 111.975 195.072 111.535 195.771 111.23C196.469 110.919 197.244 110.763 198.095 110.763H198.684V123.761H198.095ZM198.095 122.026H198.422V112.498H198.095C197.451 112.498 196.892 112.629 196.417 112.891C195.942 113.148 195.55 113.5 195.239 113.947C194.933 114.389 194.704 114.897 194.551 115.47C194.404 116.043 194.33 116.646 194.33 117.278C194.33 118.119 194.464 118.899 194.731 119.619C194.998 120.34 195.41 120.921 195.967 121.363C196.524 121.805 197.233 122.026 198.095 122.026ZM200.027 123.761H199.437V110.763H200.027C200.878 110.763 201.653 110.919 202.351 111.23C203.05 111.535 203.65 111.975 204.152 112.548C204.654 113.121 205.041 113.808 205.314 114.61C205.587 115.407 205.723 116.296 205.723 117.278C205.723 118.25 205.587 119.134 205.314 119.93C205.041 120.727 204.654 121.412 204.152 121.985C203.65 122.552 203.05 122.992 202.351 123.303C201.653 123.608 200.878 123.761 200.027 123.761ZM200.027 122.026C200.676 122.026 201.235 121.9 201.705 121.649C202.179 121.393 202.57 121.044 202.875 120.602C203.186 120.154 203.415 119.647 203.563 119.079C203.715 118.506 203.792 117.906 203.792 117.278C203.792 116.438 203.658 115.655 203.391 114.929C203.123 114.204 202.711 113.617 202.155 113.17C201.598 112.722 200.889 112.498 200.027 112.498H199.699V122.026H200.027ZM212.376 123.794C211.579 123.794 210.856 123.644 210.207 123.344C209.557 123.038 209.042 122.599 208.66 122.026C208.278 121.447 208.087 120.749 208.087 119.93C208.087 119.21 208.229 118.626 208.512 118.179C208.796 117.726 209.175 117.371 209.65 117.115C210.125 116.858 210.649 116.667 211.222 116.542C211.8 116.411 212.381 116.307 212.965 116.231C213.729 116.133 214.348 116.059 214.823 116.01C215.303 115.955 215.652 115.865 215.871 115.74C216.094 115.614 216.206 115.396 216.206 115.085V115.019C216.206 114.212 215.985 113.584 215.543 113.137C215.107 112.689 214.444 112.466 213.554 112.466C212.632 112.466 211.909 112.668 211.385 113.071C210.862 113.475 210.493 113.906 210.28 114.365L208.447 113.71C208.774 112.946 209.211 112.351 209.757 111.926C210.308 111.494 210.908 111.194 211.557 111.025C212.212 110.851 212.856 110.763 213.489 110.763C213.893 110.763 214.356 110.812 214.88 110.911C215.41 111.003 215.92 111.197 216.411 111.492C216.907 111.786 217.319 112.231 217.647 112.826C217.974 113.421 218.138 114.217 218.138 115.216V123.499H216.206V121.797H216.108C215.977 122.069 215.759 122.361 215.453 122.672C215.148 122.983 214.741 123.248 214.234 123.466C213.726 123.685 213.107 123.794 212.376 123.794ZM212.67 122.058C213.434 122.058 214.078 121.908 214.602 121.608C215.131 121.308 215.53 120.921 215.797 120.446C216.07 119.971 216.206 119.472 216.206 118.948V117.18C216.124 117.278 215.944 117.369 215.666 117.45C215.393 117.527 215.077 117.595 214.717 117.655C214.362 117.71 214.015 117.759 213.677 117.802C213.344 117.841 213.074 117.873 212.867 117.901C212.365 117.966 211.896 118.072 211.459 118.22C211.028 118.362 210.679 118.577 210.411 118.866C210.149 119.15 210.018 119.538 210.018 120.029C210.018 120.7 210.267 121.207 210.763 121.551C211.265 121.889 211.901 122.058 212.67 122.058ZM221.664 123.499V110.927H223.595V116.394H224.872L229.39 110.927H231.878L226.804 116.984L231.944 123.499H229.456L225.33 118.195H223.595V123.499H221.664ZM233.323 112.728V110.927H243.538V112.728H239.413V123.499H237.481V112.728H233.323ZM250.81 123.761C249.675 123.761 248.679 123.491 247.823 122.951C246.971 122.41 246.306 121.655 245.826 120.683C245.351 119.712 245.113 118.577 245.113 117.278C245.113 115.969 245.351 114.826 245.826 113.849C246.306 112.872 246.971 112.114 247.823 111.574C248.679 111.033 249.675 110.763 250.81 110.763C251.945 110.763 252.938 111.033 253.789 111.574C254.646 112.114 255.312 112.872 255.787 113.849C256.267 114.826 256.507 115.969 256.507 117.278C256.507 118.577 256.267 119.712 255.787 120.683C255.312 121.655 254.646 122.41 253.789 122.951C252.938 123.491 251.945 123.761 250.81 123.761ZM250.81 122.026C251.672 122.026 252.382 121.805 252.938 121.363C253.495 120.921 253.907 120.34 254.174 119.619C254.442 118.899 254.575 118.119 254.575 117.278C254.575 116.438 254.442 115.655 254.174 114.929C253.907 114.204 253.495 113.617 252.938 113.17C252.382 112.722 251.672 112.498 250.81 112.498C249.948 112.498 249.239 112.722 248.682 113.17C248.125 113.617 247.714 114.204 247.446 114.929C247.179 115.655 247.045 116.438 247.045 117.278C247.045 118.119 247.179 118.899 247.446 119.619C247.714 120.34 248.125 120.921 248.682 121.363C249.239 121.805 249.948 122.026 250.81 122.026ZM259.455 128.214V110.927H261.322V112.924H261.551C261.693 112.706 261.889 112.428 262.14 112.089C262.397 111.745 262.762 111.44 263.237 111.173C263.717 110.9 264.366 110.763 265.185 110.763C266.244 110.763 267.177 111.028 267.984 111.557C268.792 112.086 269.422 112.837 269.875 113.808C270.328 114.779 270.554 115.925 270.554 117.246C270.554 118.577 270.328 119.731 269.875 120.708C269.422 121.679 268.795 122.432 267.992 122.967C267.19 123.496 266.265 123.761 265.218 123.761C264.41 123.761 263.763 123.627 263.278 123.36C262.792 123.087 262.418 122.779 262.157 122.435C261.895 122.086 261.693 121.797 261.551 121.567H261.387V128.214H259.455ZM261.354 117.213C261.354 118.162 261.494 119 261.772 119.726C262.05 120.446 262.457 121.011 262.991 121.42C263.526 121.824 264.181 122.026 264.956 122.026C265.763 122.026 266.437 121.813 266.977 121.387C267.523 120.956 267.932 120.378 268.205 119.652C268.483 118.921 268.623 118.108 268.623 117.213C268.623 116.329 268.486 115.532 268.213 114.823C267.946 114.108 267.539 113.543 266.994 113.129C266.454 112.709 265.774 112.498 264.956 112.498C264.17 112.498 263.51 112.698 262.975 113.096C262.44 113.489 262.036 114.04 261.764 114.749C261.491 115.453 261.354 116.274 261.354 117.213Z" fill="black"/>
</g>
<defs>
<filter id="filter0_d_85_242" x="0.0731697" y="0.0731697" width="605.854" height="329.269" filterUnits="userSpaceOnUse" color-interpolation-filters="sRGB">
<feFlood flood-opacity="0" result="BackgroundImageFix"/>
<feColorMatrix in="SourceAlpha" type="matrix" values="0 0 0 0 0 0 0 0 0 0 0 0 0 0 0 0 0 0 127 0" result="hardAlpha"/>
<feOffset/>
<feGaussianBlur stdDeviation="16.4634"/>
<feComposite in2="hardAlpha" operator="out"/>
<feColorMatrix type="matrix" values="0 0 0 0 0.716146 0 0 0 0 0.869305 0 0 0 0 1 0 0 0 1 0"/>
<feBlend mode="normal" in2="BackgroundImageFix" result="effect1_dropShadow_85_242"/>
<feBlend mode="normal" in="SourceGraphic" in2="effect1_dropShadow_85_242" result="shape"/>
</filter>
<clipPath id="clip0_85_242">
<rect width="47.7439" height="47.7439" fill="white" transform="translate(76.6279 76.627)"/>
</clipPath>
</defs>
</svg>
