<svg width="606" height="330" viewBox="0 0 606 330" fill="none" xmlns="http://www.w3.org/2000/svg">
<g filter="url(#filter0_d_85_147)">
<rect x="33" y="33" width="540" height="263.415" rx="32.9268" fill="white"/>
<rect x="57.6953" y="57.6953" width="339.146" height="51.0366" rx="25.5183" fill="#2CA9DB"/>
<path d="M96.9198 74.2538V92.2139H94.2188V76.5689H85.7649V92.2139H83.0639V74.2538H96.9198ZM99.7918 92.2139L99.7831 89.9425H100.265C100.64 89.9425 100.952 89.8636 101.204 89.7058C101.461 89.5421 101.671 89.2673 101.835 88.8814C101.999 88.4956 102.125 87.9635 102.212 87.2854C102.3 86.6013 102.364 85.7419 102.405 84.7071L102.642 78.7438H112.043V92.2139H109.473V81.0064H105.071L104.861 85.5841C104.808 86.6949 104.694 87.6654 104.519 88.4956C104.349 89.3258 104.101 90.0186 103.773 90.574C103.446 91.1235 103.025 91.5357 102.51 91.8105C101.996 92.0794 101.37 92.2139 100.634 92.2139H99.7918ZM121.214 92.4857C119.951 92.4857 118.849 92.1963 117.908 91.6175C116.966 91.0387 116.236 90.229 115.715 89.1884C115.195 88.1477 114.935 86.9317 114.935 85.5402C114.935 84.1429 115.195 82.921 115.715 81.8745C116.236 80.828 116.966 80.0154 117.908 79.4366C118.849 78.8578 119.951 78.5684 121.214 78.5684C122.477 78.5684 123.579 78.8578 124.52 79.4366C125.461 80.0154 126.192 80.828 126.712 81.8745C127.233 82.921 127.493 84.1429 127.493 85.5402C127.493 86.9317 127.233 88.1477 126.712 89.1884C126.192 90.229 125.461 91.0387 124.52 91.6175C123.579 92.1963 122.477 92.4857 121.214 92.4857ZM121.222 90.2846C122.041 90.2846 122.719 90.0682 123.257 89.6356C123.795 89.203 124.192 88.6271 124.45 87.908C124.713 87.1889 124.844 86.3967 124.844 85.5315C124.844 84.672 124.713 83.8828 124.45 83.1637C124.192 82.4387 123.795 81.857 123.257 81.4185C122.719 80.98 122.041 80.7608 121.222 80.7608C120.398 80.7608 119.714 80.98 119.17 81.4185C118.633 81.857 118.232 82.4387 117.969 83.1637C117.712 83.8828 117.583 84.672 117.583 85.5315C117.583 86.3967 117.712 87.1889 117.969 87.908C118.232 88.6271 118.633 89.203 119.17 89.6356C119.714 90.0682 120.398 90.2846 121.222 90.2846ZM149.721 89.9513L149.476 96.0725H146.906V92.2139H145.231V89.9513H149.721ZM130.42 78.7438H132.989V89.9425H137.646V78.7438H140.215V89.9425H144.872V78.7438H147.441V92.2139H130.42V78.7438ZM156.406 92.512C155.552 92.512 154.781 92.3542 154.091 92.0385C153.401 91.7169 152.854 91.2521 152.451 90.6441C152.053 90.0361 151.855 89.2907 151.855 88.4079C151.855 87.6478 152.001 87.0223 152.293 86.5312C152.585 86.0401 152.98 85.6513 153.477 85.3648C153.974 85.0784 154.529 84.862 155.143 84.7159C155.757 84.5697 156.383 84.4586 157.02 84.3826C157.827 84.2891 158.481 84.2131 158.984 84.1546C159.487 84.0903 159.852 83.988 160.08 83.8477C160.308 83.7074 160.422 83.4794 160.422 83.1637V83.1023C160.422 82.3364 160.206 81.743 159.774 81.3221C159.347 80.9011 158.709 80.6906 157.862 80.6906C156.979 80.6906 156.283 80.8865 155.775 81.2782C155.272 81.6641 154.924 82.0938 154.731 82.5673L152.267 82.0061C152.559 81.1876 152.986 80.5269 153.547 80.0242C154.114 79.5155 154.766 79.1472 155.503 78.9192C156.239 78.6853 157.014 78.5684 157.827 78.5684C158.365 78.5684 158.935 78.6327 159.537 78.7613C160.145 78.8841 160.712 79.1121 161.238 79.4454C161.77 79.7786 162.206 80.2551 162.545 80.8748C162.884 81.4887 163.053 82.2867 163.053 83.2689V92.2139H160.493V90.3723H160.387C160.218 90.7113 159.964 91.0446 159.624 91.372C159.285 91.6994 158.85 91.9712 158.318 92.1876C157.786 92.4039 157.149 92.512 156.406 92.512ZM156.976 90.4073C157.701 90.4073 158.321 90.2641 158.835 89.9776C159.356 89.6912 159.75 89.317 160.019 88.8551C160.294 88.3874 160.431 87.8875 160.431 87.3555V85.6191C160.338 85.7127 160.156 85.8004 159.888 85.8822C159.624 85.9582 159.323 86.0255 158.984 86.0839C158.645 86.1366 158.315 86.1862 157.993 86.233C157.672 86.2739 157.403 86.309 157.187 86.3383C156.678 86.4026 156.213 86.5107 155.792 86.6627C155.377 86.8147 155.044 87.034 154.792 87.3204C154.547 87.6011 154.424 87.9752 154.424 88.4429C154.424 89.0919 154.664 89.583 155.143 89.9162C155.623 90.2436 156.234 90.4073 156.976 90.4073ZM165.23 96.0988V89.9425H166.327C166.607 89.6853 166.844 89.3784 167.037 89.0217C167.236 88.6651 167.402 88.2412 167.537 87.7502C167.677 87.2591 167.794 86.6861 167.888 86.0313C167.981 85.3707 168.063 84.6165 168.133 83.7688L168.554 78.7438H177.71V89.9425H179.779V96.0988H177.218V92.2139H167.826V96.0988H165.23ZM169.133 89.9425H175.149V80.9888H170.904L170.624 83.7688C170.489 85.1836 170.32 86.4113 170.115 87.452C169.91 88.4868 169.583 89.317 169.133 89.9425ZM182.342 92.2139V78.7438H184.964V84.3914H186.227L190.673 78.7438H193.918L188.7 85.2947L193.979 92.2139H190.726L186.665 86.8293H184.964V92.2139H182.342ZM198.585 88.5394L204.522 78.7438H207.346V92.2139H204.777V82.4095L198.866 92.2139H196.016V78.7438H198.585V88.5394ZM223.081 92.4857C221.777 92.4857 220.655 92.1905 219.714 91.6C218.778 91.0037 218.059 90.1822 217.556 89.1357C217.053 88.0892 216.802 86.8907 216.802 85.5402C216.802 84.1722 217.059 82.9649 217.574 81.9184C218.088 80.866 218.813 80.0446 219.749 79.4541C220.684 78.8637 221.786 78.5684 223.055 78.5684C224.078 78.5684 224.99 78.7584 225.791 79.1384C226.592 79.5126 227.238 80.0388 227.729 80.717C228.226 81.3951 228.521 82.1873 228.615 83.0935H226.063C225.922 82.4621 225.601 81.9184 225.098 81.4624C224.601 81.0064 223.935 80.7783 223.099 80.7783C222.368 80.7783 221.728 80.9713 221.178 81.3571C220.634 81.7371 220.211 82.2809 219.906 82.9883C219.602 83.6898 219.45 84.52 219.45 85.4788C219.45 86.461 219.6 87.3088 219.898 88.022C220.196 88.7353 220.617 89.2878 221.161 89.6795C221.71 90.0712 222.356 90.267 223.099 90.267C223.596 90.267 224.046 90.1764 224.449 89.9952C224.858 89.8081 225.2 89.5421 225.475 89.1971C225.756 88.8522 225.952 88.4371 226.063 87.9519H228.615C228.521 88.823 228.238 89.6005 227.764 90.2846C227.29 90.9686 226.656 91.5065 225.861 91.8982C225.072 92.2899 224.145 92.4857 223.081 92.4857ZM231.419 92.2139V78.7438H234.041V84.3914H235.304L239.75 78.7438H242.995L237.777 85.2947L243.056 92.2139H239.802L235.742 86.8293H234.041V92.2139H231.419ZM244.032 92.2139L244.023 89.9425H244.505C244.879 89.9425 245.192 89.8636 245.443 89.7058C245.701 89.5421 245.911 89.2673 246.075 88.8814C246.239 88.4956 246.364 87.9635 246.452 87.2854C246.54 86.6013 246.604 85.7419 246.645 84.7071L246.882 78.7438H256.283V92.2139H253.713V81.0064H249.311L249.1 85.5841C249.048 86.6949 248.934 87.6654 248.758 88.4956C248.589 89.3258 248.34 90.0186 248.013 90.574C247.686 91.1235 247.265 91.5357 246.75 91.8105C246.236 92.0794 245.61 92.2139 244.873 92.2139H244.032ZM262.349 88.5394L268.286 78.7438H271.11V92.2139H268.54V82.4095L262.63 92.2139H259.78V78.7438H262.349V88.5394ZM274.635 92.2139V78.7438H277.257V84.3914H278.52L282.966 78.7438H286.211L280.993 85.2947L286.272 92.2139H283.019L278.959 86.8293H277.257V92.2139H274.635ZM290.879 88.5394L296.816 78.7438H299.639V92.2139H297.07V82.4095L291.159 92.2139H288.309V78.7438H290.879V88.5394ZM303.165 92.2139V78.7438H308.751C310.271 78.7438 311.475 79.0683 312.364 79.7172C313.253 80.3603 313.697 81.2344 313.697 82.3393C313.697 83.1286 313.446 83.7542 312.943 84.216C312.44 84.6779 311.774 84.9877 310.943 85.1456C311.546 85.2157 312.098 85.397 312.601 85.6893C313.104 85.9758 313.507 86.3616 313.811 86.8469C314.121 87.3321 314.276 87.9109 314.276 88.5833C314.276 89.2965 314.092 89.9279 313.723 90.4775C313.355 91.0212 312.82 91.448 312.119 91.7578C311.423 92.0619 310.584 92.2139 309.602 92.2139H303.165ZM305.629 90.0215H309.602C310.251 90.0215 310.759 89.8665 311.128 89.5567C311.496 89.2468 311.68 88.8259 311.68 88.2939C311.68 87.6683 311.496 87.1772 311.128 86.8206C310.759 86.4581 310.251 86.2769 309.602 86.2769H305.629V90.0215ZM305.629 84.3563H308.777C309.268 84.3563 309.689 84.2862 310.04 84.1459C310.397 84.0055 310.669 83.8068 310.856 83.5495C311.049 83.2864 311.145 82.9766 311.145 82.62C311.145 82.0996 310.932 81.6933 310.505 81.401C310.078 81.1087 309.494 80.9625 308.751 80.9625H305.629V84.3563ZM321.072 92.512C320.219 92.512 319.447 92.3542 318.757 92.0385C318.067 91.7169 317.521 91.2521 317.117 90.6441C316.72 90.0361 316.521 89.2907 316.521 88.4079C316.521 87.6478 316.667 87.0223 316.959 86.5312C317.252 86.0401 317.646 85.6513 318.143 85.3648C318.64 85.0784 319.196 84.862 319.809 84.7159C320.423 84.5697 321.049 84.4586 321.686 84.3826C322.493 84.2891 323.148 84.2131 323.651 84.1546C324.153 84.0903 324.519 83.988 324.747 83.8477C324.975 83.7074 325.089 83.4794 325.089 83.1637V83.1023C325.089 82.3364 324.872 81.743 324.44 81.3221C324.013 80.9011 323.376 80.6906 322.528 80.6906C321.645 80.6906 320.95 80.8865 320.441 81.2782C319.938 81.6641 319.59 82.0938 319.397 82.5673L316.933 82.0061C317.225 81.1876 317.652 80.5269 318.213 80.0242C318.781 79.5155 319.432 79.1472 320.169 78.9192C320.906 78.6853 321.68 78.5684 322.493 78.5684C323.031 78.5684 323.601 78.6327 324.203 78.7613C324.811 78.8841 325.378 79.1121 325.904 79.4454C326.436 79.7786 326.872 80.2551 327.211 80.8748C327.55 81.4887 327.72 82.2867 327.72 83.2689V92.2139H325.159V90.3723H325.054C324.884 90.7113 324.63 91.0446 324.291 91.372C323.952 91.6994 323.516 91.9712 322.984 92.1876C322.452 92.4039 321.815 92.512 321.072 92.512ZM321.642 90.4073C322.367 90.4073 322.987 90.2641 323.501 89.9776C324.022 89.6912 324.416 89.317 324.685 88.8551C324.96 88.3874 325.098 87.8875 325.098 87.3555V85.6191C325.004 85.7127 324.823 85.8004 324.554 85.8822C324.291 85.9582 323.99 86.0255 323.651 86.0839C323.311 86.1366 322.981 86.1862 322.66 86.233C322.338 86.2739 322.069 86.309 321.853 86.3383C321.344 86.4026 320.879 86.5107 320.458 86.6627C320.043 86.8147 319.71 87.034 319.459 87.3204C319.213 87.6011 319.09 87.9752 319.09 88.4429C319.09 89.0919 319.33 89.583 319.809 89.9162C320.289 90.2436 320.9 90.4073 321.642 90.4073ZM340.341 84.3476V86.6189H333.045V84.3476H340.341ZM333.782 78.7438V92.2139H331.212V78.7438H333.782ZM342.174 78.7438V92.2139H339.613V78.7438H342.174ZM348.251 88.5394L354.188 78.7438H357.012V92.2139H354.443V82.4095L348.532 92.2139H345.682V78.7438H348.251V88.5394ZM363.107 88.5394L369.044 78.7438H371.868V92.2139H369.298V82.4095L363.388 92.2139H360.538V78.7438H363.107V88.5394ZM367.922 74.1836H370.079C370.079 75.1717 369.728 75.9755 369.027 76.5953C368.331 77.2091 367.39 77.5161 366.203 77.5161C365.022 77.5161 364.083 77.2091 363.388 76.5953C362.692 75.9755 362.344 75.1717 362.344 74.1836H364.493C364.493 74.6221 364.621 75.0109 364.879 75.35C365.136 75.6832 365.577 75.8498 366.203 75.8498C366.817 75.8498 367.255 75.6832 367.518 75.35C367.787 75.0167 367.922 74.6279 367.922 74.1836Z" fill="white"/>
<path d="M76.2031 134.561V147.076H73.6245V136.581H68.5962V147.076H66.0176V134.561H76.2031ZM84.5577 137.776V139.719H79.985V137.776H84.5577ZM86.3714 137.776V147.076H83.8959V137.776H86.3714ZM79.3662 137.776H81.7986L81.5494 142.469C81.515 143.14 81.4434 143.73 81.3345 144.24C81.2256 144.75 81.0795 145.185 80.8961 145.546C80.7185 145.907 80.5036 146.202 80.2515 146.432C80.0051 146.655 79.7157 146.818 79.3833 146.921C79.0567 147.025 78.6957 147.076 78.3003 147.076H77.5439L77.5182 145.125L77.8362 145.091C78.0196 145.073 78.18 145.022 78.3175 144.936C78.4608 144.844 78.5811 144.715 78.6785 144.549C78.7817 144.377 78.8676 144.162 78.9364 143.904C79.0052 143.641 79.0596 143.331 79.0997 142.976C79.1455 142.621 79.1771 142.211 79.1943 141.747L79.3662 137.776ZM87.8927 142.521V142.34C87.8927 141.658 87.9901 141.031 88.185 140.458C88.3798 139.879 88.6635 139.378 89.0359 138.954C89.4084 138.53 89.8668 138.2 90.4112 137.965C90.9555 137.724 91.5801 137.604 92.285 137.604C92.9898 137.604 93.6172 137.724 94.1673 137.965C94.7174 138.2 95.1787 138.53 95.5512 138.954C95.9294 139.378 96.2159 139.879 96.4107 140.458C96.6055 141.031 96.703 141.658 96.703 142.34V142.521C96.703 143.197 96.6055 143.824 96.4107 144.403C96.2159 144.976 95.9294 145.477 95.5512 145.907C95.1787 146.331 94.7203 146.661 94.1759 146.896C93.6316 147.131 93.007 147.248 92.3021 147.248C91.5973 147.248 90.9699 147.131 90.4198 146.896C89.8754 146.661 89.4141 146.331 89.0359 145.907C88.6635 145.477 88.3798 144.976 88.185 144.403C87.9901 143.824 87.8927 143.197 87.8927 142.521ZM90.3682 142.34V142.521C90.3682 142.91 90.4026 143.274 90.4713 143.612C90.5401 143.95 90.649 144.248 90.798 144.506C90.9527 144.758 91.1532 144.956 91.3996 145.099C91.646 145.242 91.9469 145.314 92.3021 145.314C92.646 145.314 92.9411 145.242 93.1875 145.099C93.4339 144.956 93.6316 144.758 93.7805 144.506C93.9295 144.248 94.0384 143.95 94.1072 143.612C94.1817 143.274 94.2189 142.91 94.2189 142.521V142.34C94.2189 141.962 94.1817 141.607 94.1072 141.274C94.0384 140.936 93.9267 140.638 93.7719 140.38C93.623 140.117 93.4253 139.911 93.1789 139.762C92.9325 139.613 92.6345 139.538 92.285 139.538C91.9354 139.538 91.6374 139.613 91.391 139.762C91.1504 139.911 90.9527 140.117 90.798 140.38C90.649 140.638 90.5401 140.936 90.4713 141.274C90.4026 141.607 90.3682 141.962 90.3682 142.34ZM112.639 145.151L112.467 149.835H110.163V147.076H109.123V145.151H112.639ZM98.19 137.776H100.665V145.142H103.244V137.776H105.728V145.142H108.298V137.776H110.774V147.076H98.19V137.776ZM119.128 144.979V140.836C119.128 140.538 119.08 140.283 118.982 140.071C118.885 139.853 118.733 139.684 118.527 139.564C118.326 139.444 118.065 139.383 117.744 139.383C117.469 139.383 117.232 139.432 117.031 139.529C116.83 139.621 116.676 139.756 116.567 139.933C116.458 140.105 116.403 140.309 116.403 140.544H113.928C113.928 140.148 114.02 139.773 114.203 139.418C114.386 139.062 114.653 138.75 115.002 138.481C115.352 138.206 115.767 137.991 116.249 137.836C116.736 137.681 117.28 137.604 117.882 137.604C118.604 137.604 119.246 137.724 119.807 137.965C120.369 138.206 120.81 138.567 121.131 139.048C121.458 139.529 121.621 140.131 121.621 140.853V144.833C121.621 145.343 121.652 145.761 121.715 146.088C121.778 146.409 121.87 146.689 121.99 146.93V147.076H119.489C119.369 146.824 119.277 146.509 119.214 146.131C119.157 145.747 119.128 145.363 119.128 144.979ZM119.455 141.412L119.472 142.813H118.088C117.762 142.813 117.478 142.85 117.237 142.925C116.997 142.999 116.799 143.105 116.644 143.243C116.489 143.374 116.375 143.529 116.3 143.707C116.232 143.884 116.197 144.079 116.197 144.291C116.197 144.503 116.246 144.695 116.343 144.867C116.441 145.033 116.581 145.165 116.764 145.263C116.948 145.354 117.163 145.4 117.409 145.4C117.782 145.4 118.105 145.326 118.38 145.177C118.655 145.028 118.867 144.844 119.016 144.626C119.171 144.409 119.251 144.202 119.257 144.008L119.91 145.056C119.819 145.291 119.693 145.535 119.532 145.787C119.377 146.039 119.18 146.277 118.939 146.5C118.698 146.718 118.409 146.899 118.071 147.042C117.733 147.179 117.332 147.248 116.868 147.248C116.277 147.248 115.742 147.131 115.26 146.896C114.785 146.655 114.407 146.326 114.126 145.907C113.851 145.483 113.713 145.002 113.713 144.463C113.713 143.976 113.805 143.543 113.988 143.165C114.172 142.787 114.441 142.469 114.796 142.211C115.157 141.948 115.607 141.75 116.146 141.618C116.684 141.481 117.309 141.412 118.019 141.412H119.455ZM125.205 137.776H127.681L127.603 140.888C127.58 141.885 127.466 142.741 127.259 143.458C127.053 144.174 126.778 144.775 126.434 145.263C126.09 145.75 125.698 146.139 125.257 146.432C124.821 146.718 124.363 146.933 123.881 147.076H123.417L123.391 145.168L123.649 145.142C123.942 144.839 124.182 144.543 124.371 144.257C124.56 143.965 124.707 143.658 124.81 143.337C124.913 143.016 124.987 142.658 125.033 142.263C125.085 141.867 125.116 141.409 125.128 140.888L125.205 137.776ZM125.876 137.776H132.038V147.076H129.572V139.762H125.876V137.776ZM122.85 145.142H133.371V149.87H130.895V147.076H125.386V149.87H122.85V145.142ZM137.17 137.776V147.076H134.694V137.776H137.17ZM143.212 137.776L139.207 143.595H136.731L136.431 141.309H138.072L140.075 137.776H143.212ZM140.187 147.076L137.9 143.148L140.058 141.953L143.505 147.076H140.187ZM146.9 143.621L150.02 137.776H152.495V147.076H150.02V141.223L146.9 147.076H144.424V137.776H146.9V143.621Z" fill="#6695E2"/>
<g clip-path="url(#clip0_85_147)">
<path d="M266.041 146.451H283.262V148.583H266.041V146.451ZM268.173 139.727H270.305V145.385H268.173V139.727ZM271.453 135.381H273.585V145.385H271.453V135.381ZM274.651 138.579H276.783V145.303H274.651V138.579ZM277.849 132.183H279.981V145.385H277.849V132.183Z" fill="#6695E2"/>
</g>
<g clip-path="url(#clip1_85_147)">
<path d="M288.479 138.935L293.5 144.59L298.538 138.935H288.479Z" fill="#6992CC"/>
</g>
<g clip-path="url(#clip2_85_147)">
<path d="M389.08 138.501H387.275C386.783 135.303 384.241 132.761 381.043 132.269V130.465H378.747V132.269C375.549 132.761 373.007 135.303 372.515 138.501H370.629V140.797H372.433C372.925 143.995 375.467 146.537 378.665 147.029V148.833H380.961V147.029C384.159 146.537 386.701 143.995 387.193 140.797H388.998V138.501H389.08ZM384.897 138.501H383.093C382.765 137.517 381.945 136.697 380.961 136.369V134.565C382.929 135.057 384.405 136.533 384.897 138.501ZM379.813 140.797C379.157 140.797 378.665 140.305 378.665 139.649C378.665 138.993 379.157 138.501 379.813 138.501C380.469 138.501 380.961 138.993 380.961 139.649C380.961 140.305 380.469 140.797 379.813 140.797ZM378.665 134.565V136.369C377.681 136.697 376.861 137.517 376.533 138.501H374.729C375.221 136.533 376.697 135.057 378.665 134.565ZM374.729 140.797H376.533C376.861 141.781 377.681 142.519 378.665 142.929V144.733C376.697 144.241 375.221 142.765 374.729 140.797ZM380.961 144.733V142.929C381.945 142.601 382.683 141.781 383.093 140.797H384.897C384.405 142.765 382.929 144.241 380.961 144.733Z" fill="#27C58B"/>
</g>
<g clip-path="url(#clip3_85_147)">
<path d="M477.133 136.121V147.683C477.133 148.34 477.625 148.832 478.281 148.832H488.695C489.351 148.832 489.843 148.34 489.843 147.683V136.121H477.133ZM480.659 146.535H479.511V138.417H480.659V146.535ZM482.955 146.535H481.807V138.417H482.955V146.535ZM485.251 146.535H484.103V138.417H485.251V146.535ZM487.547 146.535H486.399V138.417H487.547V146.535Z" fill="#6695E2"/>
<path d="M490.168 132.597H486.396V131.203C486.396 130.711 485.986 130.301 485.494 130.301H481.476C480.984 130.301 480.656 130.711 480.656 131.203V132.597H476.883C476.391 132.597 475.981 133.007 475.981 133.499V134.975H491.07V133.499C491.07 133.007 490.66 132.597 490.168 132.597ZM485.248 132.597H481.804V131.449H485.248V132.597Z" fill="#6695E2"/>
</g>
<mask id="path-10-inside-1_85_147" fill="white">
<path d="M59.0459 159.794H431.912V195.996H59.0459V159.794Z"/>
</mask>
<path d="M59.0459 159.794H431.912V195.996H59.0459V159.794Z" fill="#F5F5F5"/>
<path d="M431.912 195.996V194.738H59.0459V195.996V197.253H431.912V195.996Z" fill="#F5F5F5" mask="url(#path-10-inside-1_85_147)"/>
<path d="M75.0239 177.937L80.5765 168.937H82.7339V181.452H80.5765V172.444L75.0239 181.452H72.875V168.937H75.0239V177.937ZM89.4297 172.152V181.452H87.3496V172.152H89.4297ZM92.481 172.152V173.785H84.3498V172.152H92.481ZM93.1429 176.905V176.708C93.1429 176.037 93.2403 175.415 93.4351 174.842C93.6299 174.264 93.9107 173.762 94.2774 173.338C94.6499 172.908 95.1026 172.576 95.6355 172.341C96.1741 172.1 96.7815 171.98 97.4577 171.98C98.1396 171.98 98.747 172.1 99.2799 172.341C99.8186 172.576 100.274 172.908 100.647 173.338C101.019 173.762 101.303 174.264 101.498 174.842C101.692 175.415 101.79 176.037 101.79 176.708V176.905C101.79 177.576 101.692 178.197 101.498 178.77C101.303 179.343 101.019 179.845 100.647 180.275C100.274 180.699 99.8214 181.031 99.2885 181.272C98.7556 181.507 98.1511 181.624 97.4749 181.624C96.793 181.624 96.1827 181.507 95.6441 181.272C95.1112 181.031 94.6585 180.699 94.286 180.275C93.9136 179.845 93.6299 179.343 93.4351 178.77C93.2403 178.197 93.1429 177.576 93.1429 176.905ZM95.2143 176.708V176.905C95.2143 177.324 95.2573 177.719 95.3433 178.091C95.4292 178.464 95.5639 178.79 95.7472 179.071C95.9306 179.352 96.1655 179.573 96.4521 179.733C96.7386 179.894 97.0795 179.974 97.4749 179.974C97.8588 179.974 98.1912 179.894 98.472 179.733C98.7585 179.573 98.9934 179.352 99.1768 179.071C99.3601 178.79 99.4948 178.464 99.5808 178.091C99.6724 177.719 99.7183 177.324 99.7183 176.905V176.708C99.7183 176.295 99.6724 175.905 99.5808 175.539C99.4948 175.166 99.3573 174.837 99.1682 174.55C98.9848 174.264 98.7499 174.04 98.4634 173.88C98.1826 173.713 97.8474 173.63 97.4577 173.63C97.0681 173.63 96.73 173.713 96.4435 173.88C96.1627 174.04 95.9306 174.264 95.7472 174.55C95.5639 174.837 95.4292 175.166 95.3433 175.539C95.2573 175.905 95.2143 176.295 95.2143 176.708ZM109.715 172.152V173.802H105.658V181.452H103.586V172.152H109.715ZM110.351 176.905V176.708C110.351 176.037 110.448 175.415 110.643 174.842C110.838 174.264 111.119 173.762 111.485 173.338C111.858 172.908 112.31 172.576 112.843 172.341C113.382 172.1 113.989 171.98 114.666 171.98C115.347 171.98 115.955 172.1 116.488 172.341C117.026 172.576 117.482 172.908 117.854 173.338C118.227 173.762 118.511 174.264 118.705 174.842C118.9 175.415 118.998 176.037 118.998 176.708V176.905C118.998 177.576 118.9 178.197 118.705 178.77C118.511 179.343 118.227 179.845 117.854 180.275C117.482 180.699 117.029 181.031 116.496 181.272C115.963 181.507 115.359 181.624 114.683 181.624C114.001 181.624 113.391 181.507 112.852 181.272C112.319 181.031 111.866 180.699 111.494 180.275C111.121 179.845 110.838 179.343 110.643 178.77C110.448 178.197 110.351 177.576 110.351 176.905ZM112.422 176.708V176.905C112.422 177.324 112.465 177.719 112.551 178.091C112.637 178.464 112.772 178.79 112.955 179.071C113.138 179.352 113.373 179.573 113.66 179.733C113.946 179.894 114.287 179.974 114.683 179.974C115.067 179.974 115.399 179.894 115.68 179.733C115.966 179.573 116.201 179.352 116.385 179.071C116.568 178.79 116.703 178.464 116.789 178.091C116.88 177.719 116.926 177.324 116.926 176.905V176.708C116.926 176.295 116.88 175.905 116.789 175.539C116.703 175.166 116.565 174.837 116.376 174.55C116.193 174.264 115.958 174.04 115.671 173.88C115.39 173.713 115.055 173.63 114.666 173.63C114.276 173.63 113.938 173.713 113.651 173.88C113.371 174.04 113.138 174.264 112.955 174.55C112.772 174.837 112.637 175.166 112.551 175.539C112.465 175.905 112.422 176.295 112.422 176.708ZM127.258 178.427L130.911 172.152H132.982V181.452H130.911V175.169L127.258 181.452H125.186V172.152H127.258V178.427ZM143.357 179.974C143.695 179.974 143.999 179.908 144.268 179.776C144.543 179.639 144.764 179.449 144.93 179.209C145.102 178.968 145.196 178.69 145.213 178.375H147.165C147.153 178.977 146.975 179.524 146.632 180.017C146.288 180.51 145.832 180.902 145.265 181.194C144.698 181.481 144.07 181.624 143.383 181.624C142.672 181.624 142.053 181.504 141.526 181.263C140.999 181.017 140.56 180.679 140.211 180.249C139.861 179.819 139.598 179.323 139.42 178.762C139.248 178.2 139.162 177.599 139.162 176.957V176.656C139.162 176.014 139.248 175.412 139.42 174.851C139.598 174.284 139.861 173.785 140.211 173.355C140.56 172.926 140.999 172.59 141.526 172.35C142.053 172.103 142.669 171.98 143.374 171.98C144.119 171.98 144.772 172.129 145.334 172.427C145.895 172.719 146.337 173.129 146.657 173.656C146.984 174.178 147.153 174.785 147.165 175.478H145.213C145.196 175.135 145.11 174.825 144.956 174.55C144.807 174.269 144.595 174.046 144.32 173.88C144.05 173.713 143.726 173.63 143.348 173.63C142.93 173.63 142.583 173.716 142.308 173.888C142.033 174.054 141.818 174.284 141.664 174.576C141.509 174.862 141.397 175.186 141.328 175.547C141.265 175.902 141.234 176.272 141.234 176.656V176.957C141.234 177.341 141.265 177.713 141.328 178.074C141.391 178.435 141.5 178.759 141.655 179.045C141.815 179.326 142.033 179.553 142.308 179.724C142.583 179.891 142.933 179.974 143.357 179.974ZM150.835 173.94V185.028H148.763V172.152H150.671L150.835 173.94ZM156.895 176.716V176.897C156.895 177.573 156.814 178.2 156.654 178.779C156.499 179.352 156.267 179.853 155.958 180.283C155.654 180.707 155.279 181.037 154.832 181.272C154.385 181.507 153.869 181.624 153.284 181.624C152.706 181.624 152.199 181.518 151.763 181.306C151.333 181.088 150.969 180.782 150.671 180.386C150.374 179.991 150.133 179.527 149.949 178.994C149.772 178.455 149.646 177.865 149.571 177.223V176.527C149.646 175.845 149.772 175.226 149.949 174.67C150.133 174.115 150.374 173.636 150.671 173.235C150.969 172.834 151.333 172.524 151.763 172.307C152.193 172.089 152.694 171.98 153.267 171.98C153.852 171.98 154.37 172.095 154.823 172.324C155.276 172.547 155.657 172.868 155.966 173.287C156.276 173.699 156.508 174.198 156.662 174.782C156.817 175.361 156.895 176.006 156.895 176.716ZM154.823 176.897V176.716C154.823 176.286 154.783 175.888 154.703 175.521C154.622 175.149 154.496 174.822 154.325 174.541C154.153 174.261 153.932 174.043 153.663 173.888C153.399 173.728 153.081 173.648 152.709 173.648C152.342 173.648 152.027 173.711 151.763 173.837C151.499 173.957 151.279 174.126 151.101 174.344C150.924 174.562 150.786 174.817 150.689 175.109C150.591 175.395 150.522 175.708 150.482 176.046V177.713C150.551 178.126 150.669 178.504 150.835 178.848C151.001 179.192 151.236 179.467 151.54 179.673C151.849 179.873 152.244 179.974 152.726 179.974C153.098 179.974 153.416 179.894 153.68 179.733C153.943 179.573 154.158 179.352 154.325 179.071C154.496 178.785 154.622 178.455 154.703 178.083C154.783 177.71 154.823 177.315 154.823 176.897ZM162.757 181.624C162.069 181.624 161.447 181.512 160.891 181.289C160.341 181.06 159.871 180.742 159.482 180.335C159.098 179.928 158.803 179.449 158.596 178.899C158.39 178.349 158.287 177.756 158.287 177.12V176.776C158.287 176.049 158.393 175.39 158.605 174.799C158.817 174.209 159.112 173.705 159.49 173.287C159.868 172.863 160.315 172.539 160.831 172.315C161.347 172.092 161.906 171.98 162.507 171.98C163.172 171.98 163.754 172.092 164.252 172.315C164.751 172.539 165.163 172.854 165.49 173.261C165.822 173.662 166.069 174.14 166.229 174.696C166.395 175.252 166.478 175.865 166.478 176.536V177.421H159.293V175.934H164.433V175.771C164.421 175.398 164.347 175.049 164.209 174.722C164.077 174.395 163.874 174.132 163.599 173.931C163.324 173.731 162.957 173.63 162.499 173.63C162.155 173.63 161.848 173.705 161.579 173.854C161.315 173.997 161.095 174.206 160.917 174.481C160.739 174.756 160.602 175.089 160.505 175.478C160.413 175.862 160.367 176.295 160.367 176.776V177.12C160.367 177.527 160.421 177.905 160.53 178.255C160.645 178.598 160.811 178.899 161.029 179.157C161.247 179.415 161.51 179.618 161.82 179.767C162.129 179.911 162.481 179.982 162.877 179.982C163.375 179.982 163.819 179.882 164.209 179.682C164.599 179.481 164.937 179.197 165.223 178.831L166.315 179.888C166.114 180.18 165.854 180.461 165.533 180.73C165.212 180.994 164.819 181.209 164.355 181.375C163.897 181.541 163.364 181.624 162.757 181.624ZM169.779 172.152H171.85L171.747 175.427C171.719 176.378 171.61 177.195 171.421 177.876C171.232 178.558 170.985 179.134 170.681 179.604C170.378 180.068 170.034 180.449 169.65 180.747C169.272 181.045 168.874 181.28 168.455 181.452H167.845V179.819L168.137 179.802C168.384 179.538 168.596 179.275 168.773 179.011C168.957 178.742 169.111 178.447 169.237 178.126C169.363 177.799 169.461 177.418 169.53 176.983C169.604 176.547 169.653 176.028 169.676 175.427L169.779 172.152ZM170.329 172.152H176.225V181.452H174.163V173.905H170.329V172.152ZM167.372 179.802H177.498V184.22H175.426V181.452H169.469V184.22H167.364L167.372 179.802ZM185.276 176.037V177.67H180.463V176.037H185.276ZM181.065 172.152V181.452H178.993V172.152H181.065ZM186.772 172.152V181.452H184.7V172.152H186.772ZM193.081 181.624C192.393 181.624 191.772 181.512 191.216 181.289C190.666 181.06 190.196 180.742 189.806 180.335C189.422 179.928 189.127 179.449 188.921 178.899C188.714 178.349 188.611 177.756 188.611 177.12V176.776C188.611 176.049 188.717 175.39 188.929 174.799C189.141 174.209 189.436 173.705 189.815 173.287C190.193 172.863 190.64 172.539 191.156 172.315C191.671 172.092 192.23 171.98 192.832 171.98C193.496 171.98 194.078 172.092 194.576 172.315C195.075 172.539 195.488 172.854 195.814 173.261C196.147 173.662 196.393 174.14 196.553 174.696C196.72 175.252 196.803 175.865 196.803 176.536V177.421H189.617V175.934H194.757V175.771C194.746 175.398 194.671 175.049 194.534 174.722C194.402 174.395 194.198 174.132 193.923 173.931C193.648 173.731 193.281 173.63 192.823 173.63C192.479 173.63 192.173 173.705 191.903 173.854C191.64 173.997 191.419 174.206 191.241 174.481C191.064 174.756 190.926 175.089 190.829 175.478C190.737 175.862 190.691 176.295 190.691 176.776V177.12C190.691 177.527 190.746 177.905 190.855 178.255C190.969 178.598 191.135 178.899 191.353 179.157C191.571 179.415 191.835 179.618 192.144 179.767C192.453 179.911 192.806 179.982 193.201 179.982C193.7 179.982 194.144 179.882 194.534 179.682C194.923 179.481 195.261 179.197 195.548 178.831L196.639 179.888C196.439 180.18 196.178 180.461 195.857 180.73C195.536 180.994 195.144 181.209 194.68 181.375C194.221 181.541 193.688 181.624 193.081 181.624ZM202.519 181.624C201.831 181.624 201.209 181.512 200.653 181.289C200.103 181.06 199.633 180.742 199.244 180.335C198.86 179.928 198.565 179.449 198.358 178.899C198.152 178.349 198.049 177.756 198.049 177.12V176.776C198.049 176.049 198.155 175.39 198.367 174.799C198.579 174.209 198.874 173.705 199.252 173.287C199.631 172.863 200.077 172.539 200.593 172.315C201.109 172.092 201.668 171.98 202.269 171.98C202.934 171.98 203.516 172.092 204.014 172.315C204.513 172.539 204.925 172.854 205.252 173.261C205.584 173.662 205.831 174.14 205.991 174.696C206.157 175.252 206.24 175.865 206.24 176.536V177.421H199.055V175.934H204.195V175.771C204.183 175.398 204.109 175.049 203.971 174.722C203.839 174.395 203.636 174.132 203.361 173.931C203.086 173.731 202.719 173.63 202.261 173.63C201.917 173.63 201.61 173.705 201.341 173.854C201.077 173.997 200.857 174.206 200.679 174.481C200.502 174.756 200.364 175.089 200.267 175.478C200.175 175.862 200.129 176.295 200.129 176.776V177.12C200.129 177.527 200.184 177.905 200.292 178.255C200.407 178.598 200.573 178.899 200.791 179.157C201.009 179.415 201.272 179.618 201.582 179.767C201.891 179.911 202.244 179.982 202.639 179.982C203.137 179.982 203.582 179.882 203.971 179.682C204.361 179.481 204.699 179.197 204.985 178.831L206.077 179.888C205.876 180.18 205.616 180.461 205.295 180.73C204.974 180.994 204.581 181.209 204.117 181.375C203.659 181.541 203.126 181.624 202.519 181.624ZM207.882 180.421C207.882 180.1 207.991 179.83 208.209 179.613C208.426 179.389 208.722 179.278 209.094 179.278C209.472 179.278 209.767 179.389 209.979 179.613C210.197 179.83 210.306 180.1 210.306 180.421C210.306 180.742 210.197 181.011 209.979 181.229C209.767 181.446 209.472 181.555 209.094 181.555C208.722 181.555 208.426 181.446 208.209 181.229C207.991 181.011 207.882 180.742 207.882 180.421ZM207.891 173.097C207.891 172.777 208 172.507 208.217 172.29C208.435 172.066 208.73 171.954 209.103 171.954C209.481 171.954 209.776 172.066 209.988 172.29C210.206 172.507 210.315 172.777 210.315 173.097C210.315 173.418 210.206 173.688 209.988 173.905C209.776 174.123 209.481 174.232 209.103 174.232C208.73 174.232 208.435 174.123 208.217 173.905C208 173.688 207.891 173.418 207.891 173.097Z" fill="#4F5A7C"/>
<mask id="path-13-inside-2_85_147" fill="white">
<path d="M225.834 159.794H338.765V195.996H225.834V159.794Z"/>
</mask>
<path d="M225.834 159.794H338.765V195.996H225.834V159.794Z" fill="#F5F5F5"/>
<path d="M338.765 195.996V194.738H225.834V195.996V197.253H338.765V195.996Z" fill="#F5F5F5" mask="url(#path-13-inside-2_85_147)"/>
<path d="M276.496 178.04C276.496 178.819 276.315 179.475 275.954 180.008C275.593 180.541 275.1 180.945 274.476 181.22C273.857 181.489 273.158 181.624 272.379 181.624C271.599 181.624 270.897 181.489 270.273 181.22C269.648 180.945 269.155 180.541 268.794 180.008C268.433 179.475 268.253 178.819 268.253 178.04C268.253 177.524 268.353 177.057 268.554 176.639C268.754 176.215 269.038 175.851 269.405 175.547C269.777 175.238 270.213 175 270.711 174.834C271.215 174.668 271.765 174.584 272.361 174.584C273.152 174.584 273.86 174.731 274.484 175.023C275.109 175.315 275.599 175.719 275.954 176.235C276.315 176.75 276.496 177.352 276.496 178.04ZM274.416 177.937C274.416 177.518 274.33 177.152 274.158 176.836C273.986 176.521 273.745 176.278 273.436 176.106C273.126 175.934 272.768 175.848 272.361 175.848C271.949 175.848 271.591 175.934 271.287 176.106C270.983 176.278 270.746 176.521 270.574 176.836C270.407 177.152 270.324 177.518 270.324 177.937C270.324 178.361 270.407 178.727 270.574 179.037C270.74 179.341 270.978 179.573 271.287 179.733C271.596 179.894 271.96 179.974 272.379 179.974C272.797 179.974 273.158 179.894 273.462 179.733C273.765 179.573 274 179.341 274.166 179.037C274.333 178.727 274.416 178.361 274.416 177.937ZM276.212 172.229C276.212 172.854 276.046 173.41 275.714 173.897C275.387 174.384 274.934 174.768 274.356 175.049C273.777 175.324 273.118 175.461 272.379 175.461C271.634 175.461 270.969 175.324 270.384 175.049C269.806 174.768 269.35 174.384 269.018 173.897C268.691 173.41 268.528 172.854 268.528 172.229C268.528 171.484 268.691 170.857 269.018 170.347C269.35 169.831 269.806 169.439 270.384 169.169C270.963 168.9 271.625 168.765 272.37 168.765C273.115 168.765 273.777 168.9 274.356 169.169C274.934 169.439 275.387 169.831 275.714 170.347C276.046 170.857 276.212 171.484 276.212 172.229ZM274.141 172.298C274.141 171.926 274.066 171.599 273.917 171.318C273.774 171.032 273.571 170.808 273.307 170.648C273.043 170.487 272.731 170.407 272.37 170.407C272.009 170.407 271.697 170.484 271.433 170.639C271.17 170.794 270.966 171.012 270.823 171.292C270.68 171.573 270.608 171.908 270.608 172.298C270.608 172.682 270.68 173.017 270.823 173.304C270.966 173.585 271.17 173.805 271.433 173.966C271.702 174.126 272.018 174.206 272.379 174.206C272.74 174.206 273.052 174.126 273.316 173.966C273.579 173.805 273.783 173.585 273.926 173.304C274.069 173.017 274.141 172.682 274.141 172.298ZM280.75 174.258H281.988C282.47 174.258 282.868 174.175 283.183 174.009C283.504 173.842 283.742 173.613 283.896 173.321C284.051 173.029 284.128 172.693 284.128 172.315C284.128 171.92 284.057 171.582 283.914 171.301C283.776 171.015 283.564 170.794 283.278 170.639C282.997 170.484 282.639 170.407 282.203 170.407C281.836 170.407 281.504 170.482 281.206 170.631C280.914 170.774 280.682 170.98 280.51 171.249C280.338 171.513 280.252 171.828 280.252 172.195H278.172C278.172 171.53 278.347 170.94 278.696 170.424C279.046 169.909 279.521 169.505 280.123 169.212C280.73 168.914 281.412 168.765 282.169 168.765C282.977 168.765 283.681 168.9 284.283 169.169C284.891 169.433 285.363 169.828 285.701 170.356C286.039 170.883 286.209 171.536 286.209 172.315C286.209 172.671 286.125 173.032 285.959 173.398C285.793 173.765 285.547 174.1 285.22 174.404C284.893 174.702 284.487 174.945 284 175.135C283.512 175.318 282.948 175.41 282.306 175.41H280.75V174.258ZM280.75 175.874V174.739H282.306C283.04 174.739 283.664 174.825 284.18 174.997C284.701 175.169 285.126 175.407 285.452 175.71C285.779 176.008 286.017 176.349 286.166 176.733C286.32 177.117 286.398 177.524 286.398 177.954C286.398 178.538 286.292 179.06 286.08 179.518C285.873 179.971 285.578 180.355 285.194 180.67C284.81 180.985 284.361 181.223 283.845 181.383C283.335 181.544 282.779 181.624 282.177 181.624C281.639 181.624 281.123 181.55 280.63 181.401C280.137 181.252 279.696 181.031 279.306 180.739C278.917 180.441 278.607 180.071 278.378 179.63C278.155 179.183 278.043 178.667 278.043 178.083H280.114C280.114 178.455 280.2 178.785 280.372 179.071C280.55 179.352 280.796 179.573 281.111 179.733C281.432 179.894 281.799 179.974 282.212 179.974C282.647 179.974 283.023 179.896 283.338 179.742C283.653 179.587 283.894 179.358 284.06 179.054C284.232 178.75 284.318 178.384 284.318 177.954C284.318 177.467 284.223 177.071 284.034 176.768C283.845 176.464 283.575 176.241 283.226 176.097C282.876 175.948 282.464 175.874 281.988 175.874H280.75ZM294.58 168.86H294.838V170.553H294.692C293.953 170.553 293.314 170.668 292.775 170.897C292.242 171.126 291.804 171.441 291.46 171.843C291.116 172.244 290.859 172.714 290.687 173.252C290.521 173.785 290.437 174.352 290.437 174.954V176.922C290.437 177.421 290.492 177.862 290.601 178.246C290.71 178.624 290.861 178.942 291.056 179.2C291.257 179.452 291.486 179.644 291.744 179.776C292.002 179.908 292.28 179.974 292.578 179.974C292.887 179.974 293.168 179.911 293.42 179.785C293.672 179.653 293.887 179.472 294.065 179.243C294.242 179.014 294.377 178.742 294.469 178.427C294.56 178.111 294.606 177.768 294.606 177.395C294.606 177.04 294.56 176.708 294.469 176.398C294.383 176.083 294.254 175.808 294.082 175.573C293.91 175.332 293.695 175.146 293.437 175.014C293.185 174.877 292.893 174.808 292.56 174.808C292.148 174.808 291.773 174.905 291.434 175.1C291.102 175.295 290.833 175.55 290.627 175.865C290.426 176.175 290.317 176.504 290.3 176.854L289.509 176.596C289.555 176.063 289.672 175.584 289.862 175.16C290.056 174.736 290.311 174.375 290.627 174.077C290.942 173.779 291.306 173.553 291.718 173.398C292.136 173.238 292.595 173.158 293.093 173.158C293.701 173.158 294.228 173.272 294.675 173.501C295.122 173.731 295.491 174.043 295.784 174.438C296.082 174.828 296.302 175.275 296.446 175.779C296.595 176.278 296.669 176.799 296.669 177.344C296.669 177.945 296.577 178.507 296.394 179.028C296.211 179.544 295.941 179.997 295.586 180.386C295.236 180.776 294.81 181.08 294.305 181.297C293.807 181.515 293.24 181.624 292.603 181.624C291.933 181.624 291.334 181.495 290.807 181.237C290.286 180.979 289.841 180.624 289.475 180.171C289.114 179.719 288.839 179.197 288.65 178.607C288.461 178.017 288.366 177.392 288.366 176.733V175.874C288.366 174.923 288.486 174.026 288.727 173.183C288.968 172.335 289.337 171.588 289.836 170.94C290.34 170.293 290.985 169.785 291.77 169.419C292.555 169.046 293.492 168.86 294.58 168.86Z" fill="#4F5A7C"/>
<mask id="path-16-inside-3_85_147" fill="white">
<path d="M330.988 159.794H443.919V195.996H330.988V159.794Z"/>
</mask>
<path d="M330.988 159.794H443.919V195.996H330.988V159.794Z" fill="#F5F5F5"/>
<path d="M443.919 195.996V194.738H330.988V195.996V197.253H443.919V195.996Z" fill="#F5F5F5" mask="url(#path-16-inside-3_85_147)"/>
<path d="M375.9 174.258H377.138C377.619 174.258 378.017 174.175 378.332 174.009C378.653 173.842 378.891 173.613 379.046 173.321C379.2 173.029 379.278 172.693 379.278 172.315C379.278 171.92 379.206 171.582 379.063 171.301C378.925 171.015 378.713 170.794 378.427 170.639C378.146 170.484 377.788 170.407 377.352 170.407C376.986 170.407 376.653 170.482 376.355 170.631C376.063 170.774 375.831 170.98 375.659 171.249C375.487 171.513 375.401 171.828 375.401 172.195H373.321C373.321 171.53 373.496 170.94 373.846 170.424C374.195 169.909 374.671 169.505 375.272 169.212C375.88 168.914 376.562 168.765 377.318 168.765C378.126 168.765 378.831 168.9 379.432 169.169C380.04 169.433 380.513 169.828 380.851 170.356C381.189 170.883 381.358 171.536 381.358 172.315C381.358 172.671 381.275 173.032 381.109 173.398C380.942 173.765 380.696 174.1 380.369 174.404C380.043 174.702 379.636 174.945 379.149 175.135C378.662 175.318 378.097 175.41 377.456 175.41H375.9V174.258ZM375.9 175.874V174.739H377.456C378.189 174.739 378.814 174.825 379.329 174.997C379.851 175.169 380.275 175.407 380.601 175.71C380.928 176.008 381.166 176.349 381.315 176.733C381.47 177.117 381.547 177.524 381.547 177.954C381.547 178.538 381.441 179.06 381.229 179.518C381.023 179.971 380.728 180.355 380.344 180.67C379.96 180.985 379.51 181.223 378.994 181.383C378.484 181.544 377.928 181.624 377.327 181.624C376.788 181.624 376.272 181.55 375.779 181.401C375.287 181.252 374.845 181.031 374.456 180.739C374.066 180.441 373.757 180.071 373.527 179.63C373.304 179.183 373.192 178.667 373.192 178.083H375.264C375.264 178.455 375.35 178.785 375.522 179.071C375.699 179.352 375.946 179.573 376.261 179.733C376.582 179.894 376.948 179.974 377.361 179.974C377.797 179.974 378.172 179.896 378.487 179.742C378.802 179.587 379.043 179.358 379.209 179.054C379.381 178.75 379.467 178.384 379.467 177.954C379.467 177.467 379.372 177.071 379.183 176.768C378.994 176.464 378.725 176.241 378.375 176.097C378.026 175.948 377.613 175.874 377.138 175.874H375.9ZM389.128 168.894V181.452H387.057V171.353L383.988 172.393V170.682L388.879 168.894H389.128ZM402.098 176.991V178.641H393.073L393.005 177.395L398.402 168.937H400.061L398.265 172.014L395.162 176.991H402.098ZM400.534 168.937V181.452H398.463V168.937H400.534Z" fill="#4F5A7C"/>
<mask id="path-19-inside-4_85_147" fill="white">
<path d="M434.707 159.794H547.638V195.996H434.707V159.794Z"/>
</mask>
<path d="M434.707 159.794H547.638V195.996H434.707V159.794Z" fill="#F5F5F5"/>
<path d="M547.638 195.996V194.738H434.707V195.996V197.253H547.638V195.996Z" fill="#F5F5F5" mask="url(#path-19-inside-4_85_147)"/>
<path d="M485.807 176.991V178.641H476.782L476.713 177.395L482.111 168.937H483.77L481.974 172.014L478.871 176.991H485.807ZM484.243 168.937V181.452H482.171V168.937H484.243ZM493.448 168.86H493.706V170.553H493.56C492.821 170.553 492.182 170.668 491.643 170.897C491.111 171.126 490.672 171.441 490.328 171.843C489.985 172.244 489.727 172.714 489.555 173.252C489.389 173.785 489.305 174.352 489.305 174.954V176.922C489.305 177.421 489.36 177.862 489.469 178.246C489.578 178.624 489.73 178.942 489.924 179.2C490.125 179.452 490.354 179.644 490.612 179.776C490.87 179.908 491.148 179.974 491.446 179.974C491.755 179.974 492.036 179.911 492.288 179.785C492.54 179.653 492.755 179.472 492.933 179.243C493.11 179.014 493.245 178.742 493.337 178.427C493.428 178.111 493.474 177.768 493.474 177.395C493.474 177.04 493.428 176.708 493.337 176.398C493.251 176.083 493.122 175.808 492.95 175.573C492.778 175.332 492.563 175.146 492.305 175.014C492.053 174.877 491.761 174.808 491.429 174.808C491.016 174.808 490.641 174.905 490.303 175.1C489.97 175.295 489.701 175.55 489.495 175.865C489.294 176.175 489.185 176.504 489.168 176.854L488.377 176.596C488.423 176.063 488.541 175.584 488.73 175.16C488.924 174.736 489.179 174.375 489.495 174.077C489.81 173.779 490.174 173.553 490.586 173.398C491.005 173.238 491.463 173.158 491.961 173.158C492.569 173.158 493.096 173.272 493.543 173.501C493.99 173.731 494.36 174.043 494.652 174.438C494.95 174.828 495.17 175.275 495.314 175.779C495.463 176.278 495.537 176.799 495.537 177.344C495.537 177.945 495.445 178.507 495.262 179.028C495.079 179.544 494.809 179.997 494.454 180.386C494.105 180.776 493.678 181.08 493.173 181.297C492.675 181.515 492.108 181.624 491.472 181.624C490.801 181.624 490.202 181.495 489.675 181.237C489.154 180.979 488.71 180.624 488.343 180.171C487.982 179.719 487.707 179.197 487.518 178.607C487.329 178.017 487.234 177.392 487.234 176.733V175.874C487.234 174.923 487.354 174.026 487.595 173.183C487.836 172.335 488.205 171.588 488.704 170.94C489.208 170.293 489.853 169.785 490.638 169.419C491.423 169.046 492.36 168.86 493.448 168.86ZM499.629 174.258H500.866C501.348 174.258 501.746 174.175 502.061 174.009C502.382 173.842 502.62 173.613 502.774 173.321C502.929 173.029 503.006 172.693 503.006 172.315C503.006 171.92 502.935 171.582 502.792 171.301C502.654 171.015 502.442 170.794 502.156 170.639C501.875 170.484 501.517 170.407 501.081 170.407C500.714 170.407 500.382 170.482 500.084 170.631C499.792 170.774 499.56 170.98 499.388 171.249C499.216 171.513 499.13 171.828 499.13 172.195H497.05C497.05 171.53 497.225 170.94 497.574 170.424C497.924 169.909 498.399 169.505 499.001 169.212C499.608 168.914 500.29 168.765 501.047 168.765C501.855 168.765 502.56 168.9 503.161 169.169C503.769 169.433 504.241 169.828 504.579 170.356C504.918 170.883 505.087 171.536 505.087 172.315C505.087 172.671 505.003 173.032 504.837 173.398C504.671 173.765 504.425 174.1 504.098 174.404C503.771 174.702 503.365 174.945 502.878 175.135C502.39 175.318 501.826 175.41 501.184 175.41H499.629V174.258ZM499.629 175.874V174.739H501.184C501.918 174.739 502.542 174.825 503.058 174.997C503.579 175.169 504.004 175.407 504.33 175.71C504.657 176.008 504.895 176.349 505.044 176.733C505.198 177.117 505.276 177.524 505.276 177.954C505.276 178.538 505.17 179.06 504.958 179.518C504.751 179.971 504.456 180.355 504.072 180.67C503.688 180.985 503.239 181.223 502.723 181.383C502.213 181.544 501.657 181.624 501.055 181.624C500.517 181.624 500.001 181.55 499.508 181.401C499.015 181.252 498.574 181.031 498.184 180.739C497.795 180.441 497.485 180.071 497.256 179.63C497.033 179.183 496.921 178.667 496.921 178.083H498.992C498.992 178.455 499.078 178.785 499.25 179.071C499.428 179.352 499.674 179.573 499.99 179.733C500.31 179.894 500.677 179.974 501.09 179.974C501.525 179.974 501.901 179.896 502.216 179.742C502.531 179.587 502.772 179.358 502.938 179.054C503.11 178.75 503.196 178.384 503.196 177.954C503.196 177.467 503.101 177.071 502.912 176.768C502.723 176.464 502.454 176.241 502.104 176.097C501.754 175.948 501.342 175.874 500.866 175.874H499.629Z" fill="#4F5A7C"/>
<mask id="path-22-inside-5_85_147" fill="white">
<path d="M57.8496 196.37H432.576V232.572H57.8496V196.37Z"/>
</mask>
<path d="M432.576 232.572V231.314H57.8496V232.572V233.829H432.576V232.572Z" fill="#F5F5F5" mask="url(#path-22-inside-5_85_147)"/>
<path d="M77.8932 208.728H78.8473V217.865C78.8473 218.673 78.6925 219.366 78.3831 219.945C78.0794 220.524 77.6468 220.968 77.0852 221.277C76.5294 221.587 75.8733 221.742 75.1169 221.742C74.733 221.742 74.3376 221.681 73.9307 221.561C73.5296 221.446 73.1486 221.269 72.7875 221.028C72.4323 220.793 72.1286 220.501 71.8764 220.151L72.4523 219.524C72.8305 219.982 73.2345 220.318 73.6643 220.53C74.094 220.747 74.5582 220.856 75.0567 220.856C75.6469 220.856 76.1455 220.739 76.5523 220.504C76.9649 220.269 77.2772 219.931 77.4892 219.49C77.7069 219.048 77.8158 218.518 77.8158 217.899V210.774L77.8932 208.728ZM71.3607 213.473V213.292C71.3607 212.57 71.4409 211.92 71.6014 211.341C71.7676 210.757 72.0054 210.258 72.3148 209.846C72.6242 209.427 72.9996 209.109 73.4408 208.891C73.8878 208.668 74.392 208.556 74.9536 208.556C75.4922 208.556 75.9707 208.645 76.389 208.823C76.8073 209 77.1683 209.255 77.472 209.588C77.7757 209.92 78.0192 210.315 78.2026 210.774C78.3917 211.232 78.5292 211.742 78.6152 212.304V214.599C78.5464 215.126 78.4204 215.61 78.237 216.051C78.0536 216.487 77.8101 216.868 77.5064 217.195C77.2027 217.515 76.836 217.765 76.4062 217.942C75.9821 218.114 75.4922 218.2 74.9364 218.2C74.3806 218.2 73.882 218.086 73.4408 217.856C72.9996 217.627 72.6242 217.303 72.3148 216.885C72.0054 216.461 71.7676 215.96 71.6014 215.381C71.4409 214.802 71.3607 214.166 71.3607 213.473ZM72.3922 213.292V213.473C72.3922 214.017 72.4466 214.521 72.5555 214.986C72.6643 215.45 72.8305 215.854 73.054 216.198C73.2775 216.541 73.5611 216.811 73.9049 217.005C74.2488 217.2 74.6527 217.298 75.1169 217.298C75.7071 217.298 76.2028 217.186 76.6039 216.962C77.005 216.733 77.323 216.432 77.558 216.06C77.7929 215.682 77.9648 215.269 78.0737 214.822V212.149C78.0106 211.845 77.9132 211.536 77.7814 211.221C77.6554 210.906 77.4777 210.616 77.2485 210.353C77.0251 210.083 76.7385 209.868 76.389 209.708C76.0452 209.542 75.6269 209.459 75.1341 209.459C74.6642 209.459 74.2545 209.556 73.9049 209.751C73.5611 209.946 73.2775 210.218 73.054 210.568C72.8305 210.911 72.6643 211.315 72.5555 211.78C72.4466 212.244 72.3922 212.748 72.3922 213.292ZM87.1933 216.361V211.565C87.1933 211.123 87.1017 210.742 86.9183 210.421C86.7349 210.101 86.4656 209.854 86.1103 209.682C85.7551 209.51 85.3167 209.424 84.7952 209.424C84.3139 209.424 83.8841 209.51 83.5059 209.682C83.1335 209.848 82.8384 210.075 82.6206 210.361C82.4086 210.642 82.3026 210.954 82.3026 211.298L81.2711 211.29C81.2711 210.94 81.3571 210.602 81.529 210.275C81.7009 209.949 81.9445 209.656 82.2596 209.399C82.5748 209.141 82.9501 208.937 83.3856 208.788C83.8268 208.634 84.311 208.556 84.8382 208.556C85.5029 208.556 86.0874 208.668 86.5917 208.891C87.1017 209.115 87.4999 209.45 87.7864 209.897C88.0729 210.344 88.2162 210.906 88.2162 211.582V216.077C88.2162 216.398 88.2391 216.73 88.2849 217.074C88.3365 217.418 88.4081 217.702 88.4998 217.925V218.028H87.4082C87.3395 217.822 87.285 217.564 87.2449 217.255C87.2105 216.94 87.1933 216.642 87.1933 216.361ZM87.434 212.613L87.4512 213.404H85.4313C84.9041 213.404 84.4314 213.453 84.0131 213.55C83.6005 213.642 83.2509 213.779 82.9644 213.963C82.6779 214.14 82.4573 214.355 82.3026 214.607C82.1536 214.86 82.0791 215.146 82.0791 215.467C82.0791 215.799 82.1622 216.103 82.3284 216.378C82.5003 216.653 82.741 216.874 83.0504 217.04C83.3655 217.2 83.738 217.281 84.1678 217.281C84.7408 217.281 85.2451 217.175 85.6806 216.962C86.1218 216.75 86.4857 216.473 86.7722 216.129C87.0587 215.785 87.2506 215.41 87.3481 215.003L87.795 215.596C87.7205 215.882 87.583 216.177 87.3824 216.481C87.1876 216.779 86.9326 217.06 86.6175 217.324C86.3023 217.581 85.9298 217.793 85.5001 217.96C85.076 218.12 84.5947 218.2 84.056 218.2C83.4486 218.2 82.9186 218.086 82.4659 217.856C82.0189 217.627 81.6694 217.315 81.4173 216.92C81.1709 216.518 81.0477 216.066 81.0477 215.561C81.0477 215.103 81.1451 214.693 81.3399 214.332C81.5347 213.966 81.8155 213.656 82.1823 213.404C82.5547 213.146 83.0017 212.951 83.5231 212.82C84.0503 212.682 84.6405 212.613 85.2938 212.613H87.434ZM91.9466 210.654V218.028H90.9151V208.728H91.9036L91.9466 210.654ZM91.7575 212.802L91.2589 212.544C91.2933 211.994 91.3965 211.479 91.5684 210.997C91.746 210.516 91.9924 210.092 92.3076 209.725C92.6227 209.358 93.0009 209.072 93.4422 208.866C93.8834 208.659 94.3848 208.556 94.9463 208.556C95.399 208.556 95.8087 208.619 96.1755 208.745C96.5479 208.866 96.8631 209.058 97.121 209.321C97.3845 209.579 97.588 209.917 97.7312 210.335C97.8745 210.754 97.9461 211.255 97.9461 211.84V218.028H96.9233V211.874C96.9233 211.255 96.8259 210.771 96.631 210.421C96.4419 210.072 96.1755 209.823 95.8317 209.674C95.4936 209.525 95.1011 209.45 94.6541 209.45C94.1269 209.45 93.68 209.559 93.3132 209.777C92.9522 209.989 92.6571 210.267 92.4279 210.611C92.2044 210.949 92.0382 211.312 91.9294 211.702C91.8205 212.086 91.7632 212.453 91.7575 212.802ZM97.9375 211.994L97.2499 212.012C97.2785 211.559 97.3817 211.126 97.5593 210.714C97.7427 210.301 97.992 209.934 98.3071 209.613C98.6223 209.287 98.9976 209.029 99.4331 208.84C99.8743 208.651 100.37 208.556 100.92 208.556C101.401 208.556 101.831 208.622 102.209 208.754C102.588 208.88 102.906 209.083 103.163 209.364C103.427 209.639 103.628 209.992 103.765 210.421C103.903 210.851 103.971 211.367 103.971 211.969V218.028H102.94V211.96C102.94 211.301 102.843 210.791 102.648 210.43C102.459 210.063 102.195 209.808 101.857 209.665C101.519 209.522 101.124 209.45 100.671 209.45C100.224 209.456 99.8314 209.539 99.4933 209.699C99.1552 209.854 98.8715 210.06 98.6423 210.318C98.4189 210.57 98.2469 210.843 98.1266 211.135C98.012 211.427 97.949 211.714 97.9375 211.994ZM110.177 218.2C109.57 218.2 109.011 218.088 108.501 217.865C107.997 217.642 107.556 217.326 107.178 216.92C106.805 216.513 106.516 216.031 106.309 215.476C106.109 214.914 106.009 214.301 106.009 213.636V213.267C106.009 212.55 106.115 211.903 106.327 211.324C106.539 210.745 106.831 210.25 107.203 209.837C107.576 209.424 108 209.109 108.475 208.891C108.957 208.668 109.461 208.556 109.988 208.556C110.578 208.556 111.103 208.662 111.561 208.874C112.02 209.081 112.403 209.376 112.713 209.76C113.028 210.138 113.266 210.588 113.426 211.109C113.587 211.625 113.667 212.195 113.667 212.82V213.447H106.627V212.57H112.644V212.45C112.633 211.928 112.527 211.441 112.326 210.989C112.131 210.53 111.839 210.158 111.449 209.871C111.06 209.585 110.573 209.442 109.988 209.442C109.553 209.442 109.152 209.533 108.785 209.717C108.424 209.9 108.112 210.164 107.848 210.507C107.59 210.845 107.39 211.249 107.246 211.719C107.109 212.183 107.04 212.699 107.04 213.267V213.636C107.04 214.152 107.114 214.633 107.263 215.08C107.418 215.521 107.636 215.911 107.917 216.249C108.203 216.587 108.541 216.851 108.931 217.04C109.321 217.229 109.75 217.324 110.22 217.324C110.77 217.324 111.257 217.223 111.681 217.023C112.106 216.816 112.487 216.493 112.825 216.051L113.469 216.55C113.269 216.848 113.017 217.123 112.713 217.375C112.415 217.627 112.057 217.828 111.638 217.977C111.22 218.126 110.733 218.2 110.177 218.2ZM115.601 217.401C115.601 217.2 115.664 217.031 115.79 216.894C115.922 216.75 116.099 216.679 116.323 216.679C116.552 216.679 116.733 216.75 116.864 216.894C116.996 217.031 117.062 217.2 117.062 217.401C117.062 217.596 116.996 217.762 116.864 217.899C116.733 218.037 116.552 218.106 116.323 218.106C116.099 218.106 115.922 218.037 115.79 217.899C115.664 217.762 115.601 217.596 115.601 217.401ZM122.666 217.1L125.563 208.728H126.672L122.735 219.524C122.655 219.736 122.552 219.971 122.426 220.229C122.305 220.487 122.145 220.733 121.944 220.968C121.749 221.209 121.503 221.403 121.205 221.552C120.913 221.707 120.555 221.784 120.131 221.784C120.022 221.784 119.881 221.77 119.71 221.742C119.543 221.719 119.423 221.696 119.349 221.673L119.34 220.805C119.403 220.822 119.495 220.836 119.615 220.848C119.735 220.859 119.818 220.865 119.864 220.865C120.237 220.865 120.549 220.802 120.801 220.676C121.059 220.55 121.274 220.361 121.446 220.108C121.618 219.862 121.77 219.553 121.901 219.18L122.666 217.1ZM119.959 208.728L122.924 216.713L123.199 217.788L122.451 218.209L118.841 208.728H119.959ZM133.797 216.361V211.565C133.797 211.123 133.706 210.742 133.522 210.421C133.339 210.101 133.07 209.854 132.714 209.682C132.359 209.51 131.921 209.424 131.399 209.424C130.918 209.424 130.488 209.51 130.11 209.682C129.737 209.848 129.442 210.075 129.225 210.361C129.013 210.642 128.907 210.954 128.907 211.298L127.875 211.29C127.875 210.94 127.961 210.602 128.133 210.275C128.305 209.949 128.548 209.656 128.864 209.399C129.179 209.141 129.554 208.937 129.99 208.788C130.431 208.634 130.915 208.556 131.442 208.556C132.107 208.556 132.691 208.668 133.196 208.891C133.706 209.115 134.104 209.45 134.39 209.897C134.677 210.344 134.82 210.906 134.82 211.582V216.077C134.82 216.398 134.843 216.73 134.889 217.074C134.94 217.418 135.012 217.702 135.104 217.925V218.028H134.012C133.943 217.822 133.889 217.564 133.849 217.255C133.814 216.94 133.797 216.642 133.797 216.361ZM134.038 212.613L134.055 213.404H132.035C131.508 213.404 131.035 213.453 130.617 213.55C130.204 213.642 129.855 213.779 129.568 213.963C129.282 214.14 129.061 214.355 128.907 214.607C128.758 214.86 128.683 215.146 128.683 215.467C128.683 215.799 128.766 216.103 128.932 216.378C129.104 216.653 129.345 216.874 129.654 217.04C129.969 217.2 130.342 217.281 130.772 217.281C131.345 217.281 131.849 217.175 132.285 216.962C132.726 216.75 133.09 216.473 133.376 216.129C133.663 215.785 133.855 215.41 133.952 215.003L134.399 215.596C134.324 215.882 134.187 216.177 133.986 216.481C133.792 216.779 133.537 217.06 133.221 217.324C132.906 217.581 132.534 217.793 132.104 217.96C131.68 218.12 131.199 218.2 130.66 218.2C130.053 218.2 129.523 218.086 129.07 217.856C128.623 217.627 128.273 217.315 128.021 216.92C127.775 216.518 127.652 216.066 127.652 215.561C127.652 215.103 127.749 214.693 127.944 214.332C128.139 213.966 128.419 213.656 128.786 213.404C129.159 213.146 129.606 212.951 130.127 212.82C130.654 212.682 131.244 212.613 131.898 212.613H134.038ZM138.602 210.714V218.028H137.579V208.728H138.559L138.602 210.714ZM138.37 212.802L137.914 212.544C137.949 211.994 138.061 211.479 138.25 210.997C138.439 210.516 138.694 210.092 139.015 209.725C139.341 209.358 139.722 209.072 140.158 208.866C140.599 208.659 141.086 208.556 141.619 208.556C142.083 208.556 142.499 208.619 142.865 208.745C143.232 208.871 143.544 209.072 143.802 209.347C144.06 209.622 144.255 209.974 144.387 210.404C144.524 210.834 144.593 211.358 144.593 211.977V218.028H143.562V211.969C143.562 211.327 143.473 210.825 143.295 210.464C143.118 210.098 142.865 209.837 142.539 209.682C142.212 209.528 141.825 209.45 141.378 209.45C140.886 209.45 140.453 209.559 140.08 209.777C139.714 209.989 139.404 210.267 139.152 210.611C138.906 210.949 138.717 211.312 138.585 211.702C138.453 212.086 138.381 212.453 138.37 212.802ZM153.3 216.223V204.826H154.332V218.028H153.369L153.3 216.223ZM146.845 213.473V213.292C146.845 212.57 146.928 211.92 147.094 211.341C147.26 210.757 147.498 210.258 147.808 209.846C148.123 209.427 148.501 209.109 148.942 208.891C149.384 208.668 149.882 208.556 150.438 208.556C150.982 208.556 151.464 208.645 151.882 208.823C152.3 209 152.658 209.255 152.956 209.588C153.26 209.92 153.504 210.315 153.687 210.774C153.876 211.232 154.014 211.742 154.099 212.304V214.599C154.031 215.126 153.905 215.61 153.721 216.051C153.538 216.487 153.294 216.868 152.991 217.195C152.687 217.515 152.32 217.765 151.89 217.942C151.466 218.114 150.977 218.2 150.421 218.2C149.871 218.2 149.375 218.086 148.934 217.856C148.492 217.627 148.117 217.303 147.808 216.885C147.498 216.461 147.26 215.96 147.094 215.381C146.928 214.802 146.845 214.166 146.845 213.473ZM147.876 213.292V213.473C147.876 214.017 147.931 214.521 148.04 214.986C148.149 215.45 148.315 215.854 148.538 216.198C148.762 216.541 149.045 216.811 149.389 217.005C149.733 217.2 150.14 217.298 150.61 217.298C151.2 217.298 151.696 217.186 152.097 216.962C152.498 216.733 152.819 216.432 153.059 216.06C153.3 215.682 153.475 215.269 153.584 214.822V212.149C153.515 211.845 153.415 211.536 153.283 211.221C153.151 210.906 152.971 210.616 152.741 210.353C152.518 210.083 152.231 209.868 151.882 209.708C151.538 209.542 151.12 209.459 150.627 209.459C150.151 209.459 149.742 209.556 149.398 209.751C149.054 209.946 148.768 210.218 148.538 210.568C148.315 210.911 148.149 211.315 148.04 211.78C147.931 212.244 147.876 212.748 147.876 213.292ZM160.632 218.2C160.025 218.2 159.466 218.088 158.956 217.865C158.452 217.642 158.01 217.326 157.632 216.92C157.26 216.513 156.97 216.031 156.764 215.476C156.563 214.914 156.463 214.301 156.463 213.636V213.267C156.463 212.55 156.569 211.903 156.781 211.324C156.993 210.745 157.285 210.25 157.658 209.837C158.03 209.424 158.454 209.109 158.93 208.891C159.411 208.668 159.916 208.556 160.443 208.556C161.033 208.556 161.557 208.662 162.016 208.874C162.474 209.081 162.858 209.376 163.168 209.76C163.483 210.138 163.721 210.588 163.881 211.109C164.041 211.625 164.122 212.195 164.122 212.82V213.447H157.082V212.57H163.099V212.45C163.087 211.928 162.981 211.441 162.781 210.989C162.586 210.53 162.294 210.158 161.904 209.871C161.514 209.585 161.027 209.442 160.443 209.442C160.007 209.442 159.606 209.533 159.239 209.717C158.878 209.9 158.566 210.164 158.303 210.507C158.045 210.845 157.844 211.249 157.701 211.719C157.563 212.183 157.495 212.699 157.495 213.267V213.636C157.495 214.152 157.569 214.633 157.718 215.08C157.873 215.521 158.091 215.911 158.371 216.249C158.658 216.587 158.996 216.851 159.386 217.04C159.775 217.229 160.205 217.324 160.675 217.324C161.225 217.324 161.712 217.223 162.136 217.023C162.56 216.816 162.941 216.493 163.279 216.051L163.924 216.55C163.723 216.848 163.471 217.123 163.168 217.375C162.87 217.627 162.511 217.828 162.093 217.977C161.675 218.126 161.188 218.2 160.632 218.2ZM166.554 208.728L169.064 212.484L171.582 208.728H172.803L169.648 213.284L172.932 218.028H171.729L169.073 214.1L166.425 218.028H165.222L168.505 213.284L165.351 208.728H166.554ZM174.634 217.401C174.634 217.2 174.697 217.031 174.823 216.894C174.955 216.75 175.132 216.679 175.356 216.679C175.585 216.679 175.765 216.75 175.897 216.894C176.029 217.031 176.095 217.2 176.095 217.401C176.095 217.596 176.029 217.762 175.897 217.899C175.765 218.037 175.585 218.106 175.356 218.106C175.132 218.106 174.955 218.037 174.823 217.899C174.697 217.762 174.634 217.596 174.634 217.401ZM179.963 210.267V218.028H178.94V208.728H179.937L179.963 210.267ZM183.255 208.659L183.229 209.605C183.114 209.588 183.003 209.573 182.894 209.562C182.785 209.55 182.668 209.545 182.541 209.545C182.095 209.545 181.702 209.628 181.364 209.794C181.032 209.954 180.751 210.181 180.522 210.473C180.292 210.76 180.118 211.098 179.997 211.487C179.877 211.871 179.808 212.284 179.791 212.725L179.413 212.871C179.413 212.264 179.476 211.699 179.602 211.178C179.728 210.656 179.92 210.201 180.178 209.811C180.441 209.416 180.771 209.109 181.166 208.891C181.567 208.668 182.037 208.556 182.576 208.556C182.708 208.556 182.837 208.568 182.963 208.591C183.094 208.608 183.192 208.631 183.255 208.659ZM190.827 215.879V208.728H191.859V218.028H190.87L190.827 215.879ZM191.016 214.16L191.549 214.143C191.549 214.728 191.481 215.266 191.343 215.759C191.206 216.252 190.991 216.682 190.698 217.048C190.406 217.415 190.028 217.699 189.564 217.899C189.1 218.1 188.541 218.2 187.888 218.2C187.435 218.2 187.02 218.137 186.641 218.011C186.269 217.879 185.948 217.673 185.679 217.392C185.409 217.111 185.2 216.748 185.051 216.301C184.908 215.854 184.836 215.312 184.836 214.676V208.728H185.859V214.693C185.859 215.192 185.914 215.607 186.023 215.94C186.137 216.272 186.292 216.538 186.487 216.739C186.687 216.94 186.916 217.083 187.174 217.169C187.432 217.255 187.71 217.298 188.008 217.298C188.764 217.298 189.36 217.152 189.796 216.859C190.237 216.567 190.549 216.183 190.733 215.708C190.922 215.226 191.016 214.711 191.016 214.16Z" fill="#4F5A7C"/>
<mask id="path-25-inside-6_85_147" fill="white">
<path d="M225.834 196.37H337.765V232.572H225.834V196.37Z"/>
</mask>
<path d="M337.765 232.572V231.314H225.834V232.572V233.829H337.765V232.572Z" fill="#F5F5F5" mask="url(#path-25-inside-6_85_147)"/>
<path d="M272.301 205.462V218.028H271.278V206.76L267.875 208.023V207.052L272.129 205.462H272.301ZM278.696 217.22H278.92C279.831 217.22 280.593 217.089 281.206 216.825C281.819 216.556 282.309 216.186 282.676 215.716C283.048 215.241 283.315 214.685 283.475 214.049C283.636 213.413 283.716 212.722 283.716 211.977V210.232C283.716 209.573 283.644 208.995 283.501 208.496C283.358 207.998 283.154 207.582 282.891 207.25C282.627 206.912 282.315 206.657 281.954 206.485C281.598 206.313 281.203 206.227 280.768 206.227C280.338 206.227 279.948 206.319 279.599 206.502C279.255 206.685 278.963 206.94 278.722 207.267C278.487 207.588 278.304 207.957 278.172 208.376C278.046 208.788 277.983 209.227 277.983 209.691C277.983 210.115 278.04 210.527 278.155 210.929C278.275 211.324 278.45 211.682 278.679 212.003C278.908 212.318 279.189 212.57 279.521 212.759C279.859 212.943 280.249 213.034 280.69 213.034C281.189 213.034 281.63 212.94 282.014 212.751C282.404 212.562 282.733 212.318 283.002 212.02C283.277 211.716 283.487 211.39 283.63 211.04C283.779 210.685 283.859 210.341 283.87 210.009L284.386 210C284.386 210.522 284.289 211.02 284.094 211.496C283.905 211.966 283.636 212.384 283.286 212.751C282.942 213.112 282.538 213.398 282.074 213.61C281.61 213.822 281.108 213.928 280.57 213.928C279.985 213.928 279.467 213.814 279.014 213.585C278.567 213.35 278.192 213.034 277.888 212.639C277.59 212.238 277.364 211.788 277.209 211.29C277.054 210.791 276.977 210.272 276.977 209.734C276.977 209.132 277.06 208.568 277.226 208.041C277.398 207.508 277.647 207.041 277.974 206.639C278.301 206.233 278.696 205.915 279.16 205.685C279.63 205.456 280.16 205.342 280.75 205.342C281.421 205.342 282.005 205.465 282.504 205.711C283.002 205.952 283.415 206.296 283.742 206.743C284.074 207.19 284.32 207.717 284.481 208.324C284.647 208.932 284.73 209.602 284.73 210.335V211.324C284.73 212.063 284.673 212.771 284.558 213.447C284.443 214.123 284.252 214.748 283.982 215.321C283.719 215.888 283.363 216.381 282.916 216.799C282.469 217.217 281.916 217.544 281.257 217.779C280.598 218.008 279.819 218.123 278.92 218.123H278.687L278.696 217.22ZM288.555 211.84L287.747 211.608L288.357 205.514H294.615V206.476H289.234L288.796 210.688C289.013 210.533 289.328 210.381 289.741 210.232C290.159 210.078 290.629 210 291.151 210C291.707 210 292.211 210.095 292.663 210.284C293.122 210.467 293.514 210.737 293.841 211.092C294.168 211.441 294.42 211.865 294.597 212.364C294.775 212.857 294.864 213.415 294.864 214.04C294.864 214.642 294.789 215.195 294.64 215.699C294.491 216.203 294.265 216.644 293.961 217.023C293.658 217.395 293.271 217.685 292.801 217.891C292.331 218.097 291.772 218.2 291.125 218.2C290.626 218.2 290.157 218.131 289.715 217.994C289.28 217.851 288.89 217.636 288.546 217.349C288.203 217.063 287.922 216.702 287.704 216.266C287.492 215.831 287.36 215.321 287.309 214.736H288.297C288.366 215.298 288.518 215.771 288.753 216.155C288.988 216.538 289.303 216.828 289.698 217.023C290.099 217.217 290.575 217.315 291.125 217.315C291.572 217.315 291.962 217.243 292.294 217.1C292.632 216.957 292.913 216.748 293.136 216.473C293.365 216.192 293.537 215.851 293.652 215.45C293.772 215.043 293.832 214.579 293.832 214.057C293.832 213.61 293.769 213.201 293.643 212.828C293.517 212.45 293.331 212.12 293.085 211.84C292.844 211.553 292.546 211.333 292.191 211.178C291.835 211.023 291.429 210.946 290.97 210.946C290.374 210.946 289.899 211.026 289.543 211.186C289.194 211.347 288.864 211.565 288.555 211.84Z" fill="#4F5A7C"/>
<mask id="path-28-inside-7_85_147" fill="white">
<path d="M330.988 196.37H442.919V232.572H330.988V196.37Z"/>
</mask>
<path d="M442.919 232.572V231.314H330.988V232.572V233.829H442.919V232.572Z" fill="#F5F5F5" mask="url(#path-28-inside-7_85_147)"/>
<path d="M377.467 205.462V218.028H376.444V206.76L373.041 208.023V207.052L377.295 205.462H377.467ZM390.145 214.711C390.145 215.467 389.968 216.106 389.612 216.627C389.263 217.149 388.787 217.541 388.186 217.805C387.584 218.068 386.911 218.2 386.166 218.2C385.415 218.2 384.739 218.068 384.137 217.805C383.535 217.541 383.057 217.149 382.702 216.627C382.352 216.106 382.177 215.467 382.177 214.711C382.177 214.212 382.275 213.759 382.47 213.352C382.67 212.94 382.948 212.585 383.303 212.287C383.664 211.983 384.086 211.748 384.567 211.582C385.048 211.416 385.575 211.333 386.148 211.333C386.905 211.333 387.584 211.479 388.186 211.771C388.787 212.057 389.263 212.453 389.612 212.957C389.968 213.461 390.145 214.046 390.145 214.711ZM389.114 214.711C389.114 214.178 388.985 213.711 388.727 213.309C388.469 212.908 388.117 212.599 387.67 212.381C387.223 212.158 386.716 212.046 386.148 212.046C385.575 212.046 385.068 212.158 384.627 212.381C384.186 212.599 383.839 212.908 383.587 213.309C383.335 213.711 383.209 214.178 383.209 214.711C383.209 215.266 383.332 215.739 383.578 216.129C383.831 216.518 384.18 216.814 384.627 217.014C385.074 217.215 385.587 217.315 386.166 217.315C386.744 217.315 387.254 217.215 387.696 217.014C388.137 216.814 388.484 216.518 388.736 216.129C388.988 215.739 389.114 215.266 389.114 214.711ZM389.819 208.728C389.819 209.341 389.655 209.889 389.329 210.37C389.008 210.845 388.572 211.221 388.022 211.496C387.472 211.765 386.85 211.9 386.157 211.9C385.458 211.9 384.83 211.765 384.275 211.496C383.725 211.221 383.289 210.845 382.968 210.37C382.653 209.889 382.495 209.341 382.495 208.728C382.495 208 382.653 207.387 382.968 206.889C383.289 206.384 383.725 206.001 384.275 205.737C384.825 205.473 385.449 205.342 386.148 205.342C386.842 205.342 387.464 205.473 388.014 205.737C388.569 206.001 389.008 206.384 389.329 206.889C389.655 207.387 389.819 208 389.819 208.728ZM388.796 208.72C388.796 208.232 388.678 207.803 388.443 207.43C388.214 207.058 387.899 206.766 387.498 206.554C387.103 206.336 386.653 206.227 386.148 206.227C385.638 206.227 385.186 206.327 384.79 206.528C384.401 206.728 384.091 207.015 383.862 207.387C383.639 207.76 383.527 208.204 383.527 208.72C383.527 209.224 383.639 209.659 383.862 210.026C384.091 210.387 384.404 210.668 384.799 210.868C385.194 211.069 385.647 211.169 386.157 211.169C386.667 211.169 387.12 211.069 387.515 210.868C387.91 210.668 388.223 210.387 388.452 210.026C388.681 209.659 388.796 209.224 388.796 208.72ZM400.477 213.989V214.865H391.615V214.272L397.4 205.514H398.259L397.039 207.637L392.87 213.989H400.477ZM398.526 205.514V218.028H397.503V205.514H398.526Z" fill="#4F5A7C"/>
<mask id="path-31-inside-8_85_147" fill="white">
<path d="M434.707 196.37H546.756V232.572H434.707V196.37Z"/>
</mask>
<path d="M546.756 232.572V231.314H434.707V232.572V233.829H546.756V232.572Z" fill="#F5F5F5" mask="url(#path-31-inside-8_85_147)"/>
<path d="M493.626 214.771C493.626 215.527 493.449 216.16 493.093 216.67C492.738 217.18 492.26 217.564 491.658 217.822C491.056 218.074 490.386 218.2 489.647 218.2C488.896 218.2 488.217 218.074 487.61 217.822C487.008 217.564 486.529 217.18 486.174 216.67C485.825 216.16 485.65 215.527 485.65 214.771C485.65 214.278 485.75 213.828 485.951 213.421C486.157 213.014 486.441 212.665 486.802 212.373C487.163 212.08 487.584 211.854 488.065 211.694C488.546 211.533 489.068 211.453 489.629 211.453C490.369 211.453 491.039 211.593 491.641 211.874C492.248 212.155 492.73 212.544 493.085 213.043C493.446 213.536 493.626 214.112 493.626 214.771ZM493.154 214.814C493.154 214.212 492.996 213.691 492.681 213.249C492.366 212.808 491.942 212.467 491.409 212.226C490.876 211.98 490.283 211.857 489.629 211.857C488.971 211.857 488.375 211.98 487.842 212.226C487.309 212.467 486.888 212.808 486.578 213.249C486.269 213.691 486.114 214.212 486.114 214.814C486.114 215.444 486.269 215.977 486.578 216.412C486.888 216.848 487.309 217.177 487.842 217.401C488.38 217.624 488.982 217.736 489.647 217.736C490.3 217.736 490.89 217.624 491.417 217.401C491.95 217.177 492.371 216.848 492.681 216.412C492.996 215.977 493.154 215.444 493.154 214.814ZM493.265 208.694C493.265 209.307 493.102 209.848 492.775 210.318C492.449 210.788 492.01 211.155 491.46 211.419C490.916 211.682 490.306 211.814 489.629 211.814C488.942 211.814 488.323 211.682 487.773 211.419C487.229 211.155 486.796 210.788 486.475 210.318C486.16 209.848 486.002 209.307 486.002 208.694C486.002 207.966 486.16 207.356 486.475 206.863C486.796 206.364 487.229 205.986 487.773 205.728C488.317 205.471 488.93 205.342 489.612 205.342C490.288 205.342 490.902 205.471 491.452 205.728C492.002 205.986 492.44 206.364 492.767 206.863C493.099 207.356 493.265 207.966 493.265 208.694ZM492.801 208.651C492.801 208.095 492.658 207.605 492.371 207.181C492.085 206.751 491.701 206.416 491.22 206.175C490.738 205.929 490.203 205.806 489.612 205.806C489.016 205.806 488.481 205.92 488.005 206.15C487.529 206.379 487.154 206.705 486.879 207.129C486.604 207.553 486.466 208.061 486.466 208.651C486.466 209.218 486.604 209.708 486.879 210.121C487.154 210.527 487.529 210.843 488.005 211.066C488.486 211.284 489.028 211.393 489.629 211.393C490.22 211.393 490.753 211.284 491.228 211.066C491.71 210.843 492.091 210.527 492.371 210.121C492.658 209.708 492.801 209.218 492.801 208.651Z" fill="#4F5A7C"/>
<mask id="path-34-inside-9_85_147" fill="white">
<path d="M57.6953 232.959H433.291V269.161H57.6953V232.959Z"/>
</mask>
<path d="M433.291 269.161V267.904H57.6953V269.161V270.419H433.291V269.161Z" fill="#F5F5F5" mask="url(#path-34-inside-9_85_147)"/>
<path d="M72.7622 245.318V254.618H71.7393V245.318H72.7622ZM71.5588 242.627C71.5588 242.432 71.619 242.269 71.7393 242.137C71.8654 242 72.0373 241.931 72.2551 241.931C72.4728 241.931 72.6447 242 72.7708 242.137C72.9026 242.269 72.9685 242.432 72.9685 242.627C72.9685 242.816 72.9026 242.98 72.7708 243.117C72.6447 243.249 72.4728 243.315 72.2551 243.315C72.0373 243.315 71.8654 243.249 71.7393 243.117C71.619 242.98 71.5588 242.816 71.5588 242.627ZM76.5957 247.303V254.618H75.5729V245.318H76.5527L76.5957 247.303ZM76.3636 249.392L75.9081 249.134C75.9425 248.584 76.0542 248.068 76.2433 247.587C76.4324 247.105 76.6874 246.681 77.0083 246.315C77.3349 245.948 77.716 245.661 78.1515 245.455C78.5927 245.249 79.0798 245.146 79.6127 245.146C80.0768 245.146 80.4923 245.209 80.859 245.335C81.2257 245.461 81.538 245.661 81.7959 245.936C82.0537 246.211 82.2486 246.564 82.3804 246.994C82.5179 247.423 82.5867 247.948 82.5867 248.567V254.618H81.5552V248.558C81.5552 247.916 81.4664 247.415 81.2888 247.054C81.1111 246.687 80.859 246.426 80.5324 246.272C80.2057 246.117 79.819 246.04 79.372 246.04C78.8792 246.04 78.4466 246.148 78.0741 246.366C77.7074 246.578 77.3979 246.856 77.1458 247.2C76.8994 247.538 76.7103 247.902 76.5785 248.292C76.4467 248.675 76.3751 249.042 76.3636 249.392ZM87.0133 254.618H85.9904V244.166C85.9904 243.53 86.0993 242.994 86.317 242.558C86.5405 242.123 86.8557 241.793 87.2625 241.57C87.6751 241.346 88.165 241.235 88.7323 241.235C88.91 241.235 89.0933 241.246 89.2824 241.269C89.4715 241.286 89.6549 241.324 89.8325 241.381L89.7552 242.249C89.6119 242.209 89.4658 242.183 89.3168 242.172C89.1736 242.154 89.0045 242.146 88.8097 242.146C88.4372 242.146 88.1163 242.226 87.847 242.387C87.5777 242.541 87.3714 242.768 87.2281 243.066C87.0849 243.364 87.0133 243.73 87.0133 244.166V254.618ZM89.2309 245.318V246.16H84.4518V245.318H89.2309ZM90.5116 250.114V249.83C90.5116 249.154 90.609 248.529 90.8038 247.956C90.9986 247.383 91.2765 246.888 91.6376 246.469C92.0043 246.051 92.4426 245.727 92.9526 245.498C93.4626 245.263 94.0299 245.146 94.6545 245.146C95.2848 245.146 95.855 245.263 96.365 245.498C96.875 245.727 97.3133 246.051 97.6801 246.469C98.0468 246.888 98.3276 247.383 98.5224 247.956C98.7172 248.529 98.8147 249.154 98.8147 249.83V250.114C98.8147 250.79 98.7172 251.414 98.5224 251.988C98.3276 252.555 98.0468 253.048 97.6801 253.466C97.3191 253.884 96.8836 254.211 96.3736 254.446C95.8636 254.675 95.2963 254.79 94.6717 254.79C94.0414 254.79 93.4712 254.675 92.9612 254.446C92.4512 254.211 92.0129 253.884 91.6461 253.466C91.2794 253.048 90.9986 252.555 90.8038 251.988C90.609 251.414 90.5116 250.79 90.5116 250.114ZM91.5344 249.83V250.114C91.5344 250.624 91.6032 251.108 91.7407 251.566C91.8782 252.019 92.0788 252.423 92.3424 252.778C92.606 253.128 92.9326 253.403 93.3222 253.603C93.7119 253.804 94.1617 253.904 94.6717 253.904C95.176 253.904 95.6201 253.804 96.004 253.603C96.3936 253.403 96.7203 253.128 96.9839 252.778C97.2474 252.423 97.4451 252.019 97.5769 251.566C97.7145 251.108 97.7832 250.624 97.7832 250.114V249.83C97.7832 249.326 97.7145 248.847 97.5769 248.395C97.4451 247.942 97.2446 247.538 96.9753 247.183C96.7117 246.827 96.385 246.547 95.9954 246.34C95.6057 246.134 95.1588 246.031 94.6545 246.031C94.1503 246.031 93.7033 246.134 93.3136 246.34C92.9297 246.547 92.6031 246.827 92.3338 247.183C92.0702 247.538 91.8696 247.942 91.7321 248.395C91.6003 248.847 91.5344 249.326 91.5344 249.83ZM101.161 245.318L103.671 249.074L106.189 245.318H107.41L104.256 249.873L107.539 254.618H106.336L103.68 250.69L101.032 254.618H99.8289L103.112 249.873L99.9578 245.318H101.161ZM109.241 253.99C109.241 253.79 109.304 253.621 109.43 253.483C109.562 253.34 109.739 253.268 109.963 253.268C110.192 253.268 110.373 253.34 110.504 253.483C110.636 253.621 110.702 253.79 110.702 253.99C110.702 254.185 110.636 254.351 110.504 254.489C110.373 254.626 110.192 254.695 109.963 254.695C109.739 254.695 109.562 254.626 109.43 254.489C109.304 254.351 109.241 254.185 109.241 253.99ZM119.117 252.245C119.117 251.993 119.054 251.744 118.928 251.498C118.802 251.251 118.558 251.025 118.197 250.819C117.842 250.612 117.318 250.437 116.624 250.294C116.108 250.18 115.647 250.051 115.24 249.907C114.839 249.764 114.501 249.592 114.226 249.392C113.951 249.191 113.742 248.95 113.599 248.67C113.455 248.389 113.384 248.057 113.384 247.673C113.384 247.329 113.458 247.005 113.607 246.701C113.762 246.392 113.98 246.123 114.26 245.893C114.547 245.658 114.891 245.475 115.292 245.343C115.699 245.212 116.154 245.146 116.659 245.146C117.375 245.146 117.988 245.269 118.498 245.515C119.014 245.756 119.406 246.085 119.676 246.504C119.951 246.922 120.088 247.395 120.088 247.922H119.065C119.065 247.601 118.971 247.297 118.782 247.011C118.598 246.724 118.326 246.489 117.965 246.306C117.61 246.123 117.174 246.031 116.659 246.031C116.126 246.031 115.693 246.111 115.361 246.272C115.028 246.432 114.785 246.635 114.63 246.882C114.481 247.128 114.407 247.383 114.407 247.647C114.407 247.853 114.438 248.042 114.501 248.214C114.57 248.38 114.69 248.535 114.862 248.678C115.04 248.822 115.292 248.956 115.619 249.082C115.945 249.208 116.369 249.332 116.891 249.452C117.641 249.618 118.254 249.821 118.73 250.062C119.211 250.297 119.567 250.589 119.796 250.939C120.025 251.283 120.14 251.701 120.14 252.194C120.14 252.578 120.059 252.93 119.899 253.251C119.739 253.566 119.507 253.838 119.203 254.068C118.905 254.297 118.544 254.474 118.12 254.6C117.701 254.727 117.232 254.79 116.71 254.79C115.925 254.79 115.26 254.661 114.716 254.403C114.177 254.139 113.768 253.795 113.487 253.371C113.212 252.942 113.074 252.486 113.074 252.005H114.097C114.132 252.486 114.283 252.867 114.553 253.148C114.822 253.423 115.152 253.618 115.541 253.732C115.937 253.847 116.326 253.904 116.71 253.904C117.237 253.904 117.679 253.827 118.034 253.672C118.389 253.517 118.658 253.314 118.842 253.062C119.025 252.81 119.117 252.538 119.117 252.245ZM128.589 245.318H129.543V254.454C129.543 255.262 129.388 255.956 129.079 256.534C128.775 257.113 128.343 257.557 127.781 257.867C127.225 258.176 126.569 258.331 125.813 258.331C125.429 258.331 125.033 258.271 124.626 258.15C124.225 258.036 123.844 257.858 123.483 257.617C123.128 257.383 122.824 257.09 122.572 256.741L123.148 256.113C123.526 256.572 123.93 256.907 124.36 257.119C124.79 257.337 125.254 257.446 125.752 257.446C126.343 257.446 126.841 257.328 127.248 257.093C127.661 256.858 127.973 256.52 128.185 256.079C128.403 255.638 128.512 255.108 128.512 254.489V247.363L128.589 245.318ZM122.056 250.062V249.882C122.056 249.16 122.137 248.509 122.297 247.93C122.463 247.346 122.701 246.847 123.011 246.435C123.32 246.017 123.695 245.699 124.137 245.481C124.583 245.257 125.088 245.146 125.649 245.146C126.188 245.146 126.666 245.234 127.085 245.412C127.503 245.59 127.864 245.845 128.168 246.177C128.471 246.509 128.715 246.905 128.898 247.363C129.087 247.822 129.225 248.332 129.311 248.893V251.188C129.242 251.715 129.116 252.2 128.933 252.641C128.749 253.076 128.506 253.457 128.202 253.784C127.898 254.105 127.532 254.354 127.102 254.532C126.678 254.704 126.188 254.79 125.632 254.79C125.076 254.79 124.578 254.675 124.137 254.446C123.695 254.217 123.32 253.893 123.011 253.474C122.701 253.05 122.463 252.549 122.297 251.97C122.137 251.392 122.056 250.756 122.056 250.062ZM123.088 249.882V250.062C123.088 250.607 123.142 251.111 123.251 251.575C123.36 252.039 123.526 252.443 123.75 252.787C123.973 253.131 124.257 253.4 124.601 253.595C124.945 253.79 125.348 253.887 125.813 253.887C126.403 253.887 126.899 253.775 127.3 253.552C127.701 253.323 128.019 253.022 128.254 252.649C128.489 252.271 128.661 251.859 128.769 251.412V248.738C128.706 248.435 128.609 248.125 128.477 247.81C128.351 247.495 128.173 247.206 127.944 246.942C127.721 246.673 127.434 246.458 127.085 246.297C126.741 246.131 126.323 246.048 125.83 246.048C125.36 246.048 124.95 246.146 124.601 246.34C124.257 246.535 123.973 246.807 123.75 247.157C123.526 247.501 123.36 247.905 123.251 248.369C123.142 248.833 123.088 249.337 123.088 249.882Z" fill="#4F5A7C"/>
<mask id="path-37-inside-10_85_147" fill="white">
<path d="M225.834 232.959H337.765V269.161H225.834V232.959Z"/>
</mask>
<path d="M337.765 269.161V267.904H225.834V269.161V270.419H337.765V269.161Z" fill="#F5F5F5" mask="url(#path-37-inside-10_85_147)"/>
<path d="M272.301 242.051V254.618H271.278V243.349L267.875 244.613V243.641L272.129 242.051H272.301ZM282.065 242.051V254.618H281.043V243.349L277.639 244.613V243.641L281.894 242.051H282.065ZM295.311 250.578V251.455H286.449V250.862L292.234 242.103H293.093L291.873 244.226L287.704 250.578H295.311ZM293.36 242.103V254.618H292.337V242.103H293.36Z" fill="#4F5A7C"/>
<mask id="path-40-inside-11_85_147" fill="white">
<path d="M330.988 232.959H442.978V269.161H330.988V232.959Z"/>
</mask>
<path d="M442.978 269.161V267.904H330.988V269.161V270.419H442.978V269.161Z" fill="#F5F5F5" mask="url(#path-40-inside-11_85_147)"/>
<path d="M382.216 242.051V254.618H381.193V243.349L377.789 244.613V243.641L382.044 242.051H382.216ZM389.487 247.793H390.536C391.178 247.793 391.713 247.684 392.143 247.466C392.579 247.243 392.905 246.948 393.123 246.581C393.346 246.214 393.458 245.807 393.458 245.36C393.458 244.856 393.364 244.415 393.175 244.037C392.985 243.653 392.696 243.355 392.306 243.143C391.923 242.925 391.43 242.816 390.828 242.816C390.301 242.816 389.831 242.919 389.418 243.126C389.006 243.332 388.679 243.627 388.439 244.011C388.198 244.395 388.078 244.853 388.078 245.386H387.055C387.055 244.704 387.218 244.106 387.545 243.59C387.871 243.068 388.321 242.662 388.894 242.369C389.467 242.077 390.112 241.931 390.828 241.931C391.567 241.931 392.209 242.066 392.753 242.335C393.303 242.604 393.728 242.997 394.026 243.512C394.329 244.028 394.481 244.656 394.481 245.395C394.481 245.773 394.398 246.146 394.232 246.512C394.071 246.879 393.831 247.211 393.51 247.509C393.189 247.802 392.791 248.037 392.315 248.214C391.839 248.392 391.286 248.481 390.656 248.481H389.487V247.793ZM389.487 248.678V247.999H390.656C391.372 247.999 391.986 248.082 392.496 248.249C393.006 248.409 393.424 248.638 393.75 248.936C394.083 249.228 394.326 249.569 394.481 249.959C394.636 250.349 394.713 250.767 394.713 251.214C394.713 251.787 394.619 252.294 394.429 252.735C394.24 253.177 393.971 253.552 393.622 253.861C393.278 254.165 392.871 254.397 392.401 254.558C391.937 254.712 391.427 254.79 390.871 254.79C390.367 254.79 389.874 254.715 389.393 254.566C388.917 254.417 388.487 254.197 388.103 253.904C387.725 253.606 387.424 253.234 387.201 252.787C386.977 252.334 386.866 251.813 386.866 251.223H387.888C387.888 251.75 388.014 252.217 388.267 252.624C388.519 253.025 388.868 253.34 389.315 253.569C389.768 253.793 390.287 253.904 390.871 253.904C391.461 253.904 391.965 253.804 392.384 253.603C392.808 253.397 393.132 253.096 393.355 252.701C393.579 252.306 393.69 251.821 393.69 251.248C393.69 250.647 393.556 250.157 393.286 249.778C393.023 249.4 392.653 249.122 392.178 248.945C391.708 248.767 391.16 248.678 390.536 248.678H389.487Z" fill="#4F5A7C"/>
<mask id="path-43-inside-12_85_147" fill="white">
<path d="M434.707 232.959H546.697V269.161H434.707V232.959Z"/>
</mask>
<path d="M546.697 269.161V267.904H434.707V269.161V270.419H546.697V269.161Z" fill="#F5F5F5" mask="url(#path-43-inside-12_85_147)"/>
<path d="M482.565 253.81H482.788C483.699 253.81 484.462 253.678 485.075 253.414C485.688 253.145 486.178 252.775 486.545 252.306C486.917 251.83 487.183 251.274 487.344 250.638C487.504 250.002 487.585 249.311 487.585 248.567V246.822C487.585 246.163 487.513 245.584 487.37 245.085C487.226 244.587 487.023 244.171 486.759 243.839C486.496 243.501 486.184 243.246 485.823 243.074C485.467 242.902 485.072 242.816 484.636 242.816C484.207 242.816 483.817 242.908 483.467 243.091C483.124 243.275 482.831 243.53 482.591 243.856C482.356 244.177 482.172 244.547 482.041 244.965C481.915 245.378 481.851 245.816 481.851 246.28C481.851 246.704 481.909 247.117 482.023 247.518C482.144 247.913 482.318 248.271 482.548 248.592C482.777 248.908 483.058 249.16 483.39 249.349C483.728 249.532 484.118 249.624 484.559 249.624C485.058 249.624 485.499 249.529 485.883 249.34C486.272 249.151 486.602 248.908 486.871 248.61C487.146 248.306 487.355 247.979 487.499 247.63C487.648 247.274 487.728 246.931 487.739 246.598L488.255 246.59C488.255 247.111 488.158 247.61 487.963 248.085C487.774 248.555 487.504 248.973 487.155 249.34C486.811 249.701 486.407 249.988 485.943 250.2C485.479 250.412 484.977 250.518 484.439 250.518C483.854 250.518 483.336 250.403 482.883 250.174C482.436 249.939 482.061 249.624 481.757 249.228C481.459 248.827 481.233 248.377 481.078 247.879C480.923 247.38 480.846 246.862 480.846 246.323C480.846 245.721 480.929 245.157 481.095 244.63C481.267 244.097 481.516 243.63 481.843 243.229C482.169 242.822 482.565 242.504 483.029 242.275C483.499 242.046 484.029 241.931 484.619 241.931C485.29 241.931 485.874 242.054 486.373 242.301C486.871 242.541 487.284 242.885 487.61 243.332C487.943 243.779 488.189 244.306 488.35 244.914C488.516 245.521 488.599 246.191 488.599 246.925V247.913C488.599 248.653 488.542 249.36 488.427 250.036C488.312 250.713 488.12 251.337 487.851 251.91C487.587 252.477 487.232 252.97 486.785 253.389C486.338 253.807 485.785 254.133 485.126 254.368C484.467 254.598 483.688 254.712 482.788 254.712H482.556L482.565 253.81ZM499.18 250.578V251.455H490.318V250.862L496.103 242.103H496.962L495.742 244.226L491.573 250.578H499.18ZM497.229 242.103V254.618H496.206V242.103H497.229Z" fill="#4F5A7C"/>
</g>
<defs>
<filter id="filter0_d_85_147" x="0.0731697" y="0.0731697" width="605.854" height="329.268" filterUnits="userSpaceOnUse" color-interpolation-filters="sRGB">
<feFlood flood-opacity="0" result="BackgroundImageFix"/>
<feColorMatrix in="SourceAlpha" type="matrix" values="0 0 0 0 0 0 0 0 0 0 0 0 0 0 0 0 0 0 127 0" result="hardAlpha"/>
<feOffset/>
<feGaussianBlur stdDeviation="16.4634"/>
<feComposite in2="hardAlpha" operator="out"/>
<feColorMatrix type="matrix" values="0 0 0 0 0.716146 0 0 0 0 0.869305 0 0 0 0 1 0 0 0 1 0"/>
<feBlend mode="normal" in2="BackgroundImageFix" result="effect1_dropShadow_85_147"/>
<feBlend mode="normal" in="SourceGraphic" in2="effect1_dropShadow_85_147" result="shape"/>
</filter>
<clipPath id="clip0_85_147">
<rect width="18.8606" height="18.8606" fill="white" transform="translate(265.218 130.134)"/>
</clipPath>
<clipPath id="clip1_85_147">
<rect width="10.059" height="5.65536" fill="white" transform="translate(288.479 138.935)"/>
</clipPath>
<clipPath id="clip2_85_147">
<rect width="18.8606" height="18.8606" fill="white" transform="translate(370.384 130.134)"/>
</clipPath>
<clipPath id="clip3_85_147">
<rect width="18.8606" height="18.8606" fill="white" transform="translate(474.098 130.134)"/>
</clipPath>
</defs>
</svg>
