<svg width="216" height="118" viewBox="0 0 216 118" fill="none" xmlns="http://www.w3.org/2000/svg">
<g filter="url(#filter0_d_85_252)">
<rect x="12" y="11.9023" width="192" height="93.6585" rx="11.7073" fill="white"/>
<rect x="20.7803" y="20.6831" width="120.585" height="18.1463" rx="9.07317" fill="#2CA9DB"/>
<path d="M34.7267 26.8095V33.1953H33.7664V27.6327H30.7605V33.1953H29.8002V26.8095H34.7267ZM35.7479 33.1953L35.7448 32.3877H35.9163C36.0493 32.3877 36.1605 32.3597 36.2499 32.3035C36.3414 32.2453 36.4162 32.1476 36.4744 32.0104C36.5326 31.8733 36.5773 31.6841 36.6085 31.443C36.6397 31.1997 36.6625 30.8942 36.6771 30.5262L36.7613 28.406H40.1038V33.1953H39.1902V29.2104H37.625L37.5501 30.8381C37.5314 31.233 37.4909 31.5781 37.4285 31.8733C37.3683 32.1684 37.2799 32.4148 37.1635 32.6122C37.0471 32.8076 36.8974 32.9542 36.7145 33.0519C36.5316 33.1475 36.3092 33.1953 36.0472 33.1953H35.7479ZM43.3646 33.292C42.9156 33.292 42.5237 33.1891 42.1891 32.9833C41.8544 32.7775 41.5945 32.4896 41.4095 32.1196C41.2245 31.7496 41.132 31.3172 41.132 30.8225C41.132 30.3256 41.2245 29.8912 41.4095 29.5191C41.5945 29.147 41.8544 28.8581 42.1891 28.6523C42.5237 28.4465 42.9156 28.3436 43.3646 28.3436C43.8136 28.3436 44.2054 28.4465 44.5401 28.6523C44.8748 28.8581 45.1346 29.147 45.3196 29.5191C45.5046 29.8912 45.5971 30.3256 45.5971 30.8225C45.5971 31.3172 45.5046 31.7496 45.3196 32.1196C45.1346 32.4896 44.8748 32.7775 44.5401 32.9833C44.2054 33.1891 43.8136 33.292 43.3646 33.292ZM43.3677 32.5093C43.6587 32.5093 43.8998 32.4324 44.0911 32.2786C44.2823 32.1248 44.4237 31.92 44.5151 31.6643C44.6087 31.4087 44.6554 31.127 44.6554 30.8193C44.6554 30.5138 44.6087 30.2331 44.5151 29.9775C44.4237 29.7197 44.2823 29.5129 44.0911 29.357C43.8998 29.2011 43.6587 29.1231 43.3677 29.1231C43.0746 29.1231 42.8314 29.2011 42.6381 29.357C42.4468 29.5129 42.3044 29.7197 42.2109 29.9775C42.1194 30.2331 42.0737 30.5138 42.0737 30.8193C42.0737 31.127 42.1194 31.4087 42.2109 31.6643C42.3044 31.92 42.4468 32.1248 42.6381 32.2786C42.8314 32.4324 43.0746 32.5093 43.3677 32.5093ZM53.5006 32.3909L53.4133 34.5673H52.4997V33.1953H51.9042V32.3909H53.5006ZM46.6378 28.406H47.5514V32.3877H49.2071V28.406H50.1206V32.3877H51.7763V28.406H52.6899V33.1953H46.6378V28.406ZM55.8774 33.3013C55.5739 33.3013 55.2995 33.2452 55.0542 33.133C54.8089 33.0186 54.6146 32.8534 54.4711 32.6372C54.3298 32.421 54.2591 32.156 54.2591 31.8421C54.2591 31.5718 54.3111 31.3494 54.415 31.1748C54.5189 31.0002 54.6593 30.862 54.8359 30.7601C55.0126 30.6582 55.2101 30.5813 55.4284 30.5294C55.6466 30.4774 55.8691 30.4379 56.0956 30.4109C56.3825 30.3776 56.6153 30.3506 56.7941 30.3298C56.9729 30.3069 57.1028 30.2706 57.1839 30.2207C57.2649 30.1708 57.3055 30.0897 57.3055 29.9775V29.9556C57.3055 29.6833 57.2285 29.4723 57.0747 29.3227C56.923 29.173 56.6964 29.0982 56.395 29.0982C56.0811 29.0982 55.8337 29.1678 55.6529 29.3071C55.4741 29.4443 55.3504 29.5971 55.2818 29.7654L54.4057 29.5659C54.5096 29.2749 54.6613 29.04 54.8609 28.8612C55.0625 28.6803 55.2943 28.5494 55.5562 28.4683C55.8181 28.3852 56.0936 28.3436 56.3825 28.3436C56.5738 28.3436 56.7764 28.3665 56.9905 28.4122C57.2067 28.4558 57.4084 28.5369 57.5954 28.6554C57.7846 28.7739 57.9395 28.9433 58.06 29.1636C58.1806 29.3819 58.2409 29.6657 58.2409 30.0149V33.1953H57.3304V32.5405H57.293C57.2327 32.6611 57.1423 32.7796 57.0217 32.896C56.9012 33.0124 56.7463 33.109 56.5571 33.186C56.368 33.2629 56.1414 33.3013 55.8774 33.3013ZM56.0801 32.553C56.3378 32.553 56.5582 32.5021 56.7411 32.4002C56.9261 32.2983 57.0664 32.1653 57.162 32.0011C57.2597 31.8348 57.3086 31.6571 57.3086 31.4679V30.8505C57.2753 30.8838 57.2109 30.915 57.1153 30.9441C57.0217 30.9711 56.9147 30.995 56.7941 31.0158C56.6735 31.0345 56.5561 31.0522 56.4418 31.0688C56.3274 31.0833 56.2318 31.0958 56.1549 31.1062C55.974 31.1291 55.8088 31.1675 55.6591 31.2216C55.5115 31.2756 55.393 31.3536 55.3037 31.4554C55.2164 31.5552 55.1727 31.6882 55.1727 31.8545C55.1727 32.0853 55.2579 32.2599 55.4284 32.3784C55.5988 32.4948 55.8161 32.553 56.0801 32.553ZM59.0149 34.5766V32.3877H59.4047C59.5045 32.2963 59.5887 32.1871 59.6573 32.0603C59.7279 31.9335 59.7872 31.7828 59.835 31.6082C59.8849 31.4336 59.9265 31.2299 59.9597 30.9971C59.993 30.7622 60.0221 30.494 60.047 30.1926L60.1967 28.406H63.452V32.3877H64.1878V34.5766H63.2773V33.1953H59.9379V34.5766H59.0149ZM60.4025 32.3877H62.5415V29.2042H61.0323L60.9326 30.1926C60.8847 30.6957 60.8245 31.1322 60.7517 31.5022C60.679 31.8701 60.5625 32.1653 60.4025 32.3877ZM65.0991 33.1953V28.406H66.0314V30.414H66.4804L68.0612 28.406H69.2149L67.3597 30.7352L69.2368 33.1953H68.08L66.6363 31.2808H66.0314V33.1953H65.0991ZM70.8745 31.8888L72.9855 28.406H73.9895V33.1953H73.0759V29.7093L70.9743 33.1953H69.9609V28.406H70.8745V31.8888ZM79.5841 33.292C79.1205 33.292 78.7214 33.187 78.3867 32.977C78.0541 32.765 77.7985 32.473 77.6197 32.1009C77.4409 31.7288 77.3515 31.3026 77.3515 30.8225C77.3515 30.336 77.443 29.9068 77.6259 29.5347C77.8089 29.1605 78.0666 28.8685 78.3992 28.6585C78.7318 28.4486 79.1236 28.3436 79.5747 28.3436C79.9385 28.3436 80.2628 28.4112 80.5476 28.5463C80.8323 28.6793 81.062 28.8664 81.2367 29.1075C81.4133 29.3487 81.5183 29.6303 81.5516 29.9525H80.6442C80.5943 29.728 80.48 29.5347 80.3012 29.3726C80.1245 29.2104 79.8876 29.1293 79.5903 29.1293C79.3305 29.1293 79.1029 29.1979 78.9075 29.3351C78.7141 29.4703 78.5634 29.6636 78.4553 29.9151C78.3472 30.1645 78.2932 30.4597 78.2932 30.8006C78.2932 31.1499 78.3462 31.4513 78.4522 31.7049C78.5582 31.9585 78.7079 32.1549 78.9012 32.2942C79.0966 32.4335 79.3263 32.5031 79.5903 32.5031C79.767 32.5031 79.9271 32.4709 80.0705 32.4064C80.216 32.3399 80.3376 32.2453 80.4353 32.1227C80.5351 32.0001 80.6047 31.8525 80.6442 31.6799H81.5516C81.5183 31.9897 81.4175 32.2661 81.2491 32.5093C81.0808 32.7525 80.8552 32.9438 80.5725 33.0831C80.2919 33.2223 79.9624 33.292 79.5841 33.292ZM82.5486 33.1953V28.406H83.4809V30.414H83.9299L85.5107 28.406H86.6644L84.8092 30.7352L86.6863 33.1953H85.5295L84.0858 31.2808H83.4809V33.1953H82.5486ZM87.0331 33.1953L87.03 32.3877H87.2015C87.3346 32.3877 87.4458 32.3597 87.5352 32.3035C87.6266 32.2453 87.7015 32.1476 87.7597 32.0104C87.8179 31.8733 87.8626 31.6841 87.8937 31.443C87.9249 31.1997 87.9478 30.8942 87.9623 30.5262L88.0465 28.406H91.3891V33.1953H90.4755V29.2104H88.9102L88.8354 30.8381C88.8167 31.233 88.7762 31.5781 88.7138 31.8733C88.6535 32.1684 88.5652 32.4148 88.4488 32.6122C88.3323 32.8076 88.1827 32.9542 87.9998 33.0519C87.8168 33.1475 87.5944 33.1953 87.3325 33.1953H87.0331ZM93.546 31.8888L95.657 28.406H96.661V33.1953H95.7474V29.7093L93.6458 33.1953H92.6324V28.406H93.546V31.8888ZM97.9144 33.1953V28.406H98.8467V30.414H99.2957L100.877 28.406H102.03L100.175 30.7352L102.052 33.1953H100.895L99.4516 31.2808H98.8467V33.1953H97.9144ZM103.69 31.8888L105.801 28.406H106.805V33.1953H105.891V29.7093L103.79 33.1953H102.776V28.406H103.69V31.8888ZM108.058 33.1953V28.406H110.045C110.585 28.406 111.013 28.5213 111.329 28.7521C111.645 28.9807 111.803 29.2915 111.803 29.6844C111.803 29.965 111.714 30.1874 111.535 30.3516C111.356 30.5159 111.119 30.626 110.824 30.6821C111.038 30.7071 111.235 30.7715 111.413 30.8755C111.592 30.9773 111.736 31.1145 111.844 31.2871C111.954 31.4596 112.009 31.6654 112.009 31.9044C112.009 32.158 111.943 32.3825 111.812 32.5779C111.681 32.7713 111.491 32.923 111.242 33.0332C110.994 33.1413 110.696 33.1953 110.347 33.1953H108.058ZM108.934 32.4158H110.347C110.578 32.4158 110.759 32.3607 110.89 32.2505C111.02 32.1404 111.086 31.9907 111.086 31.8015C111.086 31.5791 111.02 31.4045 110.89 31.2777C110.759 31.1488 110.578 31.0844 110.347 31.0844H108.934V32.4158ZM108.934 30.4015H110.054C110.228 30.4015 110.378 30.3766 110.503 30.3267C110.63 30.2768 110.726 30.2061 110.793 30.1147C110.861 30.0211 110.896 29.9109 110.896 29.7841C110.896 29.5991 110.82 29.4547 110.668 29.3507C110.516 29.2468 110.309 29.1948 110.045 29.1948H108.934V30.4015ZM114.425 33.3013C114.122 33.3013 113.848 33.2452 113.602 33.133C113.357 33.0186 113.163 32.8534 113.019 32.6372C112.878 32.421 112.807 32.156 112.807 31.8421C112.807 31.5718 112.859 31.3494 112.963 31.1748C113.067 31.0002 113.207 30.862 113.384 30.7601C113.561 30.6582 113.758 30.5813 113.976 30.5294C114.195 30.4774 114.417 30.4379 114.644 30.4109C114.931 30.3776 115.163 30.3506 115.342 30.3298C115.521 30.3069 115.651 30.2706 115.732 30.2207C115.813 30.1708 115.853 30.0897 115.853 29.9775V29.9556C115.853 29.6833 115.777 29.4723 115.623 29.3227C115.471 29.173 115.244 29.0982 114.943 29.0982C114.629 29.0982 114.382 29.1678 114.201 29.3071C114.022 29.4443 113.898 29.5971 113.83 29.7654L112.954 29.5659C113.058 29.2749 113.209 29.04 113.409 28.8612C113.611 28.6803 113.842 28.5494 114.104 28.4683C114.366 28.3852 114.642 28.3436 114.931 28.3436C115.122 28.3436 115.324 28.3665 115.539 28.4122C115.755 28.4558 115.956 28.5369 116.143 28.6554C116.333 28.7739 116.487 28.9433 116.608 29.1636C116.729 29.3819 116.789 29.6657 116.789 30.0149V33.1953H115.878V32.5405H115.841C115.781 32.6611 115.69 32.7796 115.57 32.896C115.449 33.0124 115.294 33.109 115.105 33.186C114.916 33.2629 114.689 33.3013 114.425 33.3013ZM114.628 32.553C114.886 32.553 115.106 32.5021 115.289 32.4002C115.474 32.2983 115.614 32.1653 115.71 32.0011C115.808 31.8348 115.857 31.6571 115.857 31.4679V30.8505C115.823 30.8838 115.759 30.915 115.663 30.9441C115.57 30.9711 115.463 30.995 115.342 31.0158C115.222 31.0345 115.104 31.0522 114.99 31.0688C114.875 31.0833 114.78 31.0958 114.703 31.1062C114.522 31.1291 114.357 31.1675 114.207 31.2216C114.06 31.2756 113.941 31.3536 113.852 31.4554C113.764 31.5552 113.721 31.6882 113.721 31.8545C113.721 32.0853 113.806 32.2599 113.976 32.3784C114.147 32.4948 114.364 32.553 114.628 32.553ZM121.277 30.3984V31.206H118.682V30.3984H121.277ZM118.944 28.406V33.1953H118.031V28.406H118.944ZM121.928 28.406V33.1953H121.018V28.406H121.928ZM124.089 31.8888L126.2 28.406H127.204V33.1953H126.29V29.7093L124.189 33.1953H123.175V28.406H124.089V31.8888ZM129.371 31.8888L131.482 28.406H132.486V33.1953H131.572V29.7093L129.471 33.1953H128.457V28.406H129.371V31.8888ZM131.083 26.7846H131.85C131.85 27.1359 131.725 27.4217 131.476 27.642C131.228 27.8603 130.894 27.9694 130.472 27.9694C130.052 27.9694 129.718 27.8603 129.471 27.642C129.224 27.4217 129.1 27.1359 129.1 26.7846H129.864C129.864 26.9405 129.909 27.0787 130.001 27.1993C130.092 27.3177 130.249 27.377 130.472 27.377C130.69 27.377 130.846 27.3177 130.939 27.1993C131.035 27.0808 131.083 26.9425 131.083 26.7846Z" fill="white"/>
<path d="M27.3607 48.3247V52.7744H26.4439V49.0429H24.6561V52.7744H23.7392V48.3247H27.3607ZM30.3313 49.4677V50.1584H28.7054V49.4677H30.3313ZM30.9761 49.4677V52.7744H30.096V49.4677H30.9761ZM28.4854 49.4677H29.3503L29.2616 51.1363C29.2494 51.3747 29.2239 51.5846 29.1852 51.7659C29.1465 51.9472 29.0946 52.1021 29.0294 52.2304C28.9662 52.3588 28.8898 52.4637 28.8002 52.5452C28.7125 52.6247 28.6097 52.6827 28.4915 52.7194C28.3754 52.7561 28.247 52.7744 28.1064 52.7744H27.8375L27.8283 52.0807L27.9414 52.0685C28.0066 52.0623 28.0636 52.044 28.1125 52.0134C28.1635 51.9808 28.2062 51.935 28.2409 51.8759C28.2776 51.8148 28.3081 51.7384 28.3326 51.6467C28.357 51.553 28.3764 51.443 28.3906 51.3166C28.4069 51.1903 28.4181 51.0446 28.4243 50.8796L28.4854 49.4677ZM31.517 51.1547V51.0905C31.517 50.848 31.5517 50.6249 31.621 50.4212C31.6902 50.2154 31.7911 50.0371 31.9235 49.8864C32.0559 49.7356 32.2189 49.6185 32.4125 49.5349C32.606 49.4494 32.8281 49.4066 33.0787 49.4066C33.3293 49.4066 33.5524 49.4494 33.748 49.5349C33.9436 49.6185 34.1076 49.7356 34.2401 49.8864C34.3745 50.0371 34.4764 50.2154 34.5457 50.4212C34.6149 50.6249 34.6496 50.848 34.6496 51.0905V51.1547C34.6496 51.3951 34.6149 51.6182 34.5457 51.824C34.4764 52.0277 34.3745 52.206 34.2401 52.3588C34.1076 52.5096 33.9446 52.6267 33.7511 52.7102C33.5575 52.7938 33.3354 52.8355 33.0848 52.8355C32.8342 52.8355 32.6111 52.7938 32.4155 52.7102C32.222 52.6267 32.058 52.5096 31.9235 52.3588C31.7911 52.206 31.6902 52.0277 31.621 51.824C31.5517 51.6182 31.517 51.3951 31.517 51.1547ZM32.3972 51.0905V51.1547C32.3972 51.2932 32.4094 51.4226 32.4339 51.5428C32.4583 51.663 32.497 51.769 32.55 51.8606C32.605 51.9503 32.6763 52.0206 32.7639 52.0715C32.8516 52.1224 32.9585 52.1479 33.0848 52.1479C33.2071 52.1479 33.312 52.1224 33.3996 52.0715C33.4872 52.0206 33.5575 51.9503 33.6105 51.8606C33.6635 51.769 33.7022 51.663 33.7266 51.5428C33.7531 51.4226 33.7664 51.2932 33.7664 51.1547V51.0905C33.7664 50.956 33.7531 50.8297 33.7266 50.7115C33.7022 50.5913 33.6624 50.4854 33.6074 50.3937C33.5545 50.3 33.4842 50.2266 33.3966 50.1737C33.309 50.1207 33.203 50.0942 33.0787 50.0942C32.9544 50.0942 32.8485 50.1207 32.7609 50.1737C32.6753 50.2266 32.605 50.3 32.55 50.3937C32.497 50.4854 32.4583 50.5913 32.4339 50.7115C32.4094 50.8297 32.3972 50.956 32.3972 51.0905ZM40.3156 52.0898L40.2545 53.7554H39.4355V52.7744H39.0657V52.0898H40.3156ZM35.1783 49.4677H36.0584V52.0868H36.9753V49.4677H37.8585V52.0868H38.7723V49.4677H39.6524V52.7744H35.1783V49.4677ZM42.623 52.0287V50.5557C42.623 50.4497 42.6057 50.3591 42.571 50.2837C42.5364 50.2063 42.4824 50.1461 42.4091 50.1034C42.3378 50.0606 42.2451 50.0392 42.131 50.0392C42.0332 50.0392 41.9486 50.0565 41.8773 50.0911C41.806 50.1237 41.751 50.1716 41.7123 50.2348C41.6736 50.2959 41.6542 50.3682 41.6542 50.4518H40.774C40.774 50.3112 40.8066 50.1777 40.8718 50.0514C40.937 49.9251 41.0318 49.8141 41.1561 49.7183C41.2803 49.6205 41.428 49.5441 41.5992 49.4891C41.7724 49.4341 41.9659 49.4066 42.1799 49.4066C42.4366 49.4066 42.6648 49.4494 42.8644 49.5349C43.0641 49.6205 43.221 49.7489 43.3351 49.92C43.4512 50.0911 43.5093 50.3051 43.5093 50.5618V51.9768C43.5093 52.1581 43.5205 52.3068 43.5429 52.423C43.5653 52.5371 43.5979 52.6369 43.6407 52.7225V52.7744H42.7513C42.7086 52.6848 42.676 52.5727 42.6536 52.4382C42.6332 52.3017 42.623 52.1652 42.623 52.0287ZM42.7391 50.7604L42.7452 51.2586H42.2532C42.1371 51.2586 42.0362 51.2718 41.9506 51.2983C41.8651 51.3248 41.7948 51.3625 41.7398 51.4114C41.6848 51.4582 41.644 51.5133 41.6175 51.5764C41.5931 51.6396 41.5809 51.7088 41.5809 51.7842C41.5809 51.8596 41.5982 51.9279 41.6328 51.989C41.6674 52.0481 41.7174 52.0949 41.7826 52.1296C41.8478 52.1622 41.9242 52.1785 42.0118 52.1785C42.1442 52.1785 42.2593 52.152 42.3571 52.099C42.4549 52.046 42.5303 51.9808 42.5833 51.9034C42.6383 51.826 42.6668 51.7527 42.6688 51.6834L42.9011 52.0562C42.8685 52.1398 42.8237 52.2263 42.7666 52.316C42.7116 52.4056 42.6413 52.4902 42.5558 52.5697C42.4702 52.6471 42.3673 52.7113 42.2471 52.7622C42.1269 52.8111 41.9843 52.8355 41.8192 52.8355C41.6094 52.8355 41.4189 52.7938 41.2477 52.7102C41.0786 52.6247 40.9442 52.5075 40.8443 52.3588C40.7465 52.208 40.6976 52.0369 40.6976 51.8454C40.6976 51.6722 40.7302 51.5183 40.7954 51.3839C40.8606 51.2494 40.9564 51.1363 41.0827 51.0446C41.2111 50.9509 41.371 50.8806 41.5625 50.8338C41.754 50.7849 41.9761 50.7604 42.2288 50.7604H42.7391ZM44.7837 49.4677H45.6638L45.6363 50.574C45.6282 50.9285 45.5874 51.2331 45.5141 51.4878C45.4407 51.7425 45.3429 51.9564 45.2207 52.1296C45.0985 52.3028 44.9589 52.4413 44.802 52.5452C44.6472 52.6471 44.4842 52.7235 44.313 52.7744H44.148L44.1388 52.096L44.2305 52.0868C44.3344 51.9788 44.42 51.8739 44.4872 51.772C44.5545 51.6681 44.6064 51.5591 44.6431 51.445C44.6798 51.3309 44.7062 51.2036 44.7225 51.063C44.7409 50.9224 44.7521 50.7594 44.7562 50.574L44.7837 49.4677ZM45.022 49.4677H47.2133V52.7744H46.3362V50.1737H45.022V49.4677ZM43.9463 52.0868H47.687V53.7677H46.8068V52.7744H44.8478V53.7677H43.9463V52.0868ZM49.0378 49.4677V52.7744H48.1576V49.4677H49.0378ZM51.1862 49.4677L49.7621 51.5367H48.8819L48.775 50.7238H49.3587L50.0708 49.4677H51.1862ZM50.1105 52.7744L49.2976 51.3778L50.0646 50.953L51.2902 52.7744H50.1105ZM52.4973 51.5459L53.6067 49.4677H54.4869V52.7744H53.6067V50.6932L52.4973 52.7744H51.6172V49.4677H52.4973V51.5459Z" fill="#6695E2"/>
<g clip-path="url(#clip0_85_252)">
<path d="M94.8594 52.2407H100.982V52.9988H94.8594V52.2407ZM95.6174 49.8499H96.3755V51.8617H95.6174V49.8499ZM96.7837 48.3046H97.5418V51.8617H96.7837V48.3046ZM97.9208 49.4417H98.6789V51.8325H97.9208V49.4417ZM99.0579 47.1675H99.816V51.8617H99.0579V47.1675Z" fill="#6695E2"/>
</g>
<g clip-path="url(#clip1_85_252)">
<path d="M102.835 49.5684L104.621 51.5792L106.411 49.5684H102.835Z" fill="#6992CC"/>
</g>
<g clip-path="url(#clip2_85_252)">
<path d="M138.606 49.414H137.965C137.79 48.2769 136.886 47.373 135.749 47.1981V46.5566H134.932V47.1981C133.795 47.373 132.891 48.2769 132.716 49.414H132.046V50.2304H132.687C132.862 51.3675 133.766 52.2713 134.903 52.4463V53.0877H135.72V52.4463C136.857 52.2713 137.761 51.3675 137.936 50.2304H138.577V49.414H138.606ZM137.119 49.414H136.478C136.361 49.0641 136.07 48.7725 135.72 48.6559V48.0145C136.419 48.1894 136.944 48.7142 137.119 49.414ZM135.311 50.2304C135.078 50.2304 134.903 50.0554 134.903 49.8222C134.903 49.5889 135.078 49.414 135.311 49.414C135.545 49.414 135.72 49.5889 135.72 49.8222C135.72 50.0554 135.545 50.2304 135.311 50.2304ZM134.903 48.0145V48.6559C134.553 48.7725 134.262 49.0641 134.145 49.414H133.504C133.679 48.7142 134.203 48.1894 134.903 48.0145ZM133.504 50.2304H134.145C134.262 50.5802 134.553 50.8427 134.903 50.9884V51.6299C134.203 51.4549 133.679 50.9301 133.504 50.2304ZM135.72 51.6299V50.9884C136.07 50.8718 136.332 50.5802 136.478 50.2304H137.119C136.944 50.9301 136.419 51.4549 135.72 51.6299Z" fill="#27C58B"/>
</g>
<g clip-path="url(#clip3_85_252)">
<path d="M169.914 48.5669V52.678C169.914 52.9112 170.089 53.0862 170.322 53.0862H174.025C174.258 53.0862 174.433 52.9112 174.433 52.678V48.5669H169.914ZM171.168 52.2698H170.76V49.3833H171.168V52.2698ZM171.984 52.2698H171.576V49.3833H171.984V52.2698ZM172.801 52.2698H172.392V49.3833H172.801V52.2698ZM173.617 52.2698H173.209V49.3833H173.617V52.2698Z" fill="#6695E2"/>
<path d="M174.55 47.3149H173.209V46.8193C173.209 46.6443 173.063 46.4985 172.888 46.4985H171.459C171.284 46.4985 171.168 46.6443 171.168 46.8193V47.3149H169.827C169.652 47.3149 169.506 47.4607 169.506 47.6356V48.1605H174.871V47.6356C174.871 47.4607 174.725 47.3149 174.55 47.3149ZM172.801 47.3149H171.576V46.9067H172.801V47.3149Z" fill="#6695E2"/>
</g>
<mask id="path-10-inside-1_85_252" fill="white">
<path d="M21.2627 56.9849H154.06V70.3899H21.2627V56.9849Z"/>
</mask>
<path d="M21.2627 56.9849H154.06V70.3899H21.2627V56.9849Z" fill="#F5F5F5"/>
<path d="M154.06 70.3899V69.9428H21.2627V70.3899V70.837H154.06V70.3899Z" fill="#F5F5F5" mask="url(#path-10-inside-1_85_252)"/>
<path d="M26.9436 63.7466L28.9179 60.5469H29.685V64.9966H28.9179V61.7938L26.9436 64.9966H26.1796V60.5469H26.9436V63.7466ZM32.0657 61.6899V64.9966H31.3261V61.6899H32.0657ZM33.1506 61.6899V62.2705H30.2595V61.6899H33.1506ZM33.3859 63.3799V63.3096C33.3859 63.0712 33.4206 62.8502 33.4898 62.6464C33.5591 62.4406 33.6589 62.2624 33.7893 62.1116C33.9218 61.9588 34.0827 61.8406 34.2722 61.7571C34.4637 61.6715 34.6797 61.6287 34.9201 61.6287C35.1626 61.6287 35.3785 61.6715 35.568 61.7571C35.7595 61.8406 35.9215 61.9588 36.0539 62.1116C36.1864 62.2624 36.2872 62.4406 36.3565 62.6464C36.4257 62.8502 36.4604 63.0712 36.4604 63.3096V63.3799C36.4604 63.6183 36.4257 63.8393 36.3565 64.0431C36.2872 64.2468 36.1864 64.4251 36.0539 64.5779C35.9215 64.7287 35.7605 64.8468 35.5711 64.9324C35.3816 65.0159 35.1666 65.0577 34.9262 65.0577C34.6838 65.0577 34.4668 65.0159 34.2753 64.9324C34.0858 64.8468 33.9248 64.7287 33.7924 64.5779C33.66 64.4251 33.5591 64.2468 33.4898 64.0431C33.4206 63.8393 33.3859 63.6183 33.3859 63.3799ZM34.1225 63.3096V63.3799C34.1225 63.5286 34.1377 63.6692 34.1683 63.8016C34.1989 63.9341 34.2467 64.0502 34.3119 64.15C34.3771 64.2499 34.4607 64.3283 34.5625 64.3854C34.6644 64.4424 34.7856 64.4709 34.9262 64.4709C35.0627 64.4709 35.1809 64.4424 35.2807 64.3854C35.3826 64.3283 35.4661 64.2499 35.5313 64.15C35.5965 64.0502 35.6444 63.9341 35.675 63.8016C35.7076 63.6692 35.7239 63.5286 35.7239 63.3799V63.3096C35.7239 63.1629 35.7076 63.0244 35.675 62.894C35.6444 62.7615 35.5955 62.6444 35.5283 62.5425C35.4631 62.4406 35.3795 62.3612 35.2777 62.3041C35.1778 62.2451 35.0586 62.2155 34.9201 62.2155C34.7816 62.2155 34.6613 62.2451 34.5595 62.3041C34.4596 62.3612 34.3771 62.4406 34.3119 62.5425C34.2467 62.6444 34.1989 62.7615 34.1683 62.894C34.1377 63.0244 34.1225 63.1629 34.1225 63.3096ZM39.2781 61.6899V62.2766H37.8356V64.9966H37.0991V61.6899H39.2781ZM39.5043 63.3799V63.3096C39.5043 63.0712 39.5389 62.8502 39.6082 62.6464C39.6775 62.4406 39.7773 62.2624 39.9077 62.1116C40.0401 61.9588 40.2011 61.8406 40.3906 61.7571C40.5821 61.6715 40.798 61.6287 41.0385 61.6287C41.2809 61.6287 41.4969 61.6715 41.6864 61.7571C41.8779 61.8406 42.0398 61.9588 42.1723 62.1116C42.3047 62.2624 42.4056 62.4406 42.4748 62.6464C42.5441 62.8502 42.5787 63.0712 42.5787 63.3096V63.3799C42.5787 63.6183 42.5441 63.8393 42.4748 64.0431C42.4056 64.2468 42.3047 64.4251 42.1723 64.5779C42.0398 64.7287 41.8789 64.8468 41.6894 64.9324C41.4999 65.0159 41.285 65.0577 41.0446 65.0577C40.8021 65.0577 40.5851 65.0159 40.3936 64.9324C40.2041 64.8468 40.0432 64.7287 39.9107 64.5779C39.7783 64.4251 39.6775 64.2468 39.6082 64.0431C39.5389 63.8393 39.5043 63.6183 39.5043 63.3799ZM40.2408 63.3096V63.3799C40.2408 63.5286 40.2561 63.6692 40.2866 63.8016C40.3172 63.9341 40.3651 64.0502 40.4303 64.15C40.4955 64.2499 40.579 64.3283 40.6809 64.3854C40.7828 64.4424 40.904 64.4709 41.0446 64.4709C41.1811 64.4709 41.2992 64.4424 41.3991 64.3854C41.5009 64.3283 41.5845 64.2499 41.6497 64.15C41.7149 64.0502 41.7628 63.9341 41.7933 63.8016C41.8259 63.6692 41.8422 63.5286 41.8422 63.3799V63.3096C41.8422 63.1629 41.8259 63.0244 41.7933 62.894C41.7628 62.7615 41.7139 62.6444 41.6466 62.5425C41.5814 62.4406 41.4979 62.3612 41.396 62.3041C41.2962 62.2451 41.177 62.2155 41.0385 62.2155C40.8999 62.2155 40.7797 62.2451 40.6778 62.3041C40.578 62.3612 40.4955 62.4406 40.4303 62.5425C40.3651 62.6444 40.3172 62.7615 40.2866 62.894C40.2561 63.0244 40.2408 63.1629 40.2408 63.3096ZM45.5157 63.9208L46.8145 61.6899H47.551V64.9966H46.8145V62.7626L45.5157 64.9966H44.7791V61.6899H45.5157V63.9208ZM51.2398 64.4709C51.36 64.4709 51.468 64.4475 51.5637 64.4006C51.6615 64.3517 51.74 64.2845 51.7991 64.1989C51.8602 64.1134 51.8938 64.0145 51.8999 63.9025H52.5936C52.5896 64.1164 52.5264 64.311 52.4042 64.4862C52.2819 64.6614 52.1199 64.801 51.9182 64.9049C51.7165 65.0068 51.4934 65.0577 51.249 65.0577C50.9963 65.0577 50.7763 65.0149 50.5888 64.9293C50.4014 64.8417 50.2455 64.7215 50.1212 64.5687C49.997 64.4159 49.9032 64.2397 49.8401 64.04C49.779 63.8403 49.7484 63.6264 49.7484 63.3982V63.2913C49.7484 63.0631 49.779 62.8491 49.8401 62.6495C49.9032 62.4478 49.997 62.2705 50.1212 62.1177C50.2455 61.9649 50.4014 61.8457 50.5888 61.7601C50.7763 61.6725 50.9953 61.6287 51.2459 61.6287C51.5108 61.6287 51.743 61.6817 51.9427 61.7877C52.1424 61.8916 52.2992 62.0372 52.4133 62.2247C52.5295 62.4101 52.5896 62.6261 52.5936 62.8726H51.8999C51.8938 62.7503 51.8632 62.6403 51.8082 62.5425C51.7553 62.4427 51.6799 62.3632 51.5821 62.3041C51.4863 62.2451 51.3712 62.2155 51.2367 62.2155C51.088 62.2155 50.9647 62.2461 50.8669 62.3072C50.7691 62.3663 50.6927 62.4478 50.6377 62.5517C50.5827 62.6536 50.543 62.7687 50.5185 62.897C50.4961 63.0233 50.4849 63.1548 50.4849 63.2913V63.3982C50.4849 63.5347 50.4961 63.6672 50.5185 63.7955C50.541 63.9239 50.5797 64.039 50.6347 64.1409C50.6917 64.2407 50.7691 64.3212 50.8669 64.3823C50.9647 64.4414 51.089 64.4709 51.2398 64.4709ZM53.8986 62.3255V66.2679H53.1621V61.6899H53.8405L53.8986 62.3255ZM56.0532 63.3127V63.3768C56.0532 63.6173 56.0247 63.8403 55.9676 64.0461C55.9126 64.2499 55.8301 64.4281 55.7201 64.5809C55.6121 64.7317 55.4786 64.8489 55.3197 64.9324C55.1608 65.0159 54.9774 65.0577 54.7696 65.0577C54.5638 65.0577 54.3835 65.02 54.2287 64.9446C54.0759 64.8672 53.9465 64.7582 53.8405 64.6176C53.7346 64.477 53.649 64.312 53.5838 64.1225C53.5207 63.931 53.4758 63.7212 53.4494 63.493V63.2454C53.4758 63.003 53.5207 62.7829 53.5838 62.5853C53.649 62.3877 53.7346 62.2175 53.8405 62.0749C53.9465 61.9323 54.0759 61.8223 54.2287 61.7449C54.3815 61.6674 54.5598 61.6287 54.7635 61.6287C54.9713 61.6287 55.1557 61.6695 55.3167 61.751C55.4776 61.8304 55.6131 61.9445 55.7231 62.0933C55.8331 62.24 55.9157 62.4172 55.9707 62.625C56.0257 62.8308 56.0532 63.06 56.0532 63.3127ZM55.3167 63.3768V63.3127C55.3167 63.1599 55.3024 63.0183 55.2739 62.8879C55.2453 62.7554 55.2005 62.6393 55.1394 62.5395C55.0783 62.4396 54.9998 62.3622 54.9041 62.3072C54.8104 62.2501 54.6973 62.2216 54.5648 62.2216C54.4345 62.2216 54.3224 62.244 54.2287 62.2889C54.135 62.3316 54.0565 62.3917 53.9934 62.4692C53.9302 62.5466 53.8813 62.6373 53.8467 62.7412C53.812 62.843 53.7876 62.9541 53.7733 63.0743V63.6672C53.7978 63.8139 53.8395 63.9483 53.8986 64.0706C53.9577 64.1928 54.0412 64.2906 54.1492 64.364C54.2592 64.4353 54.3998 64.4709 54.571 64.4709C54.7034 64.4709 54.8165 64.4424 54.9102 64.3854C55.0039 64.3283 55.0803 64.2499 55.1394 64.15C55.2005 64.0482 55.2453 63.931 55.2739 63.7986C55.3024 63.6662 55.3167 63.5256 55.3167 63.3768ZM58.1375 65.0577C57.893 65.0577 57.6719 65.018 57.4743 64.9385C57.2787 64.857 57.1116 64.7439 56.9731 64.5993C56.8366 64.4546 56.7316 64.2845 56.6583 64.0889C56.5849 63.8933 56.5483 63.6824 56.5483 63.4563V63.3341C56.5483 63.0753 56.586 62.841 56.6613 62.6311C56.7367 62.4213 56.8417 62.242 56.9761 62.0933C57.1106 61.9425 57.2695 61.8274 57.4529 61.7479C57.6362 61.6685 57.8349 61.6287 58.0488 61.6287C58.2852 61.6287 58.492 61.6685 58.6692 61.7479C58.8465 61.8274 58.9932 61.9394 59.1093 62.0841C59.2275 62.2267 59.3151 62.3968 59.3721 62.5945C59.4312 62.7921 59.4608 63.0101 59.4608 63.2485V63.5633H56.9058V63.0346H58.7334V62.9765C58.7293 62.8441 58.7028 62.7198 58.6539 62.6036C58.6071 62.4875 58.5347 62.3938 58.437 62.3225C58.3392 62.2512 58.2088 62.2155 58.0458 62.2155C57.9235 62.2155 57.8145 62.242 57.7188 62.295C57.625 62.3459 57.5466 62.4203 57.4834 62.5181C57.4203 62.6159 57.3714 62.734 57.3367 62.8726C57.3042 63.0091 57.2879 63.1629 57.2879 63.3341V63.4563C57.2879 63.601 57.3072 63.7354 57.3459 63.8597C57.3867 63.9819 57.4458 64.0889 57.5232 64.1806C57.6006 64.2723 57.6943 64.3446 57.8043 64.3976C57.9144 64.4485 58.0397 64.474 58.1802 64.474C58.3575 64.474 58.5154 64.4383 58.6539 64.367C58.7925 64.2957 58.9127 64.1949 59.0146 64.0645L59.4027 64.4404C59.3314 64.5443 59.2387 64.6441 59.1246 64.7399C59.0105 64.8336 58.8709 64.91 58.7059 64.9691C58.5429 65.0282 58.3534 65.0577 58.1375 65.0577ZM60.6343 61.6899H61.3708L61.3342 62.8542C61.324 63.1925 61.2853 63.4828 61.218 63.7252C61.1508 63.9677 61.0632 64.1724 60.9552 64.3395C60.8472 64.5045 60.725 64.64 60.5885 64.746C60.454 64.8519 60.3124 64.9355 60.1637 64.9966H59.9467V64.4159L60.0506 64.4098C60.1382 64.3161 60.2136 64.2224 60.2767 64.1286C60.3419 64.0329 60.3969 63.928 60.4418 63.8139C60.4866 63.6977 60.5212 63.5622 60.5457 63.4074C60.5722 63.2526 60.5895 63.0682 60.5976 62.8542L60.6343 61.6899ZM60.8299 61.6899H62.9264V64.9966H62.1929V62.3133H60.8299V61.6899ZM59.7786 64.4098H63.3787V65.9807H62.6422V64.9966H60.5243V65.9807H59.7755L59.7786 64.4098ZM66.1445 63.0712V63.6519H64.4331V63.0712H66.1445ZM64.647 61.6899V64.9966H63.9105V61.6899H64.647ZM66.6763 61.6899V64.9966H65.9397V61.6899H66.6763ZM68.9194 65.0577C68.675 65.0577 68.4539 65.018 68.2563 64.9385C68.0607 64.857 67.8936 64.7439 67.7551 64.5993C67.6186 64.4546 67.5136 64.2845 67.4403 64.0889C67.3669 63.8933 67.3303 63.6824 67.3303 63.4563V63.3341C67.3303 63.0753 67.368 62.841 67.4433 62.6311C67.5187 62.4213 67.6237 62.242 67.7581 62.0933C67.8926 61.9425 68.0515 61.8274 68.2349 61.7479C68.4182 61.6685 68.6169 61.6287 68.8308 61.6287C69.0672 61.6287 69.274 61.6685 69.4512 61.7479C69.6285 61.8274 69.7752 61.9394 69.8913 62.0841C70.0095 62.2267 70.0971 62.3968 70.1541 62.5945C70.2132 62.7921 70.2427 63.0101 70.2427 63.2485V63.5633H67.6878V63.0346H69.5154V62.9765C69.5113 62.8441 69.4848 62.7198 69.4359 62.6036C69.3891 62.4875 69.3167 62.3938 69.2189 62.3225C69.1212 62.2512 68.9908 62.2155 68.8278 62.2155C68.7055 62.2155 68.5965 62.242 68.5008 62.295C68.407 62.3459 68.3286 62.4203 68.2654 62.5181C68.2023 62.6159 68.1534 62.734 68.1187 62.8726C68.0861 63.0091 68.0698 63.1629 68.0698 63.3341V63.4563C68.0698 63.601 68.0892 63.7354 68.1279 63.8597C68.1687 63.9819 68.2277 64.0889 68.3052 64.1806C68.3826 64.2723 68.4763 64.3446 68.5863 64.3976C68.6963 64.4485 68.8217 64.474 68.9622 64.474C69.1395 64.474 69.2974 64.4383 69.4359 64.367C69.5745 64.2957 69.6947 64.1949 69.7966 64.0645L70.1847 64.4404C70.1134 64.5443 70.0207 64.6441 69.9066 64.7399C69.7925 64.8336 69.6529 64.91 69.4879 64.9691C69.3249 65.0282 69.1354 65.0577 68.9194 65.0577ZM72.2751 65.0577C72.0306 65.0577 71.8095 65.018 71.6119 64.9385C71.4163 64.857 71.2492 64.7439 71.1107 64.5993C70.9742 64.4546 70.8693 64.2845 70.7959 64.0889C70.7226 63.8933 70.6859 63.6824 70.6859 63.4563V63.3341C70.6859 63.0753 70.7236 62.841 70.799 62.6311C70.8743 62.4213 70.9793 62.242 71.1137 62.0933C71.2482 61.9425 71.4071 61.8274 71.5905 61.7479C71.7739 61.6685 71.9725 61.6287 72.1864 61.6287C72.4228 61.6287 72.6296 61.6685 72.8068 61.7479C72.9841 61.8274 73.1308 61.9394 73.2469 62.0841C73.3651 62.2267 73.4527 62.3968 73.5097 62.5945C73.5688 62.7921 73.5984 63.0101 73.5984 63.2485V63.5633H71.0435V63.0346H72.871V62.9765C72.8669 62.8441 72.8405 62.7198 72.7916 62.6036C72.7447 62.4875 72.6724 62.3938 72.5746 62.3225C72.4768 62.2512 72.3464 62.2155 72.1834 62.2155C72.0611 62.2155 71.9521 62.242 71.8564 62.295C71.7627 62.3459 71.6842 62.4203 71.6211 62.5181C71.5579 62.6159 71.509 62.734 71.4744 62.8726C71.4418 63.0091 71.4255 63.1629 71.4255 63.3341V63.4563C71.4255 63.601 71.4448 63.7354 71.4835 63.8597C71.5243 63.9819 71.5834 64.0889 71.6608 64.1806C71.7382 64.2723 71.8319 64.3446 71.942 64.3976C72.052 64.4485 72.1773 64.474 72.3179 64.474C72.4951 64.474 72.653 64.4383 72.7916 64.367C72.9301 64.2957 73.0503 64.1949 73.1522 64.0645L73.5403 64.4404C73.469 64.5443 73.3763 64.6441 73.2622 64.7399C73.1481 64.8336 73.0085 64.91 72.8435 64.9691C72.6805 65.0282 72.491 65.0577 72.2751 65.0577ZM74.1821 64.6298C74.1821 64.5158 74.2208 64.42 74.2982 64.3426C74.3756 64.2631 74.4806 64.2234 74.613 64.2234C74.7475 64.2234 74.8524 64.2631 74.9278 64.3426C75.0052 64.42 75.0439 64.5158 75.0439 64.6298C75.0439 64.7439 75.0052 64.8397 74.9278 64.9171C74.8524 64.9945 74.7475 65.0333 74.613 65.0333C74.4806 65.0333 74.3756 64.9945 74.2982 64.9171C74.2208 64.8397 74.1821 64.7439 74.1821 64.6298ZM74.1851 62.026C74.1851 61.9119 74.2239 61.8162 74.3013 61.7388C74.3787 61.6593 74.4836 61.6196 74.6161 61.6196C74.7505 61.6196 74.8555 61.6593 74.9308 61.7388C75.0083 61.8162 75.047 61.9119 75.047 62.026C75.047 62.1401 75.0083 62.2359 74.9308 62.3133C74.8555 62.3907 74.7505 62.4294 74.6161 62.4294C74.4836 62.4294 74.3787 62.3907 74.3013 62.3133C74.2239 62.2359 74.1851 62.1401 74.1851 62.026Z" fill="#4F5A7C"/>
<mask id="path-13-inside-2_85_252" fill="white">
<path d="M80.5635 56.9849H120.694V70.3899H80.5635V56.9849Z"/>
</mask>
<path d="M80.5635 56.9849H120.694V70.3899H80.5635V56.9849Z" fill="#F5F5F5"/>
<path d="M120.694 70.3899V69.9428H80.5635V70.3899V70.837H120.694V70.3899Z" fill="#F5F5F5" mask="url(#path-13-inside-2_85_252)"/>
<path d="M98.5649 63.7833C98.5649 64.0604 98.5007 64.2937 98.3724 64.4832C98.244 64.6726 98.0688 64.8163 97.8467 64.9141C97.6267 65.0098 97.3781 65.0577 97.101 65.0577C96.8239 65.0577 96.5743 65.0098 96.3523 64.9141C96.1302 64.8163 95.955 64.6726 95.8266 64.4832C95.6982 64.2937 95.6341 64.0604 95.6341 63.7833C95.6341 63.5999 95.6697 63.4339 95.741 63.2852C95.8123 63.1344 95.9132 63.005 96.0436 62.897C96.176 62.787 96.3309 62.7025 96.5081 62.6434C96.6874 62.5843 96.883 62.5547 97.0949 62.5547C97.3761 62.5547 97.6277 62.6067 97.8498 62.7106C98.0718 62.8145 98.246 62.9581 98.3724 63.1415C98.5007 63.3249 98.5649 63.5388 98.5649 63.7833ZM97.8253 63.7466C97.8253 63.5979 97.7947 63.4675 97.7336 63.3554C97.6725 63.2434 97.5869 63.1568 97.4769 63.0957C97.3669 63.0346 97.2395 63.004 97.0949 63.004C96.9482 63.004 96.8209 63.0346 96.7129 63.0957C96.6049 63.1568 96.5203 63.2434 96.4592 63.3554C96.4001 63.4675 96.3706 63.5979 96.3706 63.7466C96.3706 63.8974 96.4001 64.0278 96.4592 64.1378C96.5183 64.2458 96.6029 64.3283 96.7129 64.3854C96.8229 64.4424 96.9523 64.4709 97.101 64.4709C97.2497 64.4709 97.3781 64.4424 97.4861 64.3854C97.5941 64.3283 97.6776 64.2458 97.7367 64.1378C97.7958 64.0278 97.8253 63.8974 97.8253 63.7466ZM98.464 61.7174C98.464 61.9394 98.4049 62.1371 98.2868 62.3103C98.1706 62.4834 98.0097 62.6199 97.8039 62.7198C97.5981 62.8176 97.3638 62.8665 97.101 62.8665C96.8361 62.8665 96.5998 62.8176 96.392 62.7198C96.1862 62.6199 96.0242 62.4834 95.9061 62.3103C95.7899 62.1371 95.7319 61.9394 95.7319 61.7174C95.7319 61.4525 95.7899 61.2294 95.9061 61.0481C96.0242 60.8647 96.1862 60.7251 96.392 60.6294C96.5978 60.5336 96.8331 60.4857 97.0979 60.4857C97.3628 60.4857 97.5981 60.5336 97.8039 60.6294C98.0097 60.7251 98.1706 60.8647 98.2868 61.0481C98.4049 61.2294 98.464 61.4525 98.464 61.7174ZM97.7275 61.7418C97.7275 61.6094 97.701 61.4932 97.6481 61.3934C97.5971 61.2915 97.5248 61.2121 97.4311 61.155C97.3373 61.098 97.2263 61.0695 97.0979 61.0695C96.9696 61.0695 96.8586 61.097 96.7648 61.152C96.6711 61.207 96.5988 61.2844 96.5478 61.3842C96.4969 61.4841 96.4714 61.6033 96.4714 61.7418C96.4714 61.8783 96.4969 61.9975 96.5478 62.0994C96.5988 62.1992 96.6711 62.2777 96.7648 62.3347C96.8606 62.3917 96.9726 62.4203 97.101 62.4203C97.2294 62.4203 97.3404 62.3917 97.4341 62.3347C97.5278 62.2777 97.6002 62.1992 97.6511 62.0994C97.702 61.9975 97.7275 61.8783 97.7275 61.7418ZM100.078 62.4386H100.518C100.689 62.4386 100.83 62.4091 100.943 62.35C101.057 62.2909 101.141 62.2094 101.196 62.1055C101.251 62.0016 101.279 61.8824 101.279 61.7479C101.279 61.6073 101.253 61.4871 101.202 61.3873C101.153 61.2854 101.078 61.207 100.976 61.152C100.876 61.097 100.749 61.0695 100.594 61.0695C100.464 61.0695 100.346 61.096 100.24 61.1489C100.136 61.1999 100.053 61.2732 99.9921 61.369C99.931 61.4627 99.9004 61.5747 99.9004 61.7051H99.1608C99.1608 61.4688 99.223 61.2589 99.3473 61.0756C99.4715 60.8922 99.6406 60.7486 99.8546 60.6447C100.071 60.5387 100.313 60.4857 100.582 60.4857C100.869 60.4857 101.12 60.5336 101.334 60.6294C101.55 60.7231 101.718 60.8637 101.838 61.0511C101.958 61.2386 102.018 61.4708 102.018 61.7479C102.018 61.8742 101.989 62.0026 101.93 62.133C101.871 62.2634 101.783 62.3826 101.667 62.4906C101.551 62.5965 101.406 62.6831 101.233 62.7503C101.06 62.8155 100.859 62.8481 100.631 62.8481H100.078V62.4386ZM100.078 63.0132V62.6098H100.631C100.892 62.6098 101.114 62.6403 101.297 62.7014C101.482 62.7626 101.633 62.8471 101.749 62.9551C101.865 63.061 101.95 63.1823 102.003 63.3188C102.058 63.4553 102.086 63.5999 102.086 63.7527C102.086 63.9606 102.048 64.146 101.972 64.309C101.899 64.4699 101.794 64.6064 101.658 64.7185C101.521 64.8305 101.361 64.9151 101.178 64.9721C100.997 65.0292 100.799 65.0577 100.585 65.0577C100.393 65.0577 100.21 65.0312 100.035 64.9782C99.8597 64.9253 99.7028 64.8468 99.5642 64.7429C99.4257 64.637 99.3157 64.5056 99.2342 64.3487C99.1547 64.1898 99.115 64.0064 99.115 63.7986H99.8515C99.8515 63.931 99.8821 64.0482 99.9432 64.15C100.006 64.2499 100.094 64.3283 100.206 64.3854C100.32 64.4424 100.451 64.4709 100.597 64.4709C100.752 64.4709 100.886 64.4434 100.998 64.3884C101.11 64.3334 101.195 64.2519 101.254 64.1439C101.315 64.0359 101.346 63.9055 101.346 63.7527C101.346 63.5796 101.312 63.439 101.245 63.331C101.178 63.223 101.082 63.1436 100.958 63.0926C100.834 63.0396 100.687 63.0132 100.518 63.0132H100.078ZM104.995 60.5194H105.087V61.1214H105.035C104.772 61.1214 104.545 61.1622 104.353 61.2437C104.164 61.3252 104.008 61.4372 103.886 61.5798C103.763 61.7225 103.672 61.8895 103.611 62.081C103.551 62.2705 103.522 62.4722 103.522 62.6862V63.386C103.522 63.5633 103.541 63.7201 103.58 63.8566C103.619 63.9911 103.673 64.1042 103.742 64.1959C103.813 64.2855 103.895 64.3538 103.986 64.4006C104.078 64.4475 104.177 64.4709 104.283 64.4709C104.393 64.4709 104.493 64.4485 104.582 64.4037C104.672 64.3568 104.748 64.2927 104.812 64.2112C104.875 64.1297 104.923 64.0329 104.955 63.9208C104.988 63.8088 105.004 63.6865 105.004 63.5541C105.004 63.4278 104.988 63.3096 104.955 63.1996C104.925 63.0875 104.879 62.9897 104.818 62.9062C104.757 62.8206 104.68 62.7544 104.589 62.7075C104.499 62.6586 104.395 62.6342 104.277 62.6342C104.13 62.6342 103.997 62.6688 103.876 62.7381C103.758 62.8074 103.662 62.898 103.589 63.0101C103.518 63.1201 103.479 63.2373 103.473 63.3616L103.192 63.2699C103.208 63.0804 103.25 62.9103 103.317 62.7595C103.386 62.6087 103.477 62.4804 103.589 62.3744C103.701 62.2685 103.831 62.188 103.977 62.133C104.126 62.0759 104.289 62.0474 104.466 62.0474C104.682 62.0474 104.87 62.0882 105.029 62.1697C105.188 62.2512 105.319 62.3622 105.423 62.5028C105.529 62.6413 105.607 62.8002 105.658 62.9795C105.711 63.1568 105.738 63.3422 105.738 63.5358C105.738 63.7497 105.705 63.9494 105.64 64.1348C105.575 64.3181 105.479 64.4791 105.353 64.6176C105.228 64.7562 105.076 64.8642 104.897 64.9416C104.72 65.019 104.518 65.0577 104.292 65.0577C104.054 65.0577 103.841 65.0119 103.653 64.9202C103.468 64.8285 103.31 64.7022 103.18 64.5412C103.051 64.3803 102.953 64.1949 102.886 63.985C102.819 63.7752 102.785 63.5531 102.785 63.3188V63.0132C102.785 62.6749 102.828 62.3561 102.914 62.0566C102.999 61.7551 103.131 61.4892 103.308 61.2589C103.487 61.0287 103.716 60.8484 103.996 60.718C104.275 60.5856 104.608 60.5194 104.995 60.5194Z" fill="#4F5A7C"/>
<mask id="path-16-inside-3_85_252" fill="white">
<path d="M117.951 56.9849H158.082V70.3899H117.951V56.9849Z"/>
</mask>
<path d="M117.951 56.9849H158.082V70.3899H117.951V56.9849Z" fill="#F5F5F5"/>
<path d="M158.082 70.3899V69.9428H117.951V70.3899V70.837H158.082V70.3899Z" fill="#F5F5F5" mask="url(#path-16-inside-3_85_252)"/>
<path d="M133.909 62.4386H134.349C134.52 62.4386 134.662 62.4091 134.774 62.35C134.888 62.2909 134.973 62.2094 135.028 62.1055C135.083 62.0016 135.11 61.8824 135.11 61.7479C135.11 61.6073 135.085 61.4871 135.034 61.3873C134.985 61.2854 134.909 61.207 134.808 61.152C134.708 61.097 134.58 61.0695 134.425 61.0695C134.295 61.0695 134.177 61.096 134.071 61.1489C133.967 61.1999 133.885 61.2732 133.823 61.369C133.762 61.4627 133.732 61.5747 133.732 61.7051H132.992C132.992 61.4688 133.054 61.2589 133.179 61.0756C133.303 60.8922 133.472 60.7486 133.686 60.6447C133.902 60.5387 134.144 60.4857 134.413 60.4857C134.701 60.4857 134.951 60.5336 135.165 60.6294C135.381 60.7231 135.549 60.8637 135.669 61.0511C135.79 61.2386 135.85 61.4708 135.85 61.7479C135.85 61.8742 135.82 62.0026 135.761 62.133C135.702 62.2634 135.614 62.3826 135.498 62.4906C135.382 62.5965 135.237 62.6831 135.064 62.7503C134.891 62.8155 134.69 62.8481 134.462 62.8481H133.909V62.4386ZM133.909 63.0132V62.6098H134.462C134.723 62.6098 134.945 62.6403 135.128 62.7014C135.314 62.7626 135.465 62.8471 135.581 62.9551C135.697 63.061 135.781 63.1823 135.834 63.3188C135.889 63.4553 135.917 63.5999 135.917 63.7527C135.917 63.9606 135.879 64.146 135.804 64.309C135.73 64.4699 135.626 64.6064 135.489 64.7185C135.353 64.8305 135.193 64.9151 135.009 64.9721C134.828 65.0292 134.63 65.0577 134.416 65.0577C134.225 65.0577 134.041 65.0312 133.866 64.9782C133.691 64.9253 133.534 64.8468 133.396 64.7429C133.257 64.637 133.147 64.5056 133.066 64.3487C132.986 64.1898 132.946 64.0064 132.946 63.7986H133.683C133.683 63.931 133.713 64.0482 133.775 64.15C133.838 64.2499 133.925 64.3283 134.037 64.3854C134.151 64.4424 134.282 64.4709 134.429 64.4709C134.583 64.4709 134.717 64.4434 134.829 64.3884C134.941 64.3334 135.027 64.2519 135.086 64.1439C135.147 64.0359 135.177 63.9055 135.177 63.7527C135.177 63.5796 135.144 63.439 135.076 63.331C135.009 63.223 134.913 63.1436 134.789 63.0926C134.665 63.0396 134.518 63.0132 134.349 63.0132H133.909ZM138.612 60.5316V64.9966H137.876V61.4056L136.785 61.7754V61.1673L138.524 60.5316H138.612ZM143.224 63.4105V63.9972H140.015L139.991 63.5541L141.91 60.5469H142.5L141.861 61.641L140.758 63.4105H143.224ZM142.668 60.5469V64.9966H141.931V60.5469H142.668Z" fill="#4F5A7C"/>
<mask id="path-19-inside-4_85_252" fill="white">
<path d="M154.829 56.9849H194.96V70.3899H154.829V56.9849Z"/>
</mask>
<path d="M154.829 56.9849H194.96V70.3899H154.829V56.9849Z" fill="#F5F5F5"/>
<path d="M194.96 70.3899V69.9428H154.829V70.3899V70.837H194.96V70.3899Z" fill="#F5F5F5" mask="url(#path-19-inside-4_85_252)"/>
<path d="M172.986 63.4105V63.9972H169.777L169.753 63.5541L171.672 60.5469H172.262L171.623 61.641L170.52 63.4105H172.986ZM172.43 60.5469V64.9966H171.694V60.5469H172.43ZM175.703 60.5194H175.795V61.1214H175.743C175.48 61.1214 175.253 61.1622 175.061 61.2437C174.872 61.3252 174.716 61.4372 174.594 61.5798C174.472 61.7225 174.38 61.8895 174.319 62.081C174.26 62.2705 174.23 62.4722 174.23 62.6862V63.386C174.23 63.5633 174.25 63.7201 174.288 63.8566C174.327 63.9911 174.381 64.1042 174.45 64.1959C174.522 64.2855 174.603 64.3538 174.695 64.4006C174.786 64.4475 174.885 64.4709 174.991 64.4709C175.101 64.4709 175.201 64.4485 175.291 64.4037C175.38 64.3568 175.457 64.2927 175.52 64.2112C175.583 64.1297 175.631 64.0329 175.664 63.9208C175.696 63.8088 175.712 63.6865 175.712 63.5541C175.712 63.4278 175.696 63.3096 175.664 63.1996C175.633 63.0875 175.587 62.9897 175.526 62.9062C175.465 62.8206 175.388 62.7544 175.297 62.7075C175.207 62.6586 175.103 62.6342 174.985 62.6342C174.838 62.6342 174.705 62.6688 174.585 62.7381C174.467 62.8074 174.371 62.898 174.297 63.0101C174.226 63.1201 174.187 63.2373 174.181 63.3616L173.9 63.2699C173.916 63.0804 173.958 62.9103 174.025 62.7595C174.095 62.6087 174.185 62.4804 174.297 62.3744C174.41 62.2685 174.539 62.188 174.686 62.133C174.834 62.0759 174.997 62.0474 175.175 62.0474C175.391 62.0474 175.578 62.0882 175.737 62.1697C175.896 62.2512 176.027 62.3622 176.131 62.5028C176.237 62.6413 176.316 62.8002 176.366 62.9795C176.419 63.1568 176.446 63.3422 176.446 63.5358C176.446 63.7497 176.413 63.9494 176.348 64.1348C176.283 64.3181 176.187 64.4791 176.061 64.6176C175.937 64.7562 175.785 64.8642 175.605 64.9416C175.428 65.019 175.227 65.0577 175 65.0577C174.762 65.0577 174.549 65.0119 174.362 64.9202C174.176 64.8285 174.018 64.7022 173.888 64.5412C173.76 64.3803 173.662 64.1949 173.595 63.985C173.527 63.7752 173.494 63.5531 173.494 63.3188V63.0132C173.494 62.6749 173.536 62.3561 173.622 62.0566C173.708 61.7551 173.839 61.4892 174.016 61.2589C174.196 61.0287 174.425 60.8484 174.704 60.718C174.983 60.5856 175.316 60.5194 175.703 60.5194ZM177.901 62.4386H178.341C178.512 62.4386 178.653 62.4091 178.765 62.35C178.88 62.2909 178.964 62.2094 179.019 62.1055C179.074 62.0016 179.102 61.8824 179.102 61.7479C179.102 61.6073 179.076 61.4871 179.025 61.3873C178.976 61.2854 178.901 61.207 178.799 61.152C178.699 61.097 178.572 61.0695 178.417 61.0695C178.287 61.0695 178.169 61.096 178.063 61.1489C177.959 61.1999 177.876 61.2732 177.815 61.369C177.754 61.4627 177.723 61.5747 177.723 61.7051H176.984C176.984 61.4688 177.046 61.2589 177.17 61.0756C177.294 60.8922 177.464 60.7486 177.678 60.6447C177.893 60.5387 178.136 60.4857 178.405 60.4857C178.692 60.4857 178.943 60.5336 179.157 60.6294C179.373 60.7231 179.541 60.8637 179.661 61.0511C179.781 61.2386 179.841 61.4708 179.841 61.7479C179.841 61.8742 179.812 62.0026 179.753 62.133C179.694 62.2634 179.606 62.3826 179.49 62.4906C179.374 62.5965 179.229 62.6831 179.056 62.7503C178.883 62.8155 178.682 62.8481 178.454 62.8481H177.901V62.4386ZM177.901 63.0132V62.6098H178.454C178.715 62.6098 178.937 62.6403 179.12 62.7014C179.305 62.7626 179.456 62.8471 179.572 62.9551C179.688 63.061 179.773 63.1823 179.826 63.3188C179.881 63.4553 179.908 63.5999 179.908 63.7527C179.908 63.9606 179.871 64.146 179.795 64.309C179.722 64.4699 179.617 64.6064 179.481 64.7185C179.344 64.8305 179.184 64.9151 179.001 64.9721C178.819 65.0292 178.622 65.0577 178.408 65.0577C178.216 65.0577 178.033 65.0312 177.858 64.9782C177.683 64.9253 177.526 64.8468 177.387 64.7429C177.249 64.637 177.139 64.5056 177.057 64.3487C176.978 64.1898 176.938 64.0064 176.938 63.7986H177.674C177.674 63.931 177.705 64.0482 177.766 64.15C177.829 64.2499 177.917 64.3283 178.029 64.3854C178.143 64.4424 178.273 64.4709 178.42 64.4709C178.575 64.4709 178.708 64.4434 178.821 64.3884C178.933 64.3334 179.018 64.2519 179.077 64.1439C179.138 64.0359 179.169 63.9055 179.169 63.7527C179.169 63.5796 179.135 63.439 179.068 63.331C179.001 63.223 178.905 63.1436 178.781 63.0926C178.656 63.0396 178.51 63.0132 178.341 63.0132H177.901Z" fill="#4F5A7C"/>
<mask id="path-22-inside-5_85_252" fill="white">
<path d="M20.835 69.9893H154.338V83.3943H20.835V69.9893Z"/>
</mask>
<path d="M154.338 83.3943V82.9472H20.835V83.3943V83.8414H154.338V83.3943Z" fill="#F5F5F5" mask="url(#path-22-inside-5_85_252)"/>
<path d="M27.9614 74.6943H28.3007V77.9429C28.3007 78.2302 28.2457 78.4767 28.1356 78.6825C28.0276 78.8883 27.8738 79.0462 27.6742 79.1562C27.4765 79.2662 27.2432 79.3212 26.9743 79.3212C26.8378 79.3212 26.6972 79.2998 26.5526 79.257C26.4099 79.2163 26.2745 79.1531 26.1461 79.0676C26.0198 78.984 25.9118 78.8801 25.8221 78.7558L26.0269 78.5327C26.1614 78.6957 26.305 78.8149 26.4578 78.8903C26.6106 78.9677 26.7757 79.0064 26.9529 79.0064C27.1628 79.0064 27.34 78.9647 27.4847 78.8811C27.6314 78.7976 27.7424 78.6774 27.8178 78.5205C27.8952 78.3636 27.9339 78.1752 27.9339 77.9551V75.4216L27.9614 74.6943ZM25.6388 76.3812V76.3171C25.6388 76.0603 25.6673 75.8291 25.7244 75.6233C25.7834 75.4155 25.868 75.2382 25.978 75.0915C26.088 74.9428 26.2215 74.8297 26.3784 74.7523C26.5373 74.6729 26.7166 74.6331 26.9162 74.6331C27.1078 74.6331 27.2779 74.6647 27.4266 74.7279C27.5753 74.791 27.7037 74.8817 27.8117 74.9999C27.9197 75.118 28.0063 75.2586 28.0715 75.4216C28.1387 75.5846 28.1876 75.7659 28.2181 75.9656V76.7816C28.1937 76.969 28.1489 77.1412 28.0837 77.2981C28.0185 77.4529 27.9319 77.5884 27.8239 77.7045C27.7159 77.8186 27.5855 77.9073 27.4327 77.9704C27.282 78.0315 27.1078 78.0621 26.9101 78.0621C26.7125 78.0621 26.5352 78.0214 26.3784 77.9399C26.2215 77.8584 26.088 77.7432 25.978 77.5945C25.868 77.4437 25.7834 77.2655 25.7244 77.0597C25.6673 76.8539 25.6388 76.6278 25.6388 76.3812ZM26.0055 76.3171V76.3812C26.0055 76.5748 26.0249 76.7541 26.0636 76.9191C26.1023 77.0841 26.1614 77.2278 26.2408 77.35C26.3203 77.4723 26.4211 77.568 26.5434 77.6373C26.6656 77.7066 26.8093 77.7412 26.9743 77.7412C27.1842 77.7412 27.3604 77.7015 27.503 77.622C27.6456 77.5405 27.7587 77.4336 27.8422 77.3011C27.9258 77.1667 27.9869 77.02 28.0256 76.861V75.9106C28.0032 75.8026 27.9686 75.6926 27.9217 75.5805C27.8769 75.4685 27.8137 75.3656 27.7322 75.2719C27.6528 75.1761 27.5509 75.0997 27.4266 75.0427C27.3044 74.9836 27.1556 74.954 26.9804 74.954C26.8134 74.954 26.6677 74.9887 26.5434 75.0579C26.4211 75.1272 26.3203 75.224 26.2408 75.3483C26.1614 75.4705 26.1023 75.6141 26.0636 75.7792C26.0249 75.9442 26.0055 76.1235 26.0055 76.3171ZM31.2682 77.4081V75.7028C31.2682 75.5459 31.2356 75.4104 31.1704 75.2963C31.1052 75.1822 31.0094 75.0946 30.8831 75.0335C30.7568 74.9724 30.6009 74.9418 30.4155 74.9418C30.2444 74.9418 30.0916 74.9724 29.9571 75.0335C29.8246 75.0926 29.7197 75.173 29.6423 75.2749C29.5669 75.3747 29.5292 75.4858 29.5292 75.608L29.1625 75.605C29.1625 75.4807 29.1931 75.3605 29.2542 75.2444C29.3153 75.1282 29.4019 75.0243 29.5139 74.9326C29.626 74.8409 29.7595 74.7686 29.9143 74.7156C30.0712 74.6606 30.2433 74.6331 30.4308 74.6331C30.6671 74.6331 30.8749 74.6729 31.0542 74.7523C31.2356 74.8318 31.3772 74.951 31.479 75.1099C31.5809 75.2688 31.6318 75.4685 31.6318 75.7089V77.3072C31.6318 77.4213 31.64 77.5395 31.6563 77.6617C31.6746 77.784 31.7001 77.8848 31.7327 77.9643V78.001H31.3446C31.3201 77.9276 31.3008 77.8359 31.2865 77.7259C31.2743 77.6139 31.2682 77.5079 31.2682 77.4081ZM31.3537 76.0756L31.3598 76.3568H30.6417C30.4542 76.3568 30.2861 76.3741 30.1374 76.4087C29.9907 76.4413 29.8664 76.4902 29.7645 76.5554C29.6627 76.6186 29.5842 76.695 29.5292 76.7846C29.4763 76.8743 29.4498 76.9762 29.4498 77.0903C29.4498 77.2084 29.4793 77.3164 29.5384 77.4142C29.5995 77.512 29.6851 77.5904 29.7951 77.6495C29.9072 77.7066 30.0396 77.7351 30.1924 77.7351C30.3961 77.7351 30.5754 77.6974 30.7303 77.622C30.8872 77.5466 31.0165 77.4478 31.1184 77.3256C31.2203 77.2033 31.2885 77.0699 31.3232 76.9252L31.4821 77.1361C31.4556 77.238 31.4067 77.3429 31.3354 77.4509C31.2661 77.5568 31.1755 77.6567 31.0634 77.7504C30.9513 77.8421 30.8189 77.9174 30.6661 77.9765C30.5153 78.0336 30.3442 78.0621 30.1527 78.0621C29.9367 78.0621 29.7482 78.0214 29.5873 77.9399C29.4284 77.8584 29.3041 77.7473 29.2144 77.6067C29.1268 77.4641 29.083 77.3032 29.083 77.1239C29.083 76.9609 29.1177 76.8152 29.1869 76.6868C29.2562 76.5564 29.356 76.4464 29.4864 76.3568C29.6189 76.2651 29.7778 76.1958 29.9632 76.149C30.1506 76.1001 30.3605 76.0756 30.5928 76.0756H31.3537ZM32.9582 75.3788V78.001H32.5915V74.6943H32.9429L32.9582 75.3788ZM32.891 76.1429L32.7137 76.0512C32.7259 75.8556 32.7626 75.6722 32.8237 75.5011C32.8869 75.3299 32.9745 75.1792 33.0865 75.0488C33.1986 74.9184 33.3331 74.8165 33.49 74.7432C33.6468 74.6698 33.8251 74.6331 34.0248 74.6331C34.1857 74.6331 34.3314 74.6555 34.4618 74.7004C34.5942 74.7432 34.7063 74.8114 34.798 74.9051C34.8917 74.9968 34.964 75.117 35.015 75.2657C35.0659 75.4145 35.0914 75.5928 35.0914 75.8006V78.001H34.7277V75.8128C34.7277 75.5928 34.693 75.4206 34.6238 75.2963C34.5565 75.172 34.4618 75.0834 34.3396 75.0304C34.2194 74.9775 34.0798 74.951 33.9209 74.951C33.7334 74.951 33.5745 74.9897 33.4441 75.0671C33.3158 75.1425 33.2108 75.2413 33.1293 75.3635C33.0499 75.4838 32.9908 75.6131 32.9521 75.7517C32.9134 75.8882 32.893 76.0186 32.891 76.1429ZM35.0883 75.8556L34.8438 75.8617C34.854 75.7007 34.8907 75.5469 34.9538 75.4002C35.019 75.2535 35.1077 75.1231 35.2197 75.009C35.3318 74.8929 35.4652 74.8012 35.6201 74.734C35.777 74.6667 35.9532 74.6331 36.1488 74.6331C36.3199 74.6331 36.4727 74.6566 36.6072 74.7034C36.7417 74.7482 36.8547 74.8206 36.9464 74.9204C37.0402 75.0182 37.1115 75.1435 37.1604 75.2963C37.2093 75.4491 37.2337 75.6325 37.2337 75.8464V78.001H36.867V75.8434C36.867 75.6091 36.8323 75.4277 36.7631 75.2994C36.6958 75.169 36.6021 75.0783 36.4819 75.0274C36.3617 74.9764 36.2211 74.951 36.0602 74.951C35.9012 74.953 35.7617 74.9825 35.6415 75.0396C35.5213 75.0946 35.4204 75.168 35.3389 75.2596C35.2595 75.3493 35.1983 75.4461 35.1555 75.55C35.1148 75.6539 35.0924 75.7557 35.0883 75.8556ZM39.4402 78.0621C39.2243 78.0621 39.0256 78.0224 38.8443 77.9429C38.665 77.8635 38.5081 77.7514 38.3736 77.6067C38.2412 77.4621 38.1383 77.2909 38.065 77.0933C37.9937 76.8936 37.958 76.6756 37.958 76.4393V76.3079C37.958 76.0532 37.9957 75.823 38.0711 75.6172C38.1465 75.4114 38.2504 75.2352 38.3828 75.0885C38.5152 74.9418 38.666 74.8297 38.8351 74.7523C39.0063 74.6729 39.1855 74.6331 39.373 74.6331C39.5828 74.6331 39.7693 74.6708 39.9323 74.7462C40.0953 74.8196 40.2318 74.9245 40.3418 75.061C40.4538 75.1955 40.5384 75.3554 40.5954 75.5408C40.6525 75.7242 40.681 75.9269 40.681 76.149V76.3721H38.178V76.0603H40.3173V76.0176C40.3133 75.8321 40.2756 75.659 40.2043 75.498C40.135 75.335 40.0311 75.2026 39.8925 75.1007C39.754 74.9988 39.5808 74.9479 39.373 74.9479C39.2181 74.9479 39.0755 74.9805 38.9451 75.0457C38.8168 75.1109 38.7057 75.2046 38.612 75.3269C38.5203 75.4471 38.449 75.5907 38.3981 75.7578C38.3492 75.9228 38.3247 76.1062 38.3247 76.3079V76.4393C38.3247 76.6227 38.3512 76.7938 38.4042 76.9527C38.4592 77.1096 38.5366 77.2482 38.6365 77.3684C38.7383 77.4886 38.8585 77.5823 38.9971 77.6495C39.1356 77.7168 39.2884 77.7504 39.4555 77.7504C39.6511 77.7504 39.8243 77.7147 39.975 77.6434C40.1258 77.5701 40.2613 77.4549 40.3815 77.2981L40.6107 77.4753C40.5394 77.5813 40.4498 77.6791 40.3418 77.7687C40.2358 77.8584 40.1085 77.9297 39.9598 77.9826C39.811 78.0356 39.6379 78.0621 39.4402 78.0621ZM41.3686 77.7779C41.3686 77.7066 41.391 77.6465 41.4359 77.5976C41.4827 77.5466 41.5459 77.5212 41.6254 77.5212C41.7068 77.5212 41.771 77.5466 41.8179 77.5976C41.8647 77.6465 41.8882 77.7066 41.8882 77.7779C41.8882 77.8472 41.8647 77.9062 41.8179 77.9551C41.771 78.004 41.7068 78.0285 41.6254 78.0285C41.5459 78.0285 41.4827 78.004 41.4359 77.9551C41.391 77.9062 41.3686 77.8472 41.3686 77.7779ZM43.8808 77.6709L44.9107 74.6943H45.3049L43.9052 78.5327C43.8767 78.6081 43.84 78.6917 43.7952 78.7833C43.7524 78.875 43.6954 78.9626 43.6241 79.0462C43.5548 79.1317 43.4672 79.201 43.3612 79.254C43.2573 79.309 43.13 79.3365 42.9792 79.3365C42.9405 79.3365 42.8906 79.3314 42.8295 79.3212C42.7704 79.3131 42.7276 79.3049 42.7011 79.2968L42.698 78.9881C42.7205 78.9942 42.7531 78.9993 42.7958 79.0034C42.8386 79.0075 42.8682 79.0095 42.8845 79.0095C43.0169 79.0095 43.1279 78.9871 43.2176 78.9423C43.3093 78.8974 43.3857 78.8302 43.4468 78.7406C43.5079 78.6529 43.5619 78.5429 43.6088 78.4105L43.8808 77.6709ZM42.9181 74.6943L43.9725 77.5334L44.0702 77.9154L43.8044 78.0652L42.5208 74.6943H42.9181ZM47.8384 77.4081V75.7028C47.8384 75.5459 47.8058 75.4104 47.7407 75.2963C47.6755 75.1822 47.5797 75.0946 47.4534 75.0335C47.3271 74.9724 47.1712 74.9418 46.9858 74.9418C46.8146 74.9418 46.6618 74.9724 46.5274 75.0335C46.3949 75.0926 46.29 75.173 46.2126 75.2749C46.1372 75.3747 46.0995 75.4858 46.0995 75.608L45.7328 75.605C45.7328 75.4807 45.7633 75.3605 45.8245 75.2444C45.8856 75.1282 45.9722 75.0243 46.0842 74.9326C46.1963 74.8409 46.3297 74.7686 46.4846 74.7156C46.6415 74.6606 46.8136 74.6331 47.0011 74.6331C47.2374 74.6331 47.4452 74.6729 47.6245 74.7523C47.8058 74.8318 47.9474 74.951 48.0493 75.1099C48.1512 75.2688 48.2021 75.4685 48.2021 75.7089V77.3072C48.2021 77.4213 48.2103 77.5395 48.2266 77.6617C48.2449 77.784 48.2704 77.8848 48.303 77.9643V78.001H47.9148C47.8904 77.9276 47.871 77.8359 47.8568 77.7259C47.8446 77.6139 47.8384 77.5079 47.8384 77.4081ZM47.924 76.0756L47.9301 76.3568H47.2119C47.0245 76.3568 46.8564 76.3741 46.7077 76.4087C46.561 76.4413 46.4367 76.4902 46.3348 76.5554C46.233 76.6186 46.1545 76.695 46.0995 76.7846C46.0465 76.8743 46.0201 76.9762 46.0201 77.0903C46.0201 77.2084 46.0496 77.3164 46.1087 77.4142C46.1698 77.512 46.2554 77.5904 46.3654 77.6495C46.4775 77.7066 46.6099 77.7351 46.7627 77.7351C46.9664 77.7351 47.1457 77.6974 47.3006 77.622C47.4575 77.5466 47.5868 77.4478 47.6887 77.3256C47.7906 77.2033 47.8588 77.0699 47.8935 76.9252L48.0524 77.1361C48.0259 77.238 47.977 77.3429 47.9057 77.4509C47.8364 77.5568 47.7457 77.6567 47.6337 77.7504C47.5216 77.8421 47.3892 77.9174 47.2364 77.9765C47.0856 78.0336 46.9145 78.0621 46.723 78.0621C46.507 78.0621 46.3185 78.0214 46.1576 77.9399C45.9987 77.8584 45.8744 77.7473 45.7847 77.6067C45.6971 77.4641 45.6533 77.3032 45.6533 77.1239C45.6533 76.9609 45.688 76.8152 45.7572 76.6868C45.8265 76.5564 45.9263 76.4464 46.0567 76.3568C46.1892 76.2651 46.3481 76.1958 46.5335 76.149C46.7209 76.1001 46.9308 76.0756 47.163 76.0756H47.924ZM49.5468 75.4002V78.001H49.1831V74.6943H49.5315L49.5468 75.4002ZM49.4643 76.1429L49.3023 76.0512C49.3146 75.8556 49.3543 75.6722 49.4215 75.5011C49.4888 75.3299 49.5794 75.1792 49.6935 75.0488C49.8096 74.9184 49.9451 74.8165 50.1 74.7432C50.2569 74.6698 50.43 74.6331 50.6195 74.6331C50.7845 74.6331 50.9323 74.6555 51.0627 74.7004C51.193 74.7452 51.3041 74.8165 51.3958 74.9143C51.4875 75.0121 51.5567 75.1374 51.6036 75.2902C51.6525 75.443 51.6769 75.6294 51.6769 75.8495V78.001H51.3102V75.8464C51.3102 75.6182 51.2786 75.4399 51.2155 75.3116C51.1523 75.1812 51.0627 75.0885 50.9465 75.0335C50.8304 74.9785 50.6929 74.951 50.5339 74.951C50.3587 74.951 50.2049 74.9897 50.0725 75.0671C49.9421 75.1425 49.8321 75.2413 49.7424 75.3635C49.6548 75.4838 49.5876 75.6131 49.5407 75.7517C49.4938 75.8882 49.4684 76.0186 49.4643 76.1429ZM54.7728 77.3592V73.3068H55.1395V78.001H54.7972L54.7728 77.3592ZM52.4776 76.3812V76.3171C52.4776 76.0603 52.5072 75.8291 52.5663 75.6233C52.6254 75.4155 52.7099 75.2382 52.8199 75.0915C52.932 74.9428 53.0665 74.8297 53.2233 74.7523C53.3802 74.6729 53.5575 74.6331 53.7551 74.6331C53.9487 74.6331 54.1198 74.6647 54.2685 74.7279C54.4173 74.791 54.5446 74.8817 54.6505 74.9999C54.7585 75.118 54.8451 75.2586 54.9103 75.4216C54.9775 75.5846 55.0264 75.7659 55.057 75.9656V76.7816C55.0326 76.969 54.9877 77.1412 54.9225 77.2981C54.8573 77.4529 54.7707 77.5884 54.6628 77.7045C54.5548 77.8186 54.4244 77.9073 54.2716 77.9704C54.1208 78.0315 53.9466 78.0621 53.749 78.0621C53.5534 78.0621 53.3772 78.0214 53.2203 77.9399C53.0634 77.8584 52.9299 77.7432 52.8199 77.5945C52.7099 77.4437 52.6254 77.2655 52.5663 77.0597C52.5072 76.8539 52.4776 76.6278 52.4776 76.3812ZM52.8444 76.3171V76.3812C52.8444 76.5748 52.8637 76.7541 52.9024 76.9191C52.9412 77.0841 53.0002 77.2278 53.0797 77.35C53.1592 77.4723 53.26 77.568 53.3823 77.6373C53.5045 77.7066 53.6492 77.7412 53.8162 77.7412C54.0261 77.7412 54.2023 77.7015 54.3449 77.622C54.4875 77.5405 54.6016 77.4336 54.6872 77.3011C54.7728 77.1667 54.8349 77.02 54.8736 76.861V75.9106C54.8492 75.8026 54.8135 75.6926 54.7667 75.5805C54.7198 75.4685 54.6556 75.3656 54.5741 75.2719C54.4947 75.1761 54.3928 75.0997 54.2685 75.0427C54.1463 74.9836 53.9975 74.954 53.8223 74.954C53.6532 74.954 53.5076 74.9887 53.3853 75.0579C53.2631 75.1272 53.1612 75.224 53.0797 75.3483C53.0002 75.4705 52.9412 75.6141 52.9024 75.7792C52.8637 75.9442 52.8444 76.1235 52.8444 76.3171ZM57.3797 78.0621C57.1637 78.0621 56.965 78.0224 56.7837 77.9429C56.6044 77.8635 56.4475 77.7514 56.3131 77.6067C56.1806 77.4621 56.0777 77.2909 56.0044 77.0933C55.9331 76.8936 55.8974 76.6756 55.8974 76.4393V76.3079C55.8974 76.0532 55.9351 75.823 56.0105 75.6172C56.0859 75.4114 56.1898 75.2352 56.3222 75.0885C56.4547 74.9418 56.6054 74.8297 56.7745 74.7523C56.9457 74.6729 57.125 74.6331 57.3124 74.6331C57.5223 74.6331 57.7087 74.6708 57.8717 74.7462C58.0347 74.8196 58.1712 74.9245 58.2812 75.061C58.3933 75.1955 58.4778 75.3554 58.5349 75.5408C58.5919 75.7242 58.6204 75.9269 58.6204 76.149V76.3721H56.1175V76.0603H58.2568V76.0176C58.2527 75.8321 58.215 75.659 58.1437 75.498C58.0744 75.335 57.9705 75.2026 57.832 75.1007C57.6934 74.9988 57.5202 74.9479 57.3124 74.9479C57.1576 74.9479 57.015 74.9805 56.8846 75.0457C56.7562 75.1109 56.6452 75.2046 56.5514 75.3269C56.4598 75.4471 56.3885 75.5907 56.3375 75.7578C56.2886 75.9228 56.2642 76.1062 56.2642 76.3079V76.4393C56.2642 76.6227 56.2907 76.7938 56.3436 76.9527C56.3986 77.1096 56.4761 77.2482 56.5759 77.3684C56.6778 77.4886 56.798 77.5823 56.9365 77.6495C57.0751 77.7168 57.2279 77.7504 57.3949 77.7504C57.5905 77.7504 57.7637 77.7147 57.9145 77.6434C58.0652 77.5701 58.2007 77.4549 58.3209 77.2981L58.5502 77.4753C58.4788 77.5813 58.3892 77.6791 58.2812 77.7687C58.1753 77.8584 58.0479 77.9297 57.8992 77.9826C57.7505 78.0356 57.5773 78.0621 57.3797 78.0621ZM59.4853 74.6943L60.3777 76.0298L61.2732 74.6943H61.7071L60.5855 76.314L61.753 78.001H61.3251L60.3808 76.6043L59.4395 78.001H59.0116L60.1791 76.314L59.0575 74.6943H59.4853ZM62.3581 77.7779C62.3581 77.7066 62.3805 77.6465 62.4253 77.5976C62.4722 77.5466 62.5353 77.5212 62.6148 77.5212C62.6963 77.5212 62.7605 77.5466 62.8073 77.5976C62.8542 77.6465 62.8776 77.7066 62.8776 77.7779C62.8776 77.8472 62.8542 77.9062 62.8073 77.9551C62.7605 78.004 62.6963 78.0285 62.6148 78.0285C62.5353 78.0285 62.4722 78.004 62.4253 77.9551C62.3805 77.9062 62.3581 77.8472 62.3581 77.7779ZM64.2529 75.2413V78.001H63.8892V74.6943H64.2437L64.2529 75.2413ZM65.4234 74.6698L65.4142 75.006C65.3735 74.9999 65.3337 74.9948 65.295 74.9907C65.2563 74.9866 65.2145 74.9846 65.1697 74.9846C65.0108 74.9846 64.8712 75.0141 64.751 75.0732C64.6329 75.1303 64.533 75.2107 64.4515 75.3146C64.37 75.4165 64.3079 75.5367 64.2651 75.6753C64.2223 75.8118 64.1979 75.9585 64.1918 76.1153L64.0573 76.1673C64.0573 75.9513 64.0797 75.7507 64.1245 75.5652C64.1693 75.3798 64.2376 75.2179 64.3293 75.0793C64.423 74.9387 64.5402 74.8297 64.6807 74.7523C64.8234 74.6729 64.9904 74.6331 65.1819 74.6331C65.2288 74.6331 65.2746 74.6372 65.3195 74.6454C65.3663 74.6515 65.401 74.6596 65.4234 74.6698ZM68.1158 77.2369V74.6943H68.4825V78.001H68.1311L68.1158 77.2369ZM68.183 76.6257L68.3725 76.6196C68.3725 76.8274 68.3481 77.0189 68.2992 77.1942C68.2503 77.3694 68.1739 77.5222 68.07 77.6526C67.9661 77.783 67.8316 77.8838 67.6666 77.9551C67.5015 78.0264 67.3029 78.0621 67.0706 78.0621C66.9097 78.0621 66.7619 78.0397 66.6275 77.9949C66.495 77.948 66.381 77.8747 66.2852 77.7748C66.1894 77.675 66.1151 77.5456 66.0621 77.3867C66.0112 77.2278 65.9857 77.0352 65.9857 76.8091V74.6943H66.3494V76.8152C66.3494 76.9925 66.3687 77.1402 66.4074 77.2583C66.4482 77.3765 66.5032 77.4712 66.5725 77.5426C66.6438 77.6139 66.7253 77.6648 66.817 77.6954C66.9086 77.7259 67.0075 77.7412 67.1134 77.7412C67.3823 77.7412 67.5942 77.6893 67.7491 77.5853C67.906 77.4814 68.017 77.3449 68.0822 77.1758C68.1494 77.0047 68.183 76.8213 68.183 76.6257Z" fill="#4F5A7C"/>
<mask id="path-25-inside-6_85_252" fill="white">
<path d="M80.5635 69.9893H120.694V83.3943H80.5635V69.9893Z"/>
</mask>
<path d="M120.694 83.3943V82.9472H80.5635V83.3943V83.8414H120.694V83.3943Z" fill="#F5F5F5" mask="url(#path-25-inside-6_85_252)"/>
<path d="M97.2512 73.5329V78.001H96.8875V73.9944L95.6773 74.4437V74.0983L97.1901 73.5329H97.2512ZM99.525 77.7137H99.6044C99.9284 77.7137 100.199 77.6668 100.417 77.5731C100.635 77.4774 100.81 77.3459 100.94 77.1789C101.072 77.0098 101.167 76.8121 101.224 76.586C101.281 76.3598 101.31 76.1143 101.31 75.8495V75.2291C101.31 74.9948 101.284 74.789 101.233 74.6117C101.182 74.4345 101.11 74.2868 101.016 74.1686C100.923 74.0484 100.812 73.9577 100.683 73.8966C100.557 73.8355 100.416 73.8049 100.261 73.8049C100.109 73.8049 99.9701 73.8375 99.8459 73.9027C99.7236 73.9679 99.6197 74.0586 99.5341 74.1747C99.4506 74.2888 99.3854 74.4202 99.3385 74.569C99.2937 74.7156 99.2713 74.8715 99.2713 75.0365C99.2713 75.1873 99.2917 75.334 99.3324 75.4766C99.3752 75.6172 99.4374 75.7445 99.5189 75.8586C99.6003 75.9707 99.7002 76.0603 99.8184 76.1276C99.9386 76.1928 100.077 76.2254 100.234 76.2254C100.411 76.2254 100.568 76.1918 100.705 76.1245C100.843 76.0573 100.96 75.9707 101.056 75.8647C101.154 75.7568 101.228 75.6406 101.279 75.5163C101.332 75.39 101.361 75.2678 101.365 75.1496L101.548 75.1466C101.548 75.332 101.513 75.5092 101.444 75.6783C101.377 75.8454 101.281 75.9941 101.157 76.1245C101.035 76.2529 100.891 76.3547 100.726 76.4301C100.561 76.5055 100.383 76.5432 100.191 76.5432C99.9834 76.5432 99.799 76.5025 99.638 76.421C99.4791 76.3374 99.3457 76.2254 99.2377 76.0848C99.1317 75.9422 99.0513 75.7822 98.9963 75.605C98.9412 75.4277 98.9137 75.2433 98.9137 75.0518C98.9137 74.8379 98.9433 74.6372 99.0024 74.4498C99.0635 74.2603 99.1521 74.0942 99.2682 73.9516C99.3844 73.807 99.525 73.6939 99.69 73.6124C99.8571 73.5309 100.046 73.4901 100.255 73.4901C100.494 73.4901 100.702 73.5339 100.879 73.6216C101.056 73.7071 101.203 73.8294 101.319 73.9883C101.437 74.1472 101.525 74.3346 101.582 74.5506C101.641 74.7666 101.67 75.005 101.67 75.2657V75.6172C101.67 75.88 101.65 76.1316 101.609 76.3721C101.568 76.6125 101.5 76.8346 101.404 77.0383C101.311 77.24 101.184 77.4152 101.026 77.564C100.867 77.7127 100.67 77.8288 100.436 77.9123C100.201 77.9938 99.9243 78.0346 99.6044 78.0346H99.5219L99.525 77.7137ZM103.03 75.8006L102.743 75.7181L102.96 73.5513H105.185V73.8935H103.272L103.116 75.391C103.193 75.336 103.305 75.282 103.452 75.2291C103.601 75.1741 103.768 75.1466 103.953 75.1466C104.151 75.1466 104.33 75.1802 104.491 75.2474C104.654 75.3126 104.794 75.4084 104.91 75.5347C105.026 75.659 105.116 75.8097 105.179 75.987C105.242 76.1622 105.274 76.3609 105.274 76.5829C105.274 76.7969 105.247 76.9935 105.194 77.1728C105.141 77.3521 105.061 77.5089 104.953 77.6434C104.845 77.7758 104.707 77.8787 104.54 77.9521C104.373 78.0254 104.174 78.0621 103.944 78.0621C103.767 78.0621 103.6 78.0377 103.443 77.9888C103.288 77.9378 103.15 77.8614 103.027 77.7595C102.905 77.6577 102.805 77.5293 102.728 77.3745C102.652 77.2196 102.606 77.0383 102.587 76.8305H102.939C102.963 77.0301 103.017 77.1982 103.101 77.3347C103.184 77.4712 103.296 77.5741 103.437 77.6434C103.579 77.7127 103.749 77.7473 103.944 77.7473C104.103 77.7473 104.242 77.7219 104.36 77.6709C104.48 77.62 104.58 77.5456 104.659 77.4478C104.741 77.348 104.802 77.2268 104.843 77.0841C104.885 76.9395 104.907 76.7745 104.907 76.589C104.907 76.4301 104.884 76.2845 104.84 76.152C104.795 76.0176 104.729 75.9004 104.641 75.8006C104.555 75.6987 104.449 75.6203 104.323 75.5652C104.197 75.5102 104.052 75.4827 103.889 75.4827C103.677 75.4827 103.508 75.5113 103.382 75.5683C103.258 75.6254 103.14 75.7028 103.03 75.8006Z" fill="#4F5A7C"/>
<mask id="path-28-inside-7_85_252" fill="white">
<path d="M117.951 69.9893H158.082V83.3943H117.951V69.9893Z"/>
</mask>
<path d="M158.082 83.3943V82.9472H117.951V83.3943V83.8414H158.082V83.3943Z" fill="#F5F5F5" mask="url(#path-28-inside-7_85_252)"/>
<path d="M134.644 73.5329V78.001H134.28V73.9944L133.07 74.4437V74.0983L134.583 73.5329H134.644ZM139.152 76.8213C139.152 77.0903 139.088 77.3174 138.962 77.5028C138.838 77.6882 138.669 77.8278 138.455 77.9215C138.241 78.0152 138.001 78.0621 137.737 78.0621C137.47 78.0621 137.229 78.0152 137.015 77.9215C136.801 77.8278 136.631 77.6882 136.505 77.5028C136.381 77.3174 136.319 77.0903 136.319 76.8213C136.319 76.6441 136.353 76.4831 136.422 76.3384C136.494 76.1918 136.593 76.0654 136.719 75.9595C136.847 75.8515 136.997 75.768 137.168 75.7089C137.339 75.6498 137.527 75.6203 137.73 75.6203C137.999 75.6203 138.241 75.6722 138.455 75.7761C138.669 75.878 138.838 76.0186 138.962 76.1979C139.088 76.3772 139.152 76.585 139.152 76.8213ZM138.785 76.8213C138.785 76.6318 138.739 76.4658 138.647 76.3232C138.556 76.1805 138.43 76.0705 138.271 75.9931C138.112 75.9136 137.932 75.8739 137.73 75.8739C137.527 75.8739 137.346 75.9136 137.19 75.9931C137.033 76.0705 136.909 76.1805 136.82 76.3232C136.73 76.4658 136.685 76.6318 136.685 76.8213C136.685 77.0189 136.729 77.187 136.817 77.3256C136.906 77.4641 137.031 77.569 137.19 77.6404C137.348 77.7117 137.531 77.7473 137.737 77.7473C137.942 77.7473 138.124 77.7117 138.281 77.6404C138.437 77.569 138.561 77.4641 138.65 77.3256C138.74 77.187 138.785 77.0189 138.785 76.8213ZM139.035 74.6943C139.035 74.9123 138.977 75.1068 138.861 75.278C138.747 75.4471 138.592 75.5805 138.397 75.6783C138.201 75.7741 137.98 75.822 137.734 75.822C137.485 75.822 137.262 75.7741 137.064 75.6783C136.869 75.5805 136.714 75.4471 136.6 75.278C136.488 75.1068 136.432 74.9123 136.432 74.6943C136.432 74.4355 136.488 74.2175 136.6 74.0402C136.714 73.861 136.869 73.7244 137.064 73.6307C137.26 73.537 137.482 73.4901 137.73 73.4901C137.977 73.4901 138.198 73.537 138.394 73.6307C138.591 73.7244 138.747 73.861 138.861 74.0402C138.977 74.2175 139.035 74.4355 139.035 74.6943ZM138.672 74.6912C138.672 74.518 138.63 74.3652 138.546 74.2328C138.465 74.1003 138.353 73.9964 138.21 73.9211C138.07 73.8436 137.91 73.8049 137.73 73.8049C137.549 73.8049 137.388 73.8406 137.248 73.9119C137.109 73.9832 136.999 74.0851 136.918 74.2175C136.838 74.3499 136.798 74.5078 136.798 74.6912C136.798 74.8705 136.838 75.0253 136.918 75.1557C136.999 75.2841 137.11 75.3839 137.251 75.4552C137.391 75.5265 137.552 75.5622 137.734 75.5622C137.915 75.5622 138.076 75.5265 138.216 75.4552C138.357 75.3839 138.468 75.2841 138.55 75.1557C138.631 75.0253 138.672 74.8705 138.672 74.6912ZM142.825 76.5646V76.8763H139.674V76.6655L141.731 73.5513H142.037L141.603 74.3061L140.12 76.5646H142.825ZM142.131 73.5513V78.001H141.768V73.5513H142.131Z" fill="#4F5A7C"/>
<mask id="path-31-inside-8_85_252" fill="white">
<path d="M154.829 69.9893H195.113V83.3943H154.829V69.9893Z"/>
</mask>
<path d="M195.113 83.3943V82.9472H154.829V83.3943V83.8414H195.113V83.3943Z" fill="#F5F5F5" mask="url(#path-31-inside-8_85_252)"/>
<path d="M176 76.8427C176 77.1116 175.937 77.3368 175.811 77.5181C175.685 77.6994 175.515 77.8359 175.301 77.9276C175.087 78.0173 174.848 78.0621 174.585 78.0621C174.319 78.0621 174.077 78.0173 173.861 77.9276C173.647 77.8359 173.477 77.6994 173.351 77.5181C173.227 77.3368 173.164 77.1116 173.164 76.8427C173.164 76.6675 173.2 76.5076 173.271 76.3629C173.345 76.2182 173.446 76.094 173.574 75.99C173.702 75.8861 173.852 75.8057 174.023 75.7486C174.194 75.6916 174.38 75.663 174.579 75.663C174.842 75.663 175.081 75.713 175.294 75.8128C175.51 75.9126 175.682 76.0512 175.808 76.2284C175.936 76.4036 176 76.6084 176 76.8427ZM175.832 76.858C175.832 76.6441 175.776 76.4587 175.664 76.3018C175.552 76.1449 175.401 76.0237 175.212 75.9381C175.022 75.8505 174.812 75.8067 174.579 75.8067C174.345 75.8067 174.133 75.8505 173.944 75.9381C173.754 76.0237 173.604 76.1449 173.494 76.3018C173.384 76.4587 173.329 76.6441 173.329 76.858C173.329 77.0821 173.384 77.2716 173.494 77.4264C173.604 77.5813 173.754 77.6984 173.944 77.7779C174.135 77.8573 174.349 77.8971 174.585 77.8971C174.818 77.8971 175.028 77.8573 175.215 77.7779C175.405 77.6984 175.554 77.5813 175.664 77.4264C175.776 77.2716 175.832 77.0821 175.832 76.858ZM175.872 74.682C175.872 74.9 175.814 75.0926 175.698 75.2596C175.582 75.4267 175.426 75.5571 175.23 75.6508C175.037 75.7445 174.82 75.7914 174.579 75.7914C174.335 75.7914 174.115 75.7445 173.919 75.6508C173.726 75.5571 173.572 75.4267 173.458 75.2596C173.346 75.0926 173.29 74.9 173.29 74.682C173.29 74.4233 173.346 74.2063 173.458 74.0311C173.572 73.8538 173.726 73.7194 173.919 73.6277C174.113 73.536 174.331 73.4901 174.573 73.4901C174.814 73.4901 175.032 73.536 175.227 73.6277C175.423 73.7194 175.579 73.8538 175.695 74.0311C175.813 74.2063 175.872 74.4233 175.872 74.682ZM175.707 74.6667C175.707 74.4691 175.656 74.2949 175.554 74.1442C175.452 73.9913 175.316 73.8722 175.145 73.7866C174.974 73.699 174.783 73.6552 174.573 73.6552C174.361 73.6552 174.171 73.6959 174.002 73.7774C173.833 73.8589 173.699 73.975 173.601 74.1258C173.504 74.2766 173.455 74.4569 173.455 74.6667C173.455 74.8685 173.504 75.0427 173.601 75.1893C173.699 75.334 173.833 75.4461 174.002 75.5255C174.173 75.6029 174.365 75.6417 174.579 75.6417C174.789 75.6417 174.979 75.6029 175.148 75.5255C175.319 75.4461 175.454 75.334 175.554 75.1893C175.656 75.0427 175.707 74.8685 175.707 74.6667Z" fill="#4F5A7C"/>
<mask id="path-34-inside-9_85_252" fill="white">
<path d="M20.7803 83H154.636V96.405H20.7803V83Z"/>
</mask>
<path d="M154.636 96.405V95.958H20.7803V96.405V96.8521H154.636V96.405Z" fill="#F5F5F5" mask="url(#path-34-inside-9_85_252)"/>
<path d="M26.1373 87.705V91.0117H25.7736V87.705H26.1373ZM25.7094 86.7484C25.7094 86.6792 25.7308 86.6211 25.7736 86.5742C25.8184 86.5253 25.8795 86.5009 25.9569 86.5009C26.0344 86.5009 26.0955 86.5253 26.1403 86.5742C26.1872 86.6211 26.2106 86.6792 26.2106 86.7484C26.2106 86.8157 26.1872 86.8737 26.1403 86.9226C26.0955 86.9695 26.0344 86.9929 25.9569 86.9929C25.8795 86.9929 25.8184 86.9695 25.7736 86.9226C25.7308 86.8737 25.7094 86.8157 25.7094 86.7484ZM27.5003 88.411V91.0117H27.1366V87.705H27.485L27.5003 88.411ZM27.4178 89.1536L27.2558 89.0619C27.268 88.8663 27.3077 88.683 27.375 88.5118C27.4422 88.3407 27.5329 88.1899 27.647 88.0595C27.7631 87.9291 27.8986 87.8272 28.0534 87.7539C28.2103 87.6805 28.3835 87.6439 28.573 87.6439C28.738 87.6439 28.8857 87.6663 29.0161 87.7111C29.1465 87.7559 29.2576 87.8272 29.3492 87.925C29.4409 88.0228 29.5102 88.1481 29.5571 88.3009C29.6059 88.4537 29.6304 88.6402 29.6304 88.8602V91.0117H29.2637V88.8572C29.2637 88.629 29.2321 88.4507 29.1689 88.3223C29.1058 88.1919 29.0161 88.0992 28.9 88.0442C28.7839 87.9892 28.6463 87.9617 28.4874 87.9617C28.3122 87.9617 28.1584 88.0004 28.0259 88.0778C27.8955 88.1532 27.7855 88.252 27.6959 88.3743C27.6083 88.4945 27.541 88.6239 27.4942 88.7624C27.4473 88.8989 27.4218 89.0293 27.4178 89.1536ZM31.2043 91.0117H30.8406V87.2955C30.8406 87.0693 30.8793 86.8788 30.9568 86.724C31.0362 86.5691 31.1483 86.452 31.2929 86.3725C31.4396 86.2931 31.6138 86.2533 31.8155 86.2533C31.8787 86.2533 31.9439 86.2574 32.0111 86.2656C32.0784 86.2717 32.1435 86.2849 32.2067 86.3053L32.1792 86.614C32.1283 86.5997 32.0763 86.5905 32.0233 86.5865C31.9724 86.5803 31.9123 86.5773 31.843 86.5773C31.7106 86.5773 31.5965 86.6058 31.5007 86.6629C31.405 86.7179 31.3316 86.7983 31.2807 86.9043C31.2298 87.0102 31.2043 87.1406 31.2043 87.2955V91.0117ZM31.9928 87.705V88.0045H30.2936V87.705H31.9928ZM32.4481 89.4103V89.3095C32.4481 89.069 32.4828 88.847 32.5521 88.6432C32.6213 88.4395 32.7201 88.2632 32.8485 88.1145C32.9789 87.9658 33.1348 87.8507 33.3161 87.7692C33.4974 87.6856 33.6991 87.6439 33.9212 87.6439C34.1453 87.6439 34.348 87.6856 34.5294 87.7692C34.7107 87.8507 34.8666 87.9658 34.9969 88.1145C35.1273 88.2632 35.2272 88.4395 35.2964 88.6432C35.3657 88.847 35.4004 89.069 35.4004 89.3095V89.4103C35.4004 89.6507 35.3657 89.8728 35.2964 90.0765C35.2272 90.2782 35.1273 90.4535 34.9969 90.6022C34.8686 90.7509 34.7137 90.8671 34.5324 90.9506C34.3511 91.0321 34.1494 91.0728 33.9273 91.0728C33.7032 91.0728 33.5005 91.0321 33.3191 90.9506C33.1378 90.8671 32.9819 90.7509 32.8516 90.6022C32.7212 90.4535 32.6213 90.2782 32.5521 90.0765C32.4828 89.8728 32.4481 89.6507 32.4481 89.4103ZM32.8118 89.3095V89.4103C32.8118 89.5916 32.8363 89.7638 32.8852 89.9268C32.9341 90.0878 33.0054 90.2314 33.0991 90.3577C33.1928 90.482 33.3089 90.5798 33.4475 90.6511C33.586 90.7224 33.746 90.7581 33.9273 90.7581C34.1066 90.7581 34.2645 90.7224 34.401 90.6511C34.5395 90.5798 34.6557 90.482 34.7494 90.3577C34.8431 90.2314 34.9134 90.0878 34.9603 89.9268C35.0092 89.7638 35.0336 89.5916 35.0336 89.4103V89.3095C35.0336 89.1302 35.0092 88.96 34.9603 88.7991C34.9134 88.6381 34.8421 88.4945 34.7463 88.3682C34.6526 88.2419 34.5365 88.142 34.3979 88.0687C34.2594 87.9953 34.1005 87.9587 33.9212 87.9587C33.7419 87.9587 33.583 87.9953 33.4444 88.0687C33.3079 88.142 33.1918 88.2419 33.096 88.3682C33.0023 88.4945 32.931 88.6381 32.8821 88.7991C32.8353 88.96 32.8118 89.1302 32.8118 89.3095ZM36.2347 87.705L37.1271 89.0405L38.0225 87.705H38.4565L37.3349 89.3247L38.5023 91.0117H38.0745L37.1301 89.6151L36.1888 91.0117H35.761L36.9284 89.3247L35.8068 87.705H36.2347ZM39.1074 90.7886C39.1074 90.7173 39.1298 90.6572 39.1747 90.6083C39.2215 90.5574 39.2847 90.5319 39.3641 90.5319C39.4456 90.5319 39.5098 90.5574 39.5567 90.6083C39.6035 90.6572 39.627 90.7173 39.627 90.7886C39.627 90.8579 39.6035 90.917 39.5567 90.9659C39.5098 91.0148 39.4456 91.0392 39.3641 91.0392C39.2847 91.0392 39.2215 91.0148 39.1747 90.9659C39.1298 90.917 39.1074 90.8579 39.1074 90.7886ZM42.6189 90.1682C42.6189 90.0786 42.5965 89.99 42.5517 89.9023C42.5069 89.8147 42.4203 89.7343 42.2919 89.6609C42.1656 89.5876 41.9792 89.5254 41.7326 89.4745C41.5493 89.4337 41.3853 89.3879 41.2406 89.337C41.098 89.286 40.9778 89.2249 40.88 89.1536C40.7822 89.0823 40.7078 88.9967 40.6569 88.8969C40.6059 88.797 40.5805 88.6789 40.5805 88.5424C40.5805 88.4201 40.607 88.305 40.6599 88.197C40.715 88.087 40.7924 87.9913 40.8922 87.9098C40.9941 87.8262 41.1163 87.761 41.2589 87.7142C41.4036 87.6673 41.5656 87.6439 41.7449 87.6439C41.9995 87.6439 42.2175 87.6877 42.3989 87.7753C42.5822 87.8609 42.7218 87.978 42.8176 88.1267C42.9154 88.2755 42.9643 88.4436 42.9643 88.631H42.6006C42.6006 88.5169 42.567 88.4089 42.4997 88.3071C42.4345 88.2052 42.3378 88.1216 42.2094 88.0564C42.0831 87.9913 41.9282 87.9587 41.7449 87.9587C41.5554 87.9587 41.4016 87.9872 41.2834 88.0442C41.1652 88.1013 41.0786 88.1736 41.0236 88.2612C40.9706 88.3488 40.9442 88.4395 40.9442 88.5332C40.9442 88.6066 40.9554 88.6738 40.9778 88.7349C41.0022 88.794 41.045 88.849 41.1061 88.8999C41.1693 88.9509 41.2589 88.9988 41.3751 89.0436C41.4912 89.0884 41.642 89.1322 41.8274 89.175C42.0943 89.2341 42.3123 89.3064 42.4814 89.392C42.6525 89.4755 42.7789 89.5794 42.8603 89.7037C42.9418 89.8259 42.9826 89.9747 42.9826 90.1499C42.9826 90.2864 42.9541 90.4117 42.897 90.5258C42.84 90.6379 42.7575 90.7346 42.6495 90.8161C42.5435 90.8976 42.4152 90.9608 42.2644 91.0056C42.1157 91.0504 41.9486 91.0728 41.7632 91.0728C41.4841 91.0728 41.2477 91.027 41.0542 90.9353C40.8627 90.8416 40.717 90.7193 40.6172 90.5686C40.5194 90.4158 40.4705 90.2538 40.4705 90.0827H40.8341C40.8464 90.2538 40.9004 90.3893 40.9961 90.4891C41.0919 90.5869 41.209 90.6562 41.3476 90.6969C41.4881 90.7377 41.6267 90.7581 41.7632 90.7581C41.9506 90.7581 42.1075 90.7306 42.2338 90.6755C42.3602 90.6205 42.4559 90.5482 42.5211 90.4586C42.5863 90.3689 42.6189 90.2721 42.6189 90.1682ZM45.9868 87.705H46.326V90.9537C46.326 91.2409 46.271 91.4875 46.161 91.6932C46.053 91.899 45.8992 92.0569 45.6995 92.1669C45.5019 92.277 45.2686 92.332 44.9996 92.332C44.8631 92.332 44.7225 92.3106 44.5779 92.2678C44.4353 92.227 44.2998 92.1639 44.1714 92.0783C44.0451 91.9948 43.9371 91.8909 43.8475 91.7666L44.0522 91.5435C44.1867 91.7065 44.3303 91.8257 44.4831 91.9011C44.636 91.9785 44.801 92.0172 44.9782 92.0172C45.1881 92.0172 45.3653 91.9754 45.51 91.8919C45.6567 91.8083 45.7677 91.6881 45.8431 91.5313C45.9205 91.3744 45.9593 91.1859 45.9593 90.9659V88.4324L45.9868 87.705ZM43.6641 89.392V89.3278C43.6641 89.0711 43.6926 88.8398 43.7497 88.6341C43.8088 88.4262 43.8933 88.249 44.0033 88.1023C44.1134 87.9536 44.2468 87.8405 44.4037 87.7631C44.5626 87.6836 44.7419 87.6439 44.9416 87.6439C45.1331 87.6439 45.3032 87.6755 45.4519 87.7386C45.6007 87.8018 45.729 87.8924 45.837 88.0106C45.945 88.1288 46.0316 88.2694 46.0968 88.4324C46.164 88.5953 46.2129 88.7767 46.2435 88.9763V89.7923C46.219 89.9798 46.1742 90.1519 46.109 90.3088C46.0438 90.4637 45.9572 90.5991 45.8492 90.7153C45.7413 90.8294 45.6109 90.918 45.4581 90.9812C45.3073 91.0423 45.1331 91.0728 44.9355 91.0728C44.7378 91.0728 44.5606 91.0321 44.4037 90.9506C44.2468 90.8691 44.1134 90.754 44.0033 90.6053C43.8933 90.4545 43.8088 90.2762 43.7497 90.0704C43.6926 89.8647 43.6641 89.6385 43.6641 89.392ZM44.0308 89.3278V89.392C44.0308 89.5855 44.0502 89.7648 44.0889 89.9299C44.1276 90.0949 44.1867 90.2385 44.2662 90.3608C44.3456 90.483 44.4465 90.5788 44.5687 90.648C44.691 90.7173 44.8346 90.7519 44.9996 90.7519C45.2095 90.7519 45.3857 90.7122 45.5283 90.6328C45.671 90.5513 45.784 90.4443 45.8676 90.3119C45.9511 90.1774 46.0122 90.0307 46.0509 89.8718V88.9213C46.0285 88.8133 45.9939 88.7033 45.947 88.5913C45.9022 88.4792 45.839 88.3763 45.7576 88.2826C45.6781 88.1868 45.5762 88.1104 45.4519 88.0534C45.3297 87.9943 45.181 87.9648 45.0057 87.9648C44.8387 87.9648 44.693 87.9994 44.5687 88.0687C44.4465 88.1379 44.3456 88.2347 44.2662 88.359C44.1867 88.4813 44.1276 88.6249 44.0889 88.7899C44.0502 88.9549 44.0308 89.1342 44.0308 89.3278Z" fill="#4F5A7C"/>
<mask id="path-37-inside-10_85_252" fill="white">
<path d="M80.5635 83H120.694V96.405H80.5635V83Z"/>
</mask>
<path d="M120.694 96.405V95.958H80.5635V96.405V96.8521H120.694V96.405Z" fill="#F5F5F5" mask="url(#path-37-inside-10_85_252)"/>
<path d="M97.2522 86.5442V91.0122H96.8885V87.0056L95.6783 87.4549V87.1095L97.1911 86.5442H97.2522ZM100.724 86.5442V91.0122H100.36V87.0056L99.15 87.4549V87.1095L100.663 86.5442H100.724ZM105.433 89.5758V89.8876H102.283V89.6767L104.339 86.5625H104.645L104.211 87.3174L102.729 89.5758H105.433ZM104.74 86.5625V91.0122H104.376V86.5625H104.74Z" fill="#4F5A7C"/>
<mask id="path-40-inside-11_85_252" fill="white">
<path d="M117.951 83H157.659V96.405H117.951V83Z"/>
</mask>
<path d="M157.659 96.405V95.958H117.951V96.405V96.8521H157.659V96.405Z" fill="#F5F5F5" mask="url(#path-40-inside-11_85_252)"/>
<path d="M136.11 86.5442V91.0122H135.746V87.0056L134.536 87.4549V87.1095L136.049 86.5442H136.11ZM138.696 88.5856H139.068C139.297 88.5856 139.487 88.5469 139.64 88.4695C139.795 88.3901 139.911 88.2851 139.988 88.1547C140.068 88.0243 140.108 87.8797 140.108 87.7208C140.108 87.5415 140.074 87.3846 140.007 87.2501C139.939 87.1136 139.837 87.0077 139.698 86.9323C139.562 86.8549 139.386 86.8162 139.172 86.8162C138.985 86.8162 138.818 86.8528 138.671 86.9262C138.524 86.9995 138.408 87.1044 138.323 87.241C138.237 87.3775 138.194 87.5405 138.194 87.7299H137.831C137.831 87.4875 137.889 87.2746 138.005 87.0912C138.121 86.9058 138.281 86.7611 138.485 86.6572C138.688 86.5533 138.918 86.5014 139.172 86.5014C139.435 86.5014 139.663 86.5493 139.857 86.645C140.053 86.7408 140.203 86.8803 140.309 87.0637C140.417 87.2471 140.471 87.4702 140.471 87.733C140.471 87.8675 140.442 87.9999 140.383 88.1303C140.326 88.2607 140.24 88.3788 140.126 88.4848C140.012 88.5887 139.87 88.6722 139.701 88.7354C139.532 88.7986 139.335 88.8301 139.111 88.8301H138.696V88.5856ZM138.696 88.9004V88.659H139.111C139.366 88.659 139.584 88.6885 139.765 88.7476C139.947 88.8047 140.095 88.8862 140.211 88.9921C140.33 89.096 140.416 89.2172 140.471 89.3558C140.526 89.4943 140.554 89.6431 140.554 89.802C140.554 90.0057 140.52 90.186 140.453 90.3429C140.386 90.4998 140.29 90.6332 140.166 90.7433C140.043 90.8513 139.899 90.9338 139.732 90.9908C139.567 91.0458 139.385 91.0733 139.188 91.0733C139.008 91.0733 138.833 91.0468 138.662 90.9939C138.493 90.9409 138.34 90.8625 138.204 90.7585C138.069 90.6526 137.962 90.5202 137.883 90.3613C137.803 90.2003 137.763 90.0149 137.763 89.805H138.127C138.127 89.9925 138.172 90.1585 138.262 90.3032C138.351 90.4458 138.476 90.5579 138.634 90.6394C138.795 90.7188 138.98 90.7585 139.188 90.7585C139.397 90.7585 139.577 90.7229 139.726 90.6516C139.876 90.5782 139.991 90.4713 140.071 90.3307C140.15 90.1901 140.19 90.0179 140.19 89.8142C140.19 89.6003 140.142 89.4261 140.046 89.2916C139.953 89.1571 139.821 89.0583 139.652 88.9952C139.485 88.932 139.291 88.9004 139.068 88.9004H138.696Z" fill="#4F5A7C"/>
<mask id="path-43-inside-12_85_252" fill="white">
<path d="M154.829 83H194.537V96.405H154.829V83Z"/>
</mask>
<path d="M194.537 96.405V95.958H154.829V96.405V96.8521H194.537V96.405Z" fill="#F5F5F5" mask="url(#path-43-inside-12_85_252)"/>
<path d="M171.79 90.7249H171.87C172.193 90.7249 172.464 90.6781 172.682 90.5844C172.9 90.4886 173.075 90.3572 173.205 90.1901C173.337 90.021 173.432 89.8234 173.489 89.5972C173.546 89.3711 173.575 89.1256 173.575 88.8607V88.2403C173.575 88.006 173.549 87.8002 173.498 87.623C173.447 87.4457 173.375 87.298 173.281 87.1798C173.188 87.0596 173.077 86.969 172.948 86.9078C172.822 86.8467 172.681 86.8162 172.527 86.8162C172.374 86.8162 172.235 86.8488 172.111 86.9139C171.989 86.9791 171.885 87.0698 171.799 87.1859C171.716 87.3 171.65 87.4315 171.604 87.5802C171.559 87.7269 171.536 87.8827 171.536 88.0478C171.536 88.1985 171.557 88.3452 171.598 88.4879C171.64 88.6284 171.702 88.7558 171.784 88.8699C171.865 88.9819 171.965 89.0716 172.083 89.1388C172.204 89.204 172.342 89.2366 172.499 89.2366C172.676 89.2366 172.833 89.203 172.97 89.1357C173.108 89.0685 173.225 88.9819 173.321 88.876C173.419 88.768 173.493 88.6519 173.544 88.5276C173.597 88.4013 173.626 88.279 173.63 88.1608L173.813 88.1578C173.813 88.3432 173.779 88.5204 173.709 88.6896C173.642 88.8566 173.546 89.0054 173.422 89.1357C173.3 89.2641 173.156 89.366 172.991 89.4414C172.826 89.5167 172.648 89.5544 172.456 89.5544C172.248 89.5544 172.064 89.5137 171.903 89.4322C171.744 89.3487 171.611 89.2366 171.503 89.096C171.397 88.9534 171.316 88.7935 171.261 88.6162C171.206 88.439 171.179 88.2546 171.179 88.063C171.179 87.8491 171.208 87.6484 171.267 87.461C171.329 87.2715 171.417 87.1055 171.533 86.9628C171.649 86.8182 171.79 86.7051 171.955 86.6236C172.122 86.5421 172.311 86.5014 172.52 86.5014C172.759 86.5014 172.967 86.5452 173.144 86.6328C173.321 86.7184 173.468 86.8406 173.584 86.9995C173.702 87.1584 173.79 87.3459 173.847 87.5618C173.906 87.7778 173.935 88.0162 173.935 88.277V88.6284C173.935 88.8913 173.915 89.1429 173.874 89.3833C173.834 89.6237 173.765 89.8458 173.67 90.0495C173.576 90.2512 173.45 90.4265 173.291 90.5752C173.132 90.7239 172.935 90.84 172.701 90.9236C172.466 91.0051 172.189 91.0458 171.87 91.0458H171.787L171.79 90.7249ZM177.698 89.5758V89.8876H174.547V89.6767L176.603 86.5625H176.909L176.475 87.3174L174.993 89.5758H177.698ZM177.004 86.5625V91.0122H176.64V86.5625H177.004Z" fill="#4F5A7C"/>
</g>
<defs>
<filter id="filter0_d_85_252" x="0.292684" y="0.195027" width="215.415" height="117.073" filterUnits="userSpaceOnUse" color-interpolation-filters="sRGB">
<feFlood flood-opacity="0" result="BackgroundImageFix"/>
<feColorMatrix in="SourceAlpha" type="matrix" values="0 0 0 0 0 0 0 0 0 0 0 0 0 0 0 0 0 0 127 0" result="hardAlpha"/>
<feOffset/>
<feGaussianBlur stdDeviation="5.85366"/>
<feComposite in2="hardAlpha" operator="out"/>
<feColorMatrix type="matrix" values="0 0 0 0 0.716146 0 0 0 0 0.869305 0 0 0 0 1 0 0 0 1 0"/>
<feBlend mode="normal" in2="BackgroundImageFix" result="effect1_dropShadow_85_252"/>
<feBlend mode="normal" in="SourceGraphic" in2="effect1_dropShadow_85_252" result="shape"/>
</filter>
<clipPath id="clip0_85_252">
<rect width="6.706" height="6.706" fill="white" transform="translate(94.5664 46.439)"/>
</clipPath>
<clipPath id="clip1_85_252">
<rect width="3.57654" height="2.0108" fill="white" transform="translate(102.835 49.5684)"/>
</clipPath>
<clipPath id="clip2_85_252">
<rect width="6.706" height="6.706" fill="white" transform="translate(131.957 46.439)"/>
</clipPath>
<clipPath id="clip3_85_252">
<rect width="6.706" height="6.706" fill="white" transform="translate(168.835 46.439)"/>
</clipPath>
</defs>
</svg>
