<svg width="368" height="200" viewBox="0 0 368 200" fill="none" xmlns="http://www.w3.org/2000/svg">
<g filter="url(#filter0_d_85_94)">
<rect x="20" y="20" width="328" height="160" rx="20" fill="white"/>
<rect x="35" y="134" width="171" height="31" rx="15.5" fill="#2CA9DB"/>
<path d="M50.4545 144.091H52.0791V147.692C52.0791 148.192 52.1661 148.588 52.3402 148.88C52.5142 149.167 52.7663 149.371 53.0965 149.492C53.4304 149.613 53.8352 149.673 54.311 149.673C54.5632 149.673 54.8188 149.664 55.0781 149.647C55.3409 149.625 55.6019 149.597 55.8611 149.561C56.1203 149.522 56.3707 149.478 56.6122 149.428C56.8572 149.375 57.0845 149.316 57.294 149.252V150.653C57.088 150.721 56.8696 150.781 56.6388 150.835C56.4115 150.884 56.1736 150.929 55.925 150.968C55.6764 151.003 55.4172 151.032 55.1473 151.053C54.8774 151.074 54.5987 151.085 54.311 151.085C53.5156 151.085 52.8284 150.971 52.2496 150.744C51.6743 150.513 51.2304 150.149 50.9179 149.652C50.609 149.155 50.4545 148.501 50.4545 147.692V144.091ZM57.049 144.091H58.6789V155H57.049V144.091ZM64.6062 155.165C63.8001 155.165 63.1059 154.993 62.5235 154.648C61.9446 154.3 61.4972 153.812 61.1812 153.184C60.8687 152.551 60.7124 151.811 60.7124 150.962C60.7124 150.124 60.8687 149.386 61.1812 148.746C61.4972 148.107 61.9375 147.608 62.5022 147.25C63.0704 146.891 63.7344 146.712 64.4944 146.712C64.956 146.712 65.4035 146.788 65.8367 146.941C66.2699 147.093 66.6588 147.333 67.0032 147.66C67.3477 147.987 67.6194 148.411 67.8182 148.933C68.0171 149.451 68.1165 150.082 68.1165 150.824V151.388H61.6126V150.195H66.5558C66.5558 149.776 66.4706 149.405 66.3001 149.082C66.1297 148.755 65.89 148.498 65.581 148.31C65.2756 148.121 64.9169 148.027 64.505 148.027C64.0576 148.027 63.6669 148.137 63.3331 148.358C63.0029 148.574 62.7472 148.858 62.5661 149.21C62.3885 149.558 62.2998 149.936 62.2998 150.344V151.277C62.2998 151.824 62.3956 152.289 62.5874 152.672C62.7827 153.056 63.0544 153.349 63.4024 153.551C63.7504 153.75 64.157 153.849 64.6222 153.849C64.9241 153.849 65.1993 153.807 65.4478 153.722C65.6964 153.633 65.9113 153.501 66.0924 153.327C66.2735 153.153 66.412 152.939 66.5079 152.683L68.0153 152.955C67.8946 153.398 67.678 153.787 67.3655 154.121C67.0565 154.451 66.6677 154.709 66.1989 154.893C65.7337 155.075 65.2028 155.165 64.6062 155.165ZM69.8837 155V146.818H71.4763V150.249H72.2434L74.944 146.818H76.9149L73.7455 150.797L76.9522 155H74.976L72.5097 151.729H71.4763V155H69.8837ZM82.4533 149.7V151.08H77.6167V149.7H82.4533ZM83.9315 155L83.9262 153.62H84.2191C84.4464 153.62 84.6364 153.572 84.7891 153.477C84.9454 153.377 85.0732 153.21 85.1726 152.976C85.2721 152.741 85.3484 152.418 85.4017 152.006C85.4549 151.591 85.494 151.069 85.5189 150.44L85.6627 146.818H91.3729V155H89.8122V148.192H87.1382L87.0103 150.973C86.9784 151.648 86.9091 152.237 86.8026 152.741C86.6996 153.246 86.5487 153.667 86.3498 154.004C86.151 154.338 85.8953 154.588 85.5828 154.755C85.2703 154.918 84.8903 155 84.4429 155H83.9315ZM95.0577 152.768L98.6638 146.818H100.379V155H98.8183V149.045L95.2281 155H93.4969V146.818H95.0577V152.768ZM105.967 155.165C105.175 155.165 104.493 154.986 103.921 154.627C103.353 154.265 102.916 153.766 102.611 153.13C102.306 152.495 102.153 151.767 102.153 150.946C102.153 150.115 102.309 149.382 102.622 148.746C102.934 148.107 103.374 147.608 103.943 147.25C104.511 146.891 105.18 146.712 105.951 146.712C106.572 146.712 107.126 146.827 107.613 147.058C108.099 147.285 108.492 147.605 108.79 148.017C109.092 148.429 109.271 148.91 109.328 149.46H107.778C107.693 149.077 107.497 148.746 107.192 148.469C106.89 148.192 106.485 148.054 105.977 148.054C105.534 148.054 105.145 148.171 104.811 148.406C104.481 148.636 104.223 148.967 104.038 149.396C103.854 149.822 103.761 150.327 103.761 150.909C103.761 151.506 103.852 152.021 104.033 152.454C104.214 152.887 104.47 153.223 104.8 153.461C105.134 153.699 105.526 153.817 105.977 153.817C106.279 153.817 106.553 153.762 106.798 153.652C107.046 153.539 107.254 153.377 107.421 153.168C107.591 152.958 107.71 152.706 107.778 152.411H109.328C109.271 152.94 109.099 153.413 108.811 153.828C108.524 154.244 108.138 154.57 107.655 154.808C107.176 155.046 106.613 155.165 105.967 155.165ZM110.412 148.192V146.818H117.315V148.192H114.647V155H113.091V148.192H110.412ZM120.049 155.101C119.758 155.101 119.508 154.998 119.298 154.792C119.089 154.583 118.984 154.331 118.984 154.036C118.984 153.745 119.089 153.496 119.298 153.29C119.508 153.081 119.758 152.976 120.049 152.976C120.34 152.976 120.591 153.081 120.8 153.29C121.01 153.496 121.115 153.745 121.115 154.036C121.115 154.231 121.065 154.411 120.965 154.574C120.87 154.734 120.742 154.862 120.582 154.957C120.422 155.053 120.245 155.101 120.049 155.101ZM120.049 149.146C119.758 149.146 119.508 149.041 119.298 148.832C119.089 148.622 118.984 148.372 118.984 148.081C118.984 147.789 119.089 147.541 119.298 147.335C119.508 147.125 119.758 147.021 120.049 147.021C120.34 147.021 120.591 147.125 120.8 147.335C121.01 147.541 121.115 147.789 121.115 148.081C121.115 148.276 121.065 148.455 120.965 148.619C120.87 148.778 120.742 148.906 120.582 149.002C120.422 149.098 120.245 149.146 120.049 149.146ZM131.335 144.091V155H129.684V145.742H129.62L127.01 147.447V145.87L129.732 144.091H131.335ZM138.084 155.181C137.242 155.178 136.523 154.956 135.927 154.515C135.33 154.075 134.874 153.434 134.558 152.592C134.242 151.751 134.084 150.737 134.084 149.551C134.084 148.368 134.242 147.358 134.558 146.52C134.877 145.682 135.336 145.043 135.932 144.602C136.532 144.162 137.25 143.942 138.084 143.942C138.919 143.942 139.634 144.164 140.231 144.608C140.827 145.048 141.284 145.687 141.6 146.525C141.919 147.36 142.079 148.368 142.079 149.551C142.079 150.74 141.921 151.756 141.605 152.598C141.289 153.436 140.833 154.077 140.236 154.521C139.64 154.961 138.922 155.181 138.084 155.181ZM138.084 153.759C138.823 153.759 139.4 153.398 139.815 152.678C140.234 151.957 140.444 150.914 140.444 149.551C140.444 148.645 140.348 147.88 140.156 147.255C139.968 146.626 139.696 146.151 139.341 145.827C138.99 145.501 138.571 145.337 138.084 145.337C137.349 145.337 136.772 145.7 136.353 146.424C135.934 147.148 135.723 148.191 135.719 149.551C135.719 150.46 135.813 151.229 136.001 151.857C136.193 152.482 136.465 152.956 136.816 153.279C137.168 153.599 137.591 153.759 138.084 153.759ZM147.96 146.818H149.521V153.62H152.349V146.818H153.91V153.62H156.738V146.818H158.299V155H147.96V146.818ZM162.807 155.181C162.288 155.181 161.819 155.085 161.4 154.893C160.981 154.698 160.649 154.416 160.404 154.047C160.163 153.677 160.042 153.224 160.042 152.688C160.042 152.227 160.131 151.847 160.308 151.548C160.486 151.25 160.726 151.014 161.028 150.84C161.329 150.666 161.667 150.534 162.04 150.446C162.413 150.357 162.792 150.289 163.18 150.243C163.67 150.186 164.067 150.14 164.373 150.105C164.678 150.066 164.9 150.004 165.039 149.918C165.177 149.833 165.246 149.695 165.246 149.503V149.466C165.246 149 165.115 148.64 164.852 148.384C164.593 148.129 164.206 148.001 163.691 148.001C163.155 148.001 162.732 148.12 162.423 148.358C162.118 148.592 161.906 148.853 161.789 149.141L160.292 148.8C160.47 148.303 160.729 147.901 161.07 147.596C161.415 147.287 161.811 147.063 162.258 146.925C162.705 146.783 163.176 146.712 163.67 146.712C163.996 146.712 164.343 146.751 164.708 146.829C165.078 146.903 165.422 147.042 165.742 147.244C166.065 147.447 166.329 147.736 166.535 148.113C166.741 148.485 166.844 148.97 166.844 149.567V155H165.289V153.881H165.225C165.122 154.087 164.968 154.29 164.762 154.489C164.556 154.687 164.291 154.853 163.968 154.984C163.645 155.115 163.258 155.181 162.807 155.181ZM163.153 153.903C163.593 153.903 163.97 153.816 164.282 153.642C164.598 153.468 164.838 153.24 165.001 152.96C165.168 152.676 165.252 152.372 165.252 152.049V150.994C165.195 151.051 165.085 151.104 164.921 151.154C164.762 151.2 164.579 151.241 164.373 151.277C164.167 151.309 163.966 151.339 163.771 151.367C163.576 151.392 163.412 151.413 163.281 151.431C162.972 151.47 162.689 151.536 162.434 151.628C162.182 151.721 161.979 151.854 161.827 152.028C161.677 152.198 161.603 152.425 161.603 152.71C161.603 153.104 161.748 153.402 162.04 153.604C162.331 153.803 162.702 153.903 163.153 153.903ZM174.197 146.818V148.192H170.537V155H168.966V146.818H174.197ZM178.945 155.165C178.178 155.165 177.509 154.989 176.937 154.638C176.365 154.286 175.921 153.794 175.605 153.162C175.289 152.53 175.131 151.792 175.131 150.946C175.131 150.098 175.289 149.355 175.605 148.72C175.921 148.084 176.365 147.591 176.937 147.239C177.509 146.887 178.178 146.712 178.945 146.712C179.712 146.712 180.382 146.887 180.953 147.239C181.525 147.591 181.969 148.084 182.285 148.72C182.601 149.355 182.759 150.098 182.759 150.946C182.759 151.792 182.601 152.53 182.285 153.162C181.969 153.794 181.525 154.286 180.953 154.638C180.382 154.989 179.712 155.165 178.945 155.165ZM178.951 153.828C179.448 153.828 179.86 153.697 180.186 153.434C180.513 153.171 180.755 152.821 180.911 152.385C181.071 151.948 181.151 151.467 181.151 150.941C181.151 150.419 181.071 149.94 180.911 149.503C180.755 149.062 180.513 148.709 180.186 148.443C179.86 148.176 179.448 148.043 178.951 148.043C178.45 148.043 178.034 148.176 177.704 148.443C177.377 148.709 177.134 149.062 176.974 149.503C176.818 149.94 176.74 150.419 176.74 150.941C176.74 151.467 176.818 151.948 176.974 152.385C177.134 152.821 177.377 153.171 177.704 153.434C178.034 153.697 178.45 153.828 178.951 153.828ZM184.537 155V146.818H187.93C188.853 146.818 189.585 147.015 190.125 147.409C190.664 147.8 190.934 148.331 190.934 149.002C190.934 149.482 190.782 149.862 190.476 150.142C190.171 150.423 189.766 150.611 189.262 150.707C189.628 150.749 189.963 150.859 190.269 151.037C190.574 151.211 190.819 151.445 191.004 151.74C191.192 152.035 191.286 152.386 191.286 152.795C191.286 153.228 191.174 153.612 190.95 153.945C190.727 154.276 190.402 154.535 189.976 154.723C189.553 154.908 189.043 155 188.447 155H184.537ZM186.034 153.668H188.447C188.841 153.668 189.15 153.574 189.374 153.386C189.597 153.198 189.709 152.942 189.709 152.619C189.709 152.239 189.597 151.941 189.374 151.724C189.15 151.504 188.841 151.394 188.447 151.394H186.034V153.668ZM186.034 150.227H187.946C188.244 150.227 188.5 150.185 188.713 150.099C188.93 150.014 189.095 149.893 189.208 149.737C189.326 149.577 189.384 149.389 189.384 149.173C189.384 148.857 189.255 148.61 188.995 148.432C188.736 148.255 188.381 148.166 187.93 148.166H186.034V150.227Z" fill="white"/>
<path d="M41.1875 107L38.1875 102.994H37.1136V107H36.0568V98.2727H37.1136V102.057H37.5739L41.0682 98.2727H42.3295L38.8011 102.108L42.4489 107H41.1875ZM45.6044 107.153C45.1896 107.153 44.8132 107.075 44.4751 106.919C44.1371 106.76 43.8686 106.531 43.6697 106.233C43.4709 105.932 43.3714 105.568 43.3714 105.142C43.3714 104.767 43.4453 104.463 43.593 104.23C43.7408 103.994 43.9382 103.81 44.1854 103.676C44.4325 103.543 44.7053 103.443 45.0036 103.378C45.3047 103.31 45.6072 103.256 45.9112 103.216C46.3089 103.165 46.6314 103.126 46.8786 103.101C47.1286 103.072 47.3104 103.026 47.424 102.96C47.5405 102.895 47.5987 102.781 47.5987 102.619V102.585C47.5987 102.165 47.4837 101.838 47.2536 101.605C47.0263 101.372 46.6811 101.256 46.218 101.256C45.7379 101.256 45.3615 101.361 45.0888 101.571C44.8161 101.781 44.6243 102.006 44.5135 102.244L43.5589 101.903C43.7294 101.506 43.9567 101.196 44.2408 100.974C44.5277 100.75 44.8402 100.594 45.1783 100.506C45.5192 100.415 45.8544 100.369 46.1839 100.369C46.3942 100.369 46.6357 100.395 46.9084 100.446C47.1839 100.494 47.4496 100.595 47.7053 100.749C47.9638 100.902 48.1783 101.134 48.3487 101.443C48.5192 101.753 48.6044 102.168 48.6044 102.688V107H47.5987V106.114H47.5476C47.4794 106.256 47.3658 106.408 47.2067 106.57C47.0476 106.732 46.8359 106.869 46.5717 106.983C46.3075 107.097 45.9851 107.153 45.6044 107.153ZM45.7578 106.25C46.1555 106.25 46.4908 106.172 46.7635 106.016C47.0391 105.859 47.2464 105.658 47.3857 105.411C47.5277 105.163 47.5987 104.903 47.5987 104.631V103.71C47.5561 103.761 47.4624 103.808 47.3175 103.851C47.1754 103.891 47.0107 103.926 46.8232 103.957C46.6385 103.986 46.4581 104.011 46.282 104.034C46.1087 104.054 45.968 104.071 45.8601 104.085C45.5987 104.119 45.3544 104.175 45.1271 104.251C44.9027 104.325 44.7209 104.437 44.5817 104.588C44.4453 104.736 44.3771 104.937 44.3771 105.193C44.3771 105.543 44.5064 105.807 44.7649 105.986C45.0263 106.162 45.3572 106.25 45.7578 106.25ZM50.44 107V100.455H51.4457V103.301H52.1104L54.4627 100.455H55.7582L53.1161 103.608L55.7923 107H54.4968L52.3491 104.239H51.4457V107H50.44ZM60.2603 109.455V100.455H61.2319V101.494H61.3512C61.4251 101.381 61.5273 101.236 61.658 101.06C61.7915 100.881 61.9819 100.722 62.229 100.582C62.479 100.44 62.8171 100.369 63.2433 100.369C63.7944 100.369 64.2802 100.507 64.7006 100.783C65.1211 101.058 65.4492 101.449 65.685 101.955C65.9208 102.46 66.0387 103.057 66.0387 103.744C66.0387 104.438 65.9208 105.038 65.685 105.547C65.4492 106.053 65.1225 106.445 64.7049 106.723C64.2873 106.999 63.8058 107.136 63.2603 107.136C62.8398 107.136 62.5032 107.067 62.2504 106.928C61.9975 106.786 61.8029 106.625 61.6665 106.446C61.5302 106.264 61.4251 106.114 61.3512 105.994H61.266V109.455H60.2603ZM61.2489 103.727C61.2489 104.222 61.3214 104.658 61.4663 105.036C61.6112 105.411 61.8228 105.705 62.1012 105.918C62.3796 106.128 62.7205 106.233 63.1239 106.233C63.5444 106.233 63.8952 106.122 64.1765 105.901C64.4606 105.676 64.6737 105.375 64.8157 104.997C64.9606 104.616 65.033 104.193 65.033 103.727C65.033 103.267 64.962 102.852 64.82 102.483C64.6808 102.111 64.4691 101.817 64.185 101.601C63.9038 101.382 63.5501 101.273 63.1239 101.273C62.7148 101.273 62.3711 101.376 62.0927 101.584C61.8143 101.788 61.604 102.075 61.462 102.445C61.32 102.811 61.2489 103.239 61.2489 103.727ZM69.4989 107.153C69.0842 107.153 68.7077 107.075 68.3697 106.919C68.0316 106.76 67.7631 106.531 67.5643 106.233C67.3654 105.932 67.266 105.568 67.266 105.142C67.266 104.767 67.3398 104.463 67.4876 104.23C67.6353 103.994 67.8327 103.81 68.0799 103.676C68.3271 103.543 68.5998 103.443 68.8981 103.378C69.1992 103.31 69.5018 103.256 69.8058 103.216C70.2035 103.165 70.5259 103.126 70.7731 103.101C71.0231 103.072 71.2049 103.026 71.3185 102.96C71.435 102.895 71.4933 102.781 71.4933 102.619V102.585C71.4933 102.165 71.3782 101.838 71.1481 101.605C70.9208 101.372 70.5756 101.256 70.1126 101.256C69.6325 101.256 69.256 101.361 68.9833 101.571C68.7106 101.781 68.5188 102.006 68.408 102.244L67.4535 101.903C67.6239 101.506 67.8512 101.196 68.1353 100.974C68.4222 100.75 68.7347 100.594 69.0728 100.506C69.4137 100.415 69.7489 100.369 70.0785 100.369C70.2887 100.369 70.5302 100.395 70.8029 100.446C71.0785 100.494 71.3441 100.595 71.5998 100.749C71.8583 100.902 72.0728 101.134 72.2433 101.443C72.4137 101.753 72.4989 102.168 72.4989 102.688V107H71.4933V106.114H71.4421C71.3739 106.256 71.2603 106.408 71.1012 106.57C70.9421 106.732 70.7305 106.869 70.4663 106.983C70.2021 107.097 69.8796 107.153 69.4989 107.153ZM69.6523 106.25C70.0501 106.25 70.3853 106.172 70.658 106.016C70.9336 105.859 71.141 105.658 71.2802 105.411C71.4222 105.163 71.4933 104.903 71.4933 104.631V103.71C71.4506 103.761 71.3569 103.808 71.212 103.851C71.07 103.891 70.9052 103.926 70.7177 103.957C70.533 103.986 70.3526 104.011 70.1765 104.034C70.0032 104.054 69.8626 104.071 69.7546 104.085C69.4933 104.119 69.2489 104.175 69.0217 104.251C68.7972 104.325 68.6154 104.437 68.4762 104.588C68.3398 104.736 68.2717 104.937 68.2717 105.193C68.2717 105.543 68.4009 105.807 68.6594 105.986C68.9208 106.162 69.2518 106.25 69.6523 106.25ZM76.9936 107.136C76.38 107.136 75.8516 106.991 75.4084 106.702C74.9652 106.412 74.6243 106.013 74.3857 105.504C74.147 104.996 74.0277 104.415 74.0277 103.761C74.0277 103.097 74.1499 102.51 74.3942 102.001C74.6413 101.49 74.9851 101.091 75.4254 100.804C75.8686 100.514 76.3857 100.369 76.9766 100.369C77.4368 100.369 77.8516 100.455 78.2209 100.625C78.5902 100.795 78.8928 101.034 79.1286 101.341C79.3643 101.648 79.5107 102.006 79.5675 102.415H78.5618C78.4851 102.116 78.3146 101.852 78.0504 101.622C77.7891 101.389 77.4368 101.273 76.9936 101.273C76.6016 101.273 76.2578 101.375 75.9624 101.58C75.6697 101.781 75.4411 102.067 75.2763 102.436C75.1143 102.803 75.0334 103.233 75.0334 103.727C75.0334 104.233 75.1129 104.673 75.272 105.048C75.4339 105.423 75.6612 105.714 75.9538 105.922C76.2493 106.129 76.5959 106.233 76.9936 106.233C77.255 106.233 77.4922 106.188 77.7053 106.097C77.9183 106.006 78.0987 105.875 78.2464 105.705C78.3942 105.534 78.4993 105.33 78.5618 105.091H79.5675C79.5107 105.477 79.37 105.825 79.1456 106.135C78.924 106.442 78.63 106.686 78.2635 106.868C77.8999 107.047 77.4766 107.136 76.9936 107.136ZM81.0376 107V100.455H86.1854V107H85.1797V101.392H82.0433V107H81.0376ZM90.6811 107.136C90.0902 107.136 89.5717 106.996 89.1257 106.714C88.6825 106.433 88.3359 106.04 88.0859 105.534C87.8388 105.028 87.7152 104.437 87.7152 103.761C87.7152 103.08 87.8388 102.484 88.0859 101.976C88.3359 101.467 88.6825 101.072 89.1257 100.791C89.5717 100.51 90.0902 100.369 90.6811 100.369C91.272 100.369 91.7891 100.51 92.2322 100.791C92.6783 101.072 93.0249 101.467 93.272 101.976C93.522 102.484 93.647 103.08 93.647 103.761C93.647 104.437 93.522 105.028 93.272 105.534C93.0249 106.04 92.6783 106.433 92.2322 106.714C91.7891 106.996 91.272 107.136 90.6811 107.136ZM90.6811 106.233C91.13 106.233 91.4993 106.118 91.7891 105.888C92.0788 105.658 92.2933 105.355 92.4325 104.98C92.5717 104.605 92.6413 104.199 92.6413 103.761C92.6413 103.324 92.5717 102.916 92.4325 102.538C92.2933 102.161 92.0788 101.855 91.7891 101.622C91.4993 101.389 91.13 101.273 90.6811 101.273C90.2322 101.273 89.8629 101.389 89.5732 101.622C89.2834 101.855 89.0689 102.161 88.9297 102.538C88.7905 102.916 88.7209 103.324 88.7209 103.761C88.7209 104.199 88.7905 104.605 88.9297 104.98C89.0689 105.355 89.2834 105.658 89.5732 105.888C89.8629 106.118 90.2322 106.233 90.6811 106.233ZM94.7731 105.33H95.8469C95.8697 105.625 96.0032 105.849 96.2475 106.003C96.4947 106.156 96.8157 106.233 97.2106 106.233C97.614 106.233 97.9592 106.151 98.2461 105.986C98.533 105.818 98.6765 105.548 98.6765 105.176C98.6765 104.957 98.6225 104.767 98.5146 104.605C98.4066 104.44 98.2546 104.312 98.0586 104.222C97.8626 104.131 97.631 104.085 97.364 104.085H96.239V103.182H97.364C97.7646 103.182 98.06 103.091 98.2504 102.909C98.4435 102.727 98.5401 102.5 98.5401 102.227C98.5401 101.935 98.4364 101.7 98.229 101.524C98.0217 101.345 97.7276 101.256 97.3469 101.256C96.9634 101.256 96.6438 101.342 96.3881 101.516C96.1325 101.686 95.9975 101.906 95.9833 102.176H94.9265C94.9379 101.824 95.0458 101.513 95.2504 101.243C95.4549 100.97 95.7333 100.757 96.0856 100.604C96.4379 100.447 96.8413 100.369 97.2958 100.369C97.756 100.369 98.1552 100.45 98.4933 100.612C98.8342 100.771 99.0969 100.989 99.2816 101.264C99.4691 101.537 99.5629 101.847 99.5629 102.193C99.5629 102.562 99.4592 102.861 99.2518 103.088C99.0444 103.315 98.7844 103.477 98.4719 103.574V103.642C98.7191 103.659 98.9336 103.739 99.1154 103.881C99.3001 104.02 99.4435 104.203 99.5458 104.43C99.6481 104.655 99.6992 104.903 99.6992 105.176C99.6992 105.574 99.5927 105.92 99.3796 106.216C99.1665 106.509 98.8739 106.736 98.5018 106.898C98.1296 107.057 97.7049 107.136 97.2276 107.136C96.7646 107.136 96.3498 107.061 95.9833 106.911C95.6168 106.757 95.3256 106.545 95.1097 106.276C94.8967 106.003 94.7844 105.688 94.7731 105.33ZM105.493 103.267V104.205H101.879V103.267H105.493ZM102.118 100.455V107H101.112V100.455H102.118ZM106.26 100.455V107H105.254V100.455H106.26ZM110.022 107.153C109.608 107.153 109.231 107.075 108.893 106.919C108.555 106.76 108.287 106.531 108.088 106.233C107.889 105.932 107.789 105.568 107.789 105.142C107.789 104.767 107.863 104.463 108.011 104.23C108.159 103.994 108.356 103.81 108.603 103.676C108.85 103.543 109.123 103.443 109.422 103.378C109.723 103.31 110.025 103.256 110.329 103.216C110.727 103.165 111.049 103.126 111.297 103.101C111.547 103.072 111.728 103.026 111.842 102.96C111.958 102.895 112.017 102.781 112.017 102.619V102.585C112.017 102.165 111.902 101.838 111.672 101.605C111.444 101.372 111.099 101.256 110.636 101.256C110.156 101.256 109.779 101.361 109.507 101.571C109.234 101.781 109.042 102.006 108.931 102.244L107.977 101.903C108.147 101.506 108.375 101.196 108.659 100.974C108.946 100.75 109.258 100.594 109.596 100.506C109.937 100.415 110.272 100.369 110.602 100.369C110.812 100.369 111.054 100.395 111.326 100.446C111.602 100.494 111.868 100.595 112.123 100.749C112.382 100.902 112.596 101.134 112.767 101.443C112.937 101.753 113.022 102.168 113.022 102.688V107H112.017V106.114H111.966C111.897 106.256 111.784 106.408 111.625 106.57C111.466 106.732 111.254 106.869 110.99 106.983C110.725 107.097 110.403 107.153 110.022 107.153ZM110.176 106.25C110.574 106.25 110.909 106.172 111.181 106.016C111.457 105.859 111.664 105.658 111.804 105.411C111.946 105.163 112.017 104.903 112.017 104.631V103.71C111.974 103.761 111.88 103.808 111.735 103.851C111.593 103.891 111.429 103.926 111.241 103.957C111.056 103.986 110.876 104.011 110.7 104.034C110.527 104.054 110.386 104.071 110.278 104.085C110.017 104.119 109.772 104.175 109.545 104.251C109.321 104.325 109.139 104.437 109 104.588C108.863 104.736 108.795 104.937 108.795 105.193C108.795 105.543 108.924 105.807 109.183 105.986C109.444 106.162 109.775 106.25 110.176 106.25ZM113.967 101.392V100.455H119.286V101.392H117.138V107H116.132V101.392H113.967ZM121.622 102.824H123.497C124.264 102.824 124.85 103.018 125.257 103.408C125.663 103.797 125.866 104.29 125.866 104.886C125.866 105.278 125.775 105.635 125.593 105.956C125.412 106.274 125.145 106.528 124.792 106.719C124.44 106.906 124.008 107 123.497 107H120.752V100.455H121.758V106.062H123.497C123.895 106.062 124.221 105.957 124.477 105.747C124.733 105.537 124.86 105.267 124.86 104.938C124.86 104.591 124.733 104.308 124.477 104.089C124.221 103.871 123.895 103.761 123.497 103.761H121.622V102.824ZM135.153 103.267V104.205H131.539V103.267H135.153ZM131.778 100.455V107H130.772V100.455H131.778ZM135.92 100.455V107H134.914V100.455H135.92ZM140.501 107.136C139.87 107.136 139.326 106.997 138.869 106.719C138.414 106.438 138.063 106.045 137.816 105.543C137.572 105.037 137.45 104.449 137.45 103.778C137.45 103.108 137.572 102.517 137.816 102.006C138.063 101.491 138.407 101.091 138.847 100.804C139.29 100.514 139.808 100.369 140.398 100.369C140.739 100.369 141.076 100.426 141.408 100.54C141.741 100.653 142.043 100.838 142.316 101.094C142.589 101.347 142.806 101.682 142.968 102.099C143.13 102.517 143.211 103.031 143.211 103.642V104.068H138.165V103.199H142.188C142.188 102.83 142.114 102.5 141.967 102.21C141.822 101.92 141.614 101.692 141.344 101.524C141.077 101.357 140.762 101.273 140.398 101.273C139.998 101.273 139.651 101.372 139.359 101.571C139.069 101.767 138.846 102.023 138.69 102.338C138.533 102.653 138.455 102.991 138.455 103.352V103.932C138.455 104.426 138.54 104.845 138.711 105.189C138.884 105.53 139.124 105.79 139.431 105.969C139.738 106.145 140.094 106.233 140.501 106.233C140.765 106.233 141.004 106.196 141.217 106.122C141.433 106.045 141.619 105.932 141.775 105.781C141.931 105.628 142.052 105.437 142.137 105.21L143.109 105.483C143.006 105.812 142.835 106.102 142.593 106.352C142.352 106.599 142.053 106.793 141.698 106.932C141.343 107.068 140.944 107.136 140.501 107.136ZM144.741 107V100.455H145.746V103.301H146.411L148.763 100.455H150.059L147.417 103.608L150.093 107H148.798L146.65 104.239H145.746V107H144.741ZM153.112 107.153C152.697 107.153 152.321 107.075 151.983 106.919C151.645 106.76 151.376 106.531 151.178 106.233C150.979 105.932 150.879 105.568 150.879 105.142C150.879 104.767 150.953 104.463 151.101 104.23C151.249 103.994 151.446 103.81 151.693 103.676C151.94 103.543 152.213 103.443 152.511 103.378C152.813 103.31 153.115 103.256 153.419 103.216C153.817 103.165 154.139 103.126 154.386 103.101C154.636 103.072 154.818 103.026 154.932 102.96C155.048 102.895 155.107 102.781 155.107 102.619V102.585C155.107 102.165 154.991 101.838 154.761 101.605C154.534 101.372 154.189 101.256 153.726 101.256C153.246 101.256 152.869 101.361 152.597 101.571C152.324 101.781 152.132 102.006 152.021 102.244L151.067 101.903C151.237 101.506 151.464 101.196 151.749 100.974C152.036 100.75 152.348 100.594 152.686 100.506C153.027 100.415 153.362 100.369 153.692 100.369C153.902 100.369 154.143 100.395 154.416 100.446C154.692 100.494 154.957 100.595 155.213 100.749C155.472 100.902 155.686 101.134 155.857 101.443C156.027 101.753 156.112 102.168 156.112 102.688V107H155.107V106.114H155.055C154.987 106.256 154.874 106.408 154.714 106.57C154.555 106.732 154.344 106.869 154.08 106.983C153.815 107.097 153.493 107.153 153.112 107.153ZM153.266 106.25C153.663 106.25 153.999 106.172 154.271 106.016C154.547 105.859 154.754 105.658 154.893 105.411C155.036 105.163 155.107 104.903 155.107 104.631V103.71C155.064 103.761 154.97 103.808 154.825 103.851C154.683 103.891 154.518 103.926 154.331 103.957C154.146 103.986 153.966 104.011 153.79 104.034C153.616 104.054 153.476 104.071 153.368 104.085C153.107 104.119 152.862 104.175 152.635 104.251C152.411 104.325 152.229 104.437 152.089 104.588C151.953 104.736 151.885 104.937 151.885 105.193C151.885 105.543 152.014 105.807 152.273 105.986C152.534 106.162 152.865 106.25 153.266 106.25ZM162.993 100.455V107H161.988V100.455H162.993ZM162.601 103.574V104.511C162.374 104.597 162.148 104.672 161.924 104.737C161.699 104.8 161.463 104.849 161.216 104.886C160.969 104.92 160.698 104.938 160.402 104.938C159.661 104.938 159.066 104.737 158.617 104.337C158.171 103.936 157.948 103.335 157.948 102.534V100.438H158.953V102.534C158.953 102.869 159.017 103.145 159.145 103.361C159.273 103.577 159.446 103.737 159.665 103.842C159.884 103.947 160.13 104 160.402 104C160.828 104 161.213 103.962 161.557 103.885C161.904 103.805 162.252 103.702 162.601 103.574ZM167.583 107.136C166.952 107.136 166.408 106.997 165.951 106.719C165.496 106.438 165.145 106.045 164.898 105.543C164.654 105.037 164.532 104.449 164.532 103.778C164.532 103.108 164.654 102.517 164.898 102.006C165.145 101.491 165.489 101.091 165.929 100.804C166.373 100.514 166.89 100.369 167.48 100.369C167.821 100.369 168.158 100.426 168.49 100.54C168.823 100.653 169.125 100.838 169.398 101.094C169.671 101.347 169.888 101.682 170.05 102.099C170.212 102.517 170.293 103.031 170.293 103.642V104.068H165.248V103.199H169.27C169.27 102.83 169.196 102.5 169.049 102.21C168.904 101.92 168.696 101.692 168.426 101.524C168.159 101.357 167.844 101.273 167.48 101.273C167.08 101.273 166.733 101.372 166.441 101.571C166.151 101.767 165.928 102.023 165.772 102.338C165.615 102.653 165.537 102.991 165.537 103.352V103.932C165.537 104.426 165.623 104.845 165.793 105.189C165.966 105.53 166.206 105.79 166.513 105.969C166.82 106.145 167.176 106.233 167.583 106.233C167.847 106.233 168.086 106.196 168.299 106.122C168.515 106.045 168.701 105.932 168.857 105.781C169.013 105.628 169.134 105.437 169.219 105.21L170.191 105.483C170.088 105.812 169.917 106.102 169.675 106.352C169.434 106.599 169.135 106.793 168.78 106.932C168.425 107.068 168.026 107.136 167.583 107.136ZM174.482 107.136C173.868 107.136 173.34 106.991 172.897 106.702C172.453 106.412 172.113 106.013 171.874 105.504C171.635 104.996 171.516 104.415 171.516 103.761C171.516 103.097 171.638 102.51 171.882 102.001C172.13 101.49 172.473 101.091 172.914 100.804C173.357 100.514 173.874 100.369 174.465 100.369C174.925 100.369 175.34 100.455 175.709 100.625C176.078 100.795 176.381 101.034 176.617 101.341C176.853 101.648 176.999 102.006 177.056 102.415H176.05C175.973 102.116 175.803 101.852 175.539 101.622C175.277 101.389 174.925 101.273 174.482 101.273C174.09 101.273 173.746 101.375 173.451 101.58C173.158 101.781 172.929 102.067 172.765 102.436C172.603 102.803 172.522 103.233 172.522 103.727C172.522 104.233 172.601 104.673 172.76 105.048C172.922 105.423 173.15 105.714 173.442 105.922C173.738 106.129 174.084 106.233 174.482 106.233C174.743 106.233 174.98 106.188 175.194 106.097C175.407 106.006 175.587 105.875 175.735 105.705C175.882 105.534 175.988 105.33 176.05 105.091H177.056C176.999 105.477 176.858 105.825 176.634 106.135C176.412 106.442 176.118 106.686 175.752 106.868C175.388 107.047 174.965 107.136 174.482 107.136ZM178.01 101.392V100.455H183.328V101.392H181.181V107H180.175V101.392H178.01ZM184.795 107V100.455H187.472C188.176 100.455 188.736 100.614 189.151 100.932C189.565 101.25 189.773 101.67 189.773 102.193C189.773 102.591 189.655 102.899 189.419 103.118C189.183 103.334 188.881 103.48 188.511 103.557C188.753 103.591 188.987 103.676 189.214 103.812C189.445 103.949 189.635 104.136 189.786 104.375C189.936 104.611 190.011 104.901 190.011 105.244C190.011 105.58 189.926 105.879 189.756 106.143C189.585 106.408 189.341 106.616 189.023 106.77C188.705 106.923 188.324 107 187.881 107H184.795ZM185.75 106.08H187.881C188.227 106.08 188.499 105.997 188.695 105.832C188.891 105.668 188.989 105.443 188.989 105.159C188.989 104.821 188.891 104.555 188.695 104.362C188.499 104.166 188.227 104.068 187.881 104.068H185.75V106.08ZM185.75 103.199H187.472C187.741 103.199 187.973 103.162 188.166 103.088C188.359 103.011 188.507 102.903 188.609 102.764C188.714 102.622 188.767 102.455 188.767 102.261C188.767 101.986 188.652 101.77 188.422 101.614C188.192 101.455 187.875 101.375 187.472 101.375H185.75V103.199ZM194.278 107.136C193.647 107.136 193.103 106.997 192.646 106.719C192.191 106.438 191.841 106.045 191.593 105.543C191.349 105.037 191.227 104.449 191.227 103.778C191.227 103.108 191.349 102.517 191.593 102.006C191.841 101.491 192.184 101.091 192.625 100.804C193.068 100.514 193.585 100.369 194.176 100.369C194.517 100.369 194.853 100.426 195.186 100.54C195.518 100.653 195.821 100.838 196.093 101.094C196.366 101.347 196.583 101.682 196.745 102.099C196.907 102.517 196.988 103.031 196.988 103.642V104.068H191.943V103.199H195.966C195.966 102.83 195.892 102.5 195.744 102.21C195.599 101.92 195.392 101.692 195.122 101.524C194.855 101.357 194.539 101.273 194.176 101.273C193.775 101.273 193.429 101.372 193.136 101.571C192.846 101.767 192.623 102.023 192.467 102.338C192.311 102.653 192.233 102.991 192.233 103.352V103.932C192.233 104.426 192.318 104.845 192.488 105.189C192.662 105.53 192.902 105.79 193.208 105.969C193.515 106.145 193.872 106.233 194.278 106.233C194.542 106.233 194.781 106.196 194.994 106.122C195.21 106.045 195.396 105.932 195.552 105.781C195.708 105.628 195.829 105.437 195.914 105.21L196.886 105.483C196.784 105.812 196.612 106.102 196.37 106.352C196.129 106.599 195.831 106.793 195.475 106.932C195.12 107.068 194.721 107.136 194.278 107.136ZM202.899 103.267V104.205H199.285V103.267H202.899ZM199.524 100.455V107H198.518V100.455H199.524ZM203.666 100.455V107H202.66V100.455H203.666ZM209.883 103.267V104.205H206.27V103.267H209.883ZM206.508 100.455V107H205.502V100.455H206.508ZM210.65 100.455V107H209.645V100.455H210.65ZM213.356 102.824H215.231C215.998 102.824 216.585 103.018 216.991 103.408C217.397 103.797 217.6 104.29 217.6 104.886C217.6 105.278 217.51 105.635 217.328 105.956C217.146 106.274 216.879 106.528 216.527 106.719C216.174 106.906 215.743 107 215.231 107H212.487V100.455H213.493V106.062H215.231C215.629 106.062 215.956 105.957 216.211 105.747C216.467 105.537 216.595 105.267 216.595 104.938C216.595 104.591 216.467 104.308 216.211 104.089C215.956 103.871 215.629 103.761 215.231 103.761H213.356V102.824ZM218.64 107V100.455H219.646V107H218.64ZM222.493 105.517L225.646 100.455H226.805V107H225.799V101.938L222.663 107H221.487V100.455H222.493V105.517ZM224.981 98.2727H225.919C225.919 98.733 225.76 99.1094 225.441 99.402C225.123 99.6946 224.691 99.8409 224.146 99.8409C223.609 99.8409 223.181 99.6946 222.863 99.402C222.548 99.1094 222.39 98.733 222.39 98.2727H223.328C223.328 98.4943 223.389 98.6889 223.511 98.8565C223.636 99.0241 223.848 99.108 224.146 99.108C224.444 99.108 224.657 99.0241 224.785 98.8565C224.916 98.6889 224.981 98.4943 224.981 98.2727ZM233.028 105.517L236.181 100.455H237.34V107H236.335V101.938L233.198 107H232.022V100.455H233.028V105.517ZM247.415 98L247.926 98.6136C247.728 98.8068 247.498 98.9418 247.236 99.0185C246.975 99.0952 246.679 99.142 246.35 99.1591C246.02 99.1761 245.654 99.1932 245.25 99.2102C244.796 99.2273 244.419 99.3381 244.121 99.5426C243.823 99.7472 243.593 100.043 243.431 100.429C243.269 100.815 243.165 101.29 243.12 101.852H243.205C243.426 101.443 243.733 101.142 244.125 100.949C244.517 100.756 244.938 100.659 245.387 100.659C245.898 100.659 246.358 100.778 246.767 101.017C247.176 101.256 247.5 101.609 247.739 102.078C247.978 102.547 248.097 103.125 248.097 103.812C248.097 104.497 247.975 105.088 247.73 105.585C247.489 106.082 247.15 106.466 246.712 106.736C246.277 107.003 245.767 107.136 245.182 107.136C244.597 107.136 244.084 106.999 243.644 106.723C243.203 106.445 242.861 106.033 242.617 105.487C242.373 104.939 242.25 104.261 242.25 103.455V102.756C242.25 101.298 242.498 100.193 242.992 99.4403C243.489 98.6875 244.236 98.2983 245.233 98.2727C245.586 98.2614 245.9 98.2585 246.175 98.2642C246.451 98.2699 246.691 98.2571 246.895 98.2259C247.1 98.1946 247.273 98.1193 247.415 98ZM245.182 106.233C245.577 106.233 245.917 106.134 246.201 105.935C246.488 105.736 246.708 105.456 246.861 105.095C247.015 104.732 247.091 104.304 247.091 103.812C247.091 103.335 247.013 102.929 246.857 102.594C246.703 102.259 246.483 102.003 246.196 101.827C245.909 101.651 245.566 101.562 245.165 101.562C244.873 101.562 244.61 101.612 244.377 101.712C244.144 101.811 243.945 101.957 243.78 102.151C243.615 102.344 243.488 102.58 243.397 102.858C243.309 103.136 243.262 103.455 243.256 103.812C243.256 104.545 243.428 105.132 243.772 105.572C244.115 106.013 244.586 106.233 245.182 106.233ZM252.294 107.136C251.703 107.136 251.185 106.996 250.739 106.714C250.296 106.433 249.949 106.04 249.699 105.534C249.452 105.028 249.328 104.437 249.328 103.761C249.328 103.08 249.452 102.484 249.699 101.976C249.949 101.467 250.296 101.072 250.739 100.791C251.185 100.51 251.703 100.369 252.294 100.369C252.885 100.369 253.402 100.51 253.846 100.791C254.292 101.072 254.638 101.467 254.885 101.976C255.135 102.484 255.26 103.08 255.26 103.761C255.26 104.437 255.135 105.028 254.885 105.534C254.638 106.04 254.292 106.433 253.846 106.714C253.402 106.996 252.885 107.136 252.294 107.136ZM252.294 106.233C252.743 106.233 253.113 106.118 253.402 105.888C253.692 105.658 253.907 105.355 254.046 104.98C254.185 104.605 254.255 104.199 254.255 103.761C254.255 103.324 254.185 102.916 254.046 102.538C253.907 102.161 253.692 101.855 253.402 101.622C253.113 101.389 252.743 101.273 252.294 101.273C251.846 101.273 251.476 101.389 251.186 101.622C250.897 101.855 250.682 102.161 250.543 102.538C250.404 102.916 250.334 103.324 250.334 103.761C250.334 104.199 250.404 104.605 250.543 104.98C250.682 105.355 250.897 105.658 251.186 105.888C251.476 106.118 251.846 106.233 252.294 106.233ZM255.94 101.392V100.455H261.258V101.392H259.11V107H258.105V101.392H255.94ZM265.044 107.136C264.453 107.136 263.935 106.996 263.489 106.714C263.046 106.433 262.699 106.04 262.449 105.534C262.202 105.028 262.078 104.437 262.078 103.761C262.078 103.08 262.202 102.484 262.449 101.976C262.699 101.467 263.046 101.072 263.489 100.791C263.935 100.51 264.453 100.369 265.044 100.369C265.635 100.369 266.152 100.51 266.596 100.791C267.042 101.072 267.388 101.467 267.635 101.976C267.885 102.484 268.01 103.08 268.01 103.761C268.01 104.437 267.885 105.028 267.635 105.534C267.388 106.04 267.042 106.433 266.596 106.714C266.152 106.996 265.635 107.136 265.044 107.136ZM265.044 106.233C265.493 106.233 265.863 106.118 266.152 105.888C266.442 105.658 266.657 105.355 266.796 104.98C266.935 104.605 267.005 104.199 267.005 103.761C267.005 103.324 266.935 102.916 266.796 102.538C266.657 102.161 266.442 101.855 266.152 101.622C265.863 101.389 265.493 101.273 265.044 101.273C264.596 101.273 264.226 101.389 263.936 101.622C263.647 101.855 263.432 102.161 263.293 102.538C263.154 102.916 263.084 103.324 263.084 103.761C263.084 104.199 263.154 104.605 263.293 104.98C263.432 105.355 263.647 105.658 263.936 105.888C264.226 106.118 264.596 106.233 265.044 106.233ZM269.545 107V100.455H272.222C272.926 100.455 273.486 100.614 273.901 100.932C274.315 101.25 274.523 101.67 274.523 102.193C274.523 102.591 274.405 102.899 274.169 103.118C273.933 103.334 273.631 103.48 273.261 103.557C273.503 103.591 273.737 103.676 273.964 103.812C274.195 103.949 274.385 104.136 274.536 104.375C274.686 104.611 274.761 104.901 274.761 105.244C274.761 105.58 274.676 105.879 274.506 106.143C274.335 106.408 274.091 106.616 273.773 106.77C273.455 106.923 273.074 107 272.631 107H269.545ZM270.5 106.08H272.631C272.977 106.08 273.249 105.997 273.445 105.832C273.641 105.668 273.739 105.443 273.739 105.159C273.739 104.821 273.641 104.555 273.445 104.362C273.249 104.166 272.977 104.068 272.631 104.068H270.5V106.08ZM270.5 103.199H272.222C272.491 103.199 272.723 103.162 272.916 103.088C273.109 103.011 273.257 102.903 273.359 102.764C273.464 102.622 273.517 102.455 273.517 102.261C273.517 101.986 273.402 101.77 273.172 101.614C272.942 101.455 272.625 101.375 272.222 101.375H270.5V103.199ZM277.153 102.824H279.028C279.795 102.824 280.382 103.018 280.788 103.408C281.194 103.797 281.397 104.29 281.397 104.886C281.397 105.278 281.306 105.635 281.125 105.956C280.943 106.274 280.676 106.528 280.324 106.719C279.971 106.906 279.539 107 279.028 107H276.284V100.455H277.289V106.062H279.028C279.426 106.062 279.752 105.957 280.008 105.747C280.264 105.537 280.392 105.267 280.392 104.938C280.392 104.591 280.264 104.308 280.008 104.089C279.752 103.871 279.426 103.761 279.028 103.761H277.153V102.824ZM282.437 107V100.455H283.443V107H282.437ZM286.289 105.517L289.443 100.455H290.602V107H289.596V101.938L286.46 107H285.284V100.455H286.289V105.517ZM288.778 98.2727H289.716C289.716 98.733 289.556 99.1094 289.238 99.402C288.92 99.6946 288.488 99.8409 287.943 99.8409C287.406 99.8409 286.978 99.6946 286.66 99.402C286.345 99.1094 286.187 98.733 286.187 98.2727H287.125C287.125 98.4943 287.186 98.6889 287.308 98.8565C287.433 99.0241 287.645 99.108 287.943 99.108C288.241 99.108 288.454 99.0241 288.582 98.8565C288.713 98.6889 288.778 98.4943 288.778 98.2727ZM35.5455 117.392V116.455H40.8636V117.392H38.7159V123H37.7102V117.392H35.5455ZM42.3306 125.455V116.455H43.3022V117.494H43.4215C43.4954 117.381 43.5977 117.236 43.7283 117.06C43.8619 116.881 44.0522 116.722 44.2994 116.582C44.5494 116.44 44.8874 116.369 45.3136 116.369C45.8647 116.369 46.3505 116.507 46.771 116.783C47.1914 117.058 47.5195 117.449 47.7553 117.955C47.9911 118.46 48.109 119.057 48.109 119.744C48.109 120.438 47.9911 121.038 47.7553 121.547C47.5195 122.053 47.1928 122.445 46.7752 122.723C46.3576 122.999 45.8761 123.136 45.3306 123.136C44.9102 123.136 44.5735 123.067 44.3207 122.928C44.0678 122.786 43.8732 122.625 43.7369 122.446C43.6005 122.264 43.4954 122.114 43.4215 121.994H43.3363V125.455H42.3306ZM43.3192 119.727C43.3192 120.222 43.3917 120.658 43.5366 121.036C43.6815 121.411 43.8931 121.705 44.1715 121.918C44.4499 122.128 44.7908 122.233 45.1942 122.233C45.6147 122.233 45.9656 122.122 46.2468 121.901C46.5309 121.676 46.744 121.375 46.886 120.997C47.0309 120.616 47.1033 120.193 47.1033 119.727C47.1033 119.267 47.0323 118.852 46.8903 118.483C46.7511 118.111 46.5394 117.817 46.2553 117.601C45.9741 117.382 45.6204 117.273 45.1942 117.273C44.7852 117.273 44.4414 117.376 44.163 117.584C43.8846 117.788 43.6744 118.075 43.5323 118.445C43.3903 118.811 43.3192 119.239 43.3192 119.727ZM51.5692 123.153C51.1545 123.153 50.7781 123.075 50.44 122.919C50.1019 122.76 49.8335 122.531 49.6346 122.233C49.4357 121.932 49.3363 121.568 49.3363 121.142C49.3363 120.767 49.4102 120.463 49.5579 120.23C49.7056 119.994 49.9031 119.81 50.1502 119.676C50.3974 119.543 50.6701 119.443 50.9684 119.378C51.2695 119.31 51.5721 119.256 51.8761 119.216C52.2738 119.165 52.5962 119.126 52.8434 119.101C53.0934 119.072 53.2752 119.026 53.3888 118.96C53.5053 118.895 53.5636 118.781 53.5636 118.619V118.585C53.5636 118.165 53.4485 117.838 53.2184 117.605C52.9911 117.372 52.646 117.256 52.1829 117.256C51.7028 117.256 51.3263 117.361 51.0536 117.571C50.7809 117.781 50.5891 118.006 50.4783 118.244L49.5238 117.903C49.6942 117.506 49.9215 117.196 50.2056 116.974C50.4925 116.75 50.805 116.594 51.1431 116.506C51.484 116.415 51.8192 116.369 52.1488 116.369C52.359 116.369 52.6005 116.395 52.8732 116.446C53.1488 116.494 53.4144 116.595 53.6701 116.749C53.9286 116.902 54.1431 117.134 54.3136 117.443C54.484 117.753 54.5692 118.168 54.5692 118.688V123H53.5636V122.114H53.5124C53.4442 122.256 53.3306 122.408 53.1715 122.57C53.0124 122.732 52.8008 122.869 52.5366 122.983C52.2724 123.097 51.9499 123.153 51.5692 123.153ZM51.7227 122.25C52.1204 122.25 52.4556 122.172 52.7283 122.016C53.0039 121.859 53.2113 121.658 53.3505 121.411C53.4925 121.163 53.5636 120.903 53.5636 120.631V119.71C53.521 119.761 53.4272 119.808 53.2823 119.851C53.1403 119.891 52.9755 119.926 52.788 119.957C52.6033 119.986 52.4229 120.011 52.2468 120.034C52.0735 120.054 51.9329 120.071 51.8249 120.085C51.5636 120.119 51.3192 120.175 51.092 120.251C50.8675 120.325 50.6857 120.437 50.5465 120.588C50.4102 120.736 50.342 120.937 50.342 121.193C50.342 121.543 50.4712 121.807 50.7298 121.986C50.9911 122.162 51.3221 122.25 51.7227 122.25ZM59.0639 125.233V114.273H60.0696V125.233H59.0639ZM59.0639 123.136C58.6207 123.136 58.2173 123.057 57.8537 122.898C57.4901 122.736 57.1776 122.507 56.9162 122.212C56.6548 121.913 56.4531 121.557 56.3111 121.142C56.169 120.727 56.098 120.267 56.098 119.761C56.098 119.25 56.169 118.787 56.3111 118.372C56.4531 117.955 56.6548 117.597 56.9162 117.298C57.1776 117 57.4901 116.771 57.8537 116.612C58.2173 116.45 58.6207 116.369 59.0639 116.369H59.3707V123.136H59.0639ZM59.0639 122.233H59.2344V117.273H59.0639C58.7287 117.273 58.4375 117.341 58.1903 117.477C57.9432 117.611 57.7386 117.794 57.5767 118.027C57.4176 118.257 57.2983 118.521 57.2188 118.82C57.142 119.118 57.1037 119.432 57.1037 119.761C57.1037 120.199 57.1733 120.605 57.3125 120.98C57.4517 121.355 57.6662 121.658 57.956 121.888C58.2457 122.118 58.6151 122.233 59.0639 122.233ZM60.0696 123.136H59.7628V116.369H60.0696C60.5128 116.369 60.9162 116.45 61.2798 116.612C61.6435 116.771 61.956 117 62.2173 117.298C62.4787 117.597 62.6804 117.955 62.8224 118.372C62.9645 118.787 63.0355 119.25 63.0355 119.761C63.0355 120.267 62.9645 120.727 62.8224 121.142C62.6804 121.557 62.4787 121.913 62.2173 122.212C61.956 122.507 61.6435 122.736 61.2798 122.898C60.9162 123.057 60.5128 123.136 60.0696 123.136ZM60.0696 122.233C60.4077 122.233 60.6989 122.168 60.9432 122.037C61.1903 121.903 61.3935 121.722 61.5526 121.491C61.7145 121.259 61.8338 120.994 61.9105 120.699C61.9901 120.401 62.0298 120.088 62.0298 119.761C62.0298 119.324 61.9602 118.916 61.821 118.538C61.6818 118.161 61.4673 117.855 61.1776 117.622C60.8878 117.389 60.5185 117.273 60.0696 117.273H59.8991V122.233H60.0696ZM65.5785 121.517L68.7319 116.455H69.891V123H68.8853V117.938L65.7489 123H64.5728V116.455H65.5785V121.517ZM71.733 123V116.455H72.7386V119.301H73.4034L75.7557 116.455H77.0511L74.4091 119.608L77.0852 123H75.7898L73.642 120.239H72.7386V123H71.733ZM85.9339 119.267V120.205H82.3203V119.267H85.9339ZM82.5589 116.455V123H81.5533V116.455H82.5589ZM86.701 116.455V123H85.6953V116.455H86.701ZM90.4638 123.153C90.049 123.153 89.6726 123.075 89.3345 122.919C88.9964 122.76 88.728 122.531 88.5291 122.233C88.3303 121.932 88.2308 121.568 88.2308 121.142C88.2308 120.767 88.3047 120.463 88.4524 120.23C88.6001 119.994 88.7976 119.81 89.0447 119.676C89.2919 119.543 89.5646 119.443 89.8629 119.378C90.1641 119.31 90.4666 119.256 90.7706 119.216C91.1683 119.165 91.4908 119.126 91.7379 119.101C91.9879 119.072 92.1697 119.026 92.2834 118.96C92.3999 118.895 92.4581 118.781 92.4581 118.619V118.585C92.4581 118.165 92.343 117.838 92.1129 117.605C91.8857 117.372 91.5405 117.256 91.0774 117.256C90.5973 117.256 90.2209 117.361 89.9482 117.571C89.6754 117.781 89.4837 118.006 89.3729 118.244L88.4183 117.903C88.5888 117.506 88.8161 117.196 89.1001 116.974C89.3871 116.75 89.6996 116.594 90.0376 116.506C90.3786 116.415 90.7138 116.369 91.0433 116.369C91.2536 116.369 91.495 116.395 91.7678 116.446C92.0433 116.494 92.3089 116.595 92.5646 116.749C92.8232 116.902 93.0376 117.134 93.2081 117.443C93.3786 117.753 93.4638 118.168 93.4638 118.688V123H92.4581V122.114H92.407C92.3388 122.256 92.2251 122.408 92.0661 122.57C91.907 122.732 91.6953 122.869 91.4311 122.983C91.1669 123.097 90.8445 123.153 90.4638 123.153ZM90.6172 122.25C91.0149 122.25 91.3501 122.172 91.6229 122.016C91.8984 121.859 92.1058 121.658 92.245 121.411C92.3871 121.163 92.4581 120.903 92.4581 120.631V119.71C92.4155 119.761 92.3217 119.808 92.1768 119.851C92.0348 119.891 91.87 119.926 91.6825 119.957C91.4979 119.986 91.3175 120.011 91.1413 120.034C90.968 120.054 90.8274 120.071 90.7195 120.085C90.4581 120.119 90.2138 120.175 89.9865 120.251C89.7621 120.325 89.5803 120.437 89.4411 120.588C89.3047 120.736 89.2365 120.937 89.2365 121.193C89.2365 121.543 89.3658 121.807 89.6243 121.986C89.8857 122.162 90.2166 122.25 90.6172 122.25ZM101.333 123.136C100.72 123.136 100.191 122.991 99.7482 122.702C99.305 122.412 98.9641 122.013 98.7255 121.504C98.4869 120.996 98.3675 120.415 98.3675 119.761C98.3675 119.097 98.4897 118.51 98.734 118.001C98.9812 117.49 99.3249 117.091 99.7653 116.804C100.208 116.514 100.725 116.369 101.316 116.369C101.777 116.369 102.191 116.455 102.561 116.625C102.93 116.795 103.233 117.034 103.468 117.341C103.704 117.648 103.85 118.006 103.907 118.415H102.902C102.825 118.116 102.654 117.852 102.39 117.622C102.129 117.389 101.777 117.273 101.333 117.273C100.941 117.273 100.598 117.375 100.302 117.58C100.01 117.781 99.7809 118.067 99.6161 118.436C99.4542 118.803 99.3732 119.233 99.3732 119.727C99.3732 120.233 99.4528 120.673 99.6119 121.048C99.7738 121.423 100.001 121.714 100.294 121.922C100.589 122.129 100.936 122.233 101.333 122.233C101.595 122.233 101.832 122.188 102.045 122.097C102.258 122.006 102.439 121.875 102.586 121.705C102.734 121.534 102.839 121.33 102.902 121.091H103.907C103.85 121.477 103.71 121.825 103.485 122.135C103.264 122.442 102.97 122.686 102.603 122.868C102.24 123.047 101.816 123.136 101.333 123.136ZM107.304 123.153C106.889 123.153 106.512 123.075 106.174 122.919C105.836 122.76 105.568 122.531 105.369 122.233C105.17 121.932 105.071 121.568 105.071 121.142C105.071 120.767 105.145 120.463 105.292 120.23C105.44 119.994 105.637 119.81 105.885 119.676C106.132 119.543 106.404 119.443 106.703 119.378C107.004 119.31 107.306 119.256 107.61 119.216C108.008 119.165 108.331 119.126 108.578 119.101C108.828 119.072 109.01 119.026 109.123 118.96C109.24 118.895 109.298 118.781 109.298 118.619V118.585C109.298 118.165 109.183 117.838 108.953 117.605C108.725 117.372 108.38 117.256 107.917 117.256C107.437 117.256 107.061 117.361 106.788 117.571C106.515 117.781 106.324 118.006 106.213 118.244L105.258 117.903C105.429 117.506 105.656 117.196 105.94 116.974C106.227 116.75 106.539 116.594 106.877 116.506C107.218 116.415 107.554 116.369 107.883 116.369C108.093 116.369 108.335 116.395 108.608 116.446C108.883 116.494 109.149 116.595 109.404 116.749C109.663 116.902 109.877 117.134 110.048 117.443C110.218 117.753 110.304 118.168 110.304 118.688V123H109.298V122.114H109.247C109.179 122.256 109.065 122.408 108.906 122.57C108.747 122.732 108.535 122.869 108.271 122.983C108.007 123.097 107.684 123.153 107.304 123.153ZM107.457 122.25C107.855 122.25 108.19 122.172 108.463 122.016C108.738 121.859 108.946 121.658 109.085 121.411C109.227 121.163 109.298 120.903 109.298 120.631V119.71C109.255 119.761 109.162 119.808 109.017 119.851C108.875 119.891 108.71 119.926 108.522 119.957C108.338 119.986 108.157 120.011 107.981 120.034C107.808 120.054 107.667 120.071 107.559 120.085C107.298 120.119 107.054 120.175 106.826 120.251C106.602 120.325 106.42 120.437 106.281 120.588C106.145 120.736 106.076 120.937 106.076 121.193C106.076 121.543 106.206 121.807 106.464 121.986C106.725 122.162 107.056 122.25 107.457 122.25ZM113.145 121.517L116.298 116.455H117.457V123H116.452V117.938L113.315 123H112.139V116.455H113.145V121.517ZM115.634 114.273H116.571C116.571 114.733 116.412 115.109 116.094 115.402C115.776 115.695 115.344 115.841 114.798 115.841C114.261 115.841 113.834 115.695 113.516 115.402C113.2 115.109 113.043 114.733 113.043 114.273H113.98C113.98 114.494 114.041 114.689 114.163 114.857C114.288 115.024 114.5 115.108 114.798 115.108C115.097 115.108 115.31 115.024 115.438 114.857C115.568 114.689 115.634 114.494 115.634 114.273ZM118.409 117.392V116.455H123.727V117.392H121.579V123H120.574V117.392H118.409ZM126.78 123.153C126.365 123.153 125.989 123.075 125.651 122.919C125.313 122.76 125.044 122.531 124.846 122.233C124.647 121.932 124.547 121.568 124.547 121.142C124.547 120.767 124.621 120.463 124.769 120.23C124.917 119.994 125.114 119.81 125.361 119.676C125.608 119.543 125.881 119.443 126.179 119.378C126.48 119.31 126.783 119.256 127.087 119.216C127.485 119.165 127.807 119.126 128.054 119.101C128.304 119.072 128.486 119.026 128.6 118.96C128.716 118.895 128.775 118.781 128.775 118.619V118.585C128.775 118.165 128.659 117.838 128.429 117.605C128.202 117.372 127.857 117.256 127.394 117.256C126.914 117.256 126.537 117.361 126.265 117.571C125.992 117.781 125.8 118.006 125.689 118.244L124.735 117.903C124.905 117.506 125.132 117.196 125.417 116.974C125.703 116.75 126.016 116.594 126.354 116.506C126.695 116.415 127.03 116.369 127.36 116.369C127.57 116.369 127.811 116.395 128.084 116.446C128.36 116.494 128.625 116.595 128.881 116.749C129.14 116.902 129.354 117.134 129.525 117.443C129.695 117.753 129.78 118.168 129.78 118.688V123H128.775V122.114H128.723C128.655 122.256 128.542 122.408 128.382 122.57C128.223 122.732 128.012 122.869 127.748 122.983C127.483 123.097 127.161 123.153 126.78 123.153ZM126.934 122.25C127.331 122.25 127.667 122.172 127.939 122.016C128.215 121.859 128.422 121.658 128.561 121.411C128.703 121.163 128.775 120.903 128.775 120.631V119.71C128.732 119.761 128.638 119.808 128.493 119.851C128.351 119.891 128.186 119.926 127.999 119.957C127.814 119.986 127.634 120.011 127.458 120.034C127.284 120.054 127.144 120.071 127.036 120.085C126.775 120.119 126.53 120.175 126.303 120.251C126.078 120.325 125.897 120.437 125.757 120.588C125.621 120.736 125.553 120.937 125.553 121.193C125.553 121.543 125.682 121.807 125.941 121.986C126.202 122.162 126.533 122.25 126.934 122.25Z" fill="#5C5C5C"/>
<rect x="35.5" y="35.5" width="297" height="51" rx="9.5" fill="#E7F1FE"/>
<rect x="35.5" y="35.5" width="297" height="51" rx="9.5" stroke="#2CA9DB"/>
<rect x="40" y="40" width="42" height="42" rx="6" fill="#2CA9DB"/>
<g clip-path="url(#clip0_85_94)">
<path d="M70.6667 56.1665H51.3333C50.666 56.1665 50.125 56.7075 50.125 57.3748V59.7915C50.125 60.4588 50.666 60.9998 51.3333 60.9998H70.6667C71.334 60.9998 71.875 60.4588 71.875 59.7915V57.3748C71.875 56.7075 71.334 56.1665 70.6667 56.1665Z" stroke="white" stroke-width="2" stroke-linecap="round" stroke-linejoin="round"/>
<path d="M61 56.1665V71.8748" stroke="white" stroke-width="2" stroke-linecap="round" stroke-linejoin="round"/>
<path d="M69.4587 61V69.4583C69.4587 70.0993 69.204 70.714 68.7508 71.1672C68.2976 71.6204 67.6829 71.875 67.042 71.875H54.9587C54.3177 71.875 53.703 71.6204 53.2498 71.1672C52.7966 70.714 52.542 70.0993 52.542 69.4583V61" stroke="white" stroke-width="2" stroke-linecap="round" stroke-linejoin="round"/>
<path d="M55.5628 56.1667C54.7617 56.1667 53.9933 55.8484 53.4268 55.2819C52.8603 54.7154 52.542 53.947 52.542 53.1459C52.542 52.3447 52.8603 51.5763 53.4268 51.0098C53.9933 50.4433 54.7617 50.125 55.5628 50.125C56.7285 50.1047 57.8708 50.6703 58.8407 51.748C59.8107 52.8257 60.5632 54.3656 61.0003 56.1667C61.4374 54.3656 62.19 52.8257 63.1599 51.748C64.1299 50.6703 65.2722 50.1047 66.4378 50.125C67.239 50.125 68.0074 50.4433 68.5739 51.0098C69.1404 51.5763 69.4587 52.3447 69.4587 53.1459C69.4587 53.947 69.1404 54.7154 68.5739 55.2819C68.0074 55.8484 67.239 56.1667 66.4378 56.1667" stroke="white" stroke-width="2" stroke-linecap="round" stroke-linejoin="round"/>
</g>
<path d="M100.849 46.8182V57H99.6165V47.9119H94.4858V57H93.2528V46.8182H100.849ZM106.28 57.1591C105.59 57.1591 104.985 56.995 104.465 56.6669C103.948 56.3388 103.544 55.8797 103.252 55.2898C102.964 54.6998 102.819 54.0104 102.819 53.2216C102.819 52.4261 102.964 51.7318 103.252 51.1385C103.544 50.5452 103.948 50.0845 104.465 49.7564C104.985 49.4283 105.59 49.2642 106.28 49.2642C106.969 49.2642 107.572 49.4283 108.089 49.7564C108.61 50.0845 109.014 50.5452 109.302 51.1385C109.594 51.7318 109.74 52.4261 109.74 53.2216C109.74 54.0104 109.594 54.6998 109.302 55.2898C109.014 55.8797 108.61 56.3388 108.089 56.6669C107.572 56.995 106.969 57.1591 106.28 57.1591ZM106.28 56.1051C106.803 56.1051 107.234 55.9709 107.572 55.7024C107.91 55.4339 108.161 55.081 108.323 54.6435C108.485 54.206 108.567 53.732 108.567 53.2216C108.567 52.7112 108.485 52.2356 108.323 51.7947C108.161 51.3539 107.91 50.9976 107.572 50.7259C107.234 50.4541 106.803 50.3182 106.28 50.3182C105.756 50.3182 105.325 50.4541 104.987 50.7259C104.649 50.9976 104.399 51.3539 104.236 51.7947C104.074 52.2356 103.993 52.7112 103.993 53.2216C103.993 53.732 104.074 54.206 104.236 54.6435C104.399 55.081 104.649 55.4339 104.987 55.7024C105.325 55.9709 105.756 56.1051 106.28 56.1051ZM110.716 59.1875V55.9062H111.352C111.508 55.7438 111.642 55.5682 111.755 55.3793C111.867 55.1903 111.965 54.9666 112.048 54.7081C112.134 54.4463 112.207 54.1281 112.267 53.7536C112.326 53.3757 112.379 52.92 112.426 52.3864L112.684 49.3636H117.537V55.9062H118.71V59.1875H117.537V57H111.889V59.1875H110.716ZM112.684 55.9062H116.363V50.4574H113.778L113.579 52.3864C113.496 53.1851 113.394 53.8828 113.271 54.4794C113.148 55.076 112.953 55.5516 112.684 55.9062ZM122.514 57.179C122.03 57.179 121.591 57.0878 121.197 56.9055C120.802 56.7199 120.489 56.4531 120.257 56.1051C120.025 55.7538 119.909 55.3295 119.909 54.8324C119.909 54.3949 119.995 54.0402 120.168 53.7685C120.34 53.4934 120.57 53.2779 120.859 53.1222C121.147 52.9664 121.465 52.8504 121.813 52.7741C122.165 52.6946 122.518 52.6316 122.872 52.5852C123.336 52.5256 123.713 52.4808 124.001 52.451C124.293 52.4179 124.505 52.3632 124.637 52.2869C124.773 52.2107 124.841 52.0781 124.841 51.8892V51.8494C124.841 51.3589 124.707 50.9777 124.438 50.706C124.173 50.4342 123.771 50.2983 123.23 50.2983C122.67 50.2983 122.231 50.4209 121.913 50.6662C121.595 50.9115 121.371 51.1733 121.242 51.4517L120.128 51.054C120.327 50.59 120.592 50.2287 120.923 49.9702C121.258 49.7083 121.623 49.526 122.017 49.4233C122.415 49.3172 122.806 49.2642 123.191 49.2642C123.436 49.2642 123.718 49.294 124.036 49.3537C124.357 49.41 124.667 49.5277 124.965 49.7067C125.267 49.8857 125.517 50.1558 125.716 50.517C125.915 50.8783 126.014 51.3622 126.014 51.9688V57H124.841V55.9659H124.781C124.702 56.1316 124.569 56.3089 124.384 56.4979C124.198 56.6868 123.951 56.8475 123.643 56.9801C123.335 57.1127 122.959 57.179 122.514 57.179ZM122.693 56.125C123.157 56.125 123.548 56.0339 123.867 55.8516C124.188 55.6693 124.43 55.4339 124.593 55.1456C124.758 54.8572 124.841 54.554 124.841 54.2358V53.1619C124.791 53.2216 124.682 53.2763 124.513 53.326C124.347 53.3724 124.155 53.4138 123.936 53.4503C123.721 53.4834 123.51 53.5133 123.305 53.5398C123.103 53.563 122.939 53.5829 122.813 53.5994C122.508 53.6392 122.223 53.7038 121.958 53.7933C121.696 53.8795 121.484 54.0104 121.321 54.1861C121.162 54.3584 121.083 54.5937 121.083 54.892C121.083 55.2997 121.233 55.608 121.535 55.8168C121.84 56.0223 122.226 56.125 122.693 56.125ZM128.156 59.8636V49.3636H129.289V50.5767H129.429C129.515 50.4441 129.634 50.2751 129.787 50.0696C129.942 49.8608 130.164 49.6752 130.453 49.5128C130.744 49.3471 131.139 49.2642 131.636 49.2642C132.279 49.2642 132.846 49.425 133.336 49.7464C133.827 50.0679 134.21 50.5237 134.485 51.1136C134.76 51.7036 134.897 52.3996 134.897 53.2017C134.897 54.0104 134.76 54.7114 134.485 55.3047C134.21 55.8946 133.828 56.352 133.341 56.6768C132.854 56.9983 132.292 57.1591 131.656 57.1591C131.165 57.1591 130.773 57.0779 130.478 56.9155C130.183 56.7498 129.956 56.5625 129.797 56.3537C129.637 56.1416 129.515 55.9659 129.429 55.8267H129.329V59.8636H128.156ZM129.309 53.1818C129.309 53.7585 129.394 54.2673 129.563 54.7081C129.732 55.1456 129.979 55.4886 130.304 55.7372C130.628 55.9825 131.026 56.1051 131.497 56.1051C131.987 56.1051 132.397 55.9759 132.725 55.7173C133.056 55.4555 133.305 55.1042 133.471 54.6634C133.64 54.2192 133.724 53.7254 133.724 53.1818C133.724 52.6449 133.641 52.161 133.475 51.7301C133.313 51.2959 133.066 50.9529 132.735 50.701C132.407 50.4458 131.994 50.3182 131.497 50.3182C131.02 50.3182 130.618 50.4392 130.294 50.6811C129.969 50.9197 129.724 51.2545 129.558 51.6854C129.392 52.1129 129.309 52.6117 129.309 53.1818ZM137.86 55.2699L141.539 49.3636H142.892V57H141.718V51.0938L138.059 57H136.687V49.3636H137.86V55.2699ZM149.217 55.4091L151.882 49.3636H152.995L149.694 57H148.74L145.498 49.3636H146.592L149.217 55.4091ZM146.214 49.3636V57H145.041V49.3636H146.214ZM152.22 57V49.3636H153.393V57H152.22ZM164.191 49.3636V50.4574H160.651V57H159.478V49.3636H164.191ZM167.755 57.179C167.271 57.179 166.832 57.0878 166.437 56.9055C166.043 56.7199 165.73 56.4531 165.498 56.1051C165.266 55.7538 165.15 55.3295 165.15 54.8324C165.15 54.3949 165.236 54.0402 165.408 53.7685C165.58 53.4934 165.811 53.2779 166.099 53.1222C166.387 52.9664 166.706 52.8504 167.054 52.7741C167.405 52.6946 167.758 52.6316 168.113 52.5852C168.577 52.5256 168.953 52.4808 169.241 52.451C169.533 52.4179 169.745 52.3632 169.877 52.2869C170.013 52.2107 170.081 52.0781 170.081 51.8892V51.8494C170.081 51.3589 169.947 50.9777 169.679 50.706C169.413 50.4342 169.011 50.2983 168.471 50.2983C167.91 50.2983 167.471 50.4209 167.153 50.6662C166.835 50.9115 166.611 51.1733 166.482 51.4517L165.368 51.054C165.567 50.59 165.832 50.2287 166.164 49.9702C166.498 49.7083 166.863 49.526 167.257 49.4233C167.655 49.3172 168.046 49.2642 168.431 49.2642C168.676 49.2642 168.958 49.294 169.276 49.3537C169.597 49.41 169.907 49.5277 170.206 49.7067C170.507 49.8857 170.757 50.1558 170.956 50.517C171.155 50.8783 171.255 51.3622 171.255 51.9688V57H170.081V55.9659H170.022C169.942 56.1316 169.81 56.3089 169.624 56.4979C169.438 56.6868 169.191 56.8475 168.883 56.9801C168.575 57.1127 168.199 57.179 167.755 57.179ZM167.934 56.125C168.398 56.125 168.789 56.0339 169.107 55.8516C169.428 55.6693 169.67 55.4339 169.833 55.1456C169.998 54.8572 170.081 54.554 170.081 54.2358V53.1619C170.032 53.2216 169.922 53.2763 169.753 53.326C169.587 53.3724 169.395 53.4138 169.176 53.4503C168.961 53.4834 168.751 53.5133 168.545 53.5398C168.343 53.563 168.179 53.5829 168.053 53.5994C167.748 53.6392 167.463 53.7038 167.198 53.7933C166.936 53.8795 166.724 54.0104 166.561 54.1861C166.402 54.3584 166.323 54.5937 166.323 54.892C166.323 55.2997 166.474 55.608 166.775 55.8168C167.08 56.0223 167.466 56.125 167.934 56.125ZM174.569 55.2699L178.248 49.3636H179.601V57H178.427V51.0938L174.768 57H173.396V49.3636H174.569V55.2699ZM177.473 46.8182H178.567C178.567 47.3551 178.381 47.7943 178.01 48.1357C177.639 48.477 177.135 48.6477 176.498 48.6477C175.872 48.6477 175.373 48.477 175.002 48.1357C174.634 47.7943 174.45 47.3551 174.45 46.8182H175.544C175.544 47.0767 175.615 47.3037 175.758 47.4993C175.903 47.6948 176.15 47.7926 176.498 47.7926C176.846 47.7926 177.095 47.6948 177.244 47.4993C177.397 47.3037 177.473 47.0767 177.473 46.8182ZM180.934 59.1875V55.9062H181.571C181.726 55.7438 181.861 55.5682 181.973 55.3793C182.086 55.1903 182.184 54.9666 182.267 54.7081C182.353 54.4463 182.426 54.1281 182.485 53.7536C182.545 53.3757 182.598 52.92 182.645 52.3864L182.903 49.3636H187.755V55.9062H188.929V59.1875H187.755V57H182.108V59.1875H180.934ZM182.903 55.9062H186.582V50.4574H183.997L183.798 52.3864C183.715 53.1851 183.612 53.8828 183.49 54.4794C183.367 55.076 183.172 55.5516 182.903 55.9062ZM197.526 57.1591C196.836 57.1591 196.231 56.995 195.711 56.6669C195.194 56.3388 194.79 55.8797 194.498 55.2898C194.21 54.6998 194.066 54.0104 194.066 53.2216C194.066 52.4261 194.21 51.7318 194.498 51.1385C194.79 50.5452 195.194 50.0845 195.711 49.7564C196.231 49.4283 196.836 49.2642 197.526 49.2642C198.215 49.2642 198.818 49.4283 199.335 49.7564C199.856 50.0845 200.26 50.5452 200.548 51.1385C200.84 51.7318 200.986 52.4261 200.986 53.2216C200.986 54.0104 200.84 54.6998 200.548 55.2898C200.26 55.8797 199.856 56.3388 199.335 56.6669C198.818 56.995 198.215 57.1591 197.526 57.1591ZM197.526 56.1051C198.049 56.1051 198.48 55.9709 198.818 55.7024C199.156 55.4339 199.407 55.081 199.569 54.6435C199.731 54.206 199.813 53.732 199.813 53.2216C199.813 52.7112 199.731 52.2356 199.569 51.7947C199.407 51.3539 199.156 50.9976 198.818 50.7259C198.48 50.4541 198.049 50.3182 197.526 50.3182C197.002 50.3182 196.571 50.4541 196.233 50.7259C195.895 50.9976 195.645 51.3539 195.482 51.7947C195.32 52.2356 195.239 52.7112 195.239 53.2216C195.239 53.732 195.32 54.206 195.482 54.6435C195.645 55.081 195.895 55.4339 196.233 55.7024C196.571 55.9709 197.002 56.1051 197.526 56.1051ZM201.779 50.4574V49.3636H207.983V50.4574H205.478V57H204.305V50.4574H201.779ZM216.735 57.1591C216.019 57.1591 215.402 56.9901 214.885 56.652C214.368 56.3139 213.971 55.8482 213.692 55.255C213.414 54.6617 213.275 53.9839 213.275 53.2216C213.275 52.446 213.417 51.7616 213.702 51.1683C213.99 50.5717 214.391 50.1061 214.905 49.7713C215.422 49.4332 216.025 49.2642 216.715 49.2642C217.252 49.2642 217.736 49.3636 218.167 49.5625C218.597 49.7614 218.95 50.0398 219.225 50.3977C219.501 50.7557 219.671 51.1733 219.738 51.6506H218.564C218.475 51.3026 218.276 50.9943 217.968 50.7259C217.663 50.4541 217.252 50.3182 216.735 50.3182C216.277 50.3182 215.876 50.4375 215.532 50.6761C215.19 50.9115 214.923 51.2446 214.731 51.6754C214.542 52.103 214.448 52.6051 214.448 53.1818C214.448 53.7718 214.541 54.2855 214.726 54.723C214.915 55.1605 215.18 55.5002 215.522 55.7422C215.866 55.9841 216.271 56.1051 216.735 56.1051C217.04 56.1051 217.316 56.0521 217.565 55.946C217.814 55.84 218.024 55.6875 218.196 55.4886C218.369 55.2898 218.491 55.0511 218.564 54.7727H219.738C219.671 55.2235 219.507 55.6295 219.245 55.9908C218.987 56.3487 218.644 56.6338 218.216 56.8459C217.792 57.0547 217.298 57.1591 216.735 57.1591ZM221.453 57V49.3636H227.458V57H226.285V50.4574H222.626V57H221.453ZM232.803 57.1591C232.067 57.1591 231.432 56.9967 230.899 56.6719C230.368 56.3438 229.959 55.8864 229.671 55.2997C229.386 54.7098 229.243 54.0237 229.243 53.2415C229.243 52.4593 229.386 51.7699 229.671 51.1733C229.959 50.5734 230.36 50.1061 230.874 49.7713C231.391 49.4332 231.994 49.2642 232.684 49.2642C233.081 49.2642 233.474 49.3305 233.862 49.4631C234.25 49.5956 234.603 49.8111 234.921 50.1094C235.239 50.4044 235.493 50.7955 235.681 51.2827C235.87 51.7699 235.965 52.3698 235.965 53.0824V53.5795H230.078V52.5653H234.772C234.772 52.1345 234.685 51.75 234.513 51.4119C234.344 51.0739 234.102 50.8071 233.787 50.6115C233.476 50.416 233.108 50.3182 232.684 50.3182C232.216 50.3182 231.812 50.4342 231.471 50.6662C231.132 50.8949 230.872 51.1932 230.69 51.5611C230.508 51.929 230.417 52.3234 230.417 52.7443V53.4205C230.417 53.9972 230.516 54.486 230.715 54.8871C230.917 55.2848 231.197 55.5881 231.555 55.7969C231.913 56.0024 232.329 56.1051 232.803 56.1051C233.111 56.1051 233.39 56.062 233.638 55.9759C233.89 55.8864 234.107 55.7538 234.289 55.5781C234.472 55.3991 234.613 55.1771 234.712 54.9119L235.846 55.2301C235.726 55.6146 235.526 55.9527 235.244 56.2443C234.962 56.5327 234.614 56.758 234.2 56.9205C233.786 57.0795 233.32 57.1591 232.803 57.1591ZM243.755 49.3636V55.9062H244.829V59.4659H243.656V57H237.75V49.3636H238.923V55.9062H242.582V49.3636H243.755ZM247.81 55.2699L251.489 49.3636H252.841V57H251.668V51.0938L248.009 57H246.636V49.3636H247.81V55.2699ZM257.237 57.179C256.753 57.179 256.314 57.0878 255.92 56.9055C255.525 56.7199 255.212 56.4531 254.98 56.1051C254.748 55.7538 254.632 55.3295 254.632 54.8324C254.632 54.3949 254.718 54.0402 254.89 53.7685C255.063 53.4934 255.293 53.2779 255.581 53.1222C255.87 52.9664 256.188 52.8504 256.536 52.7741C256.887 52.6946 257.24 52.6316 257.595 52.5852C258.059 52.5256 258.435 52.4808 258.724 52.451C259.015 52.4179 259.227 52.3632 259.36 52.2869C259.496 52.2107 259.564 52.0781 259.564 51.8892V51.8494C259.564 51.3589 259.43 50.9777 259.161 50.706C258.896 50.4342 258.493 50.2983 257.953 50.2983C257.393 50.2983 256.954 50.4209 256.635 50.6662C256.317 50.9115 256.094 51.1733 255.964 51.4517L254.851 51.054C255.05 50.59 255.315 50.2287 255.646 49.9702C255.981 49.7083 256.345 49.526 256.74 49.4233C257.138 49.3172 257.529 49.2642 257.913 49.2642C258.158 49.2642 258.44 49.294 258.758 49.3537C259.08 49.41 259.39 49.5277 259.688 49.7067C259.99 49.8857 260.24 50.1558 260.439 50.517C260.638 50.8783 260.737 51.3622 260.737 51.9688V57H259.564V55.9659H259.504C259.425 56.1316 259.292 56.3089 259.106 56.4979C258.921 56.6868 258.674 56.8475 258.366 56.9801C258.057 57.1127 257.681 57.179 257.237 57.179ZM257.416 56.125C257.88 56.125 258.271 56.0339 258.589 55.8516C258.911 55.6693 259.153 55.4339 259.315 55.1456C259.481 54.8572 259.564 54.554 259.564 54.2358V53.1619C259.514 53.2216 259.405 53.2763 259.236 53.326C259.07 53.3724 258.878 53.4138 258.659 53.4503C258.443 53.4834 258.233 53.5133 258.028 53.5398C257.825 53.563 257.661 53.5829 257.535 53.5994C257.23 53.6392 256.945 53.7038 256.68 53.7933C256.418 53.8795 256.206 54.0104 256.044 54.1861C255.885 54.3584 255.805 54.5937 255.805 54.892C255.805 55.2997 255.956 55.608 256.258 55.8168C256.563 56.0223 256.949 56.125 257.416 56.125ZM262.202 57V55.9062H262.481C262.71 55.9062 262.9 55.8615 263.053 55.772C263.205 55.6792 263.328 55.5185 263.42 55.2898C263.517 55.0578 263.589 54.7363 263.639 54.3253C263.692 53.911 263.73 53.384 263.754 52.7443L263.893 49.3636H268.984V57H267.81V50.4574H265.006L264.887 53.1818C264.861 53.8082 264.804 54.3601 264.718 54.8374C264.635 55.3113 264.508 55.709 264.335 56.0305C264.166 56.352 263.941 56.594 263.659 56.7564C263.377 56.9188 263.024 57 262.6 57H262.202ZM272.31 55.2699L275.989 49.3636H277.341V57H276.168V51.0938L272.509 57H271.136V49.3636H272.31V55.2699ZM282.592 57.1591C281.876 57.1591 281.26 56.9901 280.743 56.652C280.226 56.3139 279.828 55.8482 279.55 55.255C279.271 54.6617 279.132 53.9839 279.132 53.2216C279.132 52.446 279.274 51.7616 279.559 51.1683C279.848 50.5717 280.249 50.1061 280.763 49.7713C281.28 49.4332 281.883 49.2642 282.572 49.2642C283.109 49.2642 283.593 49.3636 284.024 49.5625C284.455 49.7614 284.808 50.0398 285.083 50.3977C285.358 50.7557 285.529 51.1733 285.595 51.6506H284.422C284.332 51.3026 284.133 50.9943 283.825 50.7259C283.52 50.4541 283.109 50.3182 282.592 50.3182C282.135 50.3182 281.734 50.4375 281.389 50.6761C281.048 50.9115 280.781 51.2446 280.589 51.6754C280.4 52.103 280.305 52.6051 280.305 53.1818C280.305 53.7718 280.398 54.2855 280.584 54.723C280.773 55.1605 281.038 55.5002 281.379 55.7422C281.724 55.9841 282.128 56.1051 282.592 56.1051C282.897 56.1051 283.174 56.0521 283.422 55.946C283.671 55.84 283.881 55.6875 284.054 55.4886C284.226 55.2898 284.349 55.0511 284.422 54.7727H285.595C285.529 55.2235 285.365 55.6295 285.103 55.9908C284.844 56.3487 284.501 56.6338 284.074 56.8459C283.649 57.0547 283.156 57.1591 282.592 57.1591ZM286.709 50.4574V49.3636H292.913V50.4574H290.407V57H289.234V50.4574H286.709ZM297.33 57.1591C296.641 57.1591 296.036 56.995 295.516 56.6669C294.999 56.3388 294.594 55.8797 294.303 55.2898C294.014 54.6998 293.87 54.0104 293.87 53.2216C293.87 52.4261 294.014 51.7318 294.303 51.1385C294.594 50.5452 294.999 50.0845 295.516 49.7564C296.036 49.4283 296.641 49.2642 297.33 49.2642C298.02 49.2642 298.623 49.4283 299.14 49.7564C299.66 50.0845 300.065 50.5452 300.353 51.1385C300.645 51.7318 300.791 52.4261 300.791 53.2216C300.791 54.0104 300.645 54.6998 300.353 55.2898C300.065 55.8797 299.66 56.3388 299.14 56.6669C298.623 56.995 298.02 57.1591 297.33 57.1591ZM297.33 56.1051C297.854 56.1051 298.285 55.9709 298.623 55.7024C298.961 55.4339 299.211 55.081 299.374 54.6435C299.536 54.206 299.617 53.732 299.617 53.2216C299.617 52.7112 299.536 52.2356 299.374 51.7947C299.211 51.3539 298.961 50.9976 298.623 50.7259C298.285 50.4541 297.854 50.3182 297.33 50.3182C296.807 50.3182 296.376 50.4541 296.038 50.7259C295.7 50.9976 295.45 51.3539 295.287 51.7947C295.125 52.2356 295.044 52.7112 295.044 53.2216C295.044 53.732 295.125 54.206 295.287 54.6435C295.45 55.081 295.7 55.4339 296.038 55.7024C296.376 55.9709 296.807 56.1051 297.33 56.1051ZM302.582 57V49.3636H305.704C306.526 49.3636 307.179 49.5492 307.663 49.9205C308.147 50.2917 308.388 50.7822 308.388 51.392C308.388 51.8561 308.251 52.2157 307.976 52.4709C307.701 52.7228 307.348 52.8935 306.917 52.983C307.199 53.0227 307.472 53.1222 307.737 53.2812C308.006 53.4403 308.228 53.6591 308.403 53.9375C308.579 54.2126 308.667 54.5507 308.667 54.9517C308.667 55.3428 308.567 55.6925 308.369 56.0007C308.17 56.3089 307.885 56.5526 307.513 56.7315C307.142 56.9105 306.698 57 306.181 57H302.582ZM303.695 55.9261H306.181C306.585 55.9261 306.902 55.83 307.131 55.6378C307.359 55.4455 307.474 55.1837 307.474 54.8523C307.474 54.4579 307.359 54.148 307.131 53.9226C306.902 53.6939 306.585 53.5795 306.181 53.5795H303.695V55.9261ZM303.695 52.5653H305.704C306.019 52.5653 306.289 52.5223 306.514 52.4361C306.74 52.3466 306.912 52.2206 307.031 52.0582C307.154 51.8925 307.215 51.697 307.215 51.4716C307.215 51.1501 307.081 50.8982 306.812 50.7159C306.544 50.5303 306.174 50.4375 305.704 50.4375H303.695V52.5653ZM93.233 75V64.8182H99.3778V65.9119H94.4659V69.0938H97.0511C97.7803 69.0938 98.3951 69.2131 98.8956 69.4517C99.3994 69.6903 99.7805 70.0268 100.039 70.4609C100.301 70.8951 100.432 71.4072 100.432 71.9972C100.432 72.5871 100.301 73.1075 100.039 73.5582C99.7805 74.009 99.3994 74.362 98.8956 74.6172C98.3951 74.8724 97.7803 75 97.0511 75H93.233ZM94.4659 73.9261H97.0511C97.5152 73.9261 97.9079 73.8333 98.2294 73.6477C98.5542 73.4588 98.7995 73.2169 98.9652 72.9219C99.1342 72.6236 99.2188 72.3087 99.2188 71.9773C99.2188 71.4901 99.0315 71.0708 98.657 70.7195C98.2824 70.3648 97.7472 70.1875 97.0511 70.1875H94.4659V73.9261ZM105.405 75.1591C104.715 75.1591 104.11 74.995 103.59 74.6669C103.073 74.3388 102.669 73.8797 102.377 73.2898C102.089 72.6998 101.944 72.0104 101.944 71.2216C101.944 70.4261 102.089 69.7318 102.377 69.1385C102.669 68.5452 103.073 68.0845 103.59 67.7564C104.11 67.4283 104.715 67.2642 105.405 67.2642C106.094 67.2642 106.697 67.4283 107.214 67.7564C107.735 68.0845 108.139 68.5452 108.427 69.1385C108.719 69.7318 108.865 70.4261 108.865 71.2216C108.865 72.0104 108.719 72.6998 108.427 73.2898C108.139 73.8797 107.735 74.3388 107.214 74.6669C106.697 74.995 106.094 75.1591 105.405 75.1591ZM105.405 74.1051C105.928 74.1051 106.359 73.9709 106.697 73.7024C107.035 73.4339 107.286 73.081 107.448 72.6435C107.61 72.206 107.692 71.732 107.692 71.2216C107.692 70.7112 107.61 70.2356 107.448 69.7947C107.286 69.3539 107.035 68.9976 106.697 68.7259C106.359 68.4541 105.928 68.3182 105.405 68.3182C104.881 68.3182 104.45 68.4541 104.112 68.7259C103.774 68.9976 103.524 69.3539 103.361 69.7947C103.199 70.2356 103.118 70.7112 103.118 71.2216C103.118 71.732 103.199 72.206 103.361 72.6435C103.524 73.081 103.774 73.4339 104.112 73.7024C104.45 73.9709 104.881 74.1051 105.405 74.1051ZM109.658 68.4574V67.3636H115.862V68.4574H113.357V75H112.183V68.4574H109.658ZM120.28 77.6051V64.8182H121.453V77.6051H120.28ZM120.28 75.1591C119.763 75.1591 119.292 75.0663 118.868 74.8807C118.443 74.6918 118.079 74.425 117.774 74.0803C117.469 73.7322 117.234 73.3163 117.068 72.8324C116.902 72.3485 116.819 71.8116 116.819 71.2216C116.819 70.625 116.902 70.0848 117.068 69.6009C117.234 69.1136 117.469 68.696 117.774 68.348C118.079 68 118.443 67.7332 118.868 67.5476C119.292 67.3587 119.763 67.2642 120.28 67.2642H120.638V75.1591H120.28ZM120.28 74.1051H120.479V68.3182H120.28C119.889 68.3182 119.549 68.3977 119.26 68.5568C118.972 68.7126 118.733 68.9264 118.545 69.1982C118.359 69.4666 118.22 69.7749 118.127 70.1229C118.037 70.4709 117.993 70.8371 117.993 71.2216C117.993 71.732 118.074 72.206 118.236 72.6435C118.399 73.081 118.649 73.4339 118.987 73.7024C119.325 73.9709 119.756 74.1051 120.28 74.1051ZM121.453 75.1591H121.095V67.2642H121.453C121.97 67.2642 122.441 67.3587 122.865 67.5476C123.289 67.7332 123.654 68 123.959 68.348C124.264 68.696 124.499 69.1136 124.665 69.6009C124.83 70.0848 124.913 70.625 124.913 71.2216C124.913 71.8116 124.83 72.3485 124.665 72.8324C124.499 73.3163 124.264 73.7322 123.959 74.0803C123.654 74.425 123.289 74.6918 122.865 74.8807C122.441 75.0663 121.97 75.1591 121.453 75.1591ZM121.453 74.1051C121.847 74.1051 122.187 74.0289 122.472 73.8764C122.76 73.7206 122.997 73.5085 123.183 73.2401C123.372 72.9683 123.511 72.66 123.601 72.3153C123.693 71.9673 123.74 71.6027 123.74 71.2216C123.74 70.7112 123.659 70.2356 123.496 69.7947C123.334 69.3539 123.084 68.9976 122.746 68.7259C122.407 68.4541 121.977 68.3182 121.453 68.3182H121.254V74.1051H121.453ZM128.954 75.179C128.47 75.179 128.031 75.0878 127.636 74.9055C127.242 74.7199 126.929 74.4531 126.697 74.1051C126.465 73.7538 126.349 73.3295 126.349 72.8324C126.349 72.3949 126.435 72.0402 126.607 71.7685C126.78 71.4934 127.01 71.2779 127.298 71.1222C127.587 70.9664 127.905 70.8504 128.253 70.7741C128.604 70.6946 128.957 70.6316 129.312 70.5852C129.776 70.5256 130.152 70.4808 130.44 70.451C130.732 70.4179 130.944 70.3632 131.077 70.2869C131.213 70.2107 131.281 70.0781 131.281 69.8892V69.8494C131.281 69.3589 131.146 68.9777 130.878 68.706C130.613 68.4342 130.21 68.2983 129.67 68.2983C129.11 68.2983 128.67 68.4209 128.352 68.6662C128.034 68.9115 127.81 69.1733 127.681 69.4517L126.567 69.054C126.766 68.59 127.031 68.2287 127.363 67.9702C127.698 67.7083 128.062 67.526 128.457 67.4233C128.854 67.3172 129.246 67.2642 129.63 67.2642C129.875 67.2642 130.157 67.294 130.475 67.3537C130.797 67.41 131.107 67.5277 131.405 67.7067C131.706 67.8857 131.957 68.1558 132.156 68.517C132.354 68.8783 132.454 69.3622 132.454 69.9688V75H131.281V73.9659H131.221C131.141 74.1316 131.009 74.3089 130.823 74.4979C130.638 74.6868 130.391 74.8475 130.082 74.9801C129.774 75.1127 129.398 75.179 128.954 75.179ZM129.133 74.125C129.597 74.125 129.988 74.0339 130.306 73.8516C130.628 73.6693 130.87 73.4339 131.032 73.1456C131.198 72.8572 131.281 72.554 131.281 72.2358V71.1619C131.231 71.2216 131.121 71.2763 130.952 71.326C130.787 71.3724 130.594 71.4138 130.376 71.4503C130.16 71.4834 129.95 71.5133 129.744 71.5398C129.542 71.563 129.378 71.5829 129.252 71.5994C128.947 71.6392 128.662 71.7038 128.397 71.7933C128.135 71.8795 127.923 72.0104 127.761 72.1861C127.602 72.3584 127.522 72.5937 127.522 72.892C127.522 73.2997 127.673 73.608 127.974 73.8168C128.279 74.0223 128.665 74.125 129.133 74.125ZM134.595 75V67.3636H135.769V70.6847H136.544L139.289 67.3636H140.8L137.718 71.0426L140.84 75H139.328L136.823 71.7784H135.769V75H134.595ZM141.677 68.4574V67.3636H147.882V68.4574H145.376V75H144.203V68.4574H141.677ZM152.299 75.1591C151.61 75.1591 151.005 74.995 150.485 74.6669C149.968 74.3388 149.563 73.8797 149.271 73.2898C148.983 72.6998 148.839 72.0104 148.839 71.2216C148.839 70.4261 148.983 69.7318 149.271 69.1385C149.563 68.5452 149.968 68.0845 150.485 67.7564C151.005 67.4283 151.61 67.2642 152.299 67.2642C152.989 67.2642 153.592 67.4283 154.109 67.7564C154.629 68.0845 155.034 68.5452 155.322 69.1385C155.614 69.7318 155.759 70.4261 155.759 71.2216C155.759 72.0104 155.614 72.6998 155.322 73.2898C155.034 73.8797 154.629 74.3388 154.109 74.6669C153.592 74.995 152.989 75.1591 152.299 75.1591ZM152.299 74.1051C152.823 74.1051 153.254 73.9709 153.592 73.7024C153.93 73.4339 154.18 73.081 154.343 72.6435C154.505 72.206 154.586 71.732 154.586 71.2216C154.586 70.7112 154.505 70.2356 154.343 69.7947C154.18 69.3539 153.93 68.9976 153.592 68.7259C153.254 68.4541 152.823 68.3182 152.299 68.3182C151.776 68.3182 151.345 68.4541 151.007 68.7259C150.669 68.9976 150.418 69.3539 150.256 69.7947C150.093 70.2356 150.012 70.7112 150.012 71.2216C150.012 71.732 150.093 72.206 150.256 72.6435C150.418 73.081 150.669 73.4339 151.007 73.7024C151.345 73.9709 151.776 74.1051 152.299 74.1051ZM157.55 77.8636V67.3636H158.684V68.5767H158.823C158.909 68.4441 159.029 68.2751 159.181 68.0696C159.337 67.8608 159.559 67.6752 159.847 67.5128C160.139 67.3471 160.533 67.2642 161.031 67.2642C161.674 67.2642 162.24 67.425 162.731 67.7464C163.221 68.0679 163.604 68.5237 163.879 69.1136C164.154 69.7036 164.292 70.3996 164.292 71.2017C164.292 72.0104 164.154 72.7114 163.879 73.3047C163.604 73.8946 163.223 74.352 162.736 74.6768C162.249 74.9983 161.687 75.1591 161.05 75.1591C160.56 75.1591 160.167 75.0779 159.872 74.9155C159.577 74.7498 159.35 74.5625 159.191 74.3537C159.032 74.1416 158.909 73.9659 158.823 73.8267H158.724V77.8636H157.55ZM158.704 71.1818C158.704 71.7585 158.788 72.2673 158.957 72.7081C159.126 73.1456 159.373 73.4886 159.698 73.7372C160.023 73.9825 160.421 74.1051 160.891 74.1051C161.382 74.1051 161.791 73.9759 162.119 73.7173C162.451 73.4555 162.699 73.1042 162.865 72.6634C163.034 72.2192 163.119 71.7254 163.119 71.1818C163.119 70.6449 163.036 70.161 162.87 69.7301C162.708 69.2959 162.461 68.9529 162.129 68.701C161.801 68.4458 161.388 68.3182 160.891 68.3182C160.414 68.3182 160.013 68.4392 159.688 68.6811C159.363 68.9197 159.118 69.2545 158.952 69.6854C158.787 70.1129 158.704 70.6117 158.704 71.1818Z" fill="black"/>
</g>
<defs>
<filter id="filter0_d_85_94" x="0" y="0" width="368" height="200" filterUnits="userSpaceOnUse" color-interpolation-filters="sRGB">
<feFlood flood-opacity="0" result="BackgroundImageFix"/>
<feColorMatrix in="SourceAlpha" type="matrix" values="0 0 0 0 0 0 0 0 0 0 0 0 0 0 0 0 0 0 127 0" result="hardAlpha"/>
<feOffset/>
<feGaussianBlur stdDeviation="10"/>
<feComposite in2="hardAlpha" operator="out"/>
<feColorMatrix type="matrix" values="0 0 0 0 0.716146 0 0 0 0 0.869305 0 0 0 0 1 0 0 0 1 0"/>
<feBlend mode="normal" in2="BackgroundImageFix" result="effect1_dropShadow_85_94"/>
<feBlend mode="normal" in="SourceGraphic" in2="effect1_dropShadow_85_94" result="shape"/>
</filter>
<clipPath id="clip0_85_94">
<rect width="29" height="29" fill="white" transform="translate(46.5 46.5)"/>
</clipPath>
</defs>
</svg>
