<svg width="216" height="118" viewBox="0 0 216 118" fill="none" xmlns="http://www.w3.org/2000/svg">
<g filter="url(#filter0_d_85_190)">
<rect x="12" y="12.4634" width="192" height="93.6585" rx="11.7073" fill="white"/>
<rect x="20.7803" y="21.2441" width="84.2927" height="18.1463" rx="9.07317" fill="#2CA9DB"/>
<path d="M35.3654 30.563C35.3654 31.2448 35.2407 31.831 34.9912 32.3215C34.7418 32.81 34.3998 33.1863 33.9654 33.4503C33.533 33.7122 33.0414 33.8432 32.4905 33.8432C31.9376 33.8432 31.4439 33.7122 31.0095 33.4503C30.5771 33.1863 30.2362 32.809 29.9867 32.3184C29.7373 31.8279 29.6126 31.2427 29.6126 30.563C29.6126 29.8811 29.7373 29.296 29.9867 28.8075C30.2362 28.3169 30.5771 27.9407 31.0095 27.6787C31.4439 27.4147 31.9376 27.2827 32.4905 27.2827C33.0414 27.2827 33.533 27.4147 33.9654 27.6787C34.3998 27.9407 34.7418 28.3169 34.9912 28.8075C35.2407 29.296 35.3654 29.8811 35.3654 30.563ZM34.4113 30.563C34.4113 30.0433 34.3271 29.6057 34.1587 29.2502C33.9924 28.8927 33.7637 28.6225 33.4727 28.4395C33.1838 28.2545 32.8564 28.162 32.4905 28.162C32.1226 28.162 31.7942 28.2545 31.5052 28.4395C31.2163 28.6225 30.9876 28.8927 30.8192 29.2502C30.653 29.6057 30.5698 30.0433 30.5698 30.563C30.5698 31.0826 30.653 31.5212 30.8192 31.8788C30.9876 32.2342 31.2163 32.5045 31.5052 32.6895C31.7942 32.8724 32.1226 32.9639 32.4905 32.9639C32.8564 32.9639 33.1838 32.8724 33.4727 32.6895C33.7637 32.5045 33.9924 32.2342 34.1587 31.8788C34.3271 31.5212 34.4113 31.0826 34.4113 30.563ZM36.2236 29.771V28.9665H40.2647V29.771H38.7025V33.7559H37.792V29.771H36.2236ZM44.8724 28.9665V33.7559H43.9619V28.9665H44.8724ZM44.4764 31.1897V31.9941C44.333 32.0524 44.1812 32.1043 44.0212 32.1501C43.8611 32.1937 43.6927 32.228 43.516 32.2529C43.3393 32.2779 43.1554 32.2904 42.9641 32.2904C42.3717 32.2904 41.9009 32.1459 41.5516 31.857C41.2024 31.5659 41.0278 31.1211 41.0278 30.5224V28.9571H41.9352V30.5224C41.9352 30.749 41.9767 30.933 42.0599 31.0743C42.143 31.2157 42.2615 31.3196 42.4154 31.3861C42.5692 31.4526 42.7521 31.4859 42.9641 31.4859C43.2448 31.4859 43.5036 31.4599 43.7405 31.408C43.9796 31.3539 44.2249 31.2812 44.4764 31.1897ZM48.1768 33.8525C47.7049 33.8525 47.2985 33.7517 46.9576 33.5501C46.6188 33.3464 46.3569 33.0605 46.1718 32.6926C45.9889 32.3226 45.8975 31.8892 45.8975 31.3924C45.8975 30.9018 45.9889 30.4694 46.1718 30.0952C46.3569 29.7211 46.6146 29.429 46.9451 29.2191C47.2777 29.0091 47.6664 28.9041 48.1113 28.9041C48.3815 28.9041 48.6434 28.9488 48.897 29.0382C49.1506 29.1276 49.3783 29.2679 49.5799 29.4592C49.7815 29.6504 49.9406 29.8988 50.057 30.2044C50.1734 30.5079 50.2316 30.8768 50.2316 31.3113V31.6418H46.4244V30.9434H49.318C49.318 30.6981 49.2681 30.4808 49.1683 30.2917C49.0685 30.1004 48.9282 29.9497 48.7474 29.8396C48.5686 29.7294 48.3587 29.6743 48.1175 29.6743C47.8556 29.6743 47.6269 29.7387 47.4316 29.8676C47.2382 29.9944 47.0886 30.1607 46.9825 30.3665C46.8786 30.5702 46.8266 30.7916 46.8266 31.0307V31.5763C46.8266 31.8964 46.8828 32.1688 46.995 32.3933C47.1093 32.6178 47.2684 32.7893 47.4721 32.9077C47.6758 33.0242 47.9138 33.0824 48.1861 33.0824C48.3628 33.0824 48.5239 33.0574 48.6694 33.0075C48.8149 32.9556 48.9407 32.8786 49.0467 32.7768C49.1527 32.6749 49.2338 32.5492 49.2899 32.3995L50.1723 32.5585C50.1017 32.8184 49.9749 33.046 49.7919 33.2414C49.6111 33.4347 49.3835 33.5854 49.1091 33.6935C48.8368 33.7995 48.526 33.8525 48.1768 33.8525ZM47.1603 28.215C47.0127 28.215 46.8838 28.161 46.7736 28.0529C46.6635 27.9427 46.6084 27.8159 46.6084 27.6725C46.6084 27.5166 46.6635 27.3867 46.7736 27.2827C46.8838 27.1788 47.0127 27.1268 47.1603 27.1268C47.3162 27.1268 47.4461 27.1788 47.55 27.2827C47.6561 27.3867 47.7091 27.5166 47.7091 27.6725C47.7091 27.8159 47.6561 27.9427 47.55 28.0529C47.4461 28.161 47.3162 28.215 47.1603 28.215ZM48.9937 28.215C48.8461 28.215 48.7172 28.161 48.6071 28.0529C48.4969 27.9427 48.4418 27.8159 48.4418 27.6725C48.4418 27.5166 48.4969 27.3867 48.6071 27.2827C48.7172 27.1788 48.8461 27.1268 48.9937 27.1268C49.1496 27.1268 49.2795 27.1788 49.3835 27.2827C49.4895 27.3867 49.5425 27.5166 49.5425 27.6725C49.5425 27.8159 49.4895 27.9427 49.3835 28.0529C49.2795 28.161 49.1496 28.215 48.9937 28.215ZM50.8435 29.771V28.9665H54.8845V29.771H53.3224V33.7559H52.4119V29.771H50.8435ZM58.1944 33.7559V28.9665H62.1013V33.7559H61.1877V29.771H59.1017V33.7559H58.1944ZM65.3651 33.8525C64.9161 33.8525 64.5243 33.7496 64.1896 33.5438C63.8549 33.338 63.5951 33.0501 63.4101 32.6801C63.2251 32.3101 63.1326 31.8777 63.1326 31.383C63.1326 30.8862 63.2251 30.4517 63.4101 30.0797C63.5951 29.7076 63.8549 29.4186 64.1896 29.2128C64.5243 29.007 64.9161 28.9041 65.3651 28.9041C65.8141 28.9041 66.206 29.007 66.5406 29.2128C66.8753 29.4186 67.1352 29.7076 67.3202 30.0797C67.5052 30.4517 67.5977 30.8862 67.5977 31.383C67.5977 31.8777 67.5052 32.3101 67.3202 32.6801C67.1352 33.0501 66.8753 33.338 66.5406 33.5438C66.206 33.7496 65.8141 33.8525 65.3651 33.8525ZM65.3683 33.0699C65.6593 33.0699 65.9004 32.993 66.0916 32.8391C66.2829 32.6853 66.4242 32.4806 66.5157 32.2249C66.6092 31.9692 66.656 31.6875 66.656 31.3799C66.656 31.0743 66.6092 30.7937 66.5157 30.538C66.4242 30.2802 66.2829 30.0734 66.0916 29.9175C65.9004 29.7616 65.6593 29.6837 65.3683 29.6837C65.0752 29.6837 64.8319 29.7616 64.6386 29.9175C64.4474 30.0734 64.305 30.2802 64.2114 30.538C64.12 30.7937 64.0743 31.0743 64.0743 31.3799C64.0743 31.6875 64.12 31.9692 64.2114 32.2249C64.305 32.4806 64.4474 32.6853 64.6386 32.8391C64.8319 32.993 65.0752 33.0699 65.3683 33.0699ZM74.657 27.183L75.0436 27.7723C74.9002 27.9032 74.737 27.9968 74.5541 28.0529C74.3732 28.107 74.1643 28.1413 73.9274 28.1558C73.6904 28.1683 73.4191 28.1797 73.1135 28.1901C72.7685 28.2005 72.4847 28.2753 72.2623 28.4146C72.0399 28.5518 71.8684 28.7555 71.7478 29.0257C71.6293 29.2939 71.5524 29.6307 71.5171 30.036H71.5763C71.7322 29.7387 71.9484 29.5163 72.2249 29.3687C72.5034 29.2211 72.8163 29.1474 73.1634 29.1474C73.5501 29.1474 73.8941 29.2357 74.1955 29.4124C74.4969 29.5891 74.7339 29.8479 74.9064 30.1888C75.081 30.5276 75.1683 30.9423 75.1683 31.4329C75.1683 31.9297 75.0769 32.359 74.894 32.7207C74.7131 33.0824 74.4574 33.3619 74.1269 33.5594C73.7985 33.7548 73.4108 33.8525 72.9639 33.8525C72.5169 33.8525 72.1272 33.7517 71.7946 33.5501C71.4641 33.3464 71.2074 33.0449 71.0244 32.6458C70.8436 32.2467 70.7532 31.7541 70.7532 31.1679V30.6939C70.7532 29.5984 70.9486 28.7742 71.3394 28.2213C71.7302 27.6683 72.3143 27.3846 73.0917 27.3701C73.3432 27.3638 73.5677 27.3628 73.7652 27.3669C73.9627 27.369 74.1352 27.3597 74.2828 27.3389C74.4325 27.316 74.5572 27.264 74.657 27.183ZM72.967 33.0699C73.2268 33.0699 73.4503 33.0044 73.6374 32.8734C73.8265 32.7404 73.972 32.5523 74.0739 32.3091C74.1758 32.0659 74.2267 31.779 74.2267 31.4485C74.2267 31.1242 74.1758 30.8488 74.0739 30.6222C73.972 30.3956 73.8265 30.2231 73.6374 30.1046C73.4482 29.984 73.2216 29.9238 72.9576 29.9238C72.7622 29.9238 72.5876 29.958 72.4338 30.0266C72.28 30.0932 72.148 30.1919 72.0378 30.3229C71.9297 30.4538 71.8455 30.6139 71.7852 30.803C71.727 30.9901 71.6959 31.2053 71.6917 31.4485C71.6917 31.9432 71.805 32.3371 72.0316 32.6302C72.2602 32.9233 72.572 33.0699 72.967 33.0699ZM78.2272 33.8525C77.7782 33.8525 77.3863 33.7496 77.0517 33.5438C76.717 33.338 76.4572 33.0501 76.2721 32.6801C76.0871 32.3101 75.9946 31.8777 75.9946 31.383C75.9946 30.8862 76.0871 30.4517 76.2721 30.0797C76.4572 29.7076 76.717 29.4186 77.0517 29.2128C77.3863 29.007 77.7782 28.9041 78.2272 28.9041C78.6762 28.9041 79.068 29.007 79.4027 29.2128C79.7374 29.4186 79.9972 29.7076 80.1822 30.0797C80.3672 30.4517 80.4597 30.8862 80.4597 31.383C80.4597 31.8777 80.3672 32.3101 80.1822 32.6801C79.9972 33.0501 79.7374 33.338 79.4027 33.5438C79.068 33.7496 78.6762 33.8525 78.2272 33.8525ZM78.2303 33.0699C78.5213 33.0699 78.7624 32.993 78.9537 32.8391C79.1449 32.6853 79.2863 32.4806 79.3777 32.2249C79.4713 31.9692 79.5181 31.6875 79.5181 31.3799C79.5181 31.0743 79.4713 30.7937 79.3777 30.538C79.2863 30.2802 79.1449 30.0734 78.9537 29.9175C78.7624 29.7616 78.5213 29.6837 78.2303 29.6837C77.9372 29.6837 77.694 29.7616 77.5007 29.9175C77.3094 30.0734 77.167 30.2802 77.0735 30.538C76.982 30.7937 76.9363 31.0743 76.9363 31.3799C76.9363 31.6875 76.982 31.9692 77.0735 32.2249C77.167 32.4806 77.3094 32.6853 77.5007 32.8391C77.694 32.993 77.9372 33.0699 78.2303 33.0699ZM80.9235 29.771V28.9665H84.9645V29.771H83.4024V33.7559H82.4919V29.771H80.9235ZM87.1215 33.8619C86.818 33.8619 86.5436 33.8057 86.2983 33.6935C86.053 33.5792 85.8587 33.4139 85.7152 33.1977C85.5739 32.9815 85.5032 32.7165 85.5032 32.4026C85.5032 32.1324 85.5552 31.91 85.6591 31.7353C85.763 31.5607 85.9033 31.4225 86.08 31.3206C86.2567 31.2188 86.4542 31.1419 86.6725 31.0899C86.8907 31.0379 87.1132 30.9984 87.3397 30.9714C87.6266 30.9382 87.8594 30.9111 88.0382 30.8904C88.217 30.8675 88.3469 30.8311 88.4279 30.7812C88.509 30.7313 88.5495 30.6503 88.5495 30.538V30.5162C88.5495 30.2439 88.4726 30.0329 88.3188 29.8832C88.1671 29.7335 87.9405 29.6587 87.6391 29.6587C87.3252 29.6587 87.0778 29.7284 86.897 29.8676C86.7182 30.0048 86.5945 30.1576 86.5259 30.326L85.6497 30.1264C85.7537 29.8354 85.9054 29.6005 86.105 29.4217C86.3066 29.2409 86.5384 29.1099 86.8003 29.0289C87.0622 28.9457 87.3377 28.9041 87.6266 28.9041C87.8178 28.9041 88.0205 28.927 88.2346 28.9727C88.4508 29.0164 88.6524 29.0975 88.8395 29.2159C89.0287 29.3344 89.1836 29.5039 89.3041 29.7242C89.4247 29.9425 89.485 30.2262 89.485 30.5754V33.7559H88.5745V33.1011H88.5371C88.4768 33.2216 88.3864 33.3401 88.2658 33.4565C88.1452 33.5729 87.9904 33.6696 87.8012 33.7465C87.612 33.8234 87.3855 33.8619 87.1215 33.8619ZM87.3241 33.1135C87.5819 33.1135 87.8023 33.0626 87.9852 32.9608C88.1702 32.8589 88.3105 32.7259 88.4061 32.5616C88.5038 32.3953 88.5527 32.2176 88.5527 32.0284V31.4111C88.5194 31.4443 88.455 31.4755 88.3593 31.5046C88.2658 31.5316 88.1588 31.5555 88.0382 31.5763C87.9176 31.595 87.8002 31.6127 87.6858 31.6293C87.5715 31.6439 87.4759 31.6564 87.399 31.6668C87.2181 31.6896 87.0529 31.7281 86.9032 31.7821C86.7556 31.8362 86.6371 31.9141 86.5477 32.016C86.4604 32.1158 86.4168 32.2488 86.4168 32.4151C86.4168 32.6458 86.502 32.8204 86.6725 32.9389C86.8429 33.0553 87.0602 33.1135 87.3241 33.1135ZM93.4145 32.6022L94.9611 28.9665H95.7655L93.7606 33.7559H93.0684L91.104 28.9665H91.8991L93.4145 32.6022ZM91.6403 28.9665V33.7559H90.7267V28.9665H91.6403ZM95.2136 33.7559V28.9665H96.121V33.7559H95.2136Z" fill="white"/>
<circle cx="41.504" cy="66.5529" r="17.797" fill="#F1C3C3"/>
<path d="M41.5993 54.0571C38.1689 54.0571 35.0589 55.4291 32.7881 57.6543" stroke="#E26666" stroke-width="10.3949"/>
<circle cx="41.4175" cy="66.4653" r="9.85986" fill="white"/>
<path d="M36.4564 92.042V92.6137H34.5214V96.2036H33.8068V92.042H36.4564ZM34.3042 93.6398H35.3503C35.6666 93.6398 35.9372 93.6931 36.162 93.7998C36.3869 93.9046 36.5583 94.0523 36.6765 94.2429C36.7946 94.4334 36.8537 94.6554 36.8537 94.9088C36.8537 95.0994 36.8204 95.2737 36.7537 95.4319C36.687 95.59 36.5888 95.7272 36.4593 95.8435C36.3297 95.9578 36.1715 96.0464 35.9848 96.1093C35.8 96.1722 35.5885 96.2036 35.3503 96.2036H33.8068V92.042H34.5271V95.6348H35.3503C35.5313 95.6348 35.6799 95.6015 35.7962 95.5348C35.9124 95.4662 35.9981 95.3766 36.0534 95.2661C36.1106 95.1556 36.1391 95.0346 36.1391 94.9031C36.1391 94.7755 36.1106 94.6592 36.0534 94.5544C35.9981 94.4496 35.9124 94.3658 35.7962 94.3029C35.6799 94.24 35.5313 94.2086 35.3503 94.2086H34.3042V93.6398ZM40.8181 94.0085V94.2371C40.8181 94.5516 40.7771 94.8336 40.6952 95.0832C40.6132 95.3328 40.496 95.5453 40.3436 95.7206C40.1931 95.8959 40.012 96.0302 39.8005 96.1236C39.589 96.215 39.3547 96.2608 39.0974 96.2608C38.8421 96.2608 38.6087 96.215 38.3971 96.1236C38.1875 96.0302 38.0056 95.8959 37.8512 95.7206C37.6969 95.5453 37.5768 95.3328 37.4911 95.0832C37.4072 94.8336 37.3653 94.5516 37.3653 94.2371V94.0085C37.3653 93.6941 37.4072 93.413 37.4911 93.1653C37.5749 92.9157 37.6931 92.7032 37.8455 92.5279C37.9998 92.3507 38.1818 92.2164 38.3914 92.1249C38.6029 92.0315 38.8364 91.9849 39.0917 91.9849C39.3489 91.9849 39.5833 92.0315 39.7948 92.1249C40.0063 92.2164 40.1883 92.3507 40.3407 92.5279C40.4932 92.7032 40.6104 92.9157 40.6923 93.1653C40.7761 93.413 40.8181 93.6941 40.8181 94.0085ZM40.1007 94.2371V94.0028C40.1007 93.7703 40.0778 93.5655 40.0321 93.3883C39.9882 93.2091 39.9225 93.0596 39.8348 92.9395C39.7491 92.8176 39.6433 92.7261 39.5176 92.6651C39.3918 92.6022 39.2498 92.5708 39.0917 92.5708C38.9335 92.5708 38.7925 92.6022 38.6687 92.6651C38.5448 92.7261 38.4391 92.8176 38.3514 92.9395C38.2657 93.0596 38.1999 93.2091 38.1542 93.3883C38.1085 93.5655 38.0856 93.7703 38.0856 94.0028V94.2371C38.0856 94.4696 38.1085 94.6754 38.1542 94.8545C38.1999 95.0336 38.2666 95.1851 38.3543 95.309C38.4438 95.4309 38.5505 95.5234 38.6744 95.5862C38.7982 95.6472 38.9393 95.6777 39.0974 95.6777C39.2575 95.6777 39.3994 95.6472 39.5233 95.5862C39.6471 95.5234 39.7519 95.4309 39.8377 95.309C39.9234 95.1851 39.9882 95.0336 40.0321 94.8545C40.0778 94.6754 40.1007 94.4696 40.1007 94.2371ZM43.1047 92.042V96.2036H42.393V92.042H43.1047ZM44.4109 92.042V92.6137H41.0982V92.042H44.4109ZM45.4684 93.6398H46.5174C46.8337 93.6398 47.1033 93.6931 47.3263 93.7998C47.5511 93.9046 47.7226 94.0523 47.8407 94.2429C47.9608 94.4334 48.0208 94.6554 48.0208 94.9088C48.0208 95.0994 47.9865 95.2737 47.9179 95.4319C47.8512 95.59 47.7531 95.7272 47.6235 95.8435C47.4939 95.9578 47.3358 96.0464 47.149 96.1093C46.9642 96.1722 46.7537 96.2036 46.5174 96.2036H44.9739V92.042H45.6914V95.6348H46.5174C46.6984 95.6348 46.847 95.6015 46.9633 95.5348C47.0795 95.4662 47.1652 95.3766 47.2205 95.2661C47.2777 95.1556 47.3063 95.0346 47.3063 94.9031C47.3063 94.7755 47.2777 94.6592 47.2205 94.5544C47.1652 94.4496 47.0795 94.3658 46.9633 94.3029C46.847 94.24 46.6984 94.2086 46.5174 94.2086H45.4684V93.6398ZM49.167 92.042V96.2036H48.4495V92.042H49.167Z" fill="#2C2C2C"/>
<circle cx="108.085" cy="66.5529" r="17.797" fill="#FEE7BA"/>
<path d="M98.0356 73.6885C96.5064 71.5414 95.6992 68.9639 95.7304 66.3281C95.7615 63.6923 96.6295 61.1346 98.209 59.0242C99.7885 56.9139 101.998 55.3601 104.518 54.5871C107.038 53.8142 109.739 53.8621 112.23 54.7239" stroke="#EFB503" stroke-width="10.8615"/>
<circle cx="108.402" cy="66.5301" r="10.952" fill="white"/>
<path d="M83.8007 92.042V96.2036H83.0861V92.6137H81.2368V96.2036H80.5223V92.042H83.8007ZM87.9823 94.0085V94.2371C87.9823 94.5516 87.9413 94.8336 87.8594 95.0832C87.7774 95.3328 87.6602 95.5453 87.5078 95.7206C87.3573 95.8959 87.1762 96.0302 86.9647 96.1236C86.7532 96.215 86.5188 96.2608 86.2616 96.2608C86.0063 96.2608 85.7728 96.215 85.5613 96.1236C85.3517 96.0302 85.1698 95.8959 85.0154 95.7206C84.8611 95.5453 84.741 95.3328 84.6553 95.0832C84.5714 94.8336 84.5295 94.5516 84.5295 94.2371V94.0085C84.5295 93.6941 84.5714 93.413 84.6553 93.1653C84.7391 92.9157 84.8573 92.7032 85.0097 92.5279C85.164 92.3507 85.346 92.2164 85.5556 92.1249C85.7671 92.0315 86.0005 91.9849 86.2559 91.9849C86.5131 91.9849 86.7475 92.0315 86.959 92.1249C87.1705 92.2164 87.3525 92.3507 87.5049 92.5279C87.6574 92.7032 87.7746 92.9157 87.8565 93.1653C87.9403 93.413 87.9823 93.6941 87.9823 94.0085ZM87.2648 94.2371V94.0028C87.2648 93.7703 87.242 93.5655 87.1962 93.3883C87.1524 93.2091 87.0867 93.0596 86.999 92.9395C86.9133 92.8176 86.8075 92.7261 86.6818 92.6651C86.556 92.6022 86.414 92.5708 86.2559 92.5708C86.0977 92.5708 85.9567 92.6022 85.8329 92.6651C85.709 92.7261 85.6033 92.8176 85.5156 92.9395C85.4299 93.0596 85.3641 93.2091 85.3184 93.3883C85.2727 93.5655 85.2498 93.7703 85.2498 94.0028V94.2371C85.2498 94.4696 85.2727 94.6754 85.3184 94.8545C85.3641 95.0336 85.4308 95.1851 85.5185 95.309C85.608 95.4309 85.7147 95.5234 85.8386 95.5862C85.9624 95.6472 86.1034 95.6777 86.2616 95.6777C86.4217 95.6777 86.5636 95.6472 86.6875 95.5862C86.8113 95.5234 86.9161 95.4309 87.0019 95.309C87.0876 95.1851 87.1524 95.0336 87.1962 94.8545C87.242 94.6754 87.2648 94.4696 87.2648 94.2371ZM91.8895 95.6348V96.2036H88.8226V95.6348H91.8895ZM88.9998 95.6348V97.2269H88.3138L88.2881 95.6348H88.9998ZM92.444 95.6348L92.4011 97.224H91.7265V95.6348H92.444ZM91.3864 92.042V92.6137H89.4657V92.042H91.3864ZM91.9352 92.042V96.2036H91.2206V92.042H91.9352ZM89.3228 92.042H90.0402L89.9401 93.7284C89.9249 93.9952 89.8973 94.2352 89.8573 94.4487C89.8172 94.6621 89.7686 94.8536 89.7115 95.0232C89.6562 95.1908 89.5933 95.3395 89.5228 95.469C89.4523 95.5967 89.3771 95.7072 89.297 95.8006C89.217 95.894 89.1351 95.974 89.0512 96.0407C88.9693 96.1055 88.8883 96.1598 88.8083 96.2036H88.4253V95.6348H88.6111C88.6625 95.5872 88.7197 95.5186 88.7826 95.429C88.8454 95.3376 88.9064 95.2185 88.9655 95.0718C89.0265 94.9231 89.0798 94.7392 89.1255 94.5201C89.1713 94.301 89.2027 94.0371 89.2199 93.7284L89.3228 92.042ZM96.2368 94.0085V94.2371C96.2368 94.5516 96.1959 94.8336 96.1139 95.0832C96.032 95.3328 95.9148 95.5453 95.7624 95.7206C95.6118 95.8959 95.4308 96.0302 95.2193 96.1236C95.0078 96.215 94.7734 96.2608 94.5162 96.2608C94.2608 96.2608 94.0274 96.215 93.8159 96.1236C93.6063 96.0302 93.4243 95.8959 93.27 95.7206C93.1156 95.5453 92.9956 95.3328 92.9098 95.0832C92.826 94.8336 92.7841 94.5516 92.7841 94.2371V94.0085C92.7841 93.6941 92.826 93.413 92.9098 93.1653C92.9937 92.9157 93.1118 92.7032 93.2643 92.5279C93.4186 92.3507 93.6006 92.2164 93.8102 92.1249C94.0217 92.0315 94.2551 91.9849 94.5105 91.9849C94.7677 91.9849 95.0021 92.0315 95.2136 92.1249C95.4251 92.2164 95.6071 92.3507 95.7595 92.5279C95.9119 92.7032 96.0291 92.9157 96.1111 93.1653C96.1949 93.413 96.2368 93.6941 96.2368 94.0085ZM95.5194 94.2371V94.0028C95.5194 93.7703 95.4965 93.5655 95.4508 93.3883C95.407 93.2091 95.3412 93.0596 95.2536 92.9395C95.1678 92.8176 95.0621 92.7261 94.9363 92.6651C94.8106 92.6022 94.6686 92.5708 94.5105 92.5708C94.3523 92.5708 94.2113 92.6022 94.0874 92.6651C93.9636 92.7261 93.8578 92.8176 93.7702 92.9395C93.6844 93.0596 93.6187 93.2091 93.573 93.3883C93.5272 93.5655 93.5044 93.7703 93.5044 94.0028V94.2371C93.5044 94.4696 93.5272 94.6754 93.573 94.8545C93.6187 95.0336 93.6854 95.1851 93.773 95.309C93.8626 95.4309 93.9693 95.5234 94.0932 95.5862C94.217 95.6472 94.358 95.6777 94.5162 95.6777C94.6762 95.6777 94.8182 95.6472 94.942 95.5862C95.0659 95.5234 95.1707 95.4309 95.2565 95.309C95.3422 95.1851 95.407 95.0336 95.4508 94.8545C95.4965 94.6754 95.5194 94.4696 95.5194 94.2371ZM98.5348 94.6516H97.4516V94.0828H98.5348C98.7235 94.0828 98.8759 94.0523 98.9922 93.9913C99.1084 93.9304 99.1932 93.8465 99.2465 93.7398C99.3018 93.6312 99.3294 93.5073 99.3294 93.3682C99.3294 93.2368 99.3018 93.1139 99.2465 92.9995C99.1932 92.8833 99.1084 92.7899 98.9922 92.7194C98.8759 92.6489 98.7235 92.6137 98.5348 92.6137H97.6717V96.2036H96.9542V92.042H98.5348C98.8569 92.042 99.1303 92.0992 99.3552 92.2135C99.5819 92.3259 99.7544 92.4822 99.8725 92.6823C99.9906 92.8804 100.05 93.1072 100.05 93.3625C100.05 93.6312 99.9906 93.8618 99.8725 94.0542C99.7544 94.2467 99.5819 94.3944 99.3552 94.4972C99.1303 94.6001 98.8569 94.6516 98.5348 94.6516ZM102.119 94.2086H101.542V93.7998H102.039C102.216 93.7998 102.36 93.7741 102.471 93.7227C102.581 93.6693 102.661 93.596 102.711 93.5026C102.762 93.4073 102.788 93.2968 102.788 93.171C102.788 93.0586 102.759 92.9557 102.702 92.8623C102.647 92.769 102.561 92.6947 102.445 92.6394C102.329 92.5822 102.179 92.5537 101.996 92.5537C101.859 92.5537 101.734 92.5784 101.622 92.628C101.509 92.6775 101.42 92.7471 101.353 92.8366C101.288 92.9262 101.256 93.0319 101.256 93.1539H100.538C100.538 92.9729 100.577 92.8109 100.653 92.668C100.731 92.5232 100.837 92.4003 100.97 92.2993C101.105 92.1983 101.261 92.1211 101.436 92.0678C101.613 92.0125 101.8 91.9849 101.996 91.9849C102.225 91.9849 102.432 92.0106 102.616 92.062C102.801 92.1116 102.96 92.1859 103.094 92.285C103.227 92.3841 103.329 92.5079 103.4 92.6565C103.47 92.8033 103.505 92.9738 103.505 93.1682C103.505 93.3111 103.472 93.4454 103.405 93.5712C103.34 93.6969 103.247 93.8075 103.125 93.9027C103.003 93.998 102.856 94.0733 102.685 94.1285C102.515 94.1819 102.327 94.2086 102.119 94.2086ZM101.542 93.9599H102.119C102.35 93.9599 102.554 93.9837 102.734 94.0314C102.913 94.079 103.064 94.1485 103.188 94.24C103.312 94.3315 103.406 94.4448 103.471 94.5801C103.536 94.7135 103.568 94.8669 103.568 95.0403C103.568 95.2347 103.529 95.4081 103.451 95.5605C103.375 95.711 103.266 95.8387 103.125 95.9435C102.984 96.0483 102.817 96.1274 102.625 96.1807C102.434 96.2341 102.225 96.2608 101.996 96.2608C101.811 96.2608 101.628 96.2379 101.447 96.1922C101.268 96.1445 101.105 96.0721 100.959 95.975C100.814 95.8759 100.698 95.7501 100.61 95.5977C100.522 95.4452 100.478 95.2623 100.478 95.0489H101.199C101.199 95.167 101.232 95.2756 101.299 95.3747C101.367 95.4719 101.461 95.55 101.579 95.6091C101.699 95.6663 101.838 95.6948 101.996 95.6948C102.177 95.6948 102.331 95.6663 102.456 95.6091C102.584 95.5519 102.681 95.4738 102.748 95.3747C102.816 95.2756 102.851 95.1642 102.851 95.0403C102.851 94.9222 102.833 94.8202 102.796 94.7345C102.762 94.6468 102.711 94.5763 102.642 94.523C102.574 94.4677 102.489 94.4267 102.388 94.4001C102.287 94.3734 102.171 94.3601 102.039 94.3601H101.542V93.9599ZM104.957 95.0346L106.804 92.042H107.521V96.2036H106.804V93.2082L104.957 96.2036H104.243V92.042H104.957V95.0346ZM110.008 92.042V96.2036H109.296V92.042H110.008ZM111.314 92.042V92.6137H108.001V92.042H111.314ZM114.587 95.6348V96.2036H112.377V95.6348H114.587ZM112.58 92.042V96.2036H111.863V92.042H112.58ZM114.298 93.7798V94.34H112.377V93.7798H114.298ZM114.572 92.042V92.6137H112.377V92.042H114.572ZM117.902 92.042V92.6137H115.907V92.042H117.902ZM118.451 92.042V96.2036H117.734V92.042H118.451ZM115.764 92.042H116.476L116.376 94.1085C116.363 94.4115 116.337 94.6783 116.299 94.9088C116.261 95.1394 116.209 95.3366 116.144 95.5005C116.08 95.6644 115.998 95.7987 115.899 95.9035C115.8 96.0064 115.68 96.0826 115.541 96.1322C115.404 96.1798 115.243 96.2036 115.058 96.2036H114.875V95.6348L114.987 95.6263C115.088 95.6186 115.175 95.5948 115.247 95.5548C115.321 95.5129 115.384 95.4519 115.436 95.3719C115.487 95.2899 115.53 95.1842 115.564 95.0546C115.598 94.925 115.625 94.7669 115.644 94.5801C115.665 94.3934 115.68 94.1752 115.69 93.9256L115.764 92.042ZM119.797 93.6398H120.843C121.16 93.6398 121.43 93.6931 121.655 93.7998C121.88 93.9046 122.051 94.0523 122.17 94.2429C122.288 94.4334 122.347 94.6554 122.347 94.9088C122.347 95.0994 122.313 95.2737 122.247 95.4319C122.18 95.59 122.082 95.7272 121.952 95.8435C121.823 95.9578 121.665 96.0464 121.478 96.1093C121.293 96.1722 121.082 96.2036 120.843 96.2036H119.3V92.042H120.02V95.6348H120.843C121.024 95.6348 121.173 95.6015 121.289 95.5348C121.405 95.4662 121.491 95.3766 121.546 95.2661C121.604 95.1556 121.632 95.0346 121.632 94.9031C121.632 94.7755 121.604 94.6592 121.546 94.5544C121.491 94.4496 121.405 94.3658 121.289 94.3029C121.173 94.24 121.024 94.2086 120.843 94.2086H119.797V93.6398ZM125.725 93.7798V94.3486H123.516V93.7798H125.725ZM123.693 92.042V96.2036H122.976V92.042H123.693ZM126.277 92.042V96.2036H125.562V92.042H126.277ZM127.64 93.6398H128.689C129.005 93.6398 129.275 93.6931 129.498 93.7998C129.723 93.9046 129.894 94.0523 130.013 94.2429C130.133 94.4334 130.193 94.6554 130.193 94.9088C130.193 95.0994 130.158 95.2737 130.09 95.4319C130.023 95.59 129.925 95.7272 129.795 95.8435C129.666 95.9578 129.508 96.0464 129.321 96.1093C129.136 96.1722 128.925 96.2036 128.689 96.2036H127.146V92.042H127.863V95.6348H128.689C128.87 95.6348 129.019 95.6015 129.135 95.5348C129.251 95.4662 129.337 95.3766 129.392 95.2661C129.449 95.1556 129.478 95.0346 129.478 94.9031C129.478 94.7755 129.449 94.6592 129.392 94.5544C129.337 94.4496 129.251 94.3658 129.135 94.3029C129.019 94.24 128.87 94.2086 128.689 94.2086H127.64V93.6398ZM131.339 92.042V96.2036H130.621V92.042H131.339ZM134.932 95.6348V96.2036H132.722V95.6348H134.932ZM132.925 92.042V96.2036H132.208V92.042H132.925ZM134.643 93.7798V94.34H132.722V93.7798H134.643ZM134.917 92.042V92.6137H132.722V92.042H134.917Z" fill="#2C2C2C"/>
<circle cx="174.665" cy="66.5529" r="17.797" fill="#CCEBE0"/>
<path d="M174.673 79.2025C167.72 79.2025 162.083 73.5658 162.083 66.6125C162.083 59.6592 167.72 54.0225 174.673 54.0225" stroke="#27C58B" stroke-width="10.3949"/>
<circle cx="174.665" cy="66.5531" r="10.952" fill="white"/>
<path d="M168.834 92.042V92.6137H166.839V92.042H168.834ZM169.383 92.042V96.2036H168.666V92.042H169.383ZM166.696 92.042H167.408L167.308 94.1085C167.295 94.4115 167.269 94.6783 167.231 94.9088C167.193 95.1394 167.141 95.3366 167.077 95.5005C167.012 95.6644 166.93 95.7987 166.831 95.9035C166.732 96.0064 166.613 96.0826 166.473 96.1322C166.336 96.1798 166.175 96.2036 165.99 96.2036H165.808V95.6348L165.919 95.6263C166.02 95.6186 166.107 95.5948 166.179 95.5548C166.253 95.5129 166.316 95.4519 166.368 95.3719C166.419 95.2899 166.462 95.1842 166.496 95.0546C166.531 94.925 166.557 94.7669 166.576 94.5801C166.597 94.3934 166.613 94.1752 166.622 93.9256L166.696 92.042ZM170.998 92.042V96.2036H170.281V92.042H170.998ZM171.867 93.9142V94.463H170.798V93.9142H171.867ZM174.977 94.0085V94.2371C174.977 94.5516 174.936 94.8336 174.854 95.0832C174.772 95.3328 174.655 95.5453 174.502 95.7206C174.35 95.8959 174.168 96.0302 173.956 96.1236C173.747 96.215 173.512 96.2608 173.253 96.2608C173 96.2608 172.767 96.215 172.556 96.1236C172.344 96.0302 172.161 95.8959 172.007 95.7206C171.853 95.5453 171.734 95.3328 171.65 95.0832C171.566 94.8336 171.524 94.5516 171.524 94.2371V94.0085C171.524 93.6941 171.566 93.413 171.65 93.1653C171.734 92.9157 171.852 92.7032 172.004 92.5279C172.157 92.3507 172.339 92.2164 172.55 92.1249C172.762 92.0315 172.994 91.9849 173.247 91.9849C173.507 91.9849 173.742 92.0315 173.953 92.1249C174.165 92.2164 174.347 92.3507 174.499 92.5279C174.652 92.7032 174.769 92.9157 174.851 93.1653C174.935 93.413 174.977 93.6941 174.977 94.0085ZM174.259 94.2371V94.0028C174.259 93.7703 174.236 93.5655 174.191 93.3883C174.145 93.2091 174.079 93.0596 173.993 92.9395C173.908 92.8176 173.802 92.7261 173.676 92.6651C173.55 92.6022 173.408 92.5708 173.247 92.5708C173.091 92.5708 172.951 92.6022 172.827 92.6651C172.703 92.7261 172.598 92.8176 172.51 92.9395C172.424 93.0596 172.359 93.2091 172.313 93.3883C172.267 93.5655 172.244 93.7703 172.244 94.0028V94.2371C172.244 94.4696 172.267 94.6754 172.313 94.8545C172.359 95.0336 172.425 95.1851 172.513 95.309C172.602 95.4309 172.709 95.5234 172.833 95.5862C172.957 95.6472 173.097 95.6777 173.253 95.6777C173.415 95.6777 173.558 95.6472 173.682 95.5862C173.806 95.5234 173.911 95.4309 173.996 95.309C174.082 95.1851 174.147 95.0336 174.191 94.8545C174.236 94.6754 174.259 94.4696 174.259 94.2371ZM178.841 95.6348V96.2036H175.774V95.6348H178.841ZM175.951 95.6348V97.2269H175.265L175.24 95.6348H175.951ZM179.396 95.6348L179.353 97.224H178.678V95.6348H179.396ZM178.338 92.042V92.6137H176.417V92.042H178.338ZM178.887 92.042V96.2036H178.172V92.042H178.887ZM176.274 92.042H176.992L176.892 93.7284C176.876 93.9952 176.849 94.2352 176.809 94.4487C176.769 94.6621 176.72 94.8536 176.663 95.0232C176.608 95.1908 176.545 95.3395 176.474 95.469C176.404 95.5967 176.329 95.7072 176.249 95.8006C176.169 95.894 176.087 95.974 176.003 96.0407C175.921 96.1055 175.84 96.1598 175.76 96.2036H175.377V95.6348H175.563C175.614 95.5872 175.671 95.5186 175.734 95.429C175.797 95.3376 175.858 95.2185 175.917 95.0718C175.978 94.9231 176.031 94.7392 176.077 94.5201C176.123 94.301 176.154 94.0371 176.171 93.7284L176.274 92.042ZM180.647 95.0346L182.494 92.042H183.211V96.2036H182.494V93.2082L180.647 96.2036H179.933V92.042H180.647V95.0346Z" fill="#2C2C2C"/>
<g clip-path="url(#clip0_85_190)">
<path d="M125.357 33.524H133.374V34.5166H125.357V33.524ZM126.35 30.3935H127.343V33.0277H126.35V30.3935ZM127.877 28.3702H128.87V33.0277H127.877V28.3702ZM129.366 29.8591H130.358V32.9895H129.366V29.8591ZM130.855 26.8813H131.847V33.0277H130.855V26.8813Z" fill="#6695E2"/>
</g>
<g clip-path="url(#clip1_85_190)">
<path d="M148.313 29.8213H147.473C147.244 28.3325 146.061 27.149 144.572 26.92V26.0801H143.503V26.92C142.014 27.149 140.831 28.3325 140.602 29.8213H139.724V30.8903H140.564C140.793 32.3791 141.976 33.5626 143.465 33.7916V34.6315H144.534V33.7916C146.023 33.5626 147.206 32.3791 147.435 30.8903H148.275V29.8213H148.313ZM146.366 29.8213H145.526C145.374 29.3632 144.992 28.9815 144.534 28.8288V27.9889C145.45 28.2179 146.137 28.9051 146.366 29.8213ZM143.999 30.8903C143.694 30.8903 143.465 30.6612 143.465 30.3558C143.465 30.0504 143.694 29.8213 143.999 29.8213C144.305 29.8213 144.534 30.0504 144.534 30.3558C144.534 30.6612 144.305 30.8903 143.999 30.8903ZM143.465 27.9889V28.8288C143.007 28.9815 142.625 29.3632 142.472 29.8213H141.632C141.861 28.9051 142.549 28.2179 143.465 27.9889ZM141.632 30.8903H142.472C142.625 31.3484 143.007 31.692 143.465 31.8828V32.7227C142.549 32.4937 141.861 31.8065 141.632 30.8903ZM144.534 32.7227V31.8828C144.992 31.7301 145.336 31.3484 145.526 30.8903H146.366C146.137 31.8065 145.45 32.4937 144.534 32.7227Z" fill="#27C58B"/>
</g>
<g clip-path="url(#clip2_85_190)">
<path d="M155.657 28.7144V34.0972C155.657 34.4026 155.886 34.6316 156.192 34.6316H161.04C161.345 34.6316 161.575 34.4026 161.575 34.0972V28.7144H155.657ZM157.299 33.5627H156.764V29.7833H157.299V33.5627ZM158.368 33.5627H157.833V29.7833H158.368V33.5627ZM159.437 33.5627H158.902V29.7833H159.437V33.5627ZM160.506 33.5627H159.971V29.7833H160.506V33.5627Z" fill="#6695E2"/>
<path d="M161.727 27.0723H159.97V26.4234C159.97 26.1943 159.78 26.0034 159.55 26.0034H157.68C157.451 26.0034 157.298 26.1943 157.298 26.4234V27.0723H155.542C155.313 27.0723 155.122 27.2632 155.122 27.4923V28.1795H162.146V27.4923C162.146 27.2632 161.956 27.0723 161.727 27.0723ZM159.436 27.0723H157.833V26.5379H159.436V27.0723Z" fill="#6695E2"/>
</g>
<g clip-path="url(#clip3_85_190)">
<path d="M177.583 29.2488C177.583 28.9815 177.354 28.6761 175.712 28.4089C175.369 27.3781 174.758 26.4619 174.147 26.4619C173.765 26.4619 173.46 26.6528 173.269 26.8055C173.116 26.6528 172.811 26.4619 172.391 26.4619C171.78 26.4619 171.169 27.3781 170.826 28.4089C169.222 28.6761 168.955 28.9815 168.955 29.2488C168.955 29.6687 169.642 29.9359 170.482 30.0886C170.329 30.2795 170.215 30.5849 170.215 30.9667C170.215 31.5775 170.482 32.0356 170.826 32.0356C171.207 33.3336 172.162 34.1735 173.231 34.1735C174.3 34.1735 175.216 33.3336 175.636 32.0356C175.979 31.9974 176.247 31.5775 176.247 30.9667C176.247 30.5849 176.17 30.2795 175.979 30.0886C176.896 29.9359 177.583 29.6687 177.583 29.2488ZM175.216 30.6231C175.216 30.6613 175.216 30.6995 175.216 30.7376C175.216 31.2721 174.872 31.6157 174.338 31.6157C173.994 31.6157 173.536 31.463 173.269 31.1957C173.002 31.463 172.544 31.6157 172.2 31.6157C171.666 31.6157 171.322 31.3103 171.322 30.7376C171.322 30.6995 171.322 30.6613 171.322 30.6231C171.322 30.4704 171.284 30.2795 171.437 30.1268C171.589 29.9741 171.856 29.8978 172.391 29.8978C172.811 29.8978 173.078 29.9359 173.269 30.0886C173.422 29.9741 173.689 29.8978 174.147 29.8978C174.681 29.8978 174.949 29.9741 175.101 30.1268C175.216 30.2795 175.216 30.4704 175.216 30.6231ZM175.369 28.5234C175.33 28.5616 174.911 29.0197 173.269 29.0197C171.627 29.0197 171.207 28.5616 171.169 28.5234C171.093 28.4471 171.093 28.2944 171.207 28.218C171.284 28.1417 171.437 28.1417 171.513 28.2562C171.513 28.2562 171.895 28.5998 173.269 28.5998C174.681 28.5998 175.025 28.2562 175.025 28.2562C175.101 28.1798 175.254 28.1798 175.33 28.2562C175.445 28.2944 175.445 28.4471 175.369 28.5234Z" fill="#728A97"/>
</g>
<g clip-path="url(#clip4_85_190)">
<path d="M190.04 33.5232L190.422 33.1414L189.658 32.3779C190.002 31.9962 190.269 31.5381 190.422 31.0799C190.765 31.2326 191.109 31.3472 191.491 31.4617L191.605 30.9654C191.223 30.8891 190.88 30.7364 190.536 30.5837C190.536 30.5073 190.574 30.431 190.574 30.3928C190.612 30.0874 190.612 29.8201 190.536 29.5529C190.727 29.4766 190.918 29.362 191.071 29.2093C191.3 28.9803 191.414 28.713 191.452 28.4458H192.292V27.9495H191.452C191.414 27.6823 191.261 27.415 191.071 27.186C190.88 26.9569 190.574 26.8424 190.307 26.8042V25.9644H189.811V26.8042C189.544 26.8424 189.276 26.9951 189.047 27.186C188.895 27.3387 188.78 27.4914 188.704 27.7205C188.436 27.6823 188.169 27.6441 187.864 27.6823C187.787 27.6823 187.711 27.6823 187.673 27.7205C187.52 27.3769 187.406 27.0333 187.291 26.6515L186.757 26.7661C186.833 27.1478 186.986 27.4914 187.138 27.835C186.68 27.9877 186.222 28.2549 185.84 28.5985L185.077 27.835L184.695 28.2167L185.459 28.9803C185.115 29.362 184.848 29.8201 184.695 30.2782C184.352 30.1255 184.008 30.011 183.626 29.8965L183.512 30.3928C183.893 30.4691 184.237 30.6218 184.581 30.7745C184.581 30.8509 184.542 30.9272 184.542 30.9654C184.428 31.7671 184.695 32.5306 185.191 33.0269C185.726 33.5614 186.451 33.7904 187.253 33.6759C187.329 33.6759 187.406 33.6759 187.444 33.6377C187.597 33.9813 187.711 34.3249 187.826 34.7067L188.322 34.5921C188.246 34.2104 188.093 33.8668 187.94 33.5232C188.398 33.3705 188.856 33.1033 189.238 32.7597L190.04 33.5232ZM187.635 27.6823C187.94 28.3313 188.322 28.8657 188.818 29.4002C189.314 29.8965 189.849 30.2782 190.536 30.5837L190.383 31.0799C189.658 30.7745 189.009 30.3164 188.436 29.7438C187.902 29.2093 187.444 28.5221 187.138 27.835L187.635 27.6823ZM187.062 32.187V31.1563H186.031V30.66H187.062V29.6293H187.558V30.66H188.589V31.1563H187.558V32.187H187.062Z" fill="#E26666"/>
</g>
</g>
<defs>
<filter id="filter0_d_85_190" x="0.292684" y="0.756063" width="215.415" height="117.073" filterUnits="userSpaceOnUse" color-interpolation-filters="sRGB">
<feFlood flood-opacity="0" result="BackgroundImageFix"/>
<feColorMatrix in="SourceAlpha" type="matrix" values="0 0 0 0 0 0 0 0 0 0 0 0 0 0 0 0 0 0 127 0" result="hardAlpha"/>
<feOffset/>
<feGaussianBlur stdDeviation="5.85366"/>
<feComposite in2="hardAlpha" operator="out"/>
<feColorMatrix type="matrix" values="0 0 0 0 0.716146 0 0 0 0 0.869305 0 0 0 0 1 0 0 0 1 0"/>
<feBlend mode="normal" in2="BackgroundImageFix" result="effect1_dropShadow_85_190"/>
<feBlend mode="normal" in="SourceGraphic" in2="effect1_dropShadow_85_190" result="shape"/>
</filter>
<clipPath id="clip0_85_190">
<rect width="8.78049" height="8.78049" fill="white" transform="translate(124.976 25.9268)"/>
</clipPath>
<clipPath id="clip1_85_190">
<rect width="8.78049" height="8.78049" fill="white" transform="translate(139.609 25.9268)"/>
</clipPath>
<clipPath id="clip2_85_190">
<rect width="8.78049" height="8.78049" fill="white" transform="translate(154.244 25.9268)"/>
</clipPath>
<clipPath id="clip3_85_190">
<rect width="8.78049" height="8.78049" fill="white" transform="translate(168.878 25.9268)"/>
</clipPath>
<clipPath id="clip4_85_190">
<rect width="8.78049" height="8.78049" fill="white" transform="translate(183.512 25.9268)"/>
</clipPath>
</defs>
</svg>
