<svg width="216" height="118" viewBox="0 0 216 118" fill="none" xmlns="http://www.w3.org/2000/svg">
<g filter="url(#filter0_d_85_94)">
<rect x="12" y="12.3413" width="192" height="93.6585" rx="11.7073" fill="white"/>
<rect x="20.7803" y="79.0732" width="100.39" height="18.0244" rx="9.0122" fill="#2CA9DB"/>
<path d="M29.9733 85.1996H30.9244V87.3075C30.9244 87.6006 30.9753 87.8323 31.0771 88.0028C31.179 88.1712 31.3266 88.2907 31.5199 88.3614C31.7153 88.432 31.9523 88.4674 32.2308 88.4674C32.3784 88.4674 32.5281 88.4622 32.6798 88.4518C32.8337 88.4393 32.9864 88.4227 33.1382 88.4019C33.2899 88.379 33.4365 88.353 33.5778 88.3239C33.7213 88.2928 33.8543 88.2585 33.9769 88.2211V89.0411C33.8564 89.0806 33.7285 89.1159 33.5934 89.1471C33.4604 89.1762 33.3211 89.2022 33.1756 89.2251C33.0301 89.2459 32.8783 89.2625 32.7204 89.275C32.5624 89.2874 32.3992 89.2937 32.2308 89.2937C31.7652 89.2937 31.363 89.2271 31.0241 89.0941C30.6874 88.959 30.4275 88.7459 30.2446 88.4549C30.0638 88.1639 29.9733 87.7814 29.9733 87.3075V85.1996ZM33.8335 85.1996H34.7876V91.5854H33.8335V85.1996ZM38.2573 91.6821C37.7854 91.6821 37.379 91.5813 37.0381 91.3797C36.6993 91.1759 36.4374 90.8901 36.2524 90.5222C36.0694 90.1522 35.978 89.7188 35.978 89.222C35.978 88.7314 36.0694 88.299 36.2524 87.9248C36.4374 87.5507 36.6951 87.2586 37.0256 87.0487C37.3582 86.8387 37.747 86.7337 38.1918 86.7337C38.462 86.7337 38.724 86.7784 38.9776 86.8678C39.2312 86.9572 39.4588 87.0975 39.6604 87.2887C39.862 87.48 40.0211 87.7284 40.1375 88.034C40.2539 88.3375 40.3121 88.7064 40.3121 89.1409V89.4714H36.5049V88.7729H39.3985C39.3985 88.5277 39.3486 88.3104 39.2488 88.1213C39.149 87.93 39.0087 87.7793 38.8279 87.6692C38.6491 87.559 38.4392 87.5039 38.198 87.5039C37.9361 87.5039 37.7075 87.5683 37.5121 87.6972C37.3187 87.824 37.1691 87.9903 37.0631 88.1961C36.9591 88.3998 36.9072 88.6212 36.9072 88.8603V89.4059C36.9072 89.726 36.9633 89.9984 37.0755 90.2229C37.1899 90.4474 37.3489 90.6188 37.5526 90.7373C37.7563 90.8537 37.9943 90.9119 38.2666 90.9119C38.4433 90.9119 38.6044 90.887 38.7499 90.8371C38.8954 90.7851 39.0212 90.7082 39.1272 90.6064C39.2332 90.5045 39.3143 90.3788 39.3704 90.2291L40.2528 90.3881C40.1822 90.6479 40.0554 90.8756 39.8724 91.071C39.6916 91.2643 39.464 91.415 39.1896 91.5231C38.9173 91.6291 38.6065 91.6821 38.2573 91.6821ZM41.3465 91.5854V86.7961H42.2788V88.8041H42.7278L44.3087 86.7961H45.4624L43.6071 89.1253L45.4842 91.5854H44.3274L42.8837 89.671H42.2788V91.5854H41.3465ZM48.7044 88.483V89.2905H45.8732V88.483H48.7044ZM49.5696 91.5854L49.5665 90.7779H49.738C49.8711 90.7779 49.9823 90.7498 50.0717 90.6937C50.1631 90.6355 50.2379 90.5378 50.2962 90.4006C50.3544 90.2634 50.399 90.0742 50.4302 89.8331C50.4614 89.5899 50.4843 89.2843 50.4988 88.9164L50.583 86.7961H53.9256V91.5854H53.012V87.6006H51.4467L51.3719 89.2282C51.3532 89.6231 51.3126 89.9682 51.2503 90.2634C51.19 90.5586 51.1017 90.8049 50.9852 91.0024C50.8688 91.1978 50.7192 91.3443 50.5362 91.442C50.3533 91.5376 50.1309 91.5854 49.869 91.5854H49.5696ZM56.0825 90.279L58.1934 86.7961H59.1975V91.5854H58.2839V88.0994L56.1823 91.5854H55.1689V86.7961H56.0825V90.279ZM62.4683 91.6821C62.0048 91.6821 61.6057 91.5771 61.271 91.3672C60.9384 91.1552 60.6827 90.8631 60.5039 90.491C60.3252 90.1189 60.2358 89.6928 60.2358 89.2126C60.2358 88.7262 60.3272 88.2969 60.5102 87.9248C60.6931 87.5507 60.9509 87.2586 61.2835 87.0487C61.616 86.8387 62.0079 86.7337 62.459 86.7337C62.8227 86.7337 63.147 86.8013 63.4318 86.9364C63.7166 87.0694 63.9463 87.2565 64.1209 87.4977C64.2976 87.7388 64.4026 88.0205 64.4358 88.3427H63.5285C63.4786 88.1182 63.3642 87.9248 63.1855 87.7627C63.0088 87.6006 62.7718 87.5195 62.4746 87.5195C62.2147 87.5195 61.9871 87.5881 61.7917 87.7253C61.5984 87.8604 61.4477 88.0537 61.3396 88.3052C61.2315 88.5547 61.1774 88.8499 61.1774 89.1908C61.1774 89.54 61.2304 89.8414 61.3365 90.095C61.4425 90.3486 61.5921 90.5451 61.7855 90.6843C61.9809 90.8236 62.2106 90.8932 62.4746 90.8932C62.6512 90.8932 62.8113 90.861 62.9547 90.7966C63.1002 90.7301 63.2219 90.6355 63.3196 90.5128C63.4193 90.3902 63.489 90.2426 63.5285 90.0701H64.4358C64.4026 90.3798 64.3017 90.6563 64.1334 90.8995C63.965 91.1427 63.7395 91.3339 63.4567 91.4732C63.1761 91.6125 62.8466 91.6821 62.4683 91.6821ZM65.0704 87.6006V86.7961H69.1114V87.6006H67.5492V91.5854H66.6387V87.6006H65.0704ZM70.7117 91.6447C70.5413 91.6447 70.3947 91.5844 70.2721 91.4638C70.1494 91.3412 70.0881 91.1936 70.0881 91.0211C70.0881 90.8506 70.1494 90.7051 70.2721 90.5845C70.3947 90.4619 70.5413 90.4006 70.7117 90.4006C70.8822 90.4006 71.0287 90.4619 71.1514 90.5845C71.274 90.7051 71.3353 90.8506 71.3353 91.0211C71.3353 91.1354 71.3062 91.2404 71.248 91.336C71.1919 91.4295 71.1171 91.5044 71.0235 91.5605C70.93 91.6166 70.826 91.6447 70.7117 91.6447ZM70.7117 88.1587C70.5413 88.1587 70.3947 88.0974 70.2721 87.9747C70.1494 87.8521 70.0881 87.7055 70.0881 87.5351C70.0881 87.3646 70.1494 87.2191 70.2721 87.0985C70.3947 86.9759 70.5413 86.9146 70.7117 86.9146C70.8822 86.9146 71.0287 86.9759 71.1514 87.0985C71.274 87.2191 71.3353 87.3646 71.3353 87.5351C71.3353 87.6494 71.3062 87.7544 71.248 87.85C71.1919 87.9435 71.1171 88.0184 71.0235 88.0745C70.93 88.1306 70.826 88.1587 70.7117 88.1587ZM77.3181 85.1996V91.5854H76.3515V86.1662H76.3141L74.7863 87.164V86.2411L76.3796 85.1996H77.3181ZM81.2687 91.6915C80.7761 91.6894 80.3551 91.5595 80.0059 91.3017C79.6567 91.0439 79.3896 90.6687 79.2046 90.1761C79.0196 89.6834 78.9271 89.09 78.9271 88.3957C78.9271 87.7035 79.0196 87.1121 79.2046 86.6215C79.3916 86.1309 79.6598 85.7567 80.009 85.499C80.3603 85.2412 80.7802 85.1123 81.2687 85.1123C81.7572 85.1123 82.1761 85.2423 82.5253 85.5021C82.8745 85.7599 83.1416 86.134 83.3267 86.6246C83.5137 87.1131 83.6073 87.7035 83.6073 88.3957C83.6073 89.092 83.5148 89.6865 83.3298 90.1792C83.1448 90.6698 82.8777 91.045 82.5284 91.3048C82.1792 91.5626 81.7593 91.6915 81.2687 91.6915ZM81.2687 90.8589C81.7011 90.8589 82.0389 90.6479 82.2821 90.226C82.5274 89.804 82.65 89.1939 82.65 88.3957C82.65 87.8656 82.5939 87.4176 82.4817 87.0518C82.3715 86.6838 82.2125 86.4053 82.0046 86.2161C81.7988 86.0249 81.5535 85.9293 81.2687 85.9293C80.8384 85.9293 80.5006 86.1413 80.2554 86.5654C80.0101 86.9894 79.8864 87.5995 79.8843 88.3957C79.8843 88.9278 79.9394 89.3779 80.0496 89.7458C80.1618 90.1116 80.3208 90.3891 80.5266 90.5783C80.7324 90.7654 80.9798 90.8589 81.2687 90.8589ZM87.0496 86.7961H87.9632V90.7779H89.6189V86.7961H90.5325V90.7779H92.1882V86.7961H93.1018V91.5854H87.0496V86.7961ZM95.7405 91.6915C95.437 91.6915 95.1626 91.6353 94.9173 91.5231C94.672 91.4088 94.4776 91.2435 94.3342 91.0273C94.1929 90.8111 94.1222 90.5461 94.1222 90.2322C94.1222 89.962 94.1742 89.7396 94.2781 89.5649C94.382 89.3903 94.5223 89.2521 94.699 89.1502C94.8757 89.0484 95.0732 88.9715 95.2915 88.9195C95.5097 88.8675 95.7322 88.828 95.9587 88.801C96.2456 88.7678 96.4784 88.7407 96.6572 88.7199C96.8359 88.6971 96.9659 88.6607 97.0469 88.6108C97.128 88.5609 97.1685 88.4799 97.1685 88.3676V88.3458C97.1685 88.0735 97.0916 87.8625 96.9378 87.7128C96.7861 87.5631 96.5595 87.4883 96.2581 87.4883C95.9442 87.4883 95.6968 87.5579 95.516 87.6972C95.3372 87.8344 95.2135 87.9872 95.1449 88.1556L94.2687 87.956C94.3727 87.665 94.5244 87.4301 94.724 87.2513C94.9256 87.0705 95.1574 86.9395 95.4193 86.8585C95.6812 86.7753 95.9567 86.7337 96.2456 86.7337C96.4368 86.7337 96.6395 86.7566 96.8536 86.8023C97.0698 86.846 97.2714 86.9271 97.4585 87.0455C97.6477 87.164 97.8025 87.3334 97.9231 87.5538C98.0437 87.772 98.104 88.0558 98.104 88.405V91.5854H97.1935V90.9307H97.1561C97.0958 91.0512 97.0054 91.1697 96.8848 91.2861C96.7642 91.4025 96.6094 91.4992 96.4202 91.5761C96.231 91.653 96.0045 91.6915 95.7405 91.6915ZM95.9431 90.9431C96.2009 90.9431 96.4212 90.8922 96.6042 90.7903C96.7892 90.6885 96.9295 90.5554 97.0251 90.3912C97.1228 90.2249 97.1717 90.0472 97.1717 89.858V89.2407C97.1384 89.2739 97.074 89.3051 96.9783 89.3342C96.8848 89.3612 96.7777 89.3851 96.6572 89.4059C96.5366 89.4246 96.4192 89.4423 96.3048 89.4589C96.1905 89.4735 96.0949 89.4859 96.018 89.4963C95.8371 89.5192 95.6719 89.5577 95.5222 89.6117C95.3746 89.6658 95.2561 89.7437 95.1667 89.8456C95.0794 89.9453 95.0358 90.0784 95.0358 90.2447C95.0358 90.4754 95.121 90.65 95.2915 90.7685C95.4619 90.8849 95.6791 90.9431 95.9431 90.9431ZM102.408 86.7961V87.6006H100.266V91.5854H99.3457V86.7961H102.408ZM105.187 91.6821C104.738 91.6821 104.347 91.5792 104.012 91.3734C103.677 91.1676 103.417 90.8797 103.232 90.5097C103.047 90.1397 102.955 89.7073 102.955 89.2126C102.955 88.7158 103.047 88.2813 103.232 87.9092C103.417 87.5372 103.677 87.2482 104.012 87.0424C104.347 86.8366 104.738 86.7337 105.187 86.7337C105.636 86.7337 106.028 86.8366 106.363 87.0424C106.698 87.2482 106.957 87.5372 107.142 87.9092C107.327 88.2813 107.42 88.7158 107.42 89.2126C107.42 89.7073 107.327 90.1397 107.142 90.5097C106.957 90.8797 106.698 91.1676 106.363 91.3734C106.028 91.5792 105.636 91.6821 105.187 91.6821ZM105.191 90.8995C105.482 90.8995 105.723 90.8226 105.914 90.6687C106.105 90.5149 106.247 90.3102 106.338 90.0545C106.432 89.7988 106.478 89.5171 106.478 89.2095C106.478 88.9039 106.432 88.6233 106.338 88.3676C106.247 88.1098 106.105 87.903 105.914 87.7471C105.723 87.5912 105.482 87.5132 105.191 87.5132C104.897 87.5132 104.654 87.5912 104.461 87.7471C104.27 87.903 104.127 88.1098 104.034 88.3676C103.942 88.6233 103.897 88.9039 103.897 89.2095C103.897 89.5171 103.942 89.7988 104.034 90.0545C104.127 90.3102 104.27 90.5149 104.461 90.6687C104.654 90.8226 104.897 90.8995 105.191 90.8995ZM108.461 91.5854V86.7961H110.447C110.987 86.7961 111.416 86.9115 111.731 87.1422C112.047 87.3709 112.205 87.6816 112.205 88.0745C112.205 88.3551 112.116 88.5776 111.937 88.7418C111.759 88.906 111.522 89.0162 111.226 89.0723C111.44 89.0972 111.637 89.1617 111.816 89.2656C111.994 89.3675 112.138 89.5047 112.246 89.6772C112.356 89.8497 112.411 90.0555 112.411 90.2946C112.411 90.5482 112.346 90.7727 112.215 90.9681C112.084 91.1614 111.894 91.3131 111.644 91.4233C111.397 91.5314 111.099 91.5854 110.749 91.5854H108.461ZM109.337 90.8059H110.749C110.98 90.8059 111.161 90.7508 111.292 90.6407C111.423 90.5305 111.488 90.3808 111.488 90.1917C111.488 89.9692 111.423 89.7946 111.292 89.6678C111.161 89.539 110.98 89.4745 110.749 89.4745H109.337V90.8059ZM109.337 88.7917H110.456C110.631 88.7917 110.78 88.7667 110.905 88.7168C111.032 88.6669 111.129 88.5963 111.195 88.5048C111.264 88.4113 111.298 88.3011 111.298 88.1743C111.298 87.9893 111.222 87.8448 111.07 87.7409C110.919 87.6369 110.711 87.585 110.447 87.585H109.337V88.7917Z" fill="white"/>
<path d="M24.4022 63.2441L22.6461 60.8994H22.0175V63.2441H21.3989V58.1355H22.0175V60.3506H22.2869L24.3324 58.1355H25.0707L23.0053 60.3805L25.1406 63.2441H24.4022ZM26.9877 63.3339C26.7449 63.3339 26.5246 63.2882 26.3267 63.1967C26.1288 63.1036 25.9717 62.9698 25.8552 62.7951C25.7388 62.6189 25.6806 62.406 25.6806 62.1566C25.6806 61.937 25.7239 61.7591 25.8103 61.6227C25.8968 61.4847 26.0124 61.3766 26.1571 61.2985C26.3018 61.2203 26.4614 61.1621 26.636 61.1239C26.8123 61.0839 26.9894 61.0523 27.1673 61.0291C27.4001 60.9991 27.5889 60.9767 27.7336 60.9617C27.8799 60.9451 27.9863 60.9176 28.0529 60.8794C28.121 60.8411 28.1551 60.7746 28.1551 60.6798V60.6599C28.1551 60.4138 28.0878 60.2225 27.9531 60.0862C27.82 59.9498 27.618 59.8816 27.3469 59.8816C27.0659 59.8816 26.8455 59.9431 26.6859 60.0662C26.5263 60.1893 26.414 60.3206 26.3491 60.4603L25.7904 60.2608C25.8902 60.028 26.0232 59.8467 26.1895 59.717C26.3575 59.5856 26.5404 59.4941 26.7383 59.4426C26.9378 59.3894 27.1341 59.3628 27.327 59.3628C27.45 59.3628 27.5914 59.3777 27.751 59.4077C27.9123 59.4359 28.0678 59.495 28.2175 59.5848C28.3688 59.6746 28.4944 59.8101 28.5942 59.9914C28.6939 60.1726 28.7438 60.4154 28.7438 60.7198V63.2441H28.1551V62.7253H28.1252C28.0853 62.8084 28.0188 62.8974 27.9256 62.9922C27.8325 63.087 27.7086 63.1676 27.554 63.2342C27.3993 63.3007 27.2106 63.3339 26.9877 63.3339ZM27.0775 62.8051C27.3103 62.8051 27.5066 62.7594 27.6662 62.6679C27.8275 62.5765 27.9489 62.4584 28.0304 62.3137C28.1136 62.169 28.1551 62.0169 28.1551 61.8572V61.3184C28.1302 61.3484 28.0753 61.3758 27.9905 61.4007C27.9074 61.424 27.8109 61.4448 27.7011 61.4631C27.5931 61.4797 27.4875 61.4947 27.3843 61.508C27.2829 61.5196 27.2006 61.5296 27.1374 61.5379C26.9844 61.5579 26.8414 61.5903 26.7084 61.6352C26.577 61.6785 26.4705 61.7441 26.3891 61.8323C26.3092 61.9188 26.2693 62.0368 26.2693 62.1865C26.2693 62.391 26.345 62.5457 26.4963 62.6505C26.6493 62.7536 26.8431 62.8051 27.0775 62.8051ZM29.8183 63.2441V59.4127H30.407V61.079H30.7961L32.1731 59.4127H32.9314L31.3848 61.2586L32.9514 63.2441H32.193L30.9358 61.6277H30.407V63.2441H29.8183ZM35.5668 64.6809V59.4127H36.1355V60.0213H36.2054C36.2486 59.9548 36.3085 59.87 36.385 59.7669C36.4631 59.6621 36.5745 59.569 36.7192 59.4875C36.8656 59.4043 37.0635 59.3628 37.3129 59.3628C37.6355 59.3628 37.9199 59.4434 38.166 59.6047C38.4121 59.766 38.6042 59.9947 38.7422 60.2907C38.8803 60.5867 38.9493 60.9359 38.9493 61.3384C38.9493 61.7441 38.8803 62.0959 38.7422 62.3935C38.6042 62.6895 38.413 62.919 38.1685 63.082C37.9241 63.2433 37.6422 63.324 37.3229 63.324C37.0768 63.324 36.8797 63.2832 36.7317 63.2017C36.5837 63.1186 36.4698 63.0246 36.39 62.9199C36.3101 62.8134 36.2486 62.7253 36.2054 62.6554H36.1555V64.6809H35.5668ZM36.1455 61.3284C36.1455 61.6178 36.1879 61.873 36.2727 62.0942C36.3575 62.3137 36.4814 62.4858 36.6444 62.6105C36.8074 62.7336 37.0069 62.7951 37.2431 62.7951C37.4892 62.7951 37.6946 62.7303 37.8592 62.6006C38.0255 62.4692 38.1502 62.2929 38.2334 62.0717C38.3182 61.8489 38.3606 61.6011 38.3606 61.3284C38.3606 61.059 38.319 60.8162 38.2359 60.6C38.1544 60.3822 38.0305 60.21 37.8642 60.0837C37.6995 59.9556 37.4925 59.8916 37.2431 59.8916C37.0036 59.8916 36.8024 59.9523 36.6394 60.0737C36.4764 60.1934 36.3534 60.3614 36.2702 60.5776C36.1871 60.7921 36.1455 61.0424 36.1455 61.3284ZM40.9748 63.3339C40.732 63.3339 40.5116 63.2882 40.3137 63.1967C40.1158 63.1036 39.9587 62.9698 39.8423 62.7951C39.7259 62.6189 39.6677 62.406 39.6677 62.1566C39.6677 61.937 39.7109 61.7591 39.7974 61.6227C39.8839 61.4847 39.9994 61.3766 40.1441 61.2985C40.2888 61.2203 40.4484 61.1621 40.6231 61.1239C40.7993 61.0839 40.9764 61.0523 41.1544 61.0291C41.3872 60.9991 41.5759 60.9767 41.7206 60.9617C41.867 60.9451 41.9734 60.9176 42.0399 60.8794C42.1081 60.8411 42.1422 60.7746 42.1422 60.6798V60.6599C42.1422 60.4138 42.0748 60.2225 41.9401 60.0862C41.8071 59.9498 41.605 59.8816 41.334 59.8816C41.0529 59.8816 40.8326 59.9431 40.6729 60.0662C40.5133 60.1893 40.401 60.3206 40.3362 60.4603L39.7774 60.2608C39.8772 60.028 40.0102 59.8467 40.1765 59.717C40.3445 59.5856 40.5274 59.4941 40.7253 59.4426C40.9249 59.3894 41.1211 59.3628 41.314 59.3628C41.4371 59.3628 41.5784 59.3777 41.7381 59.4077C41.8994 59.4359 42.0549 59.495 42.2045 59.5848C42.3559 59.6746 42.4814 59.8101 42.5812 59.9914C42.681 60.1726 42.7309 60.4154 42.7309 60.7198V63.2441H42.1422V62.7253H42.1122C42.0723 62.8084 42.0058 62.8974 41.9127 62.9922C41.8196 63.087 41.6957 63.1676 41.541 63.2342C41.3864 63.3007 41.1976 63.3339 40.9748 63.3339ZM41.0646 62.8051C41.2974 62.8051 41.4936 62.7594 41.6533 62.6679C41.8146 62.5765 41.936 62.4584 42.0175 62.3137C42.1006 62.169 42.1422 62.0169 42.1422 61.8572V61.3184C42.1172 61.3484 42.0624 61.3758 41.9775 61.4007C41.8944 61.424 41.7979 61.4448 41.6882 61.4631C41.5801 61.4797 41.4745 61.4947 41.3714 61.508C41.27 61.5196 41.1876 61.5296 41.1244 61.5379C40.9714 61.5579 40.8284 61.5903 40.6954 61.6352C40.564 61.6785 40.4576 61.7441 40.3761 61.8323C40.2963 61.9188 40.2564 62.0368 40.2564 62.1865C40.2564 62.391 40.332 62.5457 40.4834 62.6505C40.6364 62.7536 40.8301 62.8051 41.0646 62.8051ZM45.3619 63.324C45.0027 63.324 44.6934 63.2392 44.434 63.0695C44.1745 62.8999 43.975 62.6663 43.8353 62.3686C43.6956 62.0709 43.6258 61.7308 43.6258 61.3484C43.6258 60.9592 43.6973 60.6158 43.8403 60.3181C43.985 60.0188 44.1862 59.7852 44.4439 59.6172C44.7034 59.4476 45.006 59.3628 45.3519 59.3628C45.6213 59.3628 45.8641 59.4127 46.0803 59.5124C46.2965 59.6122 46.4736 59.7519 46.6116 59.9315C46.7496 60.1111 46.8353 60.3206 46.8685 60.5601H46.2799C46.235 60.3855 46.1352 60.2308 45.9805 60.0961C45.8275 59.9598 45.6213 59.8916 45.3619 59.8916C45.1324 59.8916 44.9312 59.9515 44.7582 60.0712C44.587 60.1893 44.4531 60.3564 44.3566 60.5726C44.2618 60.7871 44.2144 61.039 44.2144 61.3284C44.2144 61.6244 44.261 61.8822 44.3541 62.1017C44.4489 62.3212 44.582 62.4916 44.7533 62.613C44.9262 62.7344 45.1291 62.7951 45.3619 62.7951C45.5149 62.7951 45.6537 62.7685 45.7785 62.7153C45.9032 62.6621 46.0088 62.5856 46.0953 62.4858C46.1817 62.386 46.2433 62.2663 46.2799 62.1266H46.8685C46.8353 62.3528 46.753 62.5565 46.6216 62.7378C46.4919 62.9174 46.3198 63.0604 46.1052 63.1668C45.8924 63.2716 45.6446 63.324 45.3619 63.324ZM47.7291 63.2441V59.4127H50.7424V63.2441H50.1537V59.9614H48.3178V63.2441H47.7291ZM53.3741 63.324C53.0282 63.324 52.7247 63.2416 52.4636 63.077C52.2042 62.9124 52.0013 62.6821 51.855 62.386C51.7103 62.09 51.638 61.7441 51.638 61.3484C51.638 60.9492 51.7103 60.6008 51.855 60.3032C52.0013 60.0055 52.2042 59.7744 52.4636 59.6097C52.7247 59.4451 53.0282 59.3628 53.3741 59.3628C53.72 59.3628 54.0227 59.4451 54.2821 59.6097C54.5432 59.7744 54.746 60.0055 54.8907 60.3032C55.0371 60.6008 55.1102 60.9492 55.1102 61.3484C55.1102 61.7441 55.0371 62.09 54.8907 62.386C54.746 62.6821 54.5432 62.9124 54.2821 63.077C54.0227 63.2416 53.72 63.324 53.3741 63.324ZM53.3741 62.7951C53.6368 62.7951 53.853 62.7278 54.0227 62.5931C54.1923 62.4584 54.3178 62.2813 54.3993 62.0618C54.4808 61.8423 54.5215 61.6045 54.5215 61.3484C54.5215 61.0923 54.4808 60.8536 54.3993 60.6324C54.3178 60.4113 54.1923 60.2325 54.0227 60.0961C53.853 59.9598 53.6368 59.8916 53.3741 59.8916C53.1113 59.8916 52.8952 59.9598 52.7255 60.0961C52.5559 60.2325 52.4304 60.4113 52.3489 60.6324C52.2674 60.8536 52.2266 61.0923 52.2266 61.3484C52.2266 61.6045 52.2674 61.8423 52.3489 62.0618C52.4304 62.2813 52.5559 62.4584 52.7255 62.5931C52.8952 62.7278 53.1113 62.7951 53.3741 62.7951ZM55.7694 62.2663H56.398C56.4113 62.4393 56.4895 62.5706 56.6325 62.6604C56.7772 62.7502 56.9651 62.7951 57.1962 62.7951C57.4324 62.7951 57.6344 62.7469 57.8024 62.6505C57.9703 62.5523 58.0543 62.3944 58.0543 62.1765C58.0543 62.0485 58.0227 61.937 57.9595 61.8423C57.8963 61.7458 57.8074 61.671 57.6926 61.6178C57.5779 61.5645 57.4423 61.5379 57.286 61.5379H56.6275V61.0091H57.286C57.5205 61.0091 57.6935 60.9559 57.8049 60.8495C57.918 60.743 57.9745 60.61 57.9745 60.4503C57.9745 60.2791 57.9138 60.1419 57.7924 60.0388C57.671 59.934 57.4989 59.8816 57.276 59.8816C57.0515 59.8816 56.8645 59.9323 56.7148 60.0338C56.5651 60.1336 56.4861 60.2624 56.4778 60.4204H55.8592C55.8658 60.2142 55.929 60.0321 56.0488 59.8741C56.1685 59.7145 56.3315 59.5898 56.5377 59.5C56.7439 59.4085 56.98 59.3628 57.2461 59.3628C57.5155 59.3628 57.7492 59.4102 57.9471 59.5049C58.1466 59.5981 58.3004 59.7253 58.4085 59.8866C58.5183 60.0462 58.5732 60.2275 58.5732 60.4304C58.5732 60.6466 58.5125 60.8212 58.3911 60.9542C58.2697 61.0873 58.1175 61.1821 57.9346 61.2386V61.2785C58.0793 61.2885 58.2048 61.335 58.3112 61.4182C58.4193 61.4997 58.5033 61.6069 58.5632 61.74C58.6231 61.8714 58.653 62.0169 58.653 62.1765C58.653 62.4093 58.5906 62.6122 58.4659 62.7852C58.3412 62.9564 58.1699 63.0895 57.952 63.1843C57.7342 63.2774 57.4856 63.324 57.2062 63.324C56.9351 63.324 56.6923 63.2799 56.4778 63.1918C56.2633 63.102 56.0928 62.9781 55.9665 62.8201C55.8417 62.6604 55.776 62.4758 55.7694 62.2663ZM62.0442 61.059V61.6078H59.9289V61.059H62.0442ZM60.0686 59.4127V63.2441H59.4799V59.4127H60.0686ZM62.4932 59.4127V63.2441H61.9045V59.4127H62.4932ZM64.6958 63.3339C64.453 63.3339 64.2327 63.2882 64.0348 63.1967C63.8369 63.1036 63.6797 62.9698 63.5633 62.7951C63.4469 62.6189 63.3887 62.406 63.3887 62.1566C63.3887 61.937 63.4319 61.7591 63.5184 61.6227C63.6049 61.4847 63.7205 61.3766 63.8652 61.2985C64.0098 61.2203 64.1695 61.1621 64.3441 61.1239C64.5204 61.0839 64.6975 61.0523 64.8754 61.0291C65.1082 60.9991 65.297 60.9767 65.4417 60.9617C65.588 60.9451 65.6944 60.9176 65.7609 60.8794C65.8291 60.8411 65.8632 60.7746 65.8632 60.6798V60.6599C65.8632 60.4138 65.7959 60.2225 65.6612 60.0862C65.5281 59.9498 65.3261 59.8816 65.055 59.8816C64.774 59.8816 64.5536 59.9431 64.394 60.0662C64.2343 60.1893 64.1221 60.3206 64.0572 60.4603L63.4985 60.2608C63.5982 60.028 63.7313 59.8467 63.8976 59.717C64.0655 59.5856 64.2485 59.4941 64.4464 59.4426C64.6459 59.3894 64.8421 59.3628 65.0351 59.3628C65.1581 59.3628 65.2995 59.3777 65.4591 59.4077C65.6204 59.4359 65.7759 59.495 65.9256 59.5848C66.0769 59.6746 66.2025 59.8101 66.3022 59.9914C66.402 60.1726 66.4519 60.4154 66.4519 60.7198V63.2441H65.8632V62.7253H65.8333C65.7934 62.8084 65.7268 62.8974 65.6337 62.9922C65.5406 63.087 65.4167 63.1676 65.262 63.2342C65.1074 63.3007 64.9186 63.3339 64.6958 63.3339ZM64.7856 62.8051C65.0184 62.8051 65.2147 62.7594 65.3743 62.6679C65.5356 62.5765 65.657 62.4584 65.7385 62.3137C65.8216 62.169 65.8632 62.0169 65.8632 61.8572V61.3184C65.8383 61.3484 65.7834 61.3758 65.6986 61.4007C65.6154 61.424 65.519 61.4448 65.4092 61.4631C65.3011 61.4797 65.1955 61.4947 65.0924 61.508C64.991 61.5196 64.9087 61.5296 64.8455 61.5379C64.6925 61.5579 64.5495 61.5903 64.4164 61.6352C64.2851 61.6785 64.1786 61.7441 64.0971 61.8323C64.0173 61.9188 63.9774 62.0368 63.9774 62.1865C63.9774 62.391 64.0531 62.5457 64.2044 62.6505C64.3574 62.7536 64.5511 62.8051 64.7856 62.8051ZM67.0051 59.9614V59.4127H70.1181V59.9614H68.8609V63.2441H68.2722V59.9614H67.0051ZM71.4857 60.7996H72.5833C73.0323 60.7996 73.3757 60.9135 73.6135 61.1413C73.8513 61.3691 73.9702 61.6577 73.9702 62.0069C73.9702 62.2364 73.917 62.4451 73.8106 62.633C73.7041 62.8193 73.5478 62.9681 73.3416 63.0795C73.1354 63.1893 72.8826 63.2441 72.5833 63.2441H70.9769V59.4127H71.5655V62.6954H72.5833C72.8161 62.6954 73.0073 62.6338 73.157 62.5108C73.3067 62.3877 73.3815 62.2297 73.3815 62.0368C73.3815 61.8339 73.3067 61.6685 73.157 61.5404C73.0073 61.4124 72.8161 61.3484 72.5833 61.3484H71.4857V60.7996ZM79.4062 61.059V61.6078H77.2909V61.059H79.4062ZM77.4306 59.4127V63.2441H76.8419V59.4127H77.4306ZM79.8552 59.4127V63.2441H79.2666V59.4127H79.8552ZM82.5368 63.324C82.1676 63.324 81.8492 63.2425 81.5814 63.0795C81.3153 62.9149 81.11 62.6854 80.9653 62.391C80.8223 62.095 80.7508 61.7508 80.7508 61.3583C80.7508 60.9659 80.8223 60.62 80.9653 60.3206C81.11 60.0196 81.3112 59.7852 81.5689 59.6172C81.8284 59.4476 82.131 59.3628 82.4769 59.3628C82.6765 59.3628 82.8735 59.396 83.0681 59.4625C83.2627 59.5291 83.4398 59.6372 83.5994 59.7868C83.7591 59.9348 83.8863 60.1311 83.9811 60.3755C84.0759 60.62 84.1233 60.921 84.1233 61.2785V61.528H81.1698V61.0191H83.5246C83.5246 60.8029 83.4814 60.61 83.3949 60.4404C83.3101 60.2707 83.1887 60.1369 83.0307 60.0388C82.8744 59.9406 82.6898 59.8916 82.4769 59.8916C82.2424 59.8916 82.0396 59.9498 81.8683 60.0662C81.6987 60.1809 81.5681 60.3306 81.4766 60.5152C81.3852 60.6998 81.3394 60.8977 81.3394 61.1089V61.4481C81.3394 61.7375 81.3893 61.9828 81.4891 62.184C81.5906 62.3836 81.7311 62.5357 81.9107 62.6405C82.0903 62.7436 82.299 62.7951 82.5368 62.7951C82.6914 62.7951 82.8311 62.7735 82.9559 62.7303C83.0822 62.6854 83.1912 62.6189 83.2826 62.5307C83.3741 62.4409 83.4448 62.3295 83.4947 62.1965L84.0634 62.3561C84.0035 62.549 83.9029 62.7186 83.7616 62.865C83.6202 63.0097 83.4456 63.1227 83.2377 63.2042C83.0299 63.2841 82.7962 63.324 82.5368 63.324ZM85.0188 63.2441V59.4127H85.6075V61.079H85.9966L87.3735 59.4127H88.1319L86.5853 61.2586L88.1518 63.2441H87.3935L86.1363 61.6277H85.6075V63.2441H85.0188ZM89.9191 63.3339C89.6763 63.3339 89.456 63.2882 89.2581 63.1967C89.0602 63.1036 88.9031 62.9698 88.7867 62.7951C88.6702 62.6189 88.612 62.406 88.612 62.1566C88.612 61.937 88.6553 61.7591 88.7418 61.6227C88.8282 61.4847 88.9438 61.3766 89.0885 61.2985C89.2332 61.2203 89.3928 61.1621 89.5674 61.1239C89.7437 61.0839 89.9208 61.0523 90.0987 61.0291C90.3316 60.9991 90.5203 60.9767 90.665 60.9617C90.8113 60.9451 90.9177 60.9176 90.9843 60.8794C91.0525 60.8411 91.0865 60.7746 91.0865 60.6798V60.6599C91.0865 60.4138 91.0192 60.2225 90.8845 60.0862C90.7515 59.9498 90.5494 59.8816 90.2783 59.8816C89.9973 59.8816 89.777 59.9431 89.6173 60.0662C89.4577 60.1893 89.3454 60.3206 89.2806 60.4603L88.7218 60.2608C88.8216 60.028 88.9546 59.8467 89.1209 59.717C89.2889 59.5856 89.4718 59.4941 89.6697 59.4426C89.8692 59.3894 90.0655 59.3628 90.2584 59.3628C90.3814 59.3628 90.5228 59.3777 90.6824 59.4077C90.8437 59.4359 90.9992 59.495 91.1489 59.5848C91.3002 59.6746 91.4258 59.8101 91.5256 59.9914C91.6253 60.1726 91.6752 60.4154 91.6752 60.7198V63.2441H91.0865V62.7253H91.0566C91.0167 62.8084 90.9502 62.8974 90.8571 62.9922C90.7639 63.087 90.64 63.1676 90.4854 63.2342C90.3307 63.3007 90.142 63.3339 89.9191 63.3339ZM90.0089 62.8051C90.2418 62.8051 90.438 62.7594 90.5976 62.6679C90.7589 62.5765 90.8803 62.4584 90.9618 62.3137C91.045 62.169 91.0865 62.0169 91.0865 61.8572V61.3184C91.0616 61.3484 91.0067 61.3758 90.9219 61.4007C90.8388 61.424 90.7423 61.4448 90.6325 61.4631C90.5245 61.4797 90.4189 61.4947 90.3158 61.508C90.2143 61.5196 90.132 61.5296 90.0688 61.5379C89.9158 61.5579 89.7728 61.5903 89.6398 61.6352C89.5084 61.6785 89.402 61.7441 89.3205 61.8323C89.2406 61.9188 89.2007 62.0368 89.2007 62.1865C89.2007 62.391 89.2764 62.5457 89.4277 62.6505C89.5807 62.7536 89.7745 62.8051 90.0089 62.8051ZM95.7032 59.4127V63.2441H95.1145V59.4127H95.7032ZM95.4737 61.2386V61.7874C95.3406 61.8373 95.2084 61.8813 95.077 61.9196C94.9457 61.9562 94.8076 61.9853 94.663 62.0069C94.5183 62.0268 94.3595 62.0368 94.1865 62.0368C93.7525 62.0368 93.4041 61.9196 93.1413 61.6851C92.8803 61.4506 92.7497 61.0989 92.7497 60.6299V59.4027H93.3384V60.6299C93.3384 60.8262 93.3758 60.9875 93.4507 61.1139C93.5255 61.2403 93.6269 61.3342 93.755 61.3957C93.883 61.4573 94.0269 61.488 94.1865 61.488C94.436 61.488 94.6613 61.4656 94.8625 61.4207C95.0654 61.3741 95.2691 61.3134 95.4737 61.2386ZM98.3897 63.324C98.0205 63.324 97.702 63.2425 97.4343 63.0795C97.1682 62.9149 96.9629 62.6854 96.8182 62.391C96.6752 62.095 96.6037 61.7508 96.6037 61.3583C96.6037 60.9659 96.6752 60.62 96.8182 60.3206C96.9629 60.0196 97.1641 59.7852 97.4218 59.6172C97.6813 59.4476 97.9839 59.3628 98.3298 59.3628C98.5294 59.3628 98.7264 59.396 98.921 59.4625C99.1156 59.5291 99.2927 59.6372 99.4523 59.7868C99.612 59.9348 99.7392 60.1311 99.834 60.3755C99.9288 60.62 99.9762 60.921 99.9762 61.2785V61.528H97.0227V61.0191H99.3775C99.3775 60.8029 99.3343 60.61 99.2478 60.4404C99.163 60.2707 99.0416 60.1369 98.8836 60.0388C98.7273 59.9406 98.5427 59.8916 98.3298 59.8916C98.0953 59.8916 97.8925 59.9498 97.7212 60.0662C97.5515 60.1809 97.421 60.3306 97.3295 60.5152C97.2381 60.6998 97.1923 60.8977 97.1923 61.1089V61.4481C97.1923 61.7375 97.2422 61.9828 97.342 62.184C97.4435 62.3836 97.584 62.5357 97.7636 62.6405C97.9432 62.7436 98.1519 62.7951 98.3897 62.7951C98.5443 62.7951 98.684 62.7735 98.8088 62.7303C98.9351 62.6854 99.0441 62.6189 99.1355 62.5307C99.227 62.4409 99.2977 62.3295 99.3476 62.1965L99.9163 62.3561C99.8564 62.549 99.7558 62.7186 99.6145 62.865C99.4731 63.0097 99.2985 63.1227 99.0906 63.2042C98.8828 63.2841 98.6491 63.324 98.3897 63.324ZM102.428 63.324C102.069 63.324 101.76 63.2392 101.5 63.0695C101.241 62.8999 101.041 62.6663 100.902 62.3686C100.762 62.0709 100.692 61.7308 100.692 61.3484C100.692 60.9592 100.764 60.6158 100.907 60.3181C101.051 60.0188 101.252 59.7852 101.51 59.6172C101.77 59.4476 102.072 59.3628 102.418 59.3628C102.688 59.3628 102.93 59.4127 103.147 59.5124C103.363 59.6122 103.54 59.7519 103.678 59.9315C103.816 60.1111 103.902 60.3206 103.935 60.5601H103.346C103.301 60.3855 103.201 60.2308 103.047 60.0961C102.894 59.9598 102.688 59.8916 102.428 59.8916C102.199 59.8916 101.997 59.9515 101.825 60.0712C101.653 60.1893 101.519 60.3564 101.423 60.5726C101.328 60.7871 101.281 61.039 101.281 61.3284C101.281 61.6244 101.327 61.8822 101.42 62.1017C101.515 62.3212 101.648 62.4916 101.82 62.613C101.993 62.7344 102.195 62.7951 102.428 62.7951C102.581 62.7951 102.72 62.7685 102.845 62.7153C102.97 62.6621 103.075 62.5856 103.162 62.4858C103.248 62.386 103.31 62.2663 103.346 62.1266H103.935C103.902 62.3528 103.819 62.5565 103.688 62.7378C103.558 62.9174 103.386 63.0604 103.172 63.1668C102.959 63.2716 102.711 63.324 102.428 63.324ZM104.494 59.9614V59.4127H107.607V59.9614H106.349V63.2441H105.761V59.9614H104.494ZM108.465 63.2441V59.4127H110.032C110.444 59.4127 110.772 59.5058 111.015 59.692C111.258 59.8783 111.379 60.1244 111.379 60.4304C111.379 60.6632 111.31 60.8436 111.172 60.9717C111.034 61.0981 110.857 61.1837 110.641 61.2286C110.782 61.2486 110.919 61.2985 111.052 61.3783C111.187 61.4581 111.298 61.5679 111.386 61.7076C111.475 61.8456 111.519 62.0152 111.519 62.2164C111.519 62.4127 111.469 62.5881 111.369 62.7428C111.269 62.8974 111.126 63.0196 110.94 63.1094C110.754 63.1992 110.531 63.2441 110.271 63.2441H108.465ZM109.024 62.7053H110.271C110.474 62.7053 110.633 62.6571 110.748 62.5607C110.863 62.4642 110.92 62.3328 110.92 62.1665C110.92 61.9686 110.863 61.8132 110.748 61.7001C110.633 61.5853 110.474 61.528 110.271 61.528H109.024V62.7053ZM109.024 61.0191H110.032C110.19 61.0191 110.325 60.9975 110.439 60.9542C110.552 60.9093 110.638 60.8461 110.698 60.7647C110.759 60.6815 110.79 60.5834 110.79 60.4703C110.79 60.309 110.723 60.1826 110.588 60.0911C110.453 59.998 110.268 59.9515 110.032 59.9515H109.024V61.0191ZM114.016 63.324C113.647 63.324 113.329 63.2425 113.061 63.0795C112.795 62.9149 112.589 62.6854 112.445 62.391C112.302 62.095 112.23 61.7508 112.23 61.3583C112.23 60.9659 112.302 60.62 112.445 60.3206C112.589 60.0196 112.791 59.7852 113.048 59.6172C113.308 59.4476 113.61 59.3628 113.956 59.3628C114.156 59.3628 114.353 59.396 114.548 59.4625C114.742 59.5291 114.919 59.6372 115.079 59.7868C115.238 59.9348 115.366 60.1311 115.46 60.3755C115.555 60.62 115.603 60.921 115.603 61.2785V61.528H112.649V61.0191H115.004C115.004 60.8029 114.961 60.61 114.874 60.4404C114.789 60.2707 114.668 60.1369 114.51 60.0388C114.354 59.9406 114.169 59.8916 113.956 59.8916C113.722 59.8916 113.519 59.9498 113.348 60.0662C113.178 60.1809 113.048 60.3306 112.956 60.5152C112.865 60.6998 112.819 60.8977 112.819 61.1089V61.4481C112.819 61.7375 112.869 61.9828 112.969 62.184C113.07 62.3836 113.21 62.5357 113.39 62.6405C113.57 62.7436 113.778 62.7951 114.016 62.7951C114.171 62.7951 114.311 62.7735 114.435 62.7303C114.562 62.6854 114.671 62.6189 114.762 62.5307C114.854 62.4409 114.924 62.3295 114.974 62.1965L115.543 62.3561C115.483 62.549 115.382 62.7186 115.241 62.865C115.1 63.0097 114.925 63.1227 114.717 63.2042C114.509 63.2841 114.276 63.324 114.016 63.324ZM119.062 61.059V61.6078H116.947V61.059H119.062ZM117.087 59.4127V63.2441H116.498V59.4127H117.087ZM119.511 59.4127V63.2441H118.923V59.4127H119.511ZM123.151 61.059V61.6078H121.036V61.059H123.151ZM121.175 59.4127V63.2441H120.587V59.4127H121.175ZM123.6 59.4127V63.2441H123.011V59.4127H123.6ZM125.184 60.7996H126.281C126.73 60.7996 127.074 60.9135 127.312 61.1413C127.549 61.3691 127.668 61.6577 127.668 62.0069C127.668 62.2364 127.615 62.4451 127.509 62.633C127.402 62.8193 127.246 62.9681 127.04 63.0795C126.834 63.1893 126.581 63.2441 126.281 63.2441H124.675V59.4127H125.264V62.6954H126.281C126.514 62.6954 126.706 62.6338 126.855 62.5108C127.005 62.3877 127.08 62.2297 127.08 62.0368C127.08 61.8339 127.005 61.6685 126.855 61.5404C126.706 61.4124 126.514 61.3484 126.281 61.3484H125.184V60.7996ZM128.277 63.2441V59.4127H128.866V63.2441H128.277ZM130.532 62.3761L132.378 59.4127H133.056V63.2441H132.468V60.2807L130.632 63.2441H129.943V59.4127H130.532V62.3761ZM131.989 58.1355H132.538C132.538 58.4049 132.444 58.6252 132.258 58.7965C132.072 58.9678 131.819 59.0535 131.5 59.0535C131.186 59.0535 130.935 58.9678 130.749 58.7965C130.564 58.6252 130.472 58.4049 130.472 58.1355H131.021C131.021 58.2652 131.057 58.3791 131.128 58.4772C131.201 58.5753 131.325 58.6244 131.5 58.6244C131.674 58.6244 131.799 58.5753 131.874 58.4772C131.951 58.3791 131.989 58.2652 131.989 58.1355ZM136.699 62.3761L138.545 59.4127H139.223V63.2441H138.635V60.2807L136.799 63.2441H136.11V59.4127H136.699V62.3761ZM145.121 57.9758L145.42 58.335C145.304 58.4481 145.169 58.5271 145.016 58.572C144.863 58.6169 144.69 58.6444 144.497 58.6543C144.304 58.6643 144.09 58.6743 143.854 58.6843C143.588 58.6943 143.367 58.7591 143.193 58.8788C143.018 58.9986 142.883 59.1715 142.789 59.3977C142.694 59.6239 142.633 59.9016 142.606 60.2308H142.656C142.786 59.9914 142.966 59.8151 143.195 59.702C143.425 59.5889 143.671 59.5324 143.933 59.5324C144.233 59.5324 144.502 59.6022 144.742 59.7419C144.981 59.8816 145.171 60.0887 145.31 60.363C145.45 60.6374 145.52 60.9758 145.52 61.3783C145.52 61.7791 145.448 62.125 145.305 62.416C145.164 62.707 144.965 62.9315 144.709 63.0895C144.455 63.2458 144.156 63.324 143.814 63.324C143.471 63.324 143.171 63.2433 142.913 63.082C142.655 62.919 142.455 62.6779 142.312 62.3586C142.169 62.0377 142.098 61.641 142.098 61.1688V60.7597C142.098 59.9066 142.242 59.2597 142.532 58.819C142.823 58.3783 143.26 58.1505 143.844 58.1355C144.05 58.1288 144.234 58.1272 144.395 58.1305C144.556 58.1338 144.697 58.1263 144.817 58.1081C144.936 58.0898 145.038 58.0457 145.121 57.9758ZM143.814 62.7951C144.045 62.7951 144.244 62.7369 144.41 62.6205C144.578 62.5041 144.707 62.3403 144.797 62.1291C144.886 61.9163 144.931 61.666 144.931 61.3783C144.931 61.0989 144.886 60.8611 144.794 60.6649C144.704 60.4686 144.575 60.319 144.407 60.2159C144.239 60.1128 144.038 60.0612 143.804 60.0612C143.632 60.0612 143.479 60.0903 143.342 60.1485C143.206 60.2067 143.09 60.2924 142.993 60.4054C142.897 60.5185 142.822 60.6566 142.769 60.8195C142.717 60.9825 142.69 61.1688 142.686 61.3783C142.686 61.8073 142.787 62.1507 142.988 62.4085C143.189 62.6663 143.465 62.7951 143.814 62.7951ZM147.977 63.324C147.631 63.324 147.328 63.2416 147.067 63.077C146.807 62.9124 146.604 62.6821 146.458 62.386C146.313 62.09 146.241 61.7441 146.241 61.3484C146.241 60.9492 146.313 60.6008 146.458 60.3032C146.604 60.0055 146.807 59.7744 147.067 59.6097C147.328 59.4451 147.631 59.3628 147.977 59.3628C148.323 59.3628 148.626 59.4451 148.885 59.6097C149.146 59.7744 149.349 60.0055 149.494 60.3032C149.64 60.6008 149.713 60.9492 149.713 61.3484C149.713 61.7441 149.64 62.09 149.494 62.386C149.349 62.6821 149.146 62.9124 148.885 63.077C148.626 63.2416 148.323 63.324 147.977 63.324ZM147.977 62.7951C148.24 62.7951 148.456 62.7278 148.626 62.5931C148.795 62.4584 148.921 62.2813 149.002 62.0618C149.084 61.8423 149.124 61.6045 149.124 61.3484C149.124 61.0923 149.084 60.8536 149.002 60.6324C148.921 60.4113 148.795 60.2325 148.626 60.0961C148.456 59.9598 148.24 59.8916 147.977 59.8916C147.714 59.8916 147.498 59.9598 147.328 60.0961C147.159 60.2325 147.033 60.4113 146.952 60.6324C146.87 60.8536 146.83 61.0923 146.83 61.3484C146.83 61.6045 146.87 61.8423 146.952 62.0618C147.033 62.2813 147.159 62.4584 147.328 62.5931C147.498 62.7278 147.714 62.7951 147.977 62.7951ZM150.111 59.9614V59.4127H153.224V59.9614H151.967V63.2441H151.378V59.9614H150.111ZM155.44 63.324C155.095 63.324 154.791 63.2416 154.53 63.077C154.271 62.9124 154.068 62.6821 153.921 62.386C153.777 62.09 153.704 61.7441 153.704 61.3484C153.704 60.9492 153.777 60.6008 153.921 60.3032C154.068 60.0055 154.271 59.7744 154.53 59.6097C154.791 59.4451 155.095 59.3628 155.44 59.3628C155.786 59.3628 156.089 59.4451 156.348 59.6097C156.609 59.7744 156.812 60.0055 156.957 60.3032C157.103 60.6008 157.177 60.9492 157.177 61.3484C157.177 61.7441 157.103 62.09 156.957 62.386C156.812 62.6821 156.609 62.9124 156.348 63.077C156.089 63.2416 155.786 63.324 155.44 63.324ZM155.44 62.7951C155.703 62.7951 155.919 62.7278 156.089 62.5931C156.259 62.4584 156.384 62.2813 156.466 62.0618C156.547 61.8423 156.588 61.6045 156.588 61.3484C156.588 61.0923 156.547 60.8536 156.466 60.6324C156.384 60.4113 156.259 60.2325 156.089 60.0961C155.919 59.9598 155.703 59.8916 155.44 59.8916C155.178 59.8916 154.961 59.9598 154.792 60.0961C154.622 60.2325 154.497 60.4113 154.415 60.6324C154.334 60.8536 154.293 61.0923 154.293 61.3484C154.293 61.6045 154.334 61.8423 154.415 62.0618C154.497 62.2813 154.622 62.4584 154.792 62.5931C154.961 62.7278 155.178 62.7951 155.44 62.7951ZM158.075 63.2441V59.4127H159.642C160.054 59.4127 160.382 59.5058 160.625 59.692C160.867 59.8783 160.989 60.1244 160.989 60.4304C160.989 60.6632 160.92 60.8436 160.782 60.9717C160.644 61.0981 160.467 61.1837 160.25 61.2286C160.392 61.2486 160.529 61.2985 160.662 61.3783C160.797 61.4581 160.908 61.5679 160.996 61.7076C161.084 61.8456 161.128 62.0152 161.128 62.2164C161.128 62.4127 161.079 62.5881 160.979 62.7428C160.879 62.8974 160.736 63.0196 160.55 63.1094C160.363 63.1992 160.141 63.2441 159.881 63.2441H158.075ZM158.634 62.7053H159.881C160.084 62.7053 160.243 62.6571 160.358 62.5607C160.472 62.4642 160.53 62.3328 160.53 62.1665C160.53 61.9686 160.472 61.8132 160.358 61.7001C160.243 61.5853 160.084 61.528 159.881 61.528H158.634V62.7053ZM158.634 61.0191H159.642C159.8 61.0191 159.935 60.9975 160.048 60.9542C160.161 60.9093 160.248 60.8461 160.308 60.7647C160.369 60.6815 160.4 60.5834 160.4 60.4703C160.4 60.309 160.333 60.1826 160.198 60.0911C160.063 59.998 159.878 59.9515 159.642 59.9515H158.634V61.0191ZM162.528 60.7996H163.626C164.075 60.7996 164.418 60.9135 164.656 61.1413C164.894 61.3691 165.013 61.6577 165.013 62.0069C165.013 62.2364 164.96 62.4451 164.853 62.633C164.747 62.8193 164.59 62.9681 164.384 63.0795C164.178 63.1893 163.925 63.2441 163.626 63.2441H162.02V59.4127H162.608V62.6954H163.626C163.859 62.6954 164.05 62.6338 164.2 62.5108C164.349 62.3877 164.424 62.2297 164.424 62.0368C164.424 61.8339 164.349 61.6685 164.2 61.5404C164.05 61.4124 163.859 61.3484 163.626 61.3484H162.528V60.7996ZM165.622 63.2441V59.4127H166.21V63.2441H165.622ZM167.877 62.3761L169.722 59.4127H170.401V63.2441H169.812V60.2807L167.976 63.2441H167.288V59.4127H167.877V62.3761ZM169.333 58.1355H169.882C169.882 58.4049 169.789 58.6252 169.603 58.7965C169.416 58.9678 169.164 59.0535 168.844 59.0535C168.53 59.0535 168.28 58.9678 168.094 58.7965C167.909 58.6252 167.817 58.4049 167.817 58.1355H168.365C168.365 58.2652 168.401 58.3791 168.473 58.4772C168.546 58.5753 168.67 58.6244 168.844 58.6244C169.019 58.6244 169.144 58.5753 169.219 58.4772C169.295 58.3791 169.333 58.2652 169.333 58.1355ZM21.0996 68.9614V68.4127H24.2126V68.9614H22.9554V72.2441H22.3667V68.9614H21.0996ZM25.0714 73.6809V68.4127H25.6401V69.0213H25.7099C25.7532 68.9548 25.813 68.87 25.8895 68.7669C25.9677 68.6621 26.0791 68.569 26.2238 68.4875C26.3701 68.4043 26.568 68.3628 26.8175 68.3628C27.1401 68.3628 27.4245 68.4434 27.6706 68.6047C27.9167 68.766 28.1088 68.9947 28.2468 69.2907C28.3848 69.5867 28.4538 69.9359 28.4538 70.3384C28.4538 70.7441 28.3848 71.0959 28.2468 71.3935C28.1088 71.6895 27.9175 71.919 27.6731 72.082C27.4286 72.2433 27.1468 72.324 26.8275 72.324C26.5813 72.324 26.3843 72.2832 26.2363 72.2017C26.0883 72.1186 25.9744 72.0246 25.8945 71.9199C25.8147 71.8134 25.7532 71.7253 25.7099 71.6554H25.6601V73.6809H25.0714ZM25.6501 70.3284C25.6501 70.6178 25.6925 70.873 25.7773 71.0942C25.8621 71.3137 25.986 71.4858 26.149 71.6105C26.3119 71.7336 26.5115 71.7951 26.7476 71.7951C26.9938 71.7951 27.1991 71.7303 27.3638 71.6006C27.5301 71.4692 27.6548 71.2929 27.7379 71.0717C27.8227 70.8489 27.8652 70.6011 27.8652 70.3284C27.8652 70.059 27.8236 69.8162 27.7404 69.6C27.6589 69.3822 27.5351 69.21 27.3688 69.0837C27.2041 68.9556 26.9971 68.8916 26.7476 68.8916C26.5082 68.8916 26.307 68.9523 26.144 69.0737C25.981 69.1934 25.8579 69.3614 25.7748 69.5776C25.6917 69.7921 25.6501 70.0424 25.6501 70.3284ZM30.4793 72.3339C30.2366 72.3339 30.0162 72.2882 29.8183 72.1967C29.6204 72.1036 29.4633 71.9698 29.3469 71.7951C29.2305 71.6189 29.1723 71.406 29.1723 71.1566C29.1723 70.937 29.2155 70.7591 29.302 70.6227C29.3884 70.4847 29.504 70.3766 29.6487 70.2985C29.7934 70.2203 29.953 70.1621 30.1276 70.1239C30.3039 70.0839 30.481 70.0523 30.6589 70.0291C30.8918 69.9991 31.0805 69.9767 31.2252 69.9617C31.3715 69.9451 31.478 69.9176 31.5445 69.8794C31.6127 69.8411 31.6468 69.7746 31.6468 69.6798V69.6599C31.6468 69.4138 31.5794 69.2225 31.4447 69.0862C31.3117 68.9498 31.1096 68.8816 30.8385 68.8816C30.5575 68.8816 30.3372 68.9431 30.1775 69.0662C30.0179 69.1893 29.9056 69.3206 29.8408 69.4603L29.282 69.2608C29.3818 69.028 29.5148 68.8467 29.6811 68.717C29.8491 68.5856 30.032 68.4941 30.2299 68.4426C30.4295 68.3894 30.6257 68.3628 30.8186 68.3628C30.9417 68.3628 31.083 68.3777 31.2426 68.4077C31.404 68.4359 31.5594 68.495 31.7091 68.5848C31.8604 68.6746 31.986 68.8101 32.0858 68.9914C32.1856 69.1726 32.2354 69.4154 32.2354 69.7198V72.2441H31.6468V71.7253H31.6168C31.5769 71.8084 31.5104 71.8974 31.4173 71.9922C31.3241 72.087 31.2002 72.1676 31.0456 72.2342C30.8909 72.3007 30.7022 72.3339 30.4793 72.3339ZM30.5691 71.8051C30.802 71.8051 30.9982 71.7594 31.1578 71.6679C31.3191 71.5765 31.4405 71.4584 31.522 71.3137C31.6052 71.169 31.6468 71.0169 31.6468 70.8572V70.3184C31.6218 70.3484 31.5669 70.3758 31.4821 70.4007C31.399 70.424 31.3025 70.4448 31.1928 70.4631C31.0847 70.4797 30.9791 70.4947 30.876 70.508C30.7745 70.5196 30.6922 70.5296 30.629 70.5379C30.476 70.5579 30.333 70.5903 30.2 70.6352C30.0686 70.6785 29.9622 70.7441 29.8807 70.8323C29.8009 70.9188 29.7609 71.0368 29.7609 71.1865C29.7609 71.391 29.8366 71.5457 29.9879 71.6505C30.1409 71.7536 30.3347 71.8051 30.5691 71.8051ZM34.8665 73.5512V67.1355H35.4552V73.5512H34.8665ZM34.8665 72.324C34.607 72.324 34.3709 72.2774 34.158 72.1843C33.9452 72.0895 33.7623 71.9556 33.6093 71.7827C33.4563 71.6081 33.3382 71.3994 33.2551 71.1566C33.1719 70.9138 33.1303 70.6444 33.1303 70.3484C33.1303 70.049 33.1719 69.778 33.2551 69.5352C33.3382 69.2907 33.4563 69.0812 33.6093 68.9066C33.7623 68.7319 33.9452 68.5981 34.158 68.5049C34.3709 68.4102 34.607 68.3628 34.8665 68.3628H35.0461V72.324H34.8665ZM34.8665 71.7951H34.9662V68.8916H34.8665C34.6702 68.8916 34.4998 68.9315 34.3551 69.0113C34.2104 69.0895 34.0907 69.1967 33.9959 69.3331C33.9028 69.4678 33.8329 69.6225 33.7864 69.7971C33.7415 69.9717 33.719 70.1554 33.719 70.3484C33.719 70.6045 33.7598 70.8423 33.8412 71.0618C33.9227 71.2813 34.0483 71.4584 34.2179 71.5931C34.3875 71.7278 34.6037 71.7951 34.8665 71.7951ZM35.4552 72.324H35.2756V68.3628H35.4552C35.7146 68.3628 35.9507 68.4102 36.1636 68.5049C36.3764 68.5981 36.5594 68.7319 36.7124 68.9066C36.8654 69.0812 36.9834 69.2907 37.0666 69.5352C37.1497 69.778 37.1913 70.049 37.1913 70.3484C37.1913 70.6444 37.1497 70.9138 37.0666 71.1566C36.9834 71.3994 36.8654 71.6081 36.7124 71.7827C36.5594 71.9556 36.3764 72.0895 36.1636 72.1843C35.9507 72.2774 35.7146 72.324 35.4552 72.324ZM35.4552 71.7951C35.6531 71.7951 35.8235 71.7569 35.9665 71.6804C36.1112 71.6022 36.2301 71.4958 36.3232 71.3611C36.418 71.2247 36.4879 71.0701 36.5328 70.8971C36.5793 70.7225 36.6026 70.5396 36.6026 70.3484C36.6026 70.0923 36.5619 69.8536 36.4804 69.6324C36.3989 69.4113 36.2733 69.2325 36.1037 69.0961C35.9341 68.9598 35.7179 68.8916 35.4552 68.8916H35.3554V71.7951H35.4552ZM38.6799 71.3761L40.5258 68.4127H41.2043V72.2441H40.6156V69.2807L38.7797 72.2441H38.0912V68.4127H38.6799V71.3761ZM42.2825 72.2441V68.4127H42.8712V70.079H43.2603L44.6373 68.4127H45.3956L43.849 70.2586L45.4155 72.2441H44.6572L43.4 70.6277H42.8712V72.2441H42.2825ZM50.5953 70.059V70.6078H48.48V70.059H50.5953ZM48.6197 68.4127V72.2441H48.031V68.4127H48.6197ZM51.0443 68.4127V72.2441H50.4556V68.4127H51.0443ZM53.2469 72.3339C53.0041 72.3339 52.7837 72.2882 52.5858 72.1967C52.388 72.1036 52.2308 71.9698 52.1144 71.7951C51.998 71.6189 51.9398 71.406 51.9398 71.1566C51.9398 70.937 51.983 70.7591 52.0695 70.6227C52.156 70.4847 52.2715 70.3766 52.4162 70.2985C52.5609 70.2203 52.7205 70.1621 52.8952 70.1239C53.0714 70.0839 53.2485 70.0523 53.4265 70.0291C53.6593 69.9991 53.848 69.9767 53.9927 69.9617C54.1391 69.9451 54.2455 69.9176 54.312 69.8794C54.3802 69.8411 54.4143 69.7746 54.4143 69.6798V69.6599C54.4143 69.4138 54.3469 69.2225 54.2122 69.0862C54.0792 68.9498 53.8771 68.8816 53.6061 68.8816C53.325 68.8816 53.1047 68.9431 52.945 69.0662C52.7854 69.1893 52.6731 69.3206 52.6083 69.4603L52.0495 69.2608C52.1493 69.028 52.2824 68.8467 52.4486 68.717C52.6166 68.5856 52.7995 68.4941 52.9974 68.4426C53.197 68.3894 53.3932 68.3628 53.5861 68.3628C53.7092 68.3628 53.8505 68.3777 54.0102 68.4077C54.1715 68.4359 54.327 68.495 54.4766 68.5848C54.628 68.6746 54.7535 68.8101 54.8533 68.9914C54.9531 69.1726 55.003 69.4154 55.003 69.7198V72.2441H54.4143V71.7253H54.3843C54.3444 71.8084 54.2779 71.8974 54.1848 71.9922C54.0917 72.087 53.9678 72.1676 53.8131 72.2342C53.6585 72.3007 53.4697 72.3339 53.2469 72.3339ZM53.3367 71.8051C53.5695 71.8051 53.7657 71.7594 53.9254 71.6679C54.0867 71.5765 54.2081 71.4584 54.2896 71.3137C54.3727 71.169 54.4143 71.0169 54.4143 70.8572V70.3184C54.3893 70.3484 54.3345 70.3758 54.2496 70.4007C54.1665 70.424 54.07 70.4448 53.9603 70.4631C53.8522 70.4797 53.7466 70.4947 53.6435 70.508C53.5421 70.5196 53.4597 70.5296 53.3965 70.5379C53.2435 70.5579 53.1005 70.5903 52.9675 70.6352C52.8361 70.6785 52.7297 70.7441 52.6482 70.8323C52.5684 70.9188 52.5285 71.0368 52.5285 71.1865C52.5285 71.391 52.6041 71.5457 52.7555 71.6505C52.9085 71.7536 53.1022 71.8051 53.3367 71.8051ZM59.6096 72.324C59.2504 72.324 58.9411 72.2392 58.6817 72.0695C58.4222 71.8999 58.2227 71.6663 58.083 71.3686C57.9433 71.0709 57.8735 70.7308 57.8735 70.3484C57.8735 69.9592 57.945 69.6158 58.088 69.3181C58.2327 69.0188 58.4339 68.7852 58.6917 68.6172C58.9511 68.4476 59.2537 68.3628 59.5996 68.3628C59.869 68.3628 60.1118 68.4127 60.328 68.5124C60.5442 68.6122 60.7213 68.7519 60.8593 68.9315C60.9974 69.1111 61.083 69.3206 61.1163 69.5601H60.5276C60.4827 69.3855 60.3829 69.2308 60.2282 69.0961C60.0752 68.9598 59.869 68.8916 59.6096 68.8916C59.3801 68.8916 59.1789 68.9515 59.006 69.0712C58.8347 69.1893 58.7008 69.3564 58.6043 69.5726C58.5096 69.7871 58.4622 70.039 58.4622 70.3284C58.4622 70.6244 58.5087 70.8822 58.6019 71.1017C58.6966 71.3212 58.8297 71.4916 59.001 71.613C59.1739 71.7344 59.3768 71.7951 59.6096 71.7951C59.7626 71.7951 59.9015 71.7685 60.0262 71.7153C60.1509 71.6621 60.2565 71.5856 60.343 71.4858C60.4295 71.386 60.491 71.2663 60.5276 71.1266H61.1163C61.083 71.3528 61.0007 71.5565 60.8693 71.7378C60.7396 71.9174 60.5675 72.0604 60.353 72.1668C60.1401 72.2716 59.8923 72.324 59.6096 72.324ZM63.1043 72.3339C62.8616 72.3339 62.6412 72.2882 62.4433 72.1967C62.2454 72.1036 62.0883 71.9698 61.9719 71.7951C61.8555 71.6189 61.7973 71.406 61.7973 71.1566C61.7973 70.937 61.8405 70.7591 61.927 70.6227C62.0134 70.4847 62.129 70.3766 62.2737 70.2985C62.4184 70.2203 62.578 70.1621 62.7526 70.1239C62.9289 70.0839 63.106 70.0523 63.2839 70.0291C63.5168 69.9991 63.7055 69.9767 63.8502 69.9617C63.9965 69.9451 64.103 69.9176 64.1695 69.8794C64.2377 69.8411 64.2718 69.7746 64.2718 69.6798V69.6599C64.2718 69.4138 64.2044 69.2225 64.0697 69.0862C63.9367 68.9498 63.7346 68.8816 63.4635 68.8816C63.1825 68.8816 62.9622 68.9431 62.8025 69.0662C62.6429 69.1893 62.5306 69.3206 62.4658 69.4603L61.907 69.2608C62.0068 69.028 62.1398 68.8467 62.3061 68.717C62.4741 68.5856 62.657 68.4941 62.8549 68.4426C63.0545 68.3894 63.2507 68.3628 63.4436 68.3628C63.5667 68.3628 63.708 68.3777 63.8677 68.4077C64.029 68.4359 64.1844 68.495 64.3341 68.5848C64.4854 68.6746 64.611 68.8101 64.7108 68.9914C64.8106 69.1726 64.8604 69.4154 64.8604 69.7198V72.2441H64.2718V71.7253H64.2418C64.2019 71.8084 64.1354 71.8974 64.0423 71.9922C63.9491 72.087 63.8252 72.1676 63.6706 72.2342C63.5159 72.3007 63.3272 72.3339 63.1043 72.3339ZM63.1941 71.8051C63.427 71.8051 63.6232 71.7594 63.7828 71.6679C63.9441 71.5765 64.0655 71.4584 64.147 71.3137C64.2302 71.169 64.2718 71.0169 64.2718 70.8572V70.3184C64.2468 70.3484 64.1919 70.3758 64.1071 70.4007C64.024 70.424 63.9275 70.4448 63.8178 70.4631C63.7097 70.4797 63.6041 70.4947 63.501 70.508C63.3995 70.5196 63.3172 70.5296 63.254 70.5379C63.101 70.5579 62.958 70.5903 62.825 70.6352C62.6936 70.6785 62.5872 70.7441 62.5057 70.8323C62.4259 70.9188 62.3859 71.0368 62.3859 71.1865C62.3859 71.391 62.4616 71.5457 62.6129 71.6505C62.7659 71.7536 62.9597 71.8051 63.1941 71.8051ZM66.5236 71.3761L68.3695 68.4127H69.048V72.2441H68.4593V69.2807L66.6234 72.2441H65.9349V68.4127H66.5236V71.3761ZM67.9804 67.1355H68.5292C68.5292 67.4049 68.436 67.6252 68.2498 67.7965C68.0635 67.9678 67.8108 68.0535 67.4915 68.0535C67.1772 68.0535 66.9269 67.9678 66.7406 67.7965C66.556 67.6252 66.4638 67.4049 66.4638 67.1355H67.0125C67.0125 67.2652 67.0483 67.3791 67.1198 67.4772C67.193 67.5753 67.3169 67.6244 67.4915 67.6244C67.6661 67.6244 67.7908 67.5753 67.8656 67.4772C67.9421 67.3791 67.9804 67.2652 67.9804 67.1355ZM69.6049 68.9614V68.4127H72.718V68.9614H71.4608V72.2441H70.8721V68.9614H69.6049ZM74.5053 72.3339C74.2625 72.3339 74.0421 72.2882 73.8442 72.1967C73.6463 72.1036 73.4892 71.9698 73.3728 71.7951C73.2564 71.6189 73.1982 71.406 73.1982 71.1566C73.1982 70.937 73.2414 70.7591 73.3279 70.6227C73.4144 70.4847 73.5299 70.3766 73.6746 70.2985C73.8193 70.2203 73.9789 70.1621 74.1535 70.1239C74.3298 70.0839 74.5069 70.0523 74.6849 70.0291C74.9177 69.9991 75.1064 69.9767 75.2511 69.9617C75.3974 69.9451 75.5039 69.9176 75.5704 69.8794C75.6386 69.8411 75.6727 69.7746 75.6727 69.6798V69.6599C75.6727 69.4138 75.6053 69.2225 75.4706 69.0862C75.3376 68.9498 75.1355 68.8816 74.8645 68.8816C74.5834 68.8816 74.3631 68.9431 74.2034 69.0662C74.0438 69.1893 73.9315 69.3206 73.8667 69.4603L73.3079 69.2608C73.4077 69.028 73.5407 68.8467 73.707 68.717C73.875 68.5856 74.0579 68.4941 74.2558 68.4426C74.4554 68.3894 74.6516 68.3628 74.8445 68.3628C74.9676 68.3628 75.1089 68.3777 75.2686 68.4077C75.4299 68.4359 75.5854 68.495 75.735 68.5848C75.8864 68.6746 76.0119 68.8101 76.1117 68.9914C76.2115 69.1726 76.2614 69.4154 76.2614 69.7198V72.2441H75.6727V71.7253H75.6427C75.6028 71.8084 75.5363 71.8974 75.4432 71.9922C75.35 72.087 75.2262 72.1676 75.0715 72.2342C74.9168 72.3007 74.7281 72.3339 74.5053 72.3339ZM74.5951 71.8051C74.8279 71.8051 75.0241 71.7594 75.1838 71.6679C75.3451 71.5765 75.4665 71.4584 75.5479 71.3137C75.6311 71.169 75.6727 71.0169 75.6727 70.8572V70.3184C75.6477 70.3484 75.5928 70.3758 75.508 70.4007C75.4249 70.424 75.3284 70.4448 75.2187 70.4631C75.1106 70.4797 75.005 70.4947 74.9019 70.508C74.8004 70.5196 74.7181 70.5296 74.6549 70.5379C74.5019 70.5579 74.3589 70.5903 74.2259 70.6352C74.0945 70.6785 73.9881 70.7441 73.9066 70.8323C73.8268 70.9188 73.7869 71.0368 73.7869 71.1865C73.7869 71.391 73.8625 71.5457 74.0139 71.6505C74.1668 71.7536 74.3606 71.8051 74.5951 71.8051Z" fill="#5C5C5C"/>
<rect x="21.073" y="21.4148" width="173.854" height="29.8537" rx="5.56098" fill="#E7F1FE"/>
<rect x="21.073" y="21.4148" width="173.854" height="29.8537" rx="5.56098" stroke="#2CA9DB" stroke-width="0.585366"/>
<rect x="23.707" y="24.0488" width="24.5854" height="24.5854" rx="3.5122" fill="#2CA9DB"/>
<g clip-path="url(#clip0_85_94)">
<path d="M41.6582 33.5117H30.3411C29.9505 33.5117 29.6338 33.8284 29.6338 34.219V35.6337C29.6338 36.0243 29.9505 36.341 30.3411 36.341H41.6582C42.0488 36.341 42.3655 36.0243 42.3655 35.6337V34.219C42.3655 33.8284 42.0488 33.5117 41.6582 33.5117Z" stroke="white" stroke-width="1.17073" stroke-linecap="round" stroke-linejoin="round"/>
<path d="M36 33.5117V42.7068" stroke="white" stroke-width="1.17073" stroke-linecap="round" stroke-linejoin="round"/>
<path d="M40.9513 36.3413V41.2925C40.9513 41.6677 40.8022 42.0275 40.5369 42.2928C40.2716 42.5581 39.9118 42.7072 39.5366 42.7072H32.4635C32.0883 42.7072 31.7285 42.5581 31.4632 42.2928C31.1979 42.0275 31.0488 41.6677 31.0488 41.2925V36.3413" stroke="white" stroke-width="1.17073" stroke-linecap="round" stroke-linejoin="round"/>
<path d="M32.8171 33.512C32.3481 33.512 31.8984 33.3257 31.5667 32.9941C31.2351 32.6625 31.0488 32.2127 31.0488 31.7437C31.0488 31.2747 31.2351 30.8249 31.5667 30.4933C31.8984 30.1617 32.3481 29.9754 32.8171 29.9754C33.4995 29.9635 34.1681 30.2946 34.7359 30.9254C35.3037 31.5563 35.7442 32.4577 36 33.512C36.2559 32.4577 36.6964 31.5563 37.2642 30.9254C37.832 30.2946 38.5006 29.9635 39.183 29.9754C39.652 29.9754 40.1017 30.1617 40.4333 30.4933C40.765 30.8249 40.9513 31.2747 40.9513 31.7437C40.9513 32.2127 40.765 32.6625 40.4333 32.9941C40.1017 33.3257 39.652 33.512 39.183 33.512" stroke="white" stroke-width="1.17073" stroke-linecap="round" stroke-linejoin="round"/>
</g>
<path d="M59.3266 27.3817V33.3418H58.6049V28.022H55.6016V33.3418H54.8799V27.3817H59.3266ZM62.5053 33.4349C62.1018 33.4349 61.7477 33.3389 61.4431 33.1468C61.1404 32.9547 60.9037 32.686 60.733 32.3407C60.5642 31.9953 60.4798 31.5918 60.4798 31.13C60.4798 30.6644 60.5642 30.258 60.733 29.9107C60.9037 29.5634 61.1404 29.2937 61.4431 29.1016C61.7477 28.9096 62.1018 28.8135 62.5053 28.8135C62.9089 28.8135 63.262 28.9096 63.5646 29.1016C63.8692 29.2937 64.1059 29.5634 64.2747 29.9107C64.4454 30.258 64.5308 30.6644 64.5308 31.13C64.5308 31.5918 64.4454 31.9953 64.2747 32.3407C64.1059 32.686 63.8692 32.9547 63.5646 33.1468C63.262 33.3389 62.9089 33.4349 62.5053 33.4349ZM62.5053 32.818C62.8118 32.818 63.0641 32.7394 63.262 32.5822C63.4599 32.4251 63.6063 32.2185 63.7014 31.9624C63.7965 31.7063 63.844 31.4288 63.844 31.13C63.844 30.8313 63.7965 30.5529 63.7014 30.2948C63.6063 30.0368 63.4599 29.8282 63.262 29.6691C63.0641 29.51 62.8118 29.4305 62.5053 29.4305C62.1988 29.4305 61.9465 29.51 61.7487 29.6691C61.5508 29.8282 61.4043 30.0368 61.3092 30.2948C61.2141 30.5529 61.1666 30.8313 61.1666 31.13C61.1666 31.4288 61.2141 31.7063 61.3092 31.9624C61.4043 32.2185 61.5508 32.4251 61.7487 32.5822C61.9465 32.7394 62.1988 32.818 62.5053 32.818ZM65.1019 34.6223V32.7016H65.4744C65.5656 32.6065 65.6442 32.5037 65.7102 32.3931C65.7761 32.2825 65.8334 32.1515 65.8819 32.0002C65.9323 31.8469 65.975 31.6607 66.0099 31.4414C66.0448 31.2203 66.0759 30.9535 66.103 30.6411L66.2544 28.8717H69.0947V32.7016H69.7815V34.6223H69.0947V33.3418H65.7887V34.6223H65.1019ZM66.2544 32.7016H68.4079V29.512H66.8946L66.7782 30.6411C66.7297 31.1087 66.6696 31.5171 66.5978 31.8663C66.526 32.2155 66.4115 32.494 66.2544 32.7016ZM72.0086 33.4466C71.7253 33.4466 71.4682 33.3932 71.2374 33.2865C71.0065 33.1779 70.8231 33.0217 70.6873 32.818C70.5515 32.6123 70.4836 32.364 70.4836 32.0729C70.4836 31.8169 70.5341 31.6093 70.6349 31.4502C70.7358 31.2891 70.8707 31.163 71.0395 31.0718C71.2083 30.9807 71.3945 30.9128 71.5982 30.8681C71.8039 30.8216 72.0105 30.7847 72.2181 30.7575C72.4897 30.7226 72.7099 30.6964 72.8787 30.679C73.0494 30.6596 73.1736 30.6276 73.2512 30.5829C73.3308 30.5383 73.3705 30.4607 73.3705 30.3501V30.3268C73.3705 30.0397 73.292 29.8166 73.1348 29.6575C72.9796 29.4984 72.7439 29.4188 72.4276 29.4188C72.0997 29.4188 71.8427 29.4906 71.6564 29.6342C71.4702 29.7778 71.3392 29.931 71.2635 30.094L70.6117 29.8612C70.7281 29.5896 70.8833 29.3781 71.0773 29.2268C71.2733 29.0735 71.4867 28.9668 71.7175 28.9067C71.9504 28.8446 72.1793 28.8135 72.4043 28.8135C72.5479 28.8135 72.7128 28.831 72.8991 28.8659C73.0873 28.8989 73.2687 28.9678 73.4433 29.0725C73.6198 29.1773 73.7663 29.3354 73.8827 29.5469C73.9991 29.7584 74.0573 30.0416 74.0573 30.3967V33.3418H73.3705V32.7365H73.3356C73.289 32.8335 73.2114 32.9373 73.1028 33.0479C72.9941 33.1585 72.8496 33.2526 72.6692 33.3302C72.4887 33.4078 72.2685 33.4466 72.0086 33.4466ZM72.1133 32.8296C72.3849 32.8296 72.6139 32.7762 72.8001 32.6695C72.9883 32.5628 73.13 32.4251 73.225 32.2563C73.322 32.0875 73.3705 31.91 73.3705 31.7237V31.0951C73.3414 31.13 73.2774 31.1621 73.1785 31.1912C73.0815 31.2183 72.9689 31.2426 72.8409 31.2639C72.7148 31.2833 72.5916 31.3008 72.4713 31.3163C72.3529 31.3299 72.2569 31.3415 72.1832 31.3512C72.0047 31.3745 71.8378 31.4123 71.6826 31.4647C71.5293 31.5152 71.4052 31.5918 71.3101 31.6946C71.217 31.7955 71.1704 31.9333 71.1704 32.1079C71.1704 32.3465 71.2587 32.5269 71.4353 32.6492C71.6137 32.7695 71.8398 32.8296 72.1133 32.8296ZM75.3109 35.0181V28.8717H75.9744V29.5818H76.0559C76.1064 29.5042 76.1762 29.4053 76.2655 29.285C76.3566 29.1628 76.4866 29.0541 76.6554 28.959C76.8262 28.862 77.057 28.8135 77.348 28.8135C77.7244 28.8135 78.0562 28.9076 78.3433 29.0958C78.6305 29.284 78.8546 29.5508 79.0156 29.8961C79.1766 30.2415 79.2571 30.6489 79.2571 31.1184C79.2571 31.5918 79.1766 32.0021 79.0156 32.3494C78.8546 32.6948 78.6314 32.9625 78.3462 33.1526C78.061 33.3408 77.7322 33.4349 77.3597 33.4349C77.0726 33.4349 76.8426 33.3874 76.67 33.2923C76.4973 33.1953 76.3644 33.0857 76.2713 32.9635C76.1781 32.8393 76.1064 32.7365 76.0559 32.655H75.9977V35.0181H75.3109ZM75.9861 31.1068C75.9861 31.4443 76.0355 31.7422 76.1345 32.0002C76.2334 32.2563 76.378 32.4571 76.5681 32.6026C76.7582 32.7462 76.9911 32.818 77.2666 32.818C77.5537 32.818 77.7933 32.7423 77.9854 32.591C78.1794 32.4377 78.3249 32.232 78.4219 31.974C78.5209 31.714 78.5703 31.4249 78.5703 31.1068C78.5703 30.7925 78.5218 30.5092 78.4248 30.257C78.3298 30.0028 78.1852 29.802 77.9912 29.6546C77.7991 29.5052 77.5576 29.4305 77.2666 29.4305C76.9872 29.4305 76.7524 29.5013 76.5623 29.6429C76.3722 29.7826 76.2286 29.9786 76.1316 30.2308C76.0346 30.4811 75.9861 30.7731 75.9861 31.1068ZM80.9916 32.329L83.1452 28.8717H83.9367V33.3418H83.2499V29.8845L81.108 33.3418H80.3048V28.8717H80.9916V32.329ZM87.6392 32.4105L89.1991 28.8717H89.851L87.9186 33.3418H87.3599L85.4624 28.8717H86.1027L87.6392 32.4105ZM85.8815 28.8717V33.3418H85.1947V28.8717H85.8815ZM89.397 33.3418V28.8717H90.0838V33.3418H89.397ZM96.4048 28.8717V29.512H94.3327V33.3418H93.6459V28.8717H96.4048ZM98.4906 33.4466C98.2074 33.4466 97.9503 33.3932 97.7194 33.2865C97.4886 33.1779 97.3052 33.0217 97.1694 32.818C97.0336 32.6123 96.9657 32.364 96.9657 32.0729C96.9657 31.8169 97.0161 31.6093 97.117 31.4502C97.2179 31.2891 97.3528 31.163 97.5216 31.0718C97.6903 30.9807 97.8766 30.9128 98.0803 30.8681C98.286 30.8216 98.4926 30.7847 98.7002 30.7575C98.9718 30.7226 99.192 30.6964 99.3608 30.679C99.5315 30.6596 99.6557 30.6276 99.7333 30.5829C99.8128 30.5383 99.8526 30.4607 99.8526 30.3501V30.3268C99.8526 30.0397 99.774 29.8166 99.6169 29.6575C99.4617 29.4984 99.226 29.4188 98.9097 29.4188C98.5818 29.4188 98.3248 29.4906 98.1385 29.6342C97.9523 29.7778 97.8213 29.931 97.7456 30.094L97.0938 29.8612C97.2102 29.5896 97.3654 29.3781 97.5594 29.2268C97.7553 29.0735 97.9688 28.9668 98.1996 28.9067C98.4324 28.8446 98.6614 28.8135 98.8864 28.8135C99.03 28.8135 99.1949 28.831 99.3812 28.8659C99.5694 28.8989 99.7508 28.9678 99.9254 29.0725C100.102 29.1773 100.248 29.3354 100.365 29.5469C100.481 29.7584 100.539 30.0416 100.539 30.3967V33.3418H99.8526V32.7365H99.8177C99.7711 32.8335 99.6935 32.9373 99.5849 33.0479C99.4762 33.1585 99.3317 33.2526 99.1513 33.3302C98.9708 33.4078 98.7506 33.4466 98.4906 33.4466ZM98.5954 32.8296C98.867 32.8296 99.096 32.7762 99.2822 32.6695C99.4704 32.5628 99.612 32.4251 99.7071 32.2563C99.8041 32.0875 99.8526 31.91 99.8526 31.7237V31.0951C99.8235 31.13 99.7595 31.1621 99.6605 31.1912C99.5635 31.2183 99.451 31.2426 99.323 31.2639C99.1969 31.2833 99.0737 31.3008 98.9534 31.3163C98.835 31.3299 98.739 31.3415 98.6653 31.3512C98.4868 31.3745 98.3199 31.4123 98.1647 31.4647C98.0114 31.5152 97.8873 31.5918 97.7922 31.6946C97.6991 31.7955 97.6525 31.9333 97.6525 32.1079C97.6525 32.3465 97.7408 32.5269 97.9173 32.6492C98.0958 32.7695 98.3219 32.8296 98.5954 32.8296ZM102.48 32.329L104.633 28.8717H105.425V33.3418H104.738V29.8845L102.596 33.3418H101.793V28.8717H102.48V32.329ZM104.179 27.3817H104.82C104.82 27.696 104.711 27.9531 104.494 28.1529C104.276 28.3527 103.981 28.4527 103.609 28.4527C103.242 28.4527 102.95 28.3527 102.733 28.1529C102.518 27.9531 102.41 27.696 102.41 27.3817H103.05C103.05 27.533 103.092 27.6659 103.175 27.7804C103.261 27.8949 103.405 27.9521 103.609 27.9521C103.813 27.9521 103.958 27.8949 104.045 27.7804C104.135 27.6659 104.179 27.533 104.179 27.3817ZM106.206 34.6223V32.7016H106.578C106.669 32.6065 106.748 32.5037 106.814 32.3931C106.88 32.2825 106.937 32.1515 106.986 32.0002C107.036 31.8469 107.079 31.6607 107.114 31.4414C107.148 31.2203 107.18 30.9535 107.207 30.6411L107.358 28.8717H110.198V32.7016H110.885V34.6223H110.198V33.3418H106.892V34.6223H106.206ZM107.358 32.7016H109.512V29.512H107.998L107.882 30.6411C107.833 31.1087 107.773 31.5171 107.701 31.8663C107.63 32.2155 107.515 32.494 107.358 32.7016ZM115.918 33.4349C115.514 33.4349 115.16 33.3389 114.855 33.1468C114.553 32.9547 114.316 32.686 114.145 32.3407C113.977 31.9953 113.892 31.5918 113.892 31.13C113.892 30.6644 113.977 30.258 114.145 29.9107C114.316 29.5634 114.553 29.2937 114.855 29.1016C115.16 28.9096 115.514 28.8135 115.918 28.8135C116.321 28.8135 116.674 28.9096 116.977 29.1016C117.282 29.2937 117.518 29.5634 117.687 29.9107C117.858 30.258 117.943 30.6644 117.943 31.13C117.943 31.5918 117.858 31.9953 117.687 32.3407C117.518 32.686 117.282 32.9547 116.977 33.1468C116.674 33.3389 116.321 33.4349 115.918 33.4349ZM115.918 32.818C116.224 32.818 116.476 32.7394 116.674 32.5822C116.872 32.4251 117.019 32.2185 117.114 31.9624C117.209 31.7063 117.256 31.4288 117.256 31.13C117.256 30.8313 117.209 30.5529 117.114 30.2948C117.019 30.0368 116.872 29.8282 116.674 29.6691C116.476 29.51 116.224 29.4305 115.918 29.4305C115.611 29.4305 115.359 29.51 115.161 29.6691C114.963 29.8282 114.817 30.0368 114.722 30.2948C114.626 30.5529 114.579 30.8313 114.579 31.13C114.579 31.4288 114.626 31.7063 114.722 31.9624C114.817 32.2185 114.963 32.4251 115.161 32.5822C115.359 32.7394 115.611 32.818 115.918 32.818ZM118.407 29.512V28.8717H122.039V29.512H120.573V33.3418H119.886V29.512H118.407ZM127.162 33.4349C126.743 33.4349 126.382 33.336 126.079 33.1381C125.777 32.9402 125.544 32.6676 125.381 32.3203C125.218 31.973 125.136 31.5763 125.136 31.13C125.136 30.6761 125.22 30.2754 125.387 29.9281C125.556 29.5789 125.79 29.3063 126.091 29.1104C126.394 28.9125 126.747 28.8135 127.15 28.8135C127.465 28.8135 127.748 28.8717 128 28.9881C128.252 29.1045 128.459 29.2675 128.62 29.4771C128.781 29.6866 128.881 29.931 128.92 30.2104H128.233C128.181 30.0067 128.064 29.8263 127.884 29.6691C127.705 29.51 127.465 29.4305 127.162 29.4305C126.894 29.4305 126.659 29.5003 126.458 29.64C126.258 29.7778 126.102 29.9728 125.989 30.225C125.879 30.4753 125.823 30.7692 125.823 31.1068C125.823 31.4521 125.878 31.7528 125.986 32.0089C126.097 32.265 126.252 32.4639 126.452 32.6055C126.654 32.7471 126.89 32.818 127.162 32.818C127.34 32.818 127.502 32.7869 127.648 32.7248C127.793 32.6628 127.917 32.5735 128.018 32.4571C128.118 32.3407 128.19 32.201 128.233 32.038H128.92C128.881 32.3019 128.785 32.5396 128.632 32.751C128.48 32.9606 128.279 33.1274 128.029 33.2516C127.781 33.3738 127.492 33.4349 127.162 33.4349ZM129.924 33.3418V28.8717H133.439V33.3418H132.752V29.512H130.611V33.3418H129.924ZM136.568 33.4349C136.137 33.4349 135.765 33.3399 135.453 33.1497C135.143 32.9577 134.903 32.6899 134.734 32.3465C134.567 32.0012 134.484 31.5996 134.484 31.1417C134.484 30.6838 134.567 30.2803 134.734 29.931C134.903 29.5799 135.138 29.3063 135.439 29.1104C135.741 28.9125 136.094 28.8135 136.498 28.8135C136.731 28.8135 136.961 28.8523 137.188 28.9299C137.415 29.0075 137.621 29.1336 137.807 29.3083C137.994 29.4809 138.142 29.7099 138.253 29.9951C138.363 30.2803 138.419 30.6314 138.419 31.0486V31.3396H134.973V30.7459H137.72C137.72 30.4937 137.67 30.2686 137.569 30.0707C137.47 29.8728 137.328 29.7167 137.144 29.6022C136.962 29.4877 136.746 29.4305 136.498 29.4305C136.224 29.4305 135.988 29.4984 135.788 29.6342C135.59 29.7681 135.438 29.9427 135.331 30.158C135.224 30.3734 135.171 30.6043 135.171 30.8507V31.2465C135.171 31.584 135.229 31.8702 135.345 32.105C135.464 32.3378 135.628 32.5153 135.837 32.6375C136.047 32.7578 136.29 32.818 136.568 32.818C136.748 32.818 136.911 32.7927 137.057 32.7423C137.204 32.6899 137.331 32.6123 137.438 32.5095C137.545 32.4047 137.627 32.2747 137.685 32.1195L138.349 32.3058C138.279 32.5308 138.162 32.7287 137.997 32.8994C137.832 33.0682 137.628 33.2002 137.385 33.2952C137.143 33.3884 136.87 33.4349 136.568 33.4349ZM142.979 28.8717V32.7016H143.607V34.7853H142.921V33.3418H139.463V28.8717H140.15V32.7016H142.292V28.8717H142.979ZM145.352 32.329L147.506 28.8717H148.297V33.3418H147.61V29.8845L145.469 33.3418H144.665V28.8717H145.352V32.329ZM150.871 33.4466C150.587 33.4466 150.33 33.3932 150.099 33.2865C149.869 33.1779 149.685 33.0217 149.549 32.818C149.414 32.6123 149.346 32.364 149.346 32.0729C149.346 31.8169 149.396 31.6093 149.497 31.4502C149.598 31.2891 149.733 31.163 149.902 31.0718C150.07 30.9807 150.257 30.9128 150.46 30.8681C150.666 30.8216 150.873 30.7847 151.08 30.7575C151.352 30.7226 151.572 30.6964 151.741 30.679C151.911 30.6596 152.036 30.6276 152.113 30.5829C152.193 30.5383 152.233 30.4607 152.233 30.3501V30.3268C152.233 30.0397 152.154 29.8166 151.997 29.6575C151.842 29.4984 151.606 29.4188 151.29 29.4188C150.962 29.4188 150.705 29.4906 150.518 29.6342C150.332 29.7778 150.201 29.931 150.126 30.094L149.474 29.8612C149.59 29.5896 149.745 29.3781 149.939 29.2268C150.135 29.0735 150.349 28.9668 150.58 28.9067C150.812 28.8446 151.041 28.8135 151.266 28.8135C151.41 28.8135 151.575 28.831 151.761 28.8659C151.949 28.8989 152.131 28.9678 152.305 29.0725C152.482 29.1773 152.628 29.3354 152.745 29.5469C152.861 29.7584 152.919 30.0416 152.919 30.3967V33.3418H152.233V32.7365H152.198C152.151 32.8335 152.073 32.9373 151.965 33.0479C151.856 33.1585 151.712 33.2526 151.531 33.3302C151.351 33.4078 151.131 33.4466 150.871 33.4466ZM150.975 32.8296C151.247 32.8296 151.476 32.7762 151.662 32.6695C151.85 32.5628 151.992 32.4251 152.087 32.2563C152.184 32.0875 152.233 31.91 152.233 31.7237V31.0951C152.203 31.13 152.139 31.1621 152.041 31.1912C151.943 31.2183 151.831 31.2426 151.703 31.2639C151.577 31.2833 151.454 31.3008 151.333 31.3163C151.215 31.3299 151.119 31.3415 151.045 31.3512C150.867 31.3745 150.7 31.4123 150.545 31.4647C150.391 31.5152 150.267 31.5918 150.172 31.6946C150.079 31.7955 150.032 31.9333 150.032 32.1079C150.032 32.3465 150.121 32.5269 150.297 32.6492C150.476 32.7695 150.702 32.8296 150.975 32.8296ZM153.777 33.3418V32.7016H153.94C154.074 32.7016 154.186 32.6754 154.275 32.623C154.364 32.5687 154.436 32.4746 154.49 32.3407C154.546 32.2049 154.589 32.0167 154.618 31.7761C154.649 31.5336 154.672 31.2251 154.685 30.8507L154.767 28.8717H157.747V33.3418H157.06V29.512H155.419L155.349 31.1068C155.333 31.4734 155.3 31.7965 155.25 32.0759C155.201 32.3533 155.127 32.5861 155.026 32.7743C154.927 32.9625 154.795 33.1041 154.63 33.1992C154.465 33.2943 154.258 33.3418 154.01 33.3418H153.777ZM159.694 32.329L161.847 28.8717H162.639V33.3418H161.952V29.8845L159.81 33.3418H159.007V28.8717H159.694V32.329ZM165.713 33.4349C165.294 33.4349 164.933 33.336 164.63 33.1381C164.327 32.9402 164.095 32.6676 163.932 32.3203C163.769 31.973 163.687 31.5763 163.687 31.13C163.687 30.6761 163.771 30.2754 163.937 29.9281C164.106 29.5789 164.341 29.3063 164.642 29.1104C164.944 28.9125 165.297 28.8135 165.701 28.8135C166.015 28.8135 166.299 28.8717 166.551 28.9881C166.803 29.1045 167.01 29.2675 167.171 29.4771C167.332 29.6866 167.432 29.931 167.47 30.2104H166.784C166.731 30.0067 166.615 29.8263 166.434 29.6691C166.256 29.51 166.015 29.4305 165.713 29.4305C165.445 29.4305 165.21 29.5003 165.008 29.64C164.809 29.7778 164.652 29.9728 164.54 30.225C164.429 30.4753 164.374 30.7692 164.374 31.1068C164.374 31.4521 164.428 31.7528 164.537 32.0089C164.647 32.265 164.803 32.4639 165.003 32.6055C165.204 32.7471 165.441 32.818 165.713 32.818C165.891 32.818 166.053 32.7869 166.199 32.7248C166.344 32.6628 166.467 32.5735 166.568 32.4571C166.669 32.3407 166.741 32.201 166.784 32.038H167.47C167.432 32.3019 167.336 32.5396 167.182 32.751C167.031 32.9606 166.83 33.1274 166.58 33.2516C166.332 33.3738 166.042 33.4349 165.713 33.4349ZM168.122 29.512V28.8717H171.754V29.512H170.287V33.3418H169.601V29.512H168.122ZM174.34 33.4349C173.936 33.4349 173.582 33.3389 173.278 33.1468C172.975 32.9547 172.738 32.686 172.568 32.3407C172.399 31.9953 172.314 31.5918 172.314 31.13C172.314 30.6644 172.399 30.258 172.568 29.9107C172.738 29.5634 172.975 29.2937 173.278 29.1016C173.582 28.9096 173.936 28.8135 174.34 28.8135C174.743 28.8135 175.097 28.9096 175.399 29.1016C175.704 29.2937 175.941 29.5634 176.109 29.9107C176.28 30.258 176.365 30.6644 176.365 31.13C176.365 31.5918 176.28 31.9953 176.109 32.3407C175.941 32.686 175.704 32.9547 175.399 33.1468C175.097 33.3389 174.743 33.4349 174.34 33.4349ZM174.34 32.818C174.646 32.818 174.899 32.7394 175.097 32.5822C175.294 32.4251 175.441 32.2185 175.536 31.9624C175.631 31.7063 175.679 31.4288 175.679 31.13C175.679 30.8313 175.631 30.5529 175.536 30.2948C175.441 30.0368 175.294 29.8282 175.097 29.6691C174.899 29.51 174.646 29.4305 174.34 29.4305C174.033 29.4305 173.781 29.51 173.583 29.6691C173.385 29.8282 173.239 30.0368 173.144 30.2948C173.049 30.5529 173.001 30.8313 173.001 31.13C173.001 31.4288 173.049 31.7063 173.144 31.9624C173.239 32.2185 173.385 32.4251 173.583 32.5822C173.781 32.7394 174.033 32.818 174.34 32.818ZM177.414 33.3418V28.8717H179.241C179.723 28.8717 180.105 28.9804 180.388 29.1977C180.671 29.415 180.813 29.7021 180.813 30.0591C180.813 30.3307 180.732 30.5412 180.571 30.6906C180.41 30.8381 180.204 30.938 179.951 30.9904C180.116 31.0136 180.276 31.0718 180.432 31.165C180.589 31.2581 180.719 31.3861 180.822 31.5491C180.924 31.7101 180.976 31.908 180.976 32.1428C180.976 32.3717 180.918 32.5764 180.801 32.7568C180.685 32.9373 180.518 33.0799 180.301 33.1846C180.083 33.2894 179.823 33.3418 179.521 33.3418H177.414ZM178.066 32.7132H179.521C179.757 32.7132 179.943 32.6569 180.077 32.5444C180.211 32.4319 180.277 32.2786 180.277 32.0846C180.277 31.8537 180.211 31.6723 180.077 31.5404C179.943 31.4065 179.757 31.3396 179.521 31.3396H178.066V32.7132ZM178.066 30.7459H179.241C179.426 30.7459 179.584 30.7207 179.716 30.6702C179.848 30.6178 179.949 30.5441 180.018 30.4491C180.09 30.3521 180.126 30.2376 180.126 30.1057C180.126 29.9175 180.048 29.77 179.89 29.6633C179.733 29.5547 179.517 29.5003 179.241 29.5003H178.066V30.7459ZM54.8682 44.3418V38.3817H58.4652V39.022H55.5899V40.8845H57.1032C57.5301 40.8845 57.89 40.9543 58.1829 41.094C58.4778 41.2337 58.7009 41.4306 58.8523 41.6848C59.0055 41.9389 59.0822 42.2387 59.0822 42.584C59.0822 42.9294 59.0055 43.234 58.8523 43.4978C58.7009 43.7617 58.4778 43.9683 58.1829 44.1177C57.89 44.2671 57.5301 44.3418 57.1032 44.3418H54.8682ZM55.5899 43.7132H57.1032C57.3749 43.7132 57.6048 43.6589 57.793 43.5502C57.9831 43.4396 58.1267 43.298 58.2237 43.1253C58.3226 42.9507 58.3721 42.7664 58.3721 42.5724C58.3721 42.2872 58.2625 42.0418 58.0432 41.8361C57.824 41.6285 57.5107 41.5247 57.1032 41.5247H55.5899V43.7132ZM61.9931 44.4349C61.5896 44.4349 61.2355 44.3389 60.9309 44.1468C60.6282 43.9547 60.3915 43.686 60.2208 43.3407C60.052 42.9953 59.9676 42.5918 59.9676 42.13C59.9676 41.6644 60.052 41.258 60.2208 40.9107C60.3915 40.5634 60.6282 40.2937 60.9309 40.1016C61.2355 39.9096 61.5896 39.8135 61.9931 39.8135C62.3967 39.8135 62.7498 39.9096 63.0524 40.1016C63.357 40.2937 63.5937 40.5634 63.7625 40.9107C63.9332 41.258 64.0186 41.6644 64.0186 42.13C64.0186 42.5918 63.9332 42.9953 63.7625 43.3407C63.5937 43.686 63.357 43.9547 63.0524 44.1468C62.7498 44.3389 62.3967 44.4349 61.9931 44.4349ZM61.9931 43.818C62.2997 43.818 62.5519 43.7394 62.7498 43.5822C62.9477 43.4251 63.0941 43.2185 63.1892 42.9624C63.2843 42.7063 63.3318 42.4288 63.3318 42.13C63.3318 41.8313 63.2843 41.5529 63.1892 41.2948C63.0941 41.0368 62.9477 40.8282 62.7498 40.6691C62.5519 40.51 62.2997 40.4305 61.9931 40.4305C61.6866 40.4305 61.4344 40.51 61.2365 40.6691C61.0386 40.8282 60.8921 41.0368 60.797 41.2948C60.702 41.5529 60.6544 41.8313 60.6544 42.13C60.6544 42.4288 60.702 42.7063 60.797 42.9624C60.8921 43.2185 61.0386 43.4251 61.2365 43.5822C61.4344 43.7394 61.6866 43.818 61.9931 43.818ZM64.4828 40.512V39.8717H68.1147V40.512H66.648V44.3418H65.9612V40.512H64.4828ZM70.7004 45.8667V38.3817H71.3872V45.8667H70.7004ZM70.7004 44.4349C70.3978 44.4349 70.1223 44.3806 69.8739 44.272C69.6256 44.1614 69.4122 44.0052 69.2337 43.8034C69.0552 43.5997 68.9174 43.3562 68.8204 43.0729C68.7234 42.7897 68.6749 42.4754 68.6749 42.13C68.6749 41.7808 68.7234 41.4646 68.8204 41.1813C68.9174 40.8961 69.0552 40.6517 69.2337 40.4479C69.4122 40.2442 69.6256 40.0881 69.8739 39.9794C70.1223 39.8688 70.3978 39.8135 70.7004 39.8135H70.91V44.4349H70.7004ZM70.7004 43.818H70.8168V40.4305H70.7004C70.4715 40.4305 70.2726 40.4771 70.1038 40.5702C69.935 40.6614 69.7954 40.7865 69.6848 40.9456C69.5761 41.1027 69.4946 41.2832 69.4403 41.4869C69.3879 41.6906 69.3617 41.905 69.3617 42.13C69.3617 42.4288 69.4093 42.7063 69.5043 42.9624C69.5994 43.2185 69.7459 43.4251 69.9438 43.5822C70.1417 43.7394 70.3939 43.818 70.7004 43.818ZM71.3872 44.4349H71.1777V39.8135H71.3872C71.6899 39.8135 71.9654 39.8688 72.2137 39.9794C72.4621 40.0881 72.6755 40.2442 72.854 40.4479C73.0325 40.6517 73.1702 40.8961 73.2672 41.1813C73.3642 41.4646 73.4127 41.7808 73.4127 42.13C73.4127 42.4754 73.3642 42.7897 73.2672 43.0729C73.1702 43.3562 73.0325 43.5997 72.854 43.8034C72.6755 44.0052 72.4621 44.1614 72.2137 44.272C71.9654 44.3806 71.6899 44.4349 71.3872 44.4349ZM71.3872 43.818C71.6181 43.818 71.817 43.7733 71.9838 43.6841C72.1526 43.5929 72.2913 43.4687 72.4 43.3116C72.5106 43.1525 72.5921 42.9721 72.6444 42.7703C72.6988 42.5666 72.7259 42.3532 72.7259 42.13C72.7259 41.8313 72.6784 41.5529 72.5833 41.2948C72.4883 41.0368 72.3418 40.8282 72.1439 40.6691C71.946 40.51 71.6938 40.4305 71.3872 40.4305H71.2708V43.818H71.3872ZM75.778 44.4466C75.4947 44.4466 75.2377 44.3932 75.0068 44.2865C74.7759 44.1779 74.5926 44.0217 74.4568 43.818C74.321 43.6123 74.2531 43.364 74.2531 43.0729C74.2531 42.8169 74.3035 42.6093 74.4044 42.4502C74.5053 42.2891 74.6401 42.163 74.8089 42.0718C74.9777 41.9807 75.1639 41.9128 75.3677 41.8681C75.5733 41.8216 75.7799 41.7847 75.9875 41.7575C76.2592 41.7226 76.4794 41.6964 76.6481 41.679C76.8189 41.6596 76.943 41.6276 77.0207 41.5829C77.1002 41.5383 77.14 41.4607 77.14 41.3501V41.3268C77.14 41.0397 77.0614 40.8166 76.9042 40.6575C76.749 40.4984 76.5133 40.4188 76.1971 40.4188C75.8692 40.4188 75.6121 40.4906 75.4259 40.6342C75.2396 40.7778 75.1087 40.931 75.033 41.094L74.3811 40.8612C74.4975 40.5896 74.6527 40.3781 74.8467 40.2268C75.0427 40.0735 75.2561 39.9668 75.487 39.9067C75.7198 39.8446 75.9487 39.8135 76.1738 39.8135C76.3174 39.8135 76.4823 39.831 76.6685 39.8659C76.8567 39.8989 77.0381 39.9678 77.2127 40.0725C77.3893 40.1773 77.5358 40.3354 77.6522 40.5469C77.7686 40.7584 77.8268 41.0416 77.8268 41.3967V44.3418H77.14V43.7365H77.105C77.0585 43.8335 76.9809 43.9373 76.8722 44.0479C76.7636 44.1585 76.619 44.2526 76.4386 44.3302C76.2582 44.4078 76.038 44.4466 75.778 44.4466ZM75.8828 43.8296C76.1544 43.8296 76.3833 43.7762 76.5696 43.6695C76.7578 43.5628 76.8994 43.4251 76.9945 43.2563C77.0915 43.0875 77.14 42.91 77.14 42.7237V42.0951C77.1109 42.13 77.0468 42.1621 76.9479 42.1912C76.8509 42.2183 76.7384 42.2426 76.6103 42.2639C76.4842 42.2833 76.361 42.3008 76.2407 42.3163C76.1224 42.3299 76.0263 42.3415 75.9526 42.3512C75.7741 42.3745 75.6073 42.4123 75.4521 42.4647C75.2988 42.5152 75.1746 42.5918 75.0795 42.6946C74.9864 42.7955 74.9399 42.9333 74.9399 43.1079C74.9399 43.3465 75.0281 43.5269 75.2047 43.6492C75.3832 43.7695 75.6092 43.8296 75.8828 43.8296ZM79.0803 44.3418V39.8717H79.7672V41.8157H80.2211L81.8276 39.8717H82.7123L80.908 42.0253L82.7356 44.3418H81.8509L80.3841 42.456H79.7672V44.3418H79.0803ZM83.2259 40.512V39.8717H86.8579V40.512H85.3911V44.3418H84.7043V40.512H83.2259ZM89.4436 44.4349C89.04 44.4349 88.6859 44.3389 88.3813 44.1468C88.0787 43.9547 87.842 43.686 87.6713 43.3407C87.5025 42.9953 87.4181 42.5918 87.4181 42.13C87.4181 41.6644 87.5025 41.258 87.6713 40.9107C87.842 40.5634 88.0787 40.2937 88.3813 40.1016C88.6859 39.9096 89.04 39.8135 89.4436 39.8135C89.8471 39.8135 90.2002 39.9096 90.5029 40.1016C90.8075 40.2937 91.0442 40.5634 91.213 40.9107C91.3837 41.258 91.4691 41.6644 91.4691 42.13C91.4691 42.5918 91.3837 42.9953 91.213 43.3407C91.0442 43.686 90.8075 43.9547 90.5029 44.1468C90.2002 44.3389 89.8471 44.4349 89.4436 44.4349ZM89.4436 43.818C89.7501 43.818 90.0023 43.7394 90.2002 43.5822C90.3981 43.4251 90.5446 43.2185 90.6397 42.9624C90.7347 42.7063 90.7823 42.4288 90.7823 42.13C90.7823 41.8313 90.7347 41.5529 90.6397 41.2948C90.5446 41.0368 90.3981 40.8282 90.2002 40.6691C90.0023 40.51 89.7501 40.4305 89.4436 40.4305C89.137 40.4305 88.8848 40.51 88.6869 40.6691C88.489 40.8282 88.3425 41.0368 88.2475 41.2948C88.1524 41.5529 88.1049 41.8313 88.1049 42.13C88.1049 42.4288 88.1524 42.7063 88.2475 42.9624C88.3425 43.2185 88.489 43.4251 88.6869 43.5822C88.8848 43.7394 89.137 43.818 89.4436 43.818ZM92.5175 46.0181V39.8717H93.181V40.5818H93.2625C93.3129 40.5042 93.3828 40.4053 93.472 40.285C93.5632 40.1628 93.6932 40.0541 93.862 39.959C94.0327 39.862 94.2636 39.8135 94.5546 39.8135C94.931 39.8135 95.2628 39.9076 95.5499 40.0958C95.837 40.284 96.0611 40.5508 96.2222 40.8961C96.3832 41.2415 96.4637 41.6489 96.4637 42.1184C96.4637 42.5918 96.3832 43.0021 96.2222 43.3494C96.0611 43.6948 95.838 43.9625 95.5528 44.1526C95.2676 44.3408 94.9388 44.4349 94.5662 44.4349C94.2791 44.4349 94.0492 44.3874 93.8765 44.2923C93.7039 44.1953 93.571 44.0857 93.4778 43.9635C93.3847 43.8393 93.3129 43.7365 93.2625 43.655H93.2043V46.0181H92.5175ZM93.1926 42.1068C93.1926 42.4443 93.2421 42.7422 93.3411 43.0002C93.44 43.2563 93.5845 43.4571 93.7747 43.6026C93.9648 43.7462 94.1976 43.818 94.4731 43.818C94.7603 43.818 94.9999 43.7423 95.1919 43.591C95.386 43.4377 95.5315 43.232 95.6285 42.974C95.7274 42.714 95.7769 42.4249 95.7769 42.1068C95.7769 41.7925 95.7284 41.5092 95.6314 41.257C95.5363 41.0028 95.3918 40.802 95.1978 40.6546C95.0057 40.5052 94.7641 40.4305 94.4731 40.4305C94.1937 40.4305 93.959 40.5013 93.7689 40.6429C93.5787 40.7826 93.4351 40.9786 93.3381 41.2308C93.2411 41.4811 93.1926 41.7731 93.1926 42.1068Z" fill="black"/>
</g>
<defs>
<filter id="filter0_d_85_94" x="0.292684" y="0.633992" width="215.415" height="117.073" filterUnits="userSpaceOnUse" color-interpolation-filters="sRGB">
<feFlood flood-opacity="0" result="BackgroundImageFix"/>
<feColorMatrix in="SourceAlpha" type="matrix" values="0 0 0 0 0 0 0 0 0 0 0 0 0 0 0 0 0 0 127 0" result="hardAlpha"/>
<feOffset/>
<feGaussianBlur stdDeviation="5.85366"/>
<feComposite in2="hardAlpha" operator="out"/>
<feColorMatrix type="matrix" values="0 0 0 0 0.716146 0 0 0 0 0.869305 0 0 0 0 1 0 0 0 1 0"/>
<feBlend mode="normal" in2="BackgroundImageFix" result="effect1_dropShadow_85_94"/>
<feBlend mode="normal" in="SourceGraphic" in2="effect1_dropShadow_85_94" result="shape"/>
</filter>
<clipPath id="clip0_85_94">
<rect width="16.9756" height="16.9756" fill="white" transform="translate(27.5117 27.8535)"/>
</clipPath>
</defs>
</svg>
