<svg width="606" height="330" viewBox="0 0 606 330" fill="none" xmlns="http://www.w3.org/2000/svg">
<g filter="url(#filter0_d_85_52)">
<rect x="33" y="33" width="540" height="263.415" rx="32.9268" fill="white"/>
<rect x="57.6953" y="57.6953" width="237.073" height="51.0366" rx="25.5183" fill="#2CA9DB"/>
<path d="M98.7155 83.5932C98.7155 85.5108 98.3647 87.1595 97.6632 88.5392C96.9616 89.9131 95.9999 90.9713 94.778 91.7138C93.5619 92.4505 92.1792 92.8188 90.6299 92.8188C89.0748 92.8188 87.6863 92.4505 86.4644 91.7138C85.2484 90.9713 84.2895 89.9102 83.588 88.5305C82.8864 87.1507 82.5356 85.505 82.5356 83.5932C82.5356 81.6756 82.8864 80.0298 83.588 78.6559C84.2895 77.2762 85.2484 76.218 86.4644 75.4813C87.6863 74.7388 89.0748 74.3676 90.6299 74.3676C92.1792 74.3676 93.5619 74.7388 94.778 75.4813C95.9999 76.218 96.9616 77.2762 97.6632 78.6559C98.3647 80.0298 98.7155 81.6756 98.7155 83.5932ZM96.032 83.5932C96.032 82.1316 95.7952 80.9009 95.3217 79.9012C94.854 78.8956 94.2109 78.1356 93.3924 77.6211C92.5797 77.1008 91.6589 76.8406 90.6299 76.8406C89.5951 76.8406 88.6714 77.1008 87.8588 77.6211C87.0461 78.1356 86.403 78.8956 85.9295 79.9012C85.4617 80.9009 85.2279 82.1316 85.2279 83.5932C85.2279 85.0548 85.4617 86.2884 85.9295 87.294C86.403 88.2937 87.0461 89.0537 87.8588 89.574C88.6714 90.0885 89.5951 90.3458 90.6299 90.3458C91.6589 90.3458 92.5797 90.0885 93.3924 89.574C94.2109 89.0537 94.854 88.2937 95.3217 87.294C95.7952 86.2884 96.032 85.0548 96.032 83.5932ZM101.129 81.3657V79.1032H112.495V81.3657H108.101V92.5732H105.54V81.3657H101.129ZM125.454 79.1032V92.5732H122.893V79.1032H125.454ZM124.34 85.3559V87.6184C123.937 87.7821 123.51 87.9283 123.06 88.0569C122.61 88.1797 122.136 88.2761 121.639 88.3463C121.142 88.4165 120.625 88.4515 120.087 88.4515C118.421 88.4515 117.097 88.0452 116.114 87.2326C115.132 86.4141 114.641 85.1629 114.641 83.4792V79.0769H117.193V83.4792C117.193 84.1164 117.31 84.6339 117.544 85.0314C117.778 85.429 118.111 85.7213 118.544 85.9084C118.976 86.0954 119.491 86.189 120.087 86.189C120.876 86.189 121.604 86.1159 122.271 85.9698C122.943 85.8177 123.633 85.6131 124.34 85.3559ZM134.747 92.8451C133.42 92.8451 132.277 92.5615 131.319 91.9945C130.366 91.4215 129.629 90.6176 129.109 89.5828C128.594 88.5422 128.337 87.3232 128.337 85.9259C128.337 84.5462 128.594 83.3301 129.109 82.2778C129.629 81.2254 130.354 80.404 131.284 79.8135C132.219 79.223 133.312 78.9278 134.563 78.9278C135.323 78.9278 136.06 79.0535 136.773 79.3049C137.487 79.5563 138.127 79.9509 138.694 80.4888C139.261 81.0266 139.708 81.7253 140.036 82.5847C140.363 83.4383 140.527 84.476 140.527 85.6979V86.6275H129.819V84.6631H137.957C137.957 83.9732 137.817 83.3623 137.536 82.8302C137.256 82.2924 136.861 81.8685 136.352 81.5587C135.85 81.2488 135.259 81.0939 134.581 81.0939C133.844 81.0939 133.201 81.2751 132.652 81.6376C132.108 81.9942 131.687 82.4619 131.389 83.0407C131.096 83.6137 130.95 84.2363 130.95 84.9086V86.4433C130.95 87.3437 131.108 88.1095 131.424 88.7409C131.745 89.3723 132.193 89.8547 132.766 90.1879C133.339 90.5153 134.008 90.679 134.774 90.679C135.271 90.679 135.724 90.6089 136.133 90.4685C136.542 90.3224 136.896 90.1061 137.194 89.8196C137.492 89.5331 137.72 89.1794 137.878 88.7585L140.36 89.2057C140.161 89.9365 139.805 90.5767 139.29 91.1263C138.782 91.67 138.141 92.0938 137.37 92.3979C136.604 92.696 135.73 92.8451 134.747 92.8451ZM131.889 76.9897C131.474 76.9897 131.111 76.8377 130.801 76.5337C130.491 76.2238 130.336 75.8672 130.336 75.4638C130.336 75.0253 130.491 74.6599 130.801 74.3676C131.111 74.0753 131.474 73.9291 131.889 73.9291C132.327 73.9291 132.692 74.0753 132.985 74.3676C133.283 74.6599 133.432 75.0253 133.432 75.4638C133.432 75.8672 133.283 76.2238 132.985 76.5337C132.692 76.8377 132.327 76.9897 131.889 76.9897ZM137.045 76.9897C136.63 76.9897 136.268 76.8377 135.958 76.5337C135.648 76.2238 135.493 75.8672 135.493 75.4638C135.493 75.0253 135.648 74.6599 135.958 74.3676C136.268 74.0753 136.63 73.9291 137.045 73.9291C137.484 73.9291 137.849 74.0753 138.141 74.3676C138.439 74.6599 138.589 75.0253 138.589 75.4638C138.589 75.8672 138.439 76.2238 138.141 76.5337C137.849 76.8377 137.484 76.9897 137.045 76.9897ZM142.248 81.3657V79.1032H153.613V81.3657H149.219V92.5732H146.659V81.3657H142.248ZM162.922 92.5732V79.1032H173.91V92.5732H171.341V81.3657H165.474V92.5732H162.922ZM183.09 92.8451C181.827 92.8451 180.725 92.5557 179.784 91.9769C178.842 91.3981 178.112 90.5884 177.591 89.5477C177.071 88.5071 176.811 87.291 176.811 85.8996C176.811 84.5023 177.071 83.2804 177.591 82.2339C178.112 81.1874 178.842 80.3748 179.784 79.796C180.725 79.2172 181.827 78.9278 183.09 78.9278C184.353 78.9278 185.455 79.2172 186.396 79.796C187.337 80.3748 188.068 81.1874 188.588 82.2339C189.109 83.2804 189.369 84.5023 189.369 85.8996C189.369 87.291 189.109 88.5071 188.588 89.5477C188.068 90.5884 187.337 91.3981 186.396 91.9769C185.455 92.5557 184.353 92.8451 183.09 92.8451ZM183.099 90.6439C183.917 90.6439 184.595 90.4276 185.133 89.995C185.671 89.5624 186.069 88.9865 186.326 88.2674C186.589 87.5483 186.72 86.7561 186.72 85.8908C186.72 85.0314 186.589 84.2421 186.326 83.523C186.069 82.7981 185.671 82.2164 185.133 81.7779C184.595 81.3394 183.917 81.1202 183.099 81.1202C182.274 81.1202 181.59 81.3394 181.046 81.7779C180.509 82.2164 180.108 82.7981 179.845 83.523C179.588 84.2421 179.459 85.0314 179.459 85.8908C179.459 86.7561 179.588 87.5483 179.845 88.2674C180.108 88.9865 180.509 89.5624 181.046 89.995C181.59 90.4276 182.274 90.6439 183.099 90.6439ZM209.223 74.087L210.311 75.7444C209.907 76.1127 209.448 76.3758 208.934 76.5337C208.425 76.6857 207.838 76.7822 207.171 76.8231C206.505 76.8582 205.742 76.8903 204.882 76.9195C203.912 76.9488 203.114 77.1592 202.488 77.551C201.863 77.9368 201.38 78.5098 201.041 79.2698C200.708 80.024 200.492 80.9711 200.392 82.1111H200.559C200.997 81.2751 201.605 80.6495 202.383 80.2344C203.166 79.8194 204.046 79.6118 205.023 79.6118C206.11 79.6118 207.078 79.8603 207.925 80.3572C208.773 80.8542 209.439 81.582 209.925 82.5408C210.416 83.4938 210.661 84.6602 210.661 86.0399C210.661 87.4372 210.404 88.6445 209.89 89.6617C209.381 90.679 208.662 91.4654 207.732 92.0208C206.809 92.5703 205.718 92.8451 204.461 92.8451C203.204 92.8451 202.108 92.5615 201.173 91.9945C200.243 91.4215 199.521 90.5738 199.007 89.4513C198.498 88.3288 198.244 86.9432 198.244 85.2945V83.9615C198.244 80.8805 198.793 78.5624 199.892 77.0072C200.991 75.4521 202.634 74.6541 204.821 74.6131C205.528 74.5956 206.16 74.5927 206.715 74.6044C207.27 74.6102 207.756 74.5839 208.171 74.5255C208.592 74.4611 208.943 74.315 209.223 74.087ZM204.47 90.6439C205.201 90.6439 205.829 90.4598 206.355 90.0915C206.888 89.7173 207.297 89.1882 207.583 88.5042C207.87 87.8201 208.013 87.0133 208.013 86.0838C208.013 85.1717 207.87 84.3971 207.583 83.7598C207.297 83.1226 206.888 82.6373 206.355 82.3041C205.823 81.965 205.186 81.7954 204.444 81.7954C203.894 81.7954 203.403 81.8919 202.97 82.0848C202.538 82.2719 202.167 82.5496 201.857 82.9179C201.553 83.2863 201.316 83.7364 201.146 84.2685C200.983 84.7946 200.895 85.3997 200.883 86.0838C200.883 87.4752 201.202 88.5831 201.839 89.4074C202.482 90.2318 203.359 90.6439 204.47 90.6439ZM219.264 92.8451C218.001 92.8451 216.899 92.5557 215.958 91.9769C215.017 91.3981 214.286 90.5884 213.766 89.5477C213.245 88.5071 212.985 87.291 212.985 85.8996C212.985 84.5023 213.245 83.2804 213.766 82.2339C214.286 81.1874 215.017 80.3748 215.958 79.796C216.899 79.2172 218.001 78.9278 219.264 78.9278C220.527 78.9278 221.629 79.2172 222.57 79.796C223.512 80.3748 224.242 81.1874 224.763 82.2339C225.283 83.2804 225.543 84.5023 225.543 85.8996C225.543 87.291 225.283 88.5071 224.763 89.5477C224.242 90.5884 223.512 91.3981 222.57 91.9769C221.629 92.5557 220.527 92.8451 219.264 92.8451ZM219.273 90.6439C220.092 90.6439 220.77 90.4276 221.308 89.995C221.845 89.5624 222.243 88.9865 222.5 88.2674C222.763 87.5483 222.895 86.7561 222.895 85.8908C222.895 85.0314 222.763 84.2421 222.5 83.523C222.243 82.7981 221.845 82.2164 221.308 81.7779C220.77 81.3394 220.092 81.1202 219.273 81.1202C218.449 81.1202 217.765 81.3394 217.221 81.7779C216.683 82.2164 216.283 82.7981 216.02 83.523C215.762 84.2421 215.634 85.0314 215.634 85.8908C215.634 86.7561 215.762 87.5483 216.02 88.2674C216.283 88.9865 216.683 89.5624 217.221 89.995C217.765 90.4276 218.449 90.6439 219.273 90.6439ZM226.848 81.3657V79.1032H238.213V81.3657H233.82V92.5732H231.259V81.3657H226.848ZM244.28 92.8714C243.426 92.8714 242.654 92.7136 241.964 92.3979C241.274 92.0763 240.728 91.6115 240.324 91.0035C239.927 90.3955 239.728 89.65 239.728 88.7672C239.728 88.0072 239.874 87.3817 240.167 86.8906C240.459 86.3995 240.854 86.0107 241.35 85.7242C241.847 85.4377 242.403 85.2214 243.017 85.0753C243.631 84.9291 244.256 84.818 244.893 84.742C245.7 84.6485 246.355 84.5725 246.858 84.514C247.361 84.4497 247.726 84.3474 247.954 84.2071C248.182 84.0668 248.296 83.8387 248.296 83.523V83.4617C248.296 82.6958 248.08 82.1024 247.647 81.6814C247.22 81.2605 246.583 81.05 245.735 81.05C244.852 81.05 244.157 81.2459 243.648 81.6376C243.145 82.0234 242.797 82.4531 242.605 82.9267L240.14 82.3655C240.433 81.547 240.859 80.8863 241.421 80.3835C241.988 79.8749 242.64 79.5066 243.376 79.2786C244.113 79.0447 244.888 78.9278 245.7 78.9278C246.238 78.9278 246.808 78.9921 247.41 79.1207C248.018 79.2435 248.585 79.4715 249.112 79.8047C249.644 80.138 250.079 80.6145 250.418 81.2342C250.757 81.848 250.927 82.6461 250.927 83.6283V92.5732H248.366V90.7316H248.261C248.091 91.0707 247.837 91.404 247.498 91.7314C247.159 92.0588 246.723 92.3306 246.191 92.5469C245.659 92.7632 245.022 92.8714 244.28 92.8714ZM244.85 90.7667C245.574 90.7667 246.194 90.6235 246.709 90.337C247.229 90.0505 247.624 89.6764 247.893 89.2145C248.167 88.7468 248.305 88.2469 248.305 87.7149V85.9785C248.211 86.0721 248.03 86.1598 247.761 86.2416C247.498 86.3176 247.197 86.3848 246.858 86.4433C246.519 86.4959 246.188 86.5456 245.867 86.5924C245.545 86.6333 245.276 86.6684 245.06 86.6976C244.551 86.7619 244.087 86.8701 243.666 87.0221C243.251 87.1741 242.917 87.3933 242.666 87.6798C242.42 87.9604 242.298 88.3346 242.298 88.8023C242.298 89.4513 242.537 89.9424 243.017 90.2756C243.496 90.603 244.107 90.7667 244.85 90.7667ZM261.979 89.3285L266.328 79.1032H268.591L262.952 92.5732H261.005L255.48 79.1032H257.717L261.979 89.3285ZM256.989 79.1032V92.5732H254.419V79.1032H256.989ZM267.039 92.5732V79.1032H269.591V92.5732H267.039Z" fill="white"/>
<circle cx="115.981" cy="185.127" r="50.0541" fill="#F1C3C3"/>
<path d="M116.245 149.984C106.597 149.984 97.8504 153.843 91.4639 160.101" stroke="#E26666" stroke-width="29.2356"/>
<circle cx="115.736" cy="184.882" r="27.7309" fill="white"/>
<path d="M101.784 255.94V257.548H96.3421V267.645H94.3324V255.94H101.784ZM95.7312 260.434H98.6734C99.563 260.434 100.324 260.584 100.956 260.884C101.589 261.179 102.071 261.594 102.403 262.13C102.736 262.666 102.902 263.29 102.902 264.003C102.902 264.539 102.808 265.029 102.62 265.474C102.433 265.919 102.157 266.305 101.792 266.632C101.428 266.953 100.983 267.202 100.458 267.379C99.9381 267.556 99.3433 267.645 98.6734 267.645H94.3324V255.94H96.3582V266.045H98.6734C99.1825 266.045 99.6005 265.951 99.9274 265.763C100.254 265.571 100.495 265.319 100.651 265.008C100.812 264.697 100.892 264.357 100.892 263.987C100.892 263.628 100.812 263.301 100.651 263.006C100.495 262.711 100.254 262.476 99.9274 262.299C99.6005 262.122 99.1825 262.033 98.6734 262.033H95.7312V260.434ZM114.052 261.471V262.114C114.052 262.998 113.936 263.791 113.706 264.493C113.475 265.195 113.146 265.793 112.717 266.286C112.294 266.779 111.785 267.157 111.19 267.419C110.595 267.677 109.936 267.805 109.212 267.805C108.494 267.805 107.838 267.677 107.243 267.419C106.653 267.157 106.141 266.779 105.707 266.286C105.273 265.793 104.936 265.195 104.694 264.493C104.459 263.791 104.341 262.998 104.341 262.114V261.471C104.341 260.586 104.459 259.796 104.694 259.099C104.93 258.397 105.262 257.8 105.691 257.307C106.125 256.808 106.637 256.43 107.227 256.173C107.822 255.911 108.478 255.779 109.196 255.779C109.92 255.779 110.579 255.911 111.174 256.173C111.769 256.43 112.28 256.808 112.709 257.307C113.138 257.8 113.467 258.397 113.698 259.099C113.934 259.796 114.052 260.586 114.052 261.471ZM112.034 262.114V261.455C112.034 260.801 111.97 260.225 111.841 259.726C111.718 259.223 111.533 258.802 111.286 258.464C111.045 258.121 110.748 257.864 110.394 257.693C110.04 257.516 109.641 257.427 109.196 257.427C108.751 257.427 108.355 257.516 108.006 257.693C107.658 257.864 107.361 258.121 107.114 258.464C106.873 258.802 106.688 259.223 106.559 259.726C106.431 260.225 106.366 260.801 106.366 261.455V262.114C106.366 262.768 106.431 263.346 106.559 263.85C106.688 264.354 106.876 264.78 107.122 265.128C107.374 265.471 107.674 265.731 108.022 265.908C108.371 266.08 108.767 266.165 109.212 266.165C109.662 266.165 110.062 266.08 110.41 265.908C110.758 265.731 111.053 265.471 111.294 265.128C111.535 264.78 111.718 264.354 111.841 263.85C111.97 263.346 112.034 262.768 112.034 262.114ZM120.483 255.94V267.645H118.481V255.94H120.483ZM124.156 255.94V257.548H114.839V255.94H124.156ZM127.131 260.434H130.081C130.971 260.434 131.729 260.584 132.356 260.884C132.988 261.179 133.471 261.594 133.803 262.13C134.14 262.666 134.309 263.29 134.309 264.003C134.309 264.539 134.213 265.029 134.02 265.474C133.832 265.919 133.556 266.305 133.192 266.632C132.827 266.953 132.383 267.202 131.857 267.379C131.338 267.556 130.745 267.645 130.081 267.645H125.74V255.94H127.758V266.045H130.081C130.59 266.045 131.008 265.951 131.335 265.763C131.662 265.571 131.903 265.319 132.058 265.008C132.219 264.697 132.3 264.357 132.3 263.987C132.3 263.628 132.219 263.301 132.058 263.006C131.903 262.711 131.662 262.476 131.335 262.299C131.008 262.122 130.59 262.033 130.081 262.033H127.131V260.434ZM137.533 255.94V267.645H135.515V255.94H137.533Z" fill="#2C2C2C"/>
<circle cx="303.239" cy="185.127" r="50.0541" fill="#FEE7BA"/>
<path d="M274.97 205.195C270.67 199.157 268.399 191.907 268.487 184.494C268.574 177.081 271.016 169.888 275.458 163.952C279.9 158.017 286.114 153.647 293.202 151.473C300.29 149.299 307.885 149.434 314.891 151.858" stroke="#EFB503" stroke-width="30.548"/>
<circle cx="304.132" cy="185.062" r="30.8025" fill="white"/>
<path d="M236.189 255.94V267.645H234.179V257.548H228.978V267.645H226.968V255.94H236.189ZM247.949 261.471V262.114C247.949 262.998 247.834 263.791 247.604 264.493C247.373 265.195 247.044 265.793 246.615 266.286C246.192 266.779 245.682 267.157 245.088 267.419C244.493 267.677 243.834 267.805 243.11 267.805C242.392 267.805 241.735 267.677 241.141 267.419C240.551 267.157 240.039 266.779 239.605 266.286C239.171 265.793 238.833 265.195 238.592 264.493C238.356 263.791 238.239 262.998 238.239 262.114V261.471C238.239 260.586 238.356 259.796 238.592 259.099C238.828 258.397 239.16 257.8 239.589 257.307C240.023 256.808 240.535 256.43 241.125 256.173C241.719 255.911 242.376 255.779 243.094 255.779C243.817 255.779 244.477 255.911 245.072 256.173C245.666 256.43 246.178 256.808 246.607 257.307C247.036 257.8 247.365 258.397 247.596 259.099C247.832 259.796 247.949 260.586 247.949 261.471ZM245.932 262.114V261.455C245.932 260.801 245.867 260.225 245.739 259.726C245.616 259.223 245.431 258.802 245.184 258.464C244.943 258.121 244.645 257.864 244.292 257.693C243.938 257.516 243.539 257.427 243.094 257.427C242.649 257.427 242.253 257.516 241.904 257.693C241.556 257.864 241.258 258.121 241.012 258.464C240.771 258.802 240.586 259.223 240.457 259.726C240.329 260.225 240.264 260.801 240.264 261.455V262.114C240.264 262.768 240.329 263.346 240.457 263.85C240.586 264.354 240.773 264.78 241.02 265.128C241.272 265.471 241.572 265.731 241.92 265.908C242.269 266.08 242.665 266.165 243.11 266.165C243.56 266.165 243.96 266.08 244.308 265.908C244.656 265.731 244.951 265.471 245.192 265.128C245.433 264.78 245.616 264.354 245.739 263.85C245.867 263.346 245.932 262.768 245.932 262.114ZM258.938 266.045V267.645H250.313V266.045H258.938ZM250.811 266.045V270.522H248.882L248.81 266.045H250.811ZM260.498 266.045L260.377 270.514H258.48V266.045H260.498ZM257.524 255.94V257.548H252.122V255.94H257.524ZM259.067 255.94V267.645H257.057V255.94H259.067ZM251.72 255.94H253.737L253.456 260.683C253.413 261.433 253.335 262.108 253.223 262.709C253.11 263.309 252.974 263.848 252.813 264.325C252.657 264.796 252.481 265.214 252.282 265.579C252.084 265.938 251.872 266.248 251.647 266.511C251.422 266.774 251.192 266.999 250.956 267.186C250.725 267.369 250.498 267.521 250.273 267.645H249.195V266.045H249.718C249.863 265.911 250.023 265.718 250.2 265.466C250.377 265.209 250.549 264.874 250.715 264.461C250.886 264.043 251.036 263.526 251.165 262.91C251.294 262.293 251.382 261.551 251.43 260.683L251.72 255.94ZM271.165 261.471V262.114C271.165 262.998 271.05 263.791 270.82 264.493C270.589 265.195 270.26 265.793 269.831 266.286C269.408 266.779 268.898 267.157 268.304 267.419C267.709 267.677 267.05 267.805 266.326 267.805C265.608 267.805 264.951 267.677 264.357 267.419C263.767 267.157 263.255 266.779 262.821 266.286C262.387 265.793 262.049 265.195 261.808 264.493C261.572 263.791 261.455 262.998 261.455 262.114V261.471C261.455 260.586 261.572 259.796 261.808 259.099C262.044 258.397 262.376 257.8 262.805 257.307C263.239 256.808 263.751 256.43 264.341 256.173C264.935 255.911 265.592 255.779 266.31 255.779C267.033 255.779 267.693 255.911 268.288 256.173C268.882 256.43 269.394 256.808 269.823 257.307C270.252 257.8 270.581 258.397 270.812 259.099C271.048 259.796 271.165 260.586 271.165 261.471ZM269.148 262.114V261.455C269.148 260.801 269.083 260.225 268.955 259.726C268.831 259.223 268.647 258.802 268.4 258.464C268.159 258.121 267.861 257.864 267.508 257.693C267.154 257.516 266.755 257.427 266.31 257.427C265.865 257.427 265.469 257.516 265.12 257.693C264.772 257.864 264.474 258.121 264.228 258.464C263.987 258.802 263.802 259.223 263.673 259.726C263.545 260.225 263.48 260.801 263.48 261.455V262.114C263.48 262.768 263.545 263.346 263.673 263.85C263.802 264.354 263.989 264.78 264.236 265.128C264.488 265.471 264.788 265.731 265.136 265.908C265.485 266.08 265.881 266.165 266.326 266.165C266.776 266.165 267.176 266.08 267.524 265.908C267.872 265.731 268.167 265.471 268.408 265.128C268.649 264.78 268.831 264.354 268.955 263.85C269.083 263.346 269.148 262.768 269.148 262.114ZM277.629 263.279H274.582V261.68H277.629C278.159 261.68 278.588 261.594 278.915 261.423C279.242 261.251 279.48 261.015 279.63 260.715C279.786 260.41 279.863 260.061 279.863 259.67C279.863 259.3 279.786 258.955 279.63 258.633C279.48 258.306 279.242 258.044 278.915 257.845C278.588 257.647 278.159 257.548 277.629 257.548H275.201V267.645H273.183V255.94H277.629C278.534 255.94 279.303 256.101 279.936 256.422C280.573 256.739 281.058 257.178 281.391 257.741C281.723 258.298 281.889 258.936 281.889 259.654C281.889 260.41 281.723 261.058 281.391 261.599C281.058 262.141 280.573 262.556 279.936 262.845C279.303 263.135 278.534 263.279 277.629 263.279ZM287.709 262.033H286.085V260.884H287.484C287.983 260.884 288.387 260.812 288.698 260.667C289.009 260.517 289.234 260.31 289.373 260.048C289.518 259.78 289.59 259.469 289.59 259.115C289.59 258.799 289.51 258.51 289.349 258.247C289.194 257.985 288.953 257.776 288.626 257.62C288.299 257.459 287.878 257.379 287.364 257.379C286.978 257.379 286.627 257.449 286.31 257.588C285.994 257.727 285.742 257.923 285.555 258.175C285.373 258.427 285.282 258.724 285.282 259.067H283.264C283.264 258.558 283.371 258.102 283.585 257.701C283.805 257.293 284.103 256.948 284.478 256.664C284.858 256.38 285.295 256.162 285.788 256.012C286.286 255.857 286.812 255.779 287.364 255.779C288.007 255.779 288.588 255.852 289.108 255.996C289.628 256.136 290.075 256.345 290.45 256.623C290.826 256.902 291.112 257.25 291.311 257.668C291.509 258.081 291.608 258.561 291.608 259.107C291.608 259.509 291.514 259.887 291.327 260.241C291.144 260.595 290.882 260.905 290.539 261.173C290.196 261.441 289.783 261.653 289.301 261.808C288.824 261.958 288.293 262.033 287.709 262.033ZM286.085 261.334H287.709C288.358 261.334 288.934 261.401 289.438 261.535C289.941 261.669 290.367 261.865 290.716 262.122C291.064 262.379 291.329 262.698 291.512 263.079C291.694 263.454 291.785 263.885 291.785 264.373C291.785 264.919 291.675 265.407 291.455 265.836C291.241 266.259 290.935 266.618 290.539 266.913C290.142 267.208 289.673 267.43 289.132 267.58C288.596 267.73 288.007 267.805 287.364 267.805C286.844 267.805 286.329 267.741 285.82 267.612C285.316 267.478 284.858 267.275 284.445 267.001C284.038 266.723 283.711 266.369 283.465 265.94C283.218 265.512 283.095 264.997 283.095 264.397H285.121C285.121 264.729 285.215 265.035 285.402 265.313C285.595 265.587 285.858 265.806 286.19 265.972C286.528 266.133 286.919 266.214 287.364 266.214C287.873 266.214 288.304 266.133 288.658 265.972C289.017 265.812 289.29 265.592 289.478 265.313C289.671 265.035 289.767 264.721 289.767 264.373C289.767 264.04 289.716 263.754 289.614 263.513C289.518 263.266 289.373 263.068 289.18 262.918C288.987 262.762 288.749 262.647 288.465 262.572C288.181 262.497 287.854 262.46 287.484 262.46H286.085V261.334ZM295.692 264.357L300.885 255.94H302.903V267.645H300.885V259.22L295.692 267.645H293.682V255.94H295.692V264.357ZM309.896 255.94V267.645H307.895V255.94H309.896ZM313.57 255.94V257.548H304.253V255.94H313.57ZM322.774 266.045V267.645H316.56V266.045H322.774ZM317.131 255.94V267.645H315.113V255.94H317.131ZM321.962 260.828V262.403H316.56V260.828H321.962ZM322.734 255.94V257.548H316.56V255.94H322.734ZM332.099 255.94V257.548H326.488V255.94H332.099ZM333.643 255.94V267.645H331.625V255.94H333.643ZM326.086 255.94H328.088L327.807 261.752C327.769 262.604 327.697 263.355 327.59 264.003C327.482 264.651 327.338 265.206 327.156 265.667C326.973 266.128 326.743 266.506 326.464 266.8C326.186 267.09 325.851 267.304 325.459 267.444C325.073 267.578 324.621 267.645 324.101 267.645H323.586V266.045L323.9 266.021C324.184 265.999 324.428 265.932 324.631 265.82C324.84 265.702 325.017 265.53 325.162 265.305C325.307 265.075 325.427 264.777 325.524 264.413C325.62 264.049 325.695 263.604 325.749 263.079C325.808 262.553 325.851 261.94 325.877 261.238L326.086 255.94ZM337.429 260.434H340.371C341.261 260.434 342.022 260.584 342.654 260.884C343.287 261.179 343.769 261.594 344.101 262.13C344.434 262.666 344.6 263.29 344.6 264.003C344.6 264.539 344.506 265.029 344.318 265.474C344.131 265.919 343.855 266.305 343.49 266.632C343.126 266.953 342.681 267.202 342.156 267.379C341.636 267.556 341.041 267.645 340.371 267.645H336.03V255.94H338.056V266.045H340.371C340.88 266.045 341.298 265.951 341.625 265.763C341.952 265.571 342.193 265.319 342.349 265.008C342.51 264.697 342.59 264.357 342.59 263.987C342.59 263.628 342.51 263.301 342.349 263.006C342.193 262.711 341.952 262.476 341.625 262.299C341.298 262.122 340.88 262.033 340.371 262.033H337.429V260.434ZM354.102 260.828V262.427H347.888V260.828H354.102ZM348.386 255.94V267.645H346.368V255.94H348.386ZM355.653 255.94V267.645H353.643V255.94H355.653ZM359.487 260.434H362.438C363.327 260.434 364.086 260.584 364.713 260.884C365.345 261.179 365.827 261.594 366.16 262.13C366.497 262.666 366.666 263.29 366.666 264.003C366.666 264.539 366.57 265.029 366.377 265.474C366.189 265.919 365.913 266.305 365.549 266.632C365.184 266.953 364.739 267.202 364.214 267.379C363.694 267.556 363.102 267.645 362.438 267.645H358.097V255.94H360.115V266.045H362.438C362.947 266.045 363.365 265.951 363.692 265.763C364.019 265.571 364.26 265.319 364.415 265.008C364.576 264.697 364.656 264.357 364.656 263.987C364.656 263.628 364.576 263.301 364.415 263.006C364.26 262.711 364.019 262.476 363.692 262.299C363.365 262.122 362.947 262.033 362.438 262.033H359.487V260.434ZM369.89 255.94V267.645H367.872V255.94H369.89ZM379.994 266.045V267.645H373.78V266.045H379.994ZM374.351 255.94V267.645H372.333V255.94H374.351ZM379.183 260.828V262.403H373.78V260.828H379.183ZM379.954 255.94V257.548H373.78V255.94H379.954Z" fill="#2C2C2C"/>
<circle cx="490.497" cy="185.127" r="50.0541" fill="#CCEBE0"/>
<path d="M490.523 220.703C470.967 220.703 455.113 204.849 455.113 185.293C455.113 165.737 470.967 149.884 490.523 149.884" stroke="#27C58B" stroke-width="29.2356"/>
<circle cx="490.5" cy="185.126" r="30.8025" fill="white"/>
<path d="M474.098 255.94V257.548H468.487V255.94H474.098ZM475.642 255.94V267.645H473.624V255.94H475.642ZM468.085 255.94H470.087L469.806 261.752C469.768 262.604 469.696 263.355 469.589 264.003C469.481 264.651 469.337 265.206 469.155 265.667C468.972 266.128 468.742 266.506 468.463 266.8C468.184 267.09 467.85 267.304 467.458 267.444C467.072 267.578 466.62 267.645 466.1 267.645H465.585V266.045L465.899 266.021C466.183 265.999 466.427 265.932 466.63 265.82C466.839 265.702 467.016 265.53 467.161 265.305C467.306 265.075 467.426 264.777 467.523 264.413C467.619 264.049 467.694 263.604 467.748 263.079C467.807 262.553 467.85 261.94 467.876 261.238L468.085 255.94ZM480.184 255.94V267.645H478.166V255.94H480.184ZM482.627 261.205V262.749H479.621V261.205H482.627ZM491.374 261.471V262.114C491.374 262.998 491.258 263.791 491.028 264.493C490.798 265.195 490.468 265.793 490.039 266.286C489.611 266.779 489.099 267.157 488.504 267.419C487.914 267.677 487.255 267.805 486.526 267.805C485.814 267.805 485.16 267.677 484.565 267.419C483.97 267.157 483.455 266.779 483.021 266.286C482.587 265.793 482.252 265.195 482.017 264.493C481.781 263.791 481.663 262.998 481.663 262.114V261.471C481.663 260.586 481.781 259.796 482.017 259.099C482.252 258.397 482.585 257.8 483.013 257.307C483.442 256.808 483.954 256.43 484.549 256.173C485.144 255.911 485.797 255.779 486.51 255.779C487.239 255.779 487.901 255.911 488.496 256.173C489.091 256.43 489.602 256.808 490.031 257.307C490.46 257.8 490.79 258.397 491.02 259.099C491.256 259.796 491.374 260.586 491.374 261.471ZM489.356 262.114V261.455C489.356 260.801 489.292 260.225 489.163 259.726C489.034 259.223 488.85 258.802 488.608 258.464C488.367 258.121 488.07 257.864 487.716 257.693C487.362 257.516 486.96 257.427 486.51 257.427C486.071 257.427 485.677 257.516 485.329 257.693C484.98 257.864 484.683 258.121 484.436 258.464C484.195 258.802 484.01 259.223 483.882 259.726C483.753 260.225 483.689 260.801 483.689 261.455V262.114C483.689 262.768 483.753 263.346 483.882 263.85C484.01 264.354 484.198 264.78 484.444 265.128C484.696 265.471 484.996 265.731 485.345 265.908C485.693 266.08 486.087 266.165 486.526 266.165C486.982 266.165 487.384 266.08 487.732 265.908C488.08 265.731 488.375 265.471 488.616 265.128C488.858 264.78 489.04 264.354 489.163 263.85C489.292 263.346 489.356 262.768 489.356 262.114ZM502.242 266.045V267.645H493.617V266.045H502.242ZM494.115 266.045V270.522H492.186L492.113 266.045H494.115ZM503.802 266.045L503.681 270.514H501.784V266.045H503.802ZM500.827 255.94V257.548H495.425V255.94H500.827ZM502.371 255.94V267.645H500.361V255.94H502.371ZM495.023 255.94H497.041L496.76 260.683C496.717 261.433 496.639 262.108 496.527 262.709C496.414 263.309 496.277 263.848 496.117 264.325C495.961 264.796 495.784 265.214 495.586 265.579C495.388 265.938 495.176 266.248 494.951 266.511C494.726 266.774 494.495 266.999 494.26 267.186C494.029 267.369 493.801 267.521 493.576 267.645H492.499V266.045H493.022C493.166 265.911 493.327 265.718 493.504 265.466C493.681 265.209 493.852 264.874 494.018 264.461C494.19 264.043 494.34 263.526 494.469 262.91C494.597 262.293 494.686 261.551 494.734 260.683L495.023 255.94ZM507.323 264.357L512.516 255.94H514.533V267.645H512.516V259.22L507.323 267.645H505.313V255.94H507.323V264.357Z" fill="#2C2C2C"/>
<g clip-path="url(#clip0_85_52)">
<path d="M351.816 92.2322H374.364V95.0238H351.816V92.2322ZM354.608 83.4279H357.4V90.8364H354.608V83.4279ZM358.903 77.7372H361.694V90.8364H358.903V77.7372ZM363.09 81.9247H365.882V90.729H363.09V81.9247ZM367.278 73.5498H370.069V90.8364H367.278V73.5498Z" fill="#6695E2"/>
</g>
<g clip-path="url(#clip1_85_52)">
<path d="M416.387 81.8172H414.025C413.38 77.6298 410.052 74.3013 405.865 73.6571V71.2949H402.858V73.6571C398.671 74.3013 395.342 77.6298 394.698 81.8172H392.229V84.8236H394.591C395.235 89.011 398.563 92.3395 402.751 92.9837V95.3458H405.757V92.9837C409.945 92.3395 413.273 89.011 413.917 84.8236H416.279V81.8172H416.387ZM410.911 81.8172H408.549C408.119 80.5288 407.046 79.4551 405.757 79.0256V76.6634C408.334 77.3076 410.267 79.2403 410.911 81.8172ZM404.254 84.8236C403.395 84.8236 402.751 84.1793 402.751 83.3204C402.751 82.4614 403.395 81.8172 404.254 81.8172C405.113 81.8172 405.757 82.4614 405.757 83.3204C405.757 84.1793 405.113 84.8236 404.254 84.8236ZM402.751 76.6634V79.0256C401.462 79.4551 400.389 80.5288 399.959 81.8172H397.597C398.241 79.2403 400.174 77.3076 402.751 76.6634ZM397.597 84.8236H399.959C400.389 86.112 401.462 87.0783 402.751 87.6152V89.9773C400.174 89.3331 398.241 87.4004 397.597 84.8236ZM405.757 89.9773V87.6152C407.046 87.1857 408.012 86.112 408.549 84.8236H410.911C410.267 87.4004 408.334 89.3331 405.757 89.9773Z" fill="#27C58B"/>
</g>
<g clip-path="url(#clip2_85_52)">
<path d="M437.04 78.7031V93.8423C437.04 94.7013 437.684 95.3455 438.543 95.3455H452.179C453.038 95.3455 453.682 94.7013 453.682 93.8423V78.7031H437.04ZM441.657 92.3391H440.154V81.7095H441.657V92.3391ZM444.663 92.3391H443.16V81.7095H444.663V92.3391ZM447.67 92.3391H446.167V81.7095H447.67V92.3391ZM450.676 92.3391H449.173V81.7095H450.676V92.3391Z" fill="#6695E2"/>
<path d="M454.106 74.0874H449.167V72.2621C449.167 71.6179 448.63 71.0811 447.986 71.0811H442.725C442.081 71.0811 441.651 71.6179 441.651 72.2621V74.0874H436.712C436.068 74.0874 435.531 74.6243 435.531 75.2685V77.2012H455.287V75.2685C455.287 74.6243 454.751 74.0874 454.106 74.0874ZM447.664 74.0874H443.155V72.5842H447.664V74.0874Z" fill="#6695E2"/>
</g>
<g clip-path="url(#clip3_85_52)">
<path d="M498.69 80.2081C498.69 79.4565 498.046 78.5976 493.429 77.846C492.463 74.947 490.745 72.3701 489.027 72.3701C487.953 72.3701 487.094 72.907 486.558 73.3364C486.128 72.907 485.269 72.3701 484.088 72.3701C482.37 72.3701 480.652 74.947 479.686 77.846C475.176 78.5976 474.425 79.4565 474.425 80.2081C474.425 81.3892 476.357 82.1408 478.72 82.5703C478.29 83.1071 477.968 83.9661 477.968 85.0398C477.968 86.7577 478.72 88.0462 479.686 88.0462C480.76 91.6967 483.444 94.0589 486.45 94.0589C489.457 94.0589 492.034 91.6967 493.215 88.0462C494.181 87.9388 494.932 86.7577 494.932 85.0398C494.932 83.9661 494.718 83.1071 494.181 82.5703C496.758 82.1408 498.69 81.3892 498.69 80.2081ZM492.034 84.0735C492.034 84.1808 492.034 84.2882 492.034 84.3956C492.034 85.8988 491.067 86.8651 489.564 86.8651C488.598 86.8651 487.309 86.4356 486.558 85.684C485.806 86.4356 484.518 86.8651 483.551 86.8651C482.048 86.8651 481.082 86.0061 481.082 84.3956C481.082 84.2882 481.082 84.1808 481.082 84.0735C481.082 83.644 480.974 83.1071 481.404 82.6777C481.833 82.2482 482.585 82.0334 484.088 82.0334C485.269 82.0334 486.021 82.1408 486.558 82.5703C486.987 82.2482 487.739 82.0334 489.027 82.0334C490.53 82.0334 491.282 82.2482 491.711 82.6777C492.034 83.1071 492.034 83.644 492.034 84.0735ZM492.463 78.1681C492.356 78.2755 491.175 79.5639 486.558 79.5639C481.941 79.5639 480.76 78.2755 480.652 78.1681C480.438 77.9534 480.438 77.5239 480.76 77.3091C480.974 77.0944 481.404 77.0944 481.619 77.4165C481.619 77.4165 482.692 78.3828 486.558 78.3828C490.53 78.3828 491.497 77.4165 491.497 77.4165C491.711 77.2018 492.141 77.2018 492.356 77.4165C492.678 77.5239 492.678 77.9534 492.463 78.1681Z" fill="#728A97"/>
</g>
<g clip-path="url(#clip4_85_52)">
<path d="M533.738 92.2329L534.812 91.1592L532.665 89.0118C533.631 87.9381 534.382 86.6497 534.812 85.3612C535.778 85.7907 536.745 86.1128 537.818 86.4349L538.14 85.0391C537.067 84.8244 536.1 84.3949 535.134 83.9654C535.134 83.7507 535.241 83.5359 535.241 83.4286C535.349 82.5696 535.349 81.818 535.134 81.0664C535.671 80.8517 536.208 80.5296 536.637 80.1001C537.281 79.4559 537.604 78.7043 537.711 77.9527H540.073V76.5569H537.711C537.604 75.8053 537.174 75.0537 536.637 74.4095C536.1 73.7653 535.241 73.4431 534.49 73.3358V70.9736H533.094V73.3358C532.342 73.4431 531.591 73.8726 530.947 74.4095C530.517 74.839 530.195 75.2684 529.98 75.9127C529.229 75.8053 528.477 75.6979 527.618 75.8053C527.403 75.8053 527.189 75.8053 527.081 75.9127C526.652 74.9463 526.33 73.98 526.008 72.9063L524.504 73.2284C524.719 74.3021 525.149 75.2684 525.578 76.2348C524.29 76.6642 523.001 77.4158 521.928 78.3822L519.78 76.2348L518.706 77.3085L520.854 79.4559C519.887 80.5296 519.136 81.818 518.706 83.1065C517.74 82.677 516.774 82.3549 515.7 82.0328L515.378 83.4286C516.452 83.6433 517.418 84.0728 518.384 84.5023C518.384 84.717 518.277 84.9317 518.277 85.0391C517.955 87.2939 518.706 89.4413 520.102 90.8371C521.605 92.3403 523.645 92.9845 525.9 92.6624C526.115 92.6624 526.33 92.6624 526.437 92.555C526.867 93.5214 527.189 94.4877 527.511 95.5614L528.907 95.2393C528.692 94.1656 528.262 93.1992 527.833 92.2329C529.121 91.8034 530.41 91.0518 531.483 90.0855L533.738 92.2329ZM526.974 75.8053C527.833 77.6306 528.907 79.1338 530.302 80.6369C531.698 82.0328 533.201 83.1065 535.134 83.9654L534.705 85.3612C532.665 84.5023 530.839 83.2138 529.229 81.6033C527.725 80.1001 526.437 78.1674 525.578 76.2348L526.974 75.8053ZM525.363 88.475V85.576H522.464V84.1802H525.363V81.2812H526.759V84.1802H529.658V85.576H526.759V88.475H525.363Z" fill="#E26666"/>
</g>
</g>
<defs>
<filter id="filter0_d_85_52" x="0.0731583" y="0.0731583" width="605.854" height="329.269" filterUnits="userSpaceOnUse" color-interpolation-filters="sRGB">
<feFlood flood-opacity="0" result="BackgroundImageFix"/>
<feColorMatrix in="SourceAlpha" type="matrix" values="0 0 0 0 0 0 0 0 0 0 0 0 0 0 0 0 0 0 127 0" result="hardAlpha"/>
<feOffset/>
<feGaussianBlur stdDeviation="16.4634"/>
<feComposite in2="hardAlpha" operator="out"/>
<feColorMatrix type="matrix" values="0 0 0 0 0.716146 0 0 0 0 0.869305 0 0 0 0 1 0 0 0 1 0"/>
<feBlend mode="normal" in2="BackgroundImageFix" result="effect1_dropShadow_85_52"/>
<feBlend mode="normal" in="SourceGraphic" in2="effect1_dropShadow_85_52" result="shape"/>
</filter>
<clipPath id="clip0_85_52">
<rect width="24.6951" height="24.6951" fill="white" transform="translate(350.744 70.8662)"/>
</clipPath>
<clipPath id="clip1_85_52">
<rect width="24.6951" height="24.6951" fill="white" transform="translate(391.902 70.8662)"/>
</clipPath>
<clipPath id="clip2_85_52">
<rect width="24.6951" height="24.6951" fill="white" transform="translate(433.061 70.8662)"/>
</clipPath>
<clipPath id="clip3_85_52">
<rect width="24.6951" height="24.6951" fill="white" transform="translate(474.22 70.8662)"/>
</clipPath>
<clipPath id="clip4_85_52">
<rect width="24.6951" height="24.6951" fill="white" transform="translate(515.378 70.8662)"/>
</clipPath>
</defs>
</svg>
