<svg width="30" height="30" viewBox="0 0 30 30" fill="none" xmlns="http://www.w3.org/2000/svg">
<path fill-rule="evenodd" clip-rule="evenodd" d="M30 15C30 23.2843 23.2843 30 15 30C6.71573 30 0 23.2843 0 15C0 6.71573 6.71573 0 15 0C23.2843 0 30 6.71573 30 15ZM10.0445 13.6287C8.54188 14.2848 6.99796 14.9589 5.5862 15.7365L5.5861 15.7366C4.84893 16.2764 5.82878 16.6581 6.74795 17.0162C6.89409 17.0732 7.03868 17.1295 7.1746 17.1858C7.28771 17.2205 7.40273 17.2572 7.51928 17.2943C8.54158 17.62 9.68151 17.9832 10.674 17.4369C12.3043 16.5003 13.8429 15.4175 15.3803 14.3356C15.884 13.9811 16.3876 13.6267 16.8942 13.2776C16.918 13.2624 16.9447 13.2451 16.974 13.2261C17.4056 12.9463 18.3763 12.3171 18.0173 13.1841C17.1682 14.1126 16.2588 14.9345 15.3444 15.7609C14.7282 16.3179 14.1098 16.8768 13.506 17.4718C12.9801 17.8991 12.4341 18.7583 13.0229 19.3566C14.3791 20.306 15.7564 21.2324 17.133 22.1582C17.581 22.4595 18.0289 22.7607 18.4759 23.0627C19.2336 23.6676 20.4176 23.1783 20.5842 22.2331C20.6583 21.7983 20.7326 21.3635 20.807 20.9287C21.218 18.5257 21.6291 16.122 21.9923 13.7112C22.0417 13.3331 22.0976 12.9549 22.1536 12.5766C22.2893 11.6597 22.4252 10.7416 22.4676 9.81972C22.3582 8.89976 21.2428 9.10204 20.622 9.3089C17.4312 10.523 14.2723 11.8271 11.126 13.1543C10.7695 13.3122 10.4082 13.4699 10.0445 13.6287Z" fill="#161616"/>
</svg>
