<svg width="30" height="30" viewBox="0 0 30 30" fill="none" xmlns="http://www.w3.org/2000/svg">
<path fill-rule="evenodd" clip-rule="evenodd" d="M0 15C0 23.2843 6.71573 30 15 30C23.2843 30 30 23.2843 30 15C30 6.71573 23.2843 0 15 0C6.71573 0 0 6.71573 0 15ZM24.4125 14.4267C24.4105 19.3434 20.4108 23.3441 15.4931 23.3461H15.4894C13.9966 23.3456 12.5298 22.971 11.227 22.2604L6.49867 23.5007L7.76405 18.8788C6.9835 17.5261 6.57278 15.9917 6.57345 14.4196C6.57541 9.50181 10.5767 5.50075 15.493 5.50075C17.8791 5.50178 20.1186 6.43066 21.8025 8.11663C23.4865 9.80251 24.4135 12.0435 24.4125 14.4267Z" fill="#161616"/>
<path fill-rule="evenodd" clip-rule="evenodd" d="M8.64285 21.3783L11.4487 20.6423L11.7194 20.803C12.8577 21.4784 14.1624 21.8358 15.4927 21.8363H15.4957C19.5818 21.8363 22.9075 18.5106 22.9091 14.4228C22.9099 12.4419 22.1395 10.5793 20.7398 9.178C19.3402 7.77669 17.4788 7.00459 15.4986 7.00391C11.4094 7.00391 8.08365 10.3293 8.08203 14.4168C8.08146 15.8176 8.4734 17.1818 9.21551 18.3622L9.39177 18.6426L8.64285 21.3783ZM19.6838 16.3423C19.8392 16.4174 19.9442 16.4681 19.989 16.5429C20.0447 16.6359 20.0447 17.0821 19.8591 17.6028C19.6733 18.1233 18.7829 18.5985 18.3547 18.6624C17.9708 18.7199 17.4849 18.7438 16.951 18.5741C16.6273 18.4714 16.2122 18.3343 15.6805 18.1047C13.5911 17.2025 12.1792 15.1775 11.9123 14.7948C11.8936 14.7679 11.8805 14.7492 11.8733 14.7395L11.8715 14.7371C11.7535 14.5797 10.9632 13.5253 10.9632 12.434C10.9632 11.4074 11.4675 10.8693 11.6996 10.6216C11.7155 10.6047 11.7302 10.589 11.7432 10.5747C11.9475 10.3516 12.189 10.2958 12.3376 10.2958C12.4861 10.2958 12.6349 10.2972 12.7647 10.3037C12.7807 10.3045 12.7974 10.3044 12.8146 10.3043C12.9445 10.3036 13.1064 10.3026 13.2661 10.6863C13.3276 10.834 13.4175 11.0529 13.5124 11.2838C13.7041 11.7506 13.916 12.2665 13.9533 12.3411C14.009 12.4527 14.0461 12.5828 13.9719 12.7316C13.9607 12.7539 13.9504 12.775 13.9405 12.7951C13.8847 12.909 13.8437 12.9928 13.749 13.1033C13.7118 13.1468 13.6733 13.1937 13.6348 13.2406C13.5581 13.3339 13.4815 13.4273 13.4147 13.4938C13.3031 13.6049 13.187 13.7255 13.317 13.9486C13.447 14.1718 13.8943 14.9016 14.5568 15.4925C15.269 16.1278 15.888 16.3963 16.2018 16.5324C16.263 16.559 16.3127 16.5805 16.3491 16.5987C16.5719 16.7103 16.7019 16.6916 16.8319 16.5429C16.9619 16.3942 17.389 15.8922 17.5376 15.6691C17.6861 15.446 17.8347 15.4832 18.039 15.5575C18.2433 15.632 19.339 16.1711 19.5619 16.2826C19.6054 16.3044 19.6461 16.3241 19.6838 16.3423Z" fill="#161616"/>
</svg>
